<svg id="Layer_1" data-name="Layer 1" xmlns="http://www.w3.org/2000/svg" viewBox="0 0 153.4006 168.9">
  <defs>
    <style>
      .cls-1 {
        fill: #c5ced3;
      }
    </style>
  </defs>
  <title>coffee</title>
  <g>
    <path class="cls-1" d="M134.6,98.1a28.7708,28.7708,0,0,0-16.8,5.4V83.7H10.1V157a22,22,0,0,0,22,22H95.7a22,22,0,0,0,22-22v-6.3a28.5421,28.5421,0,0,0,16.8,5.4A29,29,0,0,0,134.6,98.1Zm0,45.2a16.1,16.1,0,1,1,16.1-16.1A16.0895,16.0895,0,0,1,134.6,143.3Z" transform="translate(-10.1 -10.1)"/>
    <path class="cls-1" d="M35.2,68.3c-0.4-10,3.5-15.5,6.6-20,2.2-3.2,3.5-5.1,3.6-7.9,0.2-3.8-2.5-8.7-5.2-13.5-3-5.4-6.1-11-6.1-16.8h11c0,2.9,2.4,7.3,4.7,11.4C53,27.4,56.7,34,56.4,41c-0.3,6-3.1,10-5.5,13.6-2.6,3.8-4.9,7-4.6,13.3Z" transform="translate(-10.1 -10.1)"/>
    <path class="cls-1" d="M55.6,68.3c-0.4-10,3.5-15.5,6.6-20,2.2-3.2,3.5-5.1,3.6-7.9,0.2-3.8-2.5-8.7-5.2-13.5-3-5.4-6.1-11-6.1-16.8h11c0,2.9,2.4,7.3,4.7,11.4C73.4,27.4,77.1,34,76.8,41c-0.3,6-3.1,10-5.6,13.6-2.6,3.8-4.9,7-4.6,13.3Z" transform="translate(-10.1 -10.1)"/>
    <path class="cls-1" d="M77.3,68.3c-0.4-10,3.5-15.5,6.6-20,2.2-3.2,3.5-5.1,3.6-7.9,0.2-3.8-2.5-8.7-5.2-13.5-3-5.4-6.1-11-6.1-16.8h11c0,2.9,2.4,7.3,4.7,11.4C95.1,27.4,98.8,34,98.5,41c-0.3,6-3.1,10-5.6,13.6-2.6,3.8-4.9,7-4.6,13.3Z" transform="translate(-10.1 -10.1)"/>
  </g>
</svg>
