<?xml version="1.0" encoding="UTF-8" standalone="no"?>
<svg width="168px" height="168px" viewBox="0 0 168 168" version="1.1" xmlns="http://www.w3.org/2000/svg" xmlns:xlink="http://www.w3.org/1999/xlink">
    <!-- Generator: Sketch 43.1 (39012) - http://www.bohemiancoding.com/sketch -->
    <title>Group 2</title>
    <desc>Created with Sketch.</desc>
    <defs>
        <linearGradient x1="50%" y1="0%" x2="50%" y2="100%" id="linearGradient-1">
            <stop stop-color="#F8F8F8" offset="0%"></stop>
            <stop stop-color="#DCF4FA" offset="100%"></stop>
        </linearGradient>
    </defs>
    <g id="Page-1" stroke="none" stroke-width="1" fill="none" fill-rule="evenodd">
        <g id="Group-2">
            <g id="community_talks-copy">
                <g id="Oval-52-Copy">
                    <g id="path-2-link" fill="url(#linearGradient-1)">
                        <circle id="path-2" cx="84" cy="84" r="84"></circle>
                    </g>
                    <circle id="path-2" cx="84" cy="84" r="84"></circle>
                    <circle id="path-2" cx="84" cy="84" r="84"></circle>
                    <circle id="path-2" cx="84" cy="84" r="84"></circle>
                </g>
            </g>
            <g id="so-icon" transform="translate(47.000000, 33.000000)" fill-rule="nonzero">
                <polygon id="Shape" fill="#BCBBBB" points="62.4 79.8 62.4 56.6 70.1 56.6 70.1 87.5 0.6 87.5 0.6 56.6 8.3 56.6 8.3 79.8"></polygon>
                <path d="M16.8,54.4 L54.6,62.3 L56.2,54.7 L18.4,46.8 L16.8,54.4 Z M21.8,36.4 L56.8,52.7 L60,45.7 L25,29.3 L21.8,36.4 Z M31.5,19.2 L61.2,43.9 L66.1,38 L36.4,13.3 L31.5,19.2 Z M50.7,0.9 L44.5,5.5 L67.5,36.5 L73.7,31.9 L50.7,0.9 Z M16,72 L54.6,72 L54.6,64.3 L16,64.3 L16,72 Z" id="Shape" fill="#F48023"></path>
            </g>
        </g>
    </g>
</svg>