<svg id="Layer_1" data-name="Layer 1" xmlns="http://www.w3.org/2000/svg" xmlns:xlink="http://www.w3.org/1999/xlink" viewBox="0 0 168 168">
  <defs>
    <style>
      .cls-1 {
        fill: none;
      }

      .cls-2 {
        fill: url(#New_Gradient_Swatch_1);
      }

      .cls-3 {
        fill: #9cdaf1;
      }

      .cls-4 {
        clip-path: url(#clip-path);
      }

      .cls-5 {
        fill: #7dbbe6;
      }

      .cls-6 {
        fill: #f4cbb2;
      }

      .cls-7 {
        fill: #fff;
      }

      .cls-8 {
        fill: #ad5c51;
      }

      .cls-9 {
        fill: #c3e4d8;
      }
    </style>
    <linearGradient id="New_Gradient_Swatch_1" data-name="New Gradient Swatch 1" x1="84" y1="168" x2="84" gradientUnits="userSpaceOnUse">
      <stop offset="0" stop-color="#dcf4fa"/>
      <stop offset="0.4541" stop-color="#e5f5f9"/>
      <stop offset="1" stop-color="#f7f7f7"/>
    </linearGradient>
    <clipPath id="clip-path" transform="translate(-746.4972 -437.5322)">
      <path class="cls-1" d="M817.7624,577.9779a9.5057,9.5057,0,0,0,3.9979,6.1559l17.5052-.02c2.1177-1.4375,4.2828-4.16,4.2828-9.3027V561.6244a5.32,5.32,0,0,1,3.2631-4.35s1.7663-1.2238-.1366-1.9028c0,0-8.2925-.6825-8.2925,6.1167v10.06s0.3276,3.7083-1.631,5.2335V564.3658s0.1353-3.9421,2.1746-5.4377c0,0,1.3592-2.4465-1.631-1.7675,0,0-5.71.8155-5.9813,7.477l-0.1306,12.7563h-1.3725l-0.1294-12.7563c-0.2718-6.6615-5.9814-7.477-5.9814-7.477-2.9913-.679-1.631,1.7675-1.631,1.7675,2.0393,1.4956,2.1746,5.4377,2.1746,5.4377v12.5581c-1.96-1.3864-1.6309-5.376-1.6309-5.376v-10.06c0-6.7992-8.2926-6.1167-8.2926-6.1167-1.904.679-.1365,1.9028-0.1365,1.9028a5.32,5.32,0,0,1,3.2631,4.35V570.85Z"/>
    </clipPath>
  </defs>
  <title>community_github</title>
  <g>
    <circle class="cls-2" cx="84" cy="84" r="84"/>
    <g>
      <path class="cls-3" d="M861.518,558.8129c0,5.9137-13.6976,10.7069-30.5936,10.7069S800.33,564.7266,800.33,558.8129s13.697-10.7081,30.5945-10.7081,30.5936,4.7943,30.5936,10.7081h0Zm0,0" transform="translate(-746.4972 -437.5322)"/>
      <g class="cls-4">
        <path class="cls-5" d="M861.518,558.8129c0,5.9137-13.6976,10.7069-30.5936,10.7069S800.33,564.7266,800.33,558.8129s13.697-10.7081,30.5945-10.7081,30.5936,4.7943,30.5936,10.7081h0Zm0,0" transform="translate(-746.4972 -437.5322)"/>
      </g>
      <path class="cls-3" d="M795.9758,527.3284l-0.8831,3.0768a1.07,1.07,0,0,0,.8179,1.3093,1.0029,1.0029,0,0,0,.9283-1.3769l-0.863-3.0091h0Zm0,0" transform="translate(-746.4972 -437.5322)"/>
      <path d="M884.9165,514.428l0.0807-.4a104.2673,104.2673,0,0,0-23.757-1.5811,42.9439,42.9439,0,0,0,1.1905-11.3241,20.0137,20.0137,0,0,0-5.9819-14.619,18.969,18.969,0,0,0-.8629-12.6616s-4.1878-1.33-13.66,5.01a48.1978,48.1978,0,0,0-11.6153-1.3852,48.9763,48.9763,0,0,0-12.8495,1.679c-9.7763-6.67-14.0917-5.3039-14.0917-5.3039-2.8174,7.0437-1.0755,12.2592-.5461,13.5545a19.6281,19.6281,0,0,0-5.3327,13.7261,33.7016,33.7016,0,0,0,1.6553,11.3,103.5705,103.5705,0,0,0-23.1487,1.6049l0.08,0.4a103.2872,103.2872,0,0,1,23.2216-1.5906,20.5686,20.5686,0,0,0,.87,1.9811A104.7094,104.7094,0,0,0,776.177,518.25l0.111,0.3917A104.5956,104.5956,0,0,1,800.38,515.22c3.3,6.1511,9.806,10.1241,21.3806,11.3716a9.508,9.508,0,0,0-3.9979,6.1559c-2.2387,1.0707-9.3252,3.6845-13.5771-3.6287,0,0-2.38-4.3516-6.9351-4.6923,0,0-4.4193-.0676-0.3056,2.7539,0,0,2.9574,1.3935,4.9973,6.6295,0,0,2.6613,8.9311,15.5049,6.0656v9.2255a5.32,5.32,0,0,1-3.2631,4.35s-1.7675,1.2238.1365,1.9028c0,0,8.2926.68,8.2926-6.1167v-10.06s-0.3282-3.99,1.6309-5.376v16.5233s-0.1353,3.9421-2.1746,5.4378c0,0-1.36,2.4465,1.631,1.7675,0,0,5.71-.8155,5.9814-7.4771l0.13-16.7215h1.3719l0.1306,16.7215c0.2718,6.6616,5.9813,7.4771,5.9813,7.4771,2.99,0.679,1.631-1.7675,1.631-1.7675-2.0393-1.4957-2.1746-5.4378-2.1746-5.4378V533.9437c1.9586,1.5253,1.631,5.2335,1.631,5.2335v10.06c0,6.7969,8.2925,6.1167,8.2925,6.1167,1.9028-.679.1366-1.9028,0.1366-1.9028a5.32,5.32,0,0,1-3.2631-4.35V535.9142c0-5.1422-2.1651-7.8652-4.2828-9.3027,12.3438-1.2238,18.2671-5.21,20.9966-11.4025a104.9282,104.9282,0,0,1,24.4443,3.4328l0.11-.3917a105.2755,105.2755,0,0,0-24.3814-3.4447,20.4285,20.4285,0,0,0,.6849-1.9455,104.0164,104.0164,0,0,1,23.7962,1.5681h0Zm0,0" transform="translate(-746.4972 -437.5322)"/>
      <path class="cls-6" d="M850.357,500.8366c2.6589,2.4085,4.2139,5.3172,4.2139,8.4509,0,14.6318-10.9075,15.0283-24.3614,15.0283-13.4555,0-24.3624-2.0262-24.3624-15.0283a11.4556,11.4556,0,0,1,4.16-8.4022c4.38-3.9979,11.793-1.8809,20.2025-1.8809,8.3759,0,15.7615-2.1384,20.1475,1.8322h0Zm0,0" transform="translate(-746.4972 -437.5322)"/>
      <path class="cls-7" d="M822.1081,510.0336c0,4.03-2.27,7.2966-5.0686,7.2966s-5.07-3.2667-5.07-7.2966,2.27-7.2954,5.07-7.2954,5.0686,3.2655,5.0686,7.2954h0Zm0,0" transform="translate(-746.4972 -437.5322)"/>
      <path class="cls-8" d="M820.4818,510.125c0,2.6862-1.514,4.8632-3.3795,4.8632-1.8671,0-3.3794-2.177-3.3794-4.8632s1.5123-4.8656,3.3794-4.8656c1.8654,0,3.3795,2.1782,3.3795,4.8656h0Zm0,0" transform="translate(-746.4972 -437.5322)"/>
      <path class="cls-7" d="M849.303,510.0336c0,4.03-2.27,7.2966-5.07,7.2966s-5.0686-3.2667-5.0686-7.2966,2.27-7.2954,5.0686-7.2954,5.07,3.2655,5.07,7.2954h0Zm0,0" transform="translate(-746.4972 -437.5322)"/>
      <path class="cls-8" d="M847.6755,510.125c0,2.6862-1.5134,4.8632-3.3794,4.8632s-3.3795-2.177-3.3795-4.8632,1.5135-4.8656,3.3795-4.8656,3.3794,2.1782,3.3794,4.8656h0Zm0,0" transform="translate(-746.4972 -437.5322)"/>
      <path class="cls-8" d="M831.5487,516.5135a1.2679,1.2679,0,1,1-1.2681-1.2677,1.2676,1.2676,0,0,1,1.2681,1.2677h0Zm0,0" transform="translate(-746.4972 -437.5322)"/>
      <path class="cls-8" d="M827.3274,519.7184a0.4076,0.4076,0,0,1,.7686-0.2718,2.3054,2.3054,0,0,0,4.349,0,0.4073,0.4073,0,0,1,.768.2718,3.1207,3.1207,0,0,1-5.8855,0h0Zm0,0" transform="translate(-746.4972 -437.5322)"/>
      <path class="cls-9" d="M799.2223,525.5147a0.9442,0.9442,0,1,1-.8843-0.6125,0.7866,0.7866,0,0,1,.8843.6125h0Zm0,0" transform="translate(-746.4972 -437.5322)"/>
      <path class="cls-9" d="M801.67,526.8738a0.9449,0.9449,0,1,1-.8843-0.6113,0.7874,0.7874,0,0,1,.8843.6113h0Zm0,0" transform="translate(-746.4972 -437.5322)"/>
      <path class="cls-9" d="M803.1656,528.6425a0.9438,0.9438,0,1,1-.8843-0.6125,0.7872,0.7872,0,0,1,.8843.6125h0Zm0,0" transform="translate(-746.4972 -437.5322)"/>
      <path class="cls-9" d="M804.5247,530.6818a0.9438,0.9438,0,1,1-.8831-0.6125,0.786,0.786,0,0,1,.8831.6125h0Zm0,0" transform="translate(-746.4972 -437.5322)"/>
      <path class="cls-9" d="M806.021,532.5857a0.9442,0.9442,0,1,1-.8838-0.6125,0.787,0.787,0,0,1,.8838.6125h0Zm0,0" transform="translate(-746.4972 -437.5322)"/>
      <path class="cls-9" d="M808.0609,534.2167a0.9444,0.9444,0,1,1-.8843-0.6113,0.787,0.787,0,0,1,.8843.6113h0Zm0,0" transform="translate(-746.4972 -437.5322)"/>
      <path class="cls-9" d="M810.9162,535.3052a0.9442,0.9442,0,1,1-.8837-0.6125,0.7869,0.7869,0,0,1,.8837.6125h0Zm0,0" transform="translate(-746.4972 -437.5322)"/>
      <path class="cls-9" d="M813.758,535.3052a0.9442,0.9442,0,1,1-.8837-0.6125,0.7869,0.7869,0,0,1,.8837.6125h0Zm0,0" transform="translate(-746.4972 -437.5322)"/>
      <path class="cls-9" d="M816.6424,534.8316a0.9442,0.9442,0,1,1-.8837-0.6125,0.7867,0.7867,0,0,1,.8837.6125h0Zm0,0" transform="translate(-746.4972 -437.5322)"/>
    </g>
  </g>
</svg>
