<svg id="Layer_1" data-name="Layer 1" xmlns="http://www.w3.org/2000/svg" xmlns:xlink="http://www.w3.org/1999/xlink" viewBox="0 0 168 168">
  <defs>
    <style>
      .cls-1 {
        fill: url(#New_Gradient_Swatch_1);
      }

      .cls-2 {
        fill: #dfa22f;
      }

      .cls-3 {
        fill: #3cb187;
      }

      .cls-4 {
        fill: #ce1e5b;
      }

      .cls-5 {
        fill: #392538;
      }

      .cls-6 {
        fill: #bb242a;
      }

      .cls-7 {
        fill: #72c5cd;
      }

      .cls-8 {
        fill: #248c73;
      }

      .cls-9 {
        fill: #62803a;
      }
    </style>
    <linearGradient id="New_Gradient_Swatch_1" data-name="New Gradient Swatch 1" x1="84" y1="168" x2="84" gradientUnits="userSpaceOnUse">
      <stop offset="0" stop-color="#dcf4fa"/>
      <stop offset="0.4541" stop-color="#e5f5f9"/>
      <stop offset="1" stop-color="#f7f7f7"/>
    </linearGradient>
  </defs>
  <title>community_slack</title>
  <g>
    <circle class="cls-1" cx="84" cy="84" r="84"/>
    <g>
      <path class="cls-2" d="M846.1557,718.4135a7.7495,7.7495,0,1,0-14.74,4.7894l20.0391,61.6554A7.7513,7.7513,0,0,0,866.19,780.071c-0.05-.1541-20.0341-61.6575-20.0341-61.6575" transform="translate(-749.2363 -672.5564)"/>
      <path class="cls-3" d="M815.1054,728.5022a7.75,7.75,0,1,0-14.7412,4.79l20.0391,61.6554a7.7514,7.7514,0,0,0,14.7355-4.7879c-0.05-.1534-20.0334-61.6575-20.0334-61.6575" transform="translate(-749.2363 -672.5564)"/>
      <path class="cls-4" d="M871.3794,769.4764a7.75,7.75,0,0,0-4.7894-14.7412l-61.6554,20.04a7.7509,7.7509,0,0,0,4.7872,14.7347c0.1541-.05,61.6575-20.0334,61.6575-20.0334" transform="translate(-749.2363 -672.5564)"/>
      <path class="cls-5" d="M817.7847,786.89l14.7362-4.7879c-1.304-4.0132-2.9846-9.1864-4.7886-14.7376l-14.7369,4.79,4.7894,14.7354" transform="translate(-749.2363 -672.5564)"/>
      <path class="cls-6" d="M848.8357,776.801c5.5712-1.81,10.7493-3.4925,14.7362-4.7879-1.304-4.0132-2.9853-9.1878-4.7894-14.74l-14.7369,4.79,4.79,14.7383" transform="translate(-749.2363 -672.5564)"/>
      <path class="cls-7" d="M861.2906,738.4255a7.75,7.75,0,1,0-4.79-14.7412l-61.6554,20.04a7.7511,7.7511,0,0,0,4.7879,14.7347c0.1534-.05,61.6575-20.0334,61.6575-20.0334" transform="translate(-749.2363 -672.5564)"/>
      <path class="cls-8" d="M807.6931,755.84c4.0132-1.304,9.1871-2.9853,14.7383-4.7886-1.81-5.5719-3.4925-10.75-4.7879-14.7376l-14.74,4.7908,4.79,14.7355" transform="translate(-749.2363 -672.5564)"/>
      <path class="cls-9" d="M838.7434,745.7515c5.5726-1.81,10.7515-3.4932,14.739-4.7894-1.81-5.5726-3.4932-10.7522-4.7894-14.74l-14.74,4.7908,4.79,14.739" transform="translate(-749.2363 -672.5564)"/>
    </g>
  </g>
</svg>
