<svg id="Layer_1" data-name="Layer 1" xmlns="http://www.w3.org/2000/svg" xmlns:xlink="http://www.w3.org/1999/xlink" viewBox="0 0 168 168">
  <defs>
    <style>
      .cls-1 {
        fill: url(#New_Gradient_Swatch_1);
      }

      .cls-2 {
        fill: #ec7d1a;
      }

      .cls-3 {
        fill: #5283b0;
      }
    </style>
    <linearGradient id="New_Gradient_Swatch_1" data-name="New Gradient Swatch 1" x1="84" y1="168" x2="84" gradientUnits="userSpaceOnUse">
      <stop offset="0" stop-color="#dcf4fa"/>
      <stop offset="0.4541" stop-color="#e5f5f9"/>
      <stop offset="1" stop-color="#f7f7f7"/>
    </linearGradient>
  </defs>
  <title>community_tracker</title>
  <g>
    <circle class="cls-1" cx="84" cy="84" r="84"/>
    <g>
      <path class="cls-2" d="M814.2072,284.212l11.041,19.124a7.9169,7.9169,0,0,1,5.4073.4824l5.8051-10.0547-9.7026-16.8008-12.665,7.3145h0.0009Z" transform="translate(-743.3041 -227)"/>
      <path class="cls-2" d="M797.5607,308.9512H819.65a7.8111,7.8111,0,0,1,3.1152-4.4512l-5.8037-10.0507H797.5549v14.6269h0.0058v-0.125Z" transform="translate(-743.3041 -227)"/>
      <path class="cls-2" d="M834.17,314.961a7.886,7.886,0,0,1-2.3242,2.5273l5.8086,10.0586h19.4v-14.5H834.9567A8.0285,8.0285,0,0,1,834.17,314.961Z" transform="translate(-743.3041 -227)"/>
      <path class="cls-2" d="M832.902,305.3926a7.9144,7.9144,0,0,1,2.2969,4.9229h11.6055l9.7031-16.8028-12.5566-7.2519Z" transform="translate(-743.3041 -227)"/>
      <path class="cls-2" d="M810.6564,335.7374l11.0489-19.14a7.9585,7.9585,0,0,1-2.295-4.9131H807.799l-9.7031,16.794,12.6621,7.3183h0Z" transform="translate(-743.3041 -227)"/>
      <path class="cls-2" d="M840.404,337.7813l-11.04-19.125a7.8757,7.8757,0,0,1-5.41-.4795l-5.8066,10.0576,9.6972,16.7969,12.6656-7.3115h0Z" transform="translate(-743.3041 -227)"/>
      <path class="cls-3" d="M827.3078,271.5567a39.4429,39.4429,0,1,1-39.4424,39.4355,39.4348,39.4348,0,0,1,39.4424-39.4355m0-10.0117a49.4551,49.4551,0,1,0,49.45,49.4472,49.5087,49.5087,0,0,0-49.45-49.4472h0Z" transform="translate(-743.3041 -227)"/>
    </g>
  </g>
</svg>
