<?xml version="1.0" encoding="UTF-8" standalone="no"?>
<svg width="168px" height="168px" viewBox="0 0 168 168" version="1.1" xmlns="http://www.w3.org/2000/svg" xmlns:xlink="http://www.w3.org/1999/xlink">
    <!-- Generator: Sketch 3.6.1 (26313) - http://www.bohemiancoding.com/sketch -->
    <title>Group 8</title>
    <desc>Created with Sketch.</desc>
    <defs>
        <linearGradient x1="50%" y1="0%" x2="50%" y2="100%" id="linearGradient-1">
            <stop stop-color="#F8F8F8" offset="0%"></stop>
            <stop stop-color="#DCF4FA" offset="100%"></stop>
        </linearGradient>
        <circle id="path-2" cx="84" cy="84" r="84"></circle>
    </defs>
    <g id="Page-1" stroke="none" stroke-width="1" fill="none" fill-rule="evenodd">
        <g id="Community-Page-Copy-10" transform="translate(-652.000000, -812.000000)">
            <g id="Group-8" transform="translate(652.000000, 812.000000)">
                <g id="Oval-52">
                    <use fill="url(#linearGradient-1)" fill-rule="evenodd" xlink:href="#path-2"></use>
                    <use fill="none" xlink:href="#path-2"></use>
                    <use fill="none" xlink:href="#path-2"></use>
                    <use fill="none" xlink:href="#path-2"></use>
                    <use fill="none" xlink:href="#path-2"></use>
                </g>
                <g id="Group-4" transform="translate(43.000000, 51.000000)">
                    <g id="Group-3">
                        <g id="noun_221802_cc-copy-3">
                            <g id="Group">
                                <path d="M69.9292929,0.805353535 L6.85353535,0.805353535 C3.25252525,0.805353535 0.348484848,3.68161616 0.348484848,7.24818182 L0.348484848,50.0469697 C0.348484848,53.6135354 3.25252525,56.6048485 6.85353535,56.6048485 L69.9292929,56.6048485 C73.530303,56.6048485 76.5505051,53.7285859 76.5505051,50.0469697 L76.5505051,7.24818182 C76.4343434,3.79666667 73.530303,0.805353535 69.9292929,0.805353535 L69.9292929,0.805353535 Z" id="Shape" fill="#2772A4"></path>
                                <path d="M7.43434343,52.3479798 L7.31818182,52.3479798 L32.2929293,28.4174747 L37.7525253,32.6743434 C38.1010101,32.9044444 38.5656566,33.1345455 38.9141414,33.1345455 C39.2626263,33.1345455 39.7272727,33.0194949 40.0757576,32.6743434 L45.5353535,28.4174747 L70.510101,52.3479798 L70.3939394,52.3479798 L7.43434343,52.3479798 L7.43434343,52.3479798 Z" id="Path" fill="url(#linearGradient-1)"></path>
                                <path d="M7.31818182,4.25686869 L69.8131313,4.25686869 L38.5656566,28.9927273 L7.31818182,4.25686869 L7.31818182,4.25686869 Z" id="Path" fill="url(#linearGradient-1)"></path>
                                <path d="M3.83333333,49.5867677 L3.83333333,6.7879798 L3.83333333,6.55787879 L28.459596,26.0014141 L3.83333333,49.5867677 L3.83333333,49.5867677 Z" id="Path" fill="url(#linearGradient-1)"></path>
                                <path d="M47.9747475,26.0014141 L72.6010101,6.55787879 L72.6010101,6.7879798 L72.6010101,49.4717172 L47.9747475,26.0014141 L47.9747475,26.0014141 Z" id="Path" fill="url(#linearGradient-1)"></path>
                            </g>
                        </g>
                        <g id="Group-2" transform="translate(57.777778, 19.888889)" font-size="50" font-family="FontAwesome" fill="#5DADE2" font-weight="normal">
                            <text id="">
                                <tspan x="0" y="43"></tspan>
                            </text>
                        </g>
                    </g>
                    <path d="M66.6911552,35.9726216 C66.7134742,32.6588499 69.3886794,29.543407 72.6545985,29.0689752 C72.6545985,29.0689752 72.7744685,28.9606934 73.815579,28.9606934 C74.8566896,28.9606934 74.7821848,29.0355521 74.7821848,29.0355521 C78.0633911,29.4791209 80.7808182,32.5306246 80.8514065,35.8362223 L80.9794786,41.8337402 L66.6516791,41.8337402 L66.6911552,35.9726216 Z" id="Rectangle-393" fill="#EDF6F8"></path>
                </g>
            </g>
        </g>
    </g>
</svg>