<?xml version="1.0" encoding="UTF-8" standalone="no"?>
<svg width="168px" height="168px" viewBox="0 0 168 168" version="1.1" xmlns="http://www.w3.org/2000/svg" xmlns:xlink="http://www.w3.org/1999/xlink">
    <!-- Generator: Sketch 3.6.1 (26313) - http://www.bohemiancoding.com/sketch -->
    <title>Group 24</title>
    <desc>Created with Sketch.</desc>
    <defs>
        <linearGradient x1="50%" y1="0%" x2="50%" y2="100%" id="linearGradient-1">
            <stop stop-color="#F8F8F8" offset="0%"></stop>
            <stop stop-color="#DCF4FA" offset="100%"></stop>
        </linearGradient>
        <circle id="path-2" cx="84" cy="84" r="84"></circle>
    </defs>
    <g id="Page-1" stroke="none" stroke-width="1" fill="none" fill-rule="evenodd">
        <g id="Group-21">
            <g id="Group-7-Copy">
                <g id="Group-24">
                    <g id="Oval-52-Copy">
                        <use fill="url(#linearGradient-1)" fill-rule="evenodd" xlink:href="#path-2"></use>
                        <use fill="none" xlink:href="#path-2"></use>
                        <use fill="none" xlink:href="#path-2"></use>
                        <use fill="none" xlink:href="#path-2"></use>
                    </g>
                    <g id="Group-23" transform="translate(24.000000, 50.000000)">
                        <g id="Group-8">
                            <g id="Group-18">
                                <g id="Group-16">
                                    <g id="Group-13" transform="translate(6.511628, 34.850130)" fill="#5DADE2">
                                        <rect id="Rectangle-519" transform="translate(7.162791, 11.910804) rotate(30.000000) translate(-7.162791, -11.910804) " x="5.64341085" y="0.882281763" width="3.03875969" height="22.0570441" rx="3"></rect>
                                        <rect id="Rectangle-519" transform="translate(35.813953, 11.910804) scale(-1, 1) rotate(30.000000) translate(-35.813953, -11.910804) " x="34.2945736" y="0.882281763" width="3.03875969" height="22.0570441" rx="3"></rect>
                                        <rect id="Rectangle-519" transform="translate(21.067760, 11.028522) scale(-1, 1) translate(-21.067760, -11.028522) " x="19.5483797" y="0" width="3.03875969" height="22.0570441" rx="3"></rect>
                                    </g>
                                    <path d="M2.00010727,5.32907052e-14 C0.895478528,5.32907052e-14 7.60280727e-13,0.893077148 7.60280727e-13,2.003559 L7.60280727e-13,39.8286026 C7.60280727e-13,40.9351377 0.898054686,41.8321616 2.00010727,41.8321616 L53.7359079,41.8321616 C54.8405366,41.8321616 55.7360152,40.9390845 55.7360152,39.8286026 L55.7360152,2.003559 C55.7360152,0.897023919 54.8379605,5.32907052e-14 53.7359079,5.32907052e-14 L2.00010727,5.32907052e-14 Z" id="Shape" stroke="#5DADE2" stroke-width="4" fill="url(#linearGradient-1)"></path>
                                </g>
                                <g id="Group-6" transform="translate(15.000000, 12.000000)" stroke-width="3" stroke-linecap="round">
                                    <path d="M6.43832393,3.20567376 L1.00094911,8.7092987 C0.6118326,9.10315628 0.609414642,9.73927817 1.00094911,10.1355832 L6.43832393,15.6392079" id="Line" stroke="#2772A4"></path>
                                    <path d="M26.7804629,3.20567376 L21.3430881,8.7092987 C20.9539716,9.10315628 20.9515536,9.73927817 21.3430881,10.1355832 L26.7804629,15.6392079" id="Line" stroke="#2772A4" transform="translate(23.915403, 9.422441) scale(-1, 1) translate(-23.915403, -9.422441) "></path>
                                    <path d="M16.3076885,0.737588652 L12.0411899,18.6738742" id="Line" stroke="#5DADE2"></path>
                                </g>
                                <g id="Group-17-Copy" transform="translate(95.500000, 29.500000) scale(-1, 1) translate(-95.500000, -29.500000) translate(79.000000, 0.000000)" fill="#2772A4">
                                    <path d="M9.100817,9.19882569 C11.1611758,11.4522434 14.6740568,11.626927 16.9505693,9.58236999 C19.2247823,7.54236999 19.4003114,4.06464847 17.3376531,1.80743328 C15.2803603,-0.441427476 11.7674793,-0.616870514 9.4940328,1.42236999 C7.21675381,3.46616746 7.04352424,6.94616746 9.100817,9.19882569 L9.100817,9.19882569 Z" id="Shape"></path>
                                    <path d="M23.6131863,15.0731646 L13.9567875,13.0931646 C13.8517767,13.0650633 13.1067363,12.9351899 12.9105116,12.9283544 C12.1838672,12.9025316 11.4978475,13.0544304 10.8723814,13.3240506 L10.6600602,13.4288608 C10.289073,13.6111392 1.05961616,19.6901266 1.05961616,19.6901266 C0.181204272,20.2620253 -0.207412505,21.3405063 0.109153035,22.3346835 L3.53388629,30.984557 L6.78768948,29.9698734 L5.12284601,22.6141772 L7.91138218,20.7951899 L7.48597328,32.2202532 C7.47217623,32.5665823 7.50436934,32.903038 7.56492304,33.2303797 L7.55649151,44.3288608 L6.94942152,58.1607595 L11.6181884,58.5610127 L13.4217688,44.7177215 L13.4347993,44.4670886 L13.4378653,39.3336709 L14.9218142,43.7167089 L15.1824251,58.344557 L19.6365712,58.4805063 L20.8116196,43.3749367 C20.8208176,43.0270886 20.7702284,42.684557 20.6606186,42.3572152 L16.9246853,31.335443 L17.4037494,18.5562025 L24.3390642,19.9779747 C24.4977302,20.0098734 24.6579292,20.0265823 24.8150622,20.0265823 C25.649017,20.0265823 26.4369816,19.5837975 26.8585579,18.8448101 L32.1929611,8.45343229 C32.443822,7.96475711 32.2558633,7.34910111 31.7700451,7.07658817 L30.4345532,6.32746246 C29.9501222,6.05572764 29.3170304,6.20901396 29.0194189,6.67152192 L23.6131863,15.0731646 Z" id="Shape"></path>
                                </g>
                            </g>
                            <g id="noun_381704_cc" transform="translate(84.000000, 27.000000)" fill="#5DADE2">
                                <g id="Group">
                                    <g id="Shape">
                                        <path d="M36.9181416,1.0833915 C36.9181416,0.529233678 36.4787911,0.08 35.9137558,0.08 L1.08624424,0.08 C0.531537261,0.08 0.0818584071,0.523125076 0.0818584071,1.0833915 L0.0818584071,6.5166085 C0.0818584071,7.07076632 0.521032692,7.52 1.09024534,7.52 L6.18849558,7.52 L6.18849558,40.9010638 L30.7787611,40.9010638 L30.7787611,7.52 L35.9180801,7.52 C36.4703988,7.52 36.9181416,7.07687492 36.9181416,6.5166085 L36.9181416,1.0833915 Z"></path>
                                    </g>
                                </g>
                            </g>
                        </g>
                        <g id="Group-Copy" transform="translate(74.971989, 29.971989) scale(1, -1) rotate(-20.000000) translate(-74.971989, -29.971989) translate(67.971989, 22.971989)" fill="#5DADE2">
                            <circle id="Oval" cx="3.825" cy="3.542" r="3.542"></circle>
                            <path d="M5.707,8.379 L11.417,13.237 C11.649,13.468 12.006,13.486 12.216,13.276 L13.212,12.279 C13.422,12.07 13.404,11.713 13.173,11.481 L8.315,5.77 C8.085,5.539 7.728,5.521 7.518,5.731 L5.668,7.582 C5.458,7.791 5.476,8.148 5.707,8.379 L5.707,8.379 Z" id="Shape"></path>
                        </g>
                    </g>
                </g>
            </g>
        </g>
    </g>
</svg>