<svg id="Layer_1" data-name="Layer 1" xmlns="http://www.w3.org/2000/svg" viewBox="0 0 300 111.1832">
  <defs>
    <style>
      .cls-1 {
        fill: #fff;
      }
    </style>
  </defs>
  <title>concourse_white2</title>
  <g>
    <path class="cls-1" d="M1432.1655,173.4542a15.7461,15.7461,0,0,1,5.4927,3.6206l-2.7232,3.4968a13.8464,13.8464,0,0,0-9.9333-3.8681,12.0733,12.0733,0,0,0-6.1271,1.5472,10.8791,10.8791,0,0,0-4.2085,4.3478,14.2557,14.2557,0,0,0,0,12.7957,11.23,11.23,0,0,0,4.2085,4.3787,11.798,11.798,0,0,0,6.1271,1.5937,15.0185,15.0185,0,0,0,5.91-1.114,11.7446,11.7446,0,0,0,4.4251-3.2183l2.8469,3.0635a15.5987,15.5987,0,0,1-5.7093,4.2395,18.6956,18.6956,0,0,1-7.6589,1.5163,17.0942,17.0942,0,0,1-8.5718-2.12,15.0821,15.0821,0,0,1-5.8641-5.9569,17.8723,17.8723,0,0,1-2.12-8.7884,17.58,17.58,0,0,1,2.1507-8.7729,15.148,15.148,0,0,1,5.9878-5.9414,17.616,17.616,0,0,1,8.6646-2.12A18.8752,18.8752,0,0,1,1432.1655,173.4542Z" transform="translate(-1408.2605 -94.6703)"/>
    <path class="cls-1" d="M1466.5556,174.2742a15.1969,15.1969,0,0,1,6.0188,5.9569,17.3775,17.3775,0,0,1,2.1661,8.6955,17.5658,17.5658,0,0,1-2.1661,8.7884,15.4089,15.4089,0,0,1-6.0188,5.9878,18.8737,18.8737,0,0,1-17.4994,0,15.2746,15.2746,0,0,1-6.0188-5.9878,17.6663,17.6663,0,0,1-2.1507-8.7884,17.4529,17.4529,0,0,1,2.1507-8.711,15.094,15.094,0,0,1,6.0188-5.9414A19.1181,19.1181,0,0,1,1466.5556,174.2742Zm-14.9309,3.9455a10.97,10.97,0,0,0-4.27,4.3787,13.2057,13.2057,0,0,0-1.5163,6.39,13.3618,13.3618,0,0,0,1.5163,6.4365,11.0484,11.0484,0,0,0,4.27,4.41,12.8143,12.8143,0,0,0,12.378,0,11.0484,11.0484,0,0,0,4.27-4.41,13.3618,13.3618,0,0,0,1.5163-6.4365,13.1819,13.1819,0,0,0-1.5163-6.4056,10.9677,10.9677,0,0,0-4.2859-4.3632A12.894,12.894,0,0,0,1451.6247,178.22Z" transform="translate(-1408.2605 -94.6703)"/>
    <path class="cls-1" d="M1507.95,175.1029q3.3575,3.45,3.3575,9.5156v20.6093h-4.9512V185.9491a9.2613,9.2613,0,0,0-2.5065-6.9007,9.4356,9.4356,0,0,0-6.9317-2.4756,10.8187,10.8187,0,0,0-7.8291,2.9862,12.1435,12.1435,0,0,0-3.4039,7.7208v17.9481h-4.92v-33.39h4.92v7.334q3.4349-7.4268,12.935-7.52Q1504.5921,171.6525,1507.95,175.1029Z" transform="translate(-1408.2605 -94.6703)"/>
    <path class="cls-1" d="M1541.0951,173.0141a15.7461,15.7461,0,0,1,5.4927,3.6206l-2.7232,3.4968a13.8464,13.8464,0,0,0-9.9333-3.8681,12.0733,12.0733,0,0,0-6.1271,1.5472,10.8791,10.8791,0,0,0-4.2085,4.3478,14.2557,14.2557,0,0,0,0,12.7957,11.23,11.23,0,0,0,4.2085,4.3787,11.798,11.798,0,0,0,6.1271,1.5937,15.0185,15.0185,0,0,0,5.91-1.114,11.7446,11.7446,0,0,0,4.4251-3.2183l2.8469,3.0635a15.5987,15.5987,0,0,1-5.7093,4.2395,18.6956,18.6956,0,0,1-7.6589,1.5163,17.0942,17.0942,0,0,1-8.5718-2.12,15.0821,15.0821,0,0,1-5.8641-5.9569,17.8723,17.8723,0,0,1-2.12-8.7884,17.58,17.58,0,0,1,2.1507-8.7729,15.148,15.148,0,0,1,5.9878-5.9414,17.616,17.616,0,0,1,8.6646-2.12A18.8752,18.8752,0,0,1,1541.0951,173.0141Z" transform="translate(-1408.2605 -94.6703)"/>
    <path class="cls-1" d="M1575.0452,173.8341a15.1969,15.1969,0,0,1,6.0188,5.9569,17.3775,17.3775,0,0,1,2.1661,8.6955,17.5658,17.5658,0,0,1-2.1661,8.7884,15.4089,15.4089,0,0,1-6.0188,5.9878,18.8737,18.8737,0,0,1-17.4994,0,15.2746,15.2746,0,0,1-6.0188-5.9878,17.6663,17.6663,0,0,1-2.1507-8.7884,17.4529,17.4529,0,0,1,2.1507-8.711,15.094,15.094,0,0,1,6.0188-5.9414A19.1181,19.1181,0,0,1,1575.0452,173.8341Zm-14.9309,3.9455a10.97,10.97,0,0,0-4.27,4.3787,13.2057,13.2057,0,0,0-1.5163,6.39,13.3618,13.3618,0,0,0,1.5163,6.4365,11.0484,11.0484,0,0,0,4.27,4.41,12.8143,12.8143,0,0,0,12.378,0,11.0484,11.0484,0,0,0,4.27-4.41,13.3618,13.3618,0,0,0,1.5163-6.4365,13.1819,13.1819,0,0,0-1.5163-6.4056,10.9677,10.9677,0,0,0-4.2859-4.3632A12.894,12.894,0,0,0,1560.1142,177.78Z" transform="translate(-1408.2605 -94.6703)"/>
    <path class="cls-1" d="M1619.0678,205.2278h-4.92v-7.5506q-3.2183,7.6125-12.6874,7.7362-5.8176,0-9.1442-3.4813t-3.3266-9.5156V171.8382h4.92v19.2478a9.3277,9.3277,0,0,0,2.4756,6.9007,9.1575,9.1575,0,0,0,6.7769,2.4756,10.2609,10.2609,0,0,0,8.0612-3.45,12.9493,12.9493,0,0,0,2.9243-8.7729V171.8382h4.92v33.39Z" transform="translate(-1408.2605 -94.6703)"/>
    <path class="cls-1" d="M1635.74,173.6485a13.6218,13.6218,0,0,1,7.2721-1.9959v4.9821a11.5179,11.5179,0,0,0-8.3551,2.8934,11.9907,11.9907,0,0,0-3.6206,7.9683v17.7315h-4.92v-33.39h4.92v7.3958A12.6714,12.6714,0,0,1,1635.74,173.6485Z" transform="translate(-1408.2605 -94.6703)"/>
    <path class="cls-1" d="M1665.8015,172.4416a15.9613,15.9613,0,0,1,4.8584,2.2435l-1.8876,3.93a16.8694,16.8694,0,0,0-4.3632-1.9959,16.2642,16.2642,0,0,0-4.7036-.7272,9.1388,9.1388,0,0,0-4.781,1.0985,3.6324,3.6324,0,0,0-1.81,3.3266,3.445,3.445,0,0,0,1.0212,2.5375,7.8639,7.8639,0,0,0,2.5065,1.6556,35.0586,35.0586,0,0,0,4.1466,1.3771,40.5327,40.5327,0,0,1,5.6784,2.0424,10.34,10.34,0,0,1,3.7289,2.9552,7.8039,7.8039,0,0,1,1.5472,5.0286,8.0407,8.0407,0,0,1-3.5123,7.1019,15.092,15.092,0,0,1-8.711,2.3982,20.53,20.53,0,0,1-7.04-1.2378,16.6127,16.6127,0,0,1-5.7712-3.4349l1.9186-3.7443a15.5866,15.5866,0,0,0,5.1059,3.0945,16.662,16.662,0,0,0,5.9724,1.145,9.6475,9.6475,0,0,0,5.1523-1.2378,4.0288,4.0288,0,0,0,1.9959-3.6515,3.8872,3.8872,0,0,0-1.9186-3.5741,25.706,25.706,0,0,0-5.91-2.3054,47.6021,47.6021,0,0,1-5.5546-2.0269,9.7227,9.7227,0,0,1-3.5587-2.816,7.5537,7.5537,0,0,1-1.5008-4.8738,7.74,7.74,0,0,1,3.2956-6.8234,14.297,14.297,0,0,1,8.3087-2.2745A21.125,21.125,0,0,1,1665.8015,172.4416Z" transform="translate(-1408.2605 -94.6703)"/>
    <path class="cls-1" d="M1704.634,176.7429q3.9919,5.0286,3.59,13.7241h-27.2316a11.8775,11.8775,0,0,0,3.9145,7.7672,11.9984,11.9984,0,0,0,8.1849,2.8779,14.89,14.89,0,0,0,5.7248-1.0831,13.75,13.75,0,0,0,4.6108-3.0945l2.7232,2.9088a16.4039,16.4039,0,0,1-5.8641,4.1157,19.2839,19.2839,0,0,1-7.566,1.4544,17.3938,17.3938,0,0,1-8.6646-2.12,14.8168,14.8168,0,0,1-5.8641-5.9569,18.0851,18.0851,0,0,1-2.0888-8.7884,17.7842,17.7842,0,0,1,2.12-8.7729,14.9943,14.9943,0,0,1,5.926-5.9414,17.4409,17.4409,0,0,1,8.6336-2.12Q1700.6421,171.7144,1704.634,176.7429Zm-4.1,2.0269a11.0784,11.0784,0,0,0-7.8755-2.816,11.4407,11.4407,0,0,0-7.9374,2.8469,11.6415,11.6415,0,0,0-3.7289,7.6125h22.8064A10.7475,10.7475,0,0,0,1700.5338,178.77Z" transform="translate(-1408.2605 -94.6703)"/>
  </g>
  <g>
    <circle class="cls-1" cx="1562.1427" cy="125.2411" r="4.1002" transform="translate(-1413.2658 35.2958) rotate(-4.7565)"/>
    <path class="cls-1" d="M1567.26,129.27a8.7126,8.7126,0,0,1-3.2016,2.2327l-0.0095.0275a37.1886,37.1886,0,0,0,4.3053,10.1077,15.6851,15.6851,0,0,1-5.4154,1.7133l-0.2678.0341-0.3182.0246-0.6379.0488c-0.3916,0-.7751.0359-1.1853,0.0121a16.3157,16.3157,0,0,1-4.7439-.81,15.8177,15.8177,0,0,1-2.0922-.8376,16.7655,16.7655,0,0,1-1.78-.9908,15.969,15.969,0,0,1-1.41-1.01c-0.4152-.3132-0.74-0.6289-1.0227-0.8758-0.54-.5179-0.837-0.8308-0.837-0.8308s0.25,0.3479.72,0.94c0.2476,0.2843.5328,0.6478,0.9079,1.02a16.3752,16.3752,0,0,0,1.2956,1.2238,17.495,17.495,0,0,0,1.6988,1.2742,16.86,16.86,0,0,0,2.078,1.18,18.0546,18.0546,0,0,0,2.395.9551,18.307,18.307,0,0,0,2.6152.6171c0.4411,0.0857.918,0.1141,1.3786,0.1707l0.6406,0.038,0.3186,0.0186,0.3659,0.0059a18.3981,18.3981,0,0,0,2.6489-.1647,18.6553,18.6553,0,0,0,4.3916-1.1624q0.8061,1.0964,1.6925,2.1322l-0.0817.0506-0.7052.4363-0.0972.06-0.0246.0152-0.0062.0038c-0.1185.0591,0.1547-.0762,0.1242-0.0611l-0.0129.0066-0.0522.0265-0.2139.1086-0.4511.2292-0.2368.12-0.1211.0616-0.0613.0311-0.0153.0078-0.0078.0039c-0.0213.0091,0.1586-.065,0.0786-0.032l-0.0317.0139-0.5232.23-0.5507.242-0.0706.0311-0.0089.0039c0.1222-.0434.0288-0.01,0.0535-0.0188l-0.018.0071-0.0362.0142-0.1458.057-0.2967.1159a21.5329,21.5329,0,0,1-8.4492,1.425l-0.3748-.0135-0.4234-.0335-0.8492-.068c-0.5268-.0833-1.0535-0.12-1.594-0.238a22.01,22.01,0,0,1-6.1361-2.0786c-0.468-.2341-0.9206-0.48-1.3491-0.7472-0.4411-.2482-0.8465-0.531-1.2465-0.8015a22.4949,22.4949,0,0,1-2.1456-1.6817,21.3539,21.3539,0,0,1-1.65-1.6262c-0.4819-.499-0.8449-0.9828-1.1651-1.3662-0.3115-.39-0.527-0.7184-0.6883-0.9328l-0.2408-.3337s0.0715,0.1238.2053,0.356c0.1385,0.2293.3209,0.58,0.5927,1.0026,0.2805,0.4156.5973,0.9411,1.0311,1.4935a21.8188,21.8188,0,0,0,1.507,1.8221,23.2246,23.2246,0,0,0,2.026,1.9511c0.3839,0.3213.7757,0.6578,1.2064,0.9623,0.4182,0.3232.8633,0.6281,1.3275,0.9232a23.8513,23.8513,0,0,0,2.9793,1.6395,24.1188,24.1188,0,0,0,3.3146,1.2309c0.5627,0.184,1.1729.2968,1.76,0.4459l0.84,0.1543,0.4178,0.0764,0.4666,0.0667a24.1365,24.1365,0,0,0,3.47.2164,24.48,24.48,0,0,0,6.1631-.8608l0.3069-.0852,0.1509-.0419,0.2108-.0672,0.5725-.1847,0.5436-.1755,0.5905-.2277,0.472-.1821,0.2239-.0864,0.0546-.0211,0.0135-.0052,0.1436-.071,0.026-.0127,0.1027-.05,0.746-.3623,0.9321-.4528c0.6333,0.6061,1.286,1.194,1.9633,1.7563,0,0,3.2264,3.3223,5.0035,1.9559,1.6708-1.2847-.254-5.3118-0.254-5.3118A37.319,37.319,0,0,0,1567.26,129.27Z" transform="translate(-1408.2605 -94.6703)"/>
    <path class="cls-1" d="M1556.0054,123.8092l-0.0188-.0223a37.1879,37.1879,0,0,0-10.7844-1.5172,15.6664,15.6664,0,0,1,1.43-5.7361l0.1129-.2452,0.1476-.2829,0.2965-.5669c0.2073-.3321.38-0.6765,0.6177-1.0118a16.3127,16.3127,0,0,1,3.2-3.5942,15.8185,15.8185,0,0,1,1.8188-1.3308,16.7888,16.7888,0,0,1,1.7833-.9847,15.9575,15.9575,0,0,1,1.6038-.6613c0.4855-.1862.9257-0.2947,1.2847-0.4034,0.7251-.1834,1.148-0.27,1.148-0.27s-0.4278.0282-1.1789,0.1126c-0.3723.0593-.8316,0.1086-1.3464,0.2292a16.4154,16.4154,0,0,0-1.7243.4506,17.5157,17.5157,0,0,0-1.9808.7659,16.8534,16.8534,0,0,0-2.1015,1.1374,18.0432,18.0432,0,0,0-2.0788,1.5252,18.3036,18.3036,0,0,0-1.9089,1.8911c-0.3066.3287-.5831,0.7182-0.8751,1.0789l-0.3717.5232-0.1844.26-0.199.3072a18.3973,18.3973,0,0,0-1.2636,2.3339,18.6857,18.6857,0,0,0-1.3848,4.562l-0.0106.0635q-1.3347.1224-2.6589,0.3415c0.0007-.1436.0013-0.2953,0.002-0.4639,0.0011-.25.0024-0.5275,0.0036-0.8292l0.0005-.1143v-0.0362c0.0127-.1319-0.0173.1715-0.0138,0.1376l0.0013-.0145,0.0051-.0583,0.0213-.239q0.0213-.2434.0444-0.504c0.0078-.0868.0155-0.175,0.0235-0.2646l0.012-.1354,0.006-.0684,0.0015-.0172,0.0009-.0086c0.0035-.0229-0.0289.1688-0.0146,0.0836l0.0049-.0343q0.04-.2749.0823-0.5654t0.0865-.5952l0.0111-.0765,0.0015-.01c-0.028.1265-.0067,0.03-0.0126,0.0554l0.0036-.0191,0.0071-.0382,0.0289-.154,0.059-.313a21.5311,21.5311,0,0,1,3.2675-7.9211l0.21-.3108,0.2527-.3413,0.5075-.6843c0.35-.4026.66-0.83,1.0464-1.2259a22.0171,22.0171,0,0,1,5.0137-4.1031c0.4466-.2729.8949-0.5263,1.3484-0.7484,0.4444-.2427.8989-0.4367,1.34-0.6327a22.502,22.502,0,0,1,2.5628-.9287,21.35,21.35,0,0,1,2.2537-.5383c0.6785-.1443,1.281-0.1959,1.776-0.2644,0.4957-.0576.8884-0.0663,1.1556-0.09l0.4107-.0274-0.4107-.0144c-0.268-.004-0.6625-0.0354-1.1643-0.0286-0.5012.0178-1.1147,0.0081-1.813,0.0834a21.8161,21.8161,0,0,0-2.3438.3128,23.2379,23.2379,0,0,0-2.7281.6846c-0.4759.1555-.9688,0.3095-1.4553,0.5134-0.4957.1834-.99,0.3993-1.4862,0.6368a23.84,23.84,0,0,0-2.9688,1.6582,24.1334,24.1334,0,0,0-2.8,2.1592c-0.454.38-.8731,0.8375-1.3105,1.2566l-0.5758.6306-0.2862.3139-0.3036.36a24.1179,24.1179,0,0,0-2.0218,2.828,24.4739,24.4739,0,0,0-2.535,5.6832l-0.09.3054-0.0444.15-0.0546.2144-0.1467.5834-0.1393.5541q-0.0614.32-.12,0.6215l-0.0956.4968q-0.0232.12-.0453,0.2356l-0.0111.0575-0.0027.0143-0.0158.1593-0.0031.0288-0.012.1136c-0.032.3-.0613,0.5756-0.0879,0.8246-0.0806.7564-.1347,1.2648-0.1562,1.4663-0.8582.2331-1.71,0.4933-2.5532,0.7884,0,0-4.51,1.0539-4.2538,3.281,0.24,2.0939,4.6836,2.5187,4.6836,2.5187a37.32,37.32,0,0,0,22.7318-2.4556A8.7087,8.7087,0,0,1,1556.0054,123.8092Z" transform="translate(-1408.2605 -94.6703)"/>
    <path class="cls-1" d="M1587.7628,121.39a24.1411,24.1411,0,0,0-.5571-3.4918c-0.1163-.58-0.318-1.1673-0.4768-1.752l-0.2783-.8073-0.1389-.4014-0.1711-.4391a24.1131,24.1131,0,0,0-1.5168-3.128,24.4813,24.4813,0,0,0-3.7785-4.9444l-0.225-.2254-0.1107-.1109-0.1622-.1506-0.4422-.4078-0.42-.3873-0.4886-.4024-0.3907-.3216-0.1851-.1525-0.0451-.0372-0.0113-.0092-0.1323-.09-0.0238-.0165-0.0939-.065-0.6821-.4715c-0.3888-.2688-0.6958-0.4809-0.9148-0.6324q0.3542-1.41.5991-2.8506s1.259-4.4567-.8139-5.31c-1.9488-.8025-4.47,2.8808-4.47,2.8808a37.3207,37.3207,0,0,0-8.8471,21.0831,8.7115,8.7115,0,0,1,3.5362,1.6523l0.0286-.0055a37.185,37.185,0,0,0,6.4138-8.4647,15.665,15.665,0,0,1,4.2578,3.9395l0.1613,0.2165,0.1779,0.2649,0.3559,0.5315c0.1926,0.341.4123,0.6575,0.5933,1.0265a16.3108,16.3108,0,0,1,1.6258,4.53,15.8452,15.8452,0,0,1,.2989,2.2338,16.8009,16.8009,0,0,1,.0118,2.0371,15.9849,15.9849,0,0,1-.1862,1.7247c-0.0688.5155-.1839,0.9539-0.26,1.3211-0.1859.7245-.3122,1.1373-0.3122,1.1373s0.18-.3892.4649-1.0892c0.126-.3553.3024-0.7823,0.4427-1.2921a16.3788,16.3788,0,0,0,.4289-1.73,17.4911,17.4911,0,0,0,.2749-2.1058,16.8735,16.8735,0,0,0,.0062-2.39,18.0452,18.0452,0,0,0-.3453-2.5551,18.2829,18.2829,0,0,0-.7478-2.5809c-0.142-.4264-0.3519-0.8557-0.5288-1.2846l-0.2818-.5766-0.14-.2865-0.1746-.3216a18.4144,18.4144,0,0,0-1.4452-2.226,18.6822,18.6822,0,0,0-3.272-3.3379q0.57-1.2709,1.044-2.5827l0.1416,0.0779,0.7265,0.4,0.1,0.0551,0.0255,0.0139,0.0064,0.0035c0.11,0.0742-.1424-0.0972-0.1143-0.0781l0.0122,0.0081,0.0488,0.0324,0.2,0.1328,0.4212,0.28,0.2212,0.1471,0.1132,0.0752,0.0572,0.038,0.0144,0.01,0.0073,0.0048c0.0184,0.0141-.1345-0.1061-0.0666-0.0527l0.0279,0.0208,0.4571,0.3426,0.4815,0.3607,0.0617,0.0463,0.0078,0.0058c-0.0978-.0851-0.0228-0.02-0.0428-0.0375l0.0151,0.0122,0.03,0.0246,0.1212,0.099,0.2468,0.2013a21.5332,21.5332,0,0,1,5.3936,6.6581l0.1724,0.3331,0.1789,0.3852,0.3583,0.773c0.1862,0.5.4134,0.9764,0.576,1.5053a22.01,22.01,0,0,1,1.2055,6.3655c0.0262,0.5227.0342,1.0377,0.0124,1.5421,0.0005,0.5062-.0464.9982-0.0854,1.4795a22.4933,22.4933,0,0,1-.41,2.695,21.33,21.33,0,0,1-.6051,2.2366c-0.1977.6649-.4405,1.2188-0.6171,1.6861-0.1866.4629-.3668,0.812-0.474,1.0579-0.1125.2437-.1724,0.3737-0.1724,0.3737s0.0728-.1231.2092-0.3538c0.1316-.2333.3479-0.5647,0.582-1.0088,0.2239-.4486.5259-0.9828,0.7937-1.6321a21.789,21.789,0,0,0,.8463-2.2079,23.223,23.223,0,0,0,.7034-2.7233c0.0912-.4923.1917-0.9989,0.2452-1.5236,0.0761-.523.1229-1.0605,0.1516-1.61A23.8612,23.8612,0,0,0,1587.7628,121.39Z" transform="translate(-1408.2605 -94.6703)"/>
  </g>
</svg>
