<?xml version="1.0" encoding="UTF-8" standalone="no"?>
<svg width="505px" height="177px" viewBox="0 0 505 177" version="1.1" xmlns="http://www.w3.org/2000/svg" xmlns:xlink="http://www.w3.org/1999/xlink" xmlns:sketch="http://www.bohemiancoding.com/sketch/ns">
    <!-- Generator: Sketch 3.4.4 (17249) - http://www.bohemiancoding.com/sketch -->
    <title>Line Copy 7 + Page 1 Copy</title>
    <desc>Created with Sketch.</desc>
    <defs></defs>
    <g id="Page-1" stroke="none" stroke-width="1" fill="none" fill-rule="evenodd" sketch:type="MSPage">
        <g id="Line-Copy-7-+-Page-1-Copy" sketch:type="MSLayerGroup" transform="translate(1.000000, 1.000000)">
            <path d="M8.07811201,174.895071 C8.07811201,174.895071 -28.0848188,19.7532027 52.6171745,2.62693289 C133.319168,-14.4993369 154.398425,77.4436858 241.367175,111.008901 C328.335925,144.574117 368.023425,61.5016855 447.503893,113.415241" id="Line-Copy-7" stroke="#C5CED3" stroke-width="2" stroke-linecap="round" stroke-dasharray="4,10" sketch:type="MSShapeGroup" transform="translate(223.751947, 87.707857) scale(1, -1) translate(-223.751947, -87.707857) "></path>
            <g id="Page-1-Copy" transform="translate(452.000000, 48.000000)" sketch:type="MSShapeGroup">
                <g id="Page-1">
                    <path d="M9.61810909,0.661658824 L0.36289697,3.95327647 L2.54059394,13.5565412 L0.36289697,23.7069529 L9.61810909,27.0001588 L51.9004121,13.4652176 L9.61810909,0.661658824 Z" id="Fill-1" fill="#3381E8"></path>
                    <path d="M2.54067273,13.4956324 L0.362975758,23.7071912 L9.61818788,26.9996029 L51.9004909,13.4646618 L2.54067273,13.4956324 Z" id="Fill-2" fill="#38C4E3"></path>
                    <path d="M0,13.5106412 L2.05636364,15.7055824 L51.7187273,13.4955529 L2.02642424,11.2553471 L0,13.5106412 Z" id="Fill-3" fill="#35BD51"></path>
                </g>
            </g>
        </g>
    </g>
</svg>