<svg id="Layer_1" data-name="Layer 1" xmlns="http://www.w3.org/2000/svg" xmlns:xlink="http://www.w3.org/1999/xlink" viewBox="0 0 260.4258 250"><defs><style>.cls-1{fill:#d6f3f8;}.cls-2{fill:#38c4e3;}.cls-3{clip-path:url(#clip-path);}.cls-4{fill:#bcbec0;}.cls-5{fill:#fff;}.cls-6{clip-path:url(#clip-path-2);}.cls-7{fill:#3381e8;}.cls-8{fill:#35bd51;}</style><clipPath id="clip-path"><circle class="cls-1" cx="130.3278" cy="125" r="125"/></clipPath><clipPath id="clip-path-2"><path class="cls-2" d="M153.7062,63.51c-0.03,0-.78.0027-0.78,0.0027V63.4986l-14.2145-.0345-7.3778-24.2226-3.76-2.57-2.8477-.0068,3.82,26.7749-18.4911-.0429-4.3272-7.1517-6.4714-.015,3.2934,11.1692-3.341,11.153,6.4775,0.015,4.3713-7.1308,18.4961,0.0429L124.67,98.115l2.9343,0.0068,3.9449-2.5514,7.1149-24.0669,14.2618,0.0346V71.5221l0.7711,0.0033c3.1676,0.0073,5.735-1.781,5.74-3.9943S156.8738,63.5175,153.7062,63.51Z"/></clipPath></defs><title>value_prop</title><circle class="cls-1" cx="130.3278" cy="125" r="125"/><g class="cls-3"><path class="cls-1" d="M158.9371,38.3383c0.808-4.539,5.5869-7.14,9.9773-8.5473,4.0991-1.3137,8.6542-2.1475,12.6317-.5017s6.7953,6.6138,4.7868,10.421c3.0534-1.3621,6.2246-2.75,9.5679-2.7294s6.9213,1.8589,7.8677,5.0656c1.2608,4.2719-2.5727,8.4256-6.615,10.296,2.9183,0.4658,4.6931,3.9458,3.96,6.8088s-3.3764,4.9381-6.2194,5.7445a20.9764,20.9764,0,0,1-8.7962.1086c-4.2031-.6273-8.5921-1.7288-11.5989-4.7319a24.2577,24.2577,0,0,1-13.049,4.1945c-3.2031.0724-6.6864-.6481-8.7676-3.084s-1.7974-6.9042,1.1326-8.2c-4.7484.306-10.5385-1.21-11.8256-5.791-0.9668-3.4407,1.2694-7.1332,4.314-9.005s6.7181-2.3423,10.2664-2.7705c1.618-.1952,4.0481.5635,3.4406,2.0757l-0.5373-2.5864"/></g><path class="cls-4" d="M7.7847,113.7542A16.3577,16.3577,0,0,1,7.5635,111h2a12.9281,12.9281,0,0,0,.1938,2.3756Z"/><path class="cls-4" d="M140.7529,177.9492l-0.0967-1.998c1.1016-.0527,2.2529-0.1484,3.4224-0.2822q0.72-.0835,1.44-0.1826l0.2744,1.98q-0.7412.1025-1.4849,0.1885C143.0942,177.7949,141.8984,177.8936,140.7529,177.9492Zm-7.1318-.2539a26.8657,26.8657,0,0,1-5.0312-1.1445l0.6406-1.8945a24.797,24.797,0,0,0,4.6548,1.0566Zm19.1094-1.5371-0.4668-1.9453c1.5776-.3779,3.1694-0.8164,4.731-1.3047l0.5957,1.91C155.9863,175.3184,154.3511,175.77,152.73,176.1582Zm-30.51-3.1895a16.2363,16.2363,0,0,1-2.6328-2.957c-0.8022.2686-1.5825,0.5-2.3525,0.6992l-0.501-1.9355a36.92,36.92,0,0,0,4.5908-1.5391l0.748,1.8555q-0.2681.1069-.5317,0.2109a14.2489,14.2489,0,0,0,2,2.1641Zm42-.5439-0.7607-1.85c1.4971-.6162,3.0068-1.291,4.4863-2.0059l0.87,1.8008C167.3018,171.1025,165.7554,171.7939,164.2212,172.4248Zm-59.0825-.4736-0.01-2c1.6284-.0078,3.2769-0.0742,4.8994-0.1963l0.15,1.9941C108.5093,171.875,106.8135,171.9434,105.1387,171.9512Zm-7.0552-.3154c-1.6743-.1582-3.3569-0.377-5.0015-0.6514l0.3281-1.9727c1.5986,0.2666,3.2344.4795,4.8618,0.6338ZM86.1812,169.48q-0.5127-.1392-1.0244-0.2861a35.9388,35.9388,0,0,1-3.81-1.3281l0.7637-1.8477a34.3357,34.3357,0,0,0,3.5986,1.2539q0.498,0.1421.9976,0.2783Zm88.8486-2.4268-1.0107-1.7266c1.4033-.8213,2.81-1.6953,4.1807-2.5977l1.1,1.67C177.9,165.3213,176.4634,166.2139,175.03,167.0537Zm-46.5645-.9521-0.917-1.7773q0.9873-.51,1.9487-1.0215a16.0817,16.0817,0,0,0,2.1987-1.3877l1.209,1.5938a18.1388,18.1388,0,0,1-2.4707,1.5605Q129.4658,165.5835,128.4653,166.1016ZM75.05,164.4473a30.4571,30.4571,0,0,1-3.9619-3.2705l1.4-1.4277a28.5007,28.5007,0,0,0,3.7022,3.0557Zm41.3765-2.3867a41.1471,41.1471,0,0,1-.65-5.0547l1.9951-.1445a39.0008,39.0008,0,0,0,.6172,4.8086Zm68.6089-1.7295-1.2119-1.59q0.7251-.5537,1.4409-1.1182l0.8652-.6816c0.5254-.4121,1.0581-0.8311,1.5928-1.2568l1.2451,1.5664c-0.5381.4268-1.0737,0.8477-1.6021,1.2637l-0.8618.6777Q185.7747,159.7681,185.0352,160.3311ZM54.5063,158.6953q-0.48,0-.9575-0.0088l0.0371-2a48.5112,48.5112,0,0,0,4.8691-.1543l0.166,1.9922C57.2612,158.6377,55.877,158.6953,54.5063,158.6953Zm-8.0439-.6914a33.6748,33.6748,0,0,1-4.959-1.2891l0.6553-1.8906a31.7394,31.7394,0,0,0,4.6631,1.2129Zm19.1792-.5781-0.4561-1.9473q0.6306-.1479,1.2539-0.3135a25.5087,25.5087,0,0,1-1.9585-4.3506l1.8936-.6445a23.5672,23.5672,0,0,0,1.9883,4.3271l-0.3906.2295q0.9529-.2915,1.8721-0.623l0.6787,1.8809A43.846,43.846,0,0,1,65.6416,157.4258Zm71.3486-.249-1.9775-.3008a8.021,8.021,0,0,0,.0889-1.209,10.4677,10.4677,0,0,0-.271-2.2988q-0.1084-.4761-0.26-0.9395l1.9-.623q0.1809,0.5508.31,1.12a12.4464,12.4464,0,0,1,.3208,2.7412A10.087,10.087,0,0,1,136.99,157.1768ZM35.0557,153.4541a21.1872,21.1872,0,0,1-2.5181-2.0967,16.4919,16.4919,0,0,1-1.3213-1.46l1.56-1.252a14.4242,14.4242,0,0,0,1.16,1.2813,19.2322,19.2322,0,0,0,2.2793,1.8984Zm41.9395-.49-1.0166-1.7227a30.9871,30.9871,0,0,0,3.9473-2.7549l1.2715,1.543A32.9494,32.9494,0,0,1,76.9951,152.9639Zm117.3247-.32-1.3945-1.4336a28.4359,28.4359,0,0,0,3.1787-3.5986l1.6152,1.18A30.4389,30.4389,0,0,1,194.32,152.6436Zm-76.0532-2.252-1.8779-.6895a8.9,8.9,0,0,1,3.1958-4.2314l0.1719-.1211,1.124,1.6543-0.1162.082A6.8514,6.8514,0,0,0,118.2666,150.3916Zm12.6611-3.03a9.39,9.39,0,0,0-2.3472-1.2529,8.7258,8.7258,0,0,0-1.7559-.4326l0.2754-1.98a10.67,10.67,0,0,1,2.1606.5322,11.3648,11.3648,0,0,1,2.8477,1.5205Zm97.67-1.47a14.6012,14.6012,0,0,1-2.6538-1.333q-0.9478-.583-1.88-1.1885l1.0869-1.6777q0.9133,0.59,1.8413,1.1631a12.67,12.67,0,0,0,2.2925,1.1572ZM86.1289,144.748l-1.6562-1.1211a16.5783,16.5783,0,0,0,2.0713-4.1924l1.9033,0.6133A18.5808,18.5808,0,0,1,86.1289,144.748Zm149.9292-.7217-1.6973-1.0566a4.9207,4.9207,0,0,0,.6108-2.125c0.019-.1914.0273-0.3887,0.0273-0.5908a9.3681,9.3681,0,0,0-.1226-1.4336l1.9756-.3105a11.2939,11.2939,0,0,1,.147,1.7441c0,0.2705-.0117.5322-0.0371,0.7871A6.8116,6.8116,0,0,1,236.0581,144.0264Zm-172.9033-.3115q-0.0242-.561-0.0244-1.1309a27.6807,27.6807,0,0,1,.2974-4.0176l1.9785,0.291a25.6681,25.6681,0,0,0-.2759,3.7266c0,0.3506.0073,0.6982,0.0225,1.0449Zm-35.2593-.3437a16.6977,16.6977,0,0,1-.62-4.4434q0-.4.021-0.7979l1.9971,0.1074q-0.0183.3428-.0181,0.69a14.688,14.688,0,0,0,.5474,3.91Zm172.61-1.3584-1.958-.4062c0.1494-.7207.2773-1.4492,0.4063-2.1836,0.1577-.8975.3174-1.8037,0.5171-2.7158l1.9536,0.4277c-0.1938.8848-.3477,1.7637-0.501,2.6348C200.7915,140.5234,200.66,141.2715,200.5059,142.0127Zm17.7681-2.5752-0.96-.6719q-1.5513-1.0869-3.1152-2.168l1.1338-1.6484c1.0493,0.7217,2.09,1.4512,3.1289,2.1787l0.9585,0.6709Zm-177.2593-.8311L40.88,136.61a9.1751,9.1751,0,0,0,2.3633-.4463,5.9762,5.9762,0,0,0,1.75-.8633l1.2412,1.5684a7.79,7.79,0,0,1-2.3433,1.1865A11.1847,11.1847,0,0,1,41.0146,138.6064ZM33.8,137.7236a37.67,37.67,0,0,1-4.8218-1.6914l0.7832-1.84a35.8463,35.8463,0,0,0,4.5649,1.6016Zm53.1455-4.6426a10.9432,10.9432,0,0,0-1.8325-4.1348l1.6143-1.1816A12.96,12.96,0,0,1,88.9,132.6592Zm121.5337-.0693a8.7749,8.7749,0,0,0-2.6777-.6982c-0.17-.0146-0.3423-0.0176-0.51-0.0225a4.4592,4.4592,0,0,0-1.0381.1152l-0.47-1.9434a6.4035,6.4035,0,0,1,1.5059-.1719c0.2183,0.001.4609,0.0088,0.69,0.03a10.7392,10.7392,0,0,1,3.2793.8486ZM22.6719,132.73a45.1676,45.1676,0,0,1-4.1548-2.9365l1.2461-1.5645a43.1357,43.1357,0,0,0,3.97,2.8057Zm44.665-.1924-1.78-.9121a16.9491,16.9491,0,0,1,3.0708-4.2754l1.415,1.4121A14.9884,14.9884,0,0,0,67.3369,132.5381Zm165.501-.1221c-0.4858-1.18-1.0107-2.3789-1.5312-3.5664l-0.4321-.9883,1.833-.7988,0.4312,0.9844c0.5264,1.2012,1.0571,2.4141,1.5488,3.6074Zm-201.4443-.07-1.5752-1.2324a12.1046,12.1046,0,0,1,4.2012-3.3682l0.8682,1.8027a9.3872,9.3872,0,0,0-.9111.501A9.9106,9.9106,0,0,0,31.3936,132.3457Zm13.5063-1.77a6.732,6.732,0,0,0-3.3428-1.7754q-0.2446-.0571-0.4937-0.1025l0.3584-1.9668c0.1982,0.0361.395,0.0762,0.5908,0.1221a8.7174,8.7174,0,0,1,4.34,2.3477Zm30.6489-5.1089-0.4639-1.8586a12.554,12.554,0,0,1,2.9229-.3053,12.3527,12.3527,0,0,1,2.457.2844l-0.4316,1.7906A9.4356,9.4356,0,0,0,78.022,125H78.0093A10.9665,10.9665,0,0,0,75.5488,125.4673ZM13.35,124.8594a28.6122,28.6122,0,0,1-3.0083-4.1787l1.7266-1.01a26.7015,26.7015,0,0,0,2.7983,3.8857Zm232.1694-3.1826c-0.3545,0-.7212-0.0176-1.0928-0.0518l0.1826-1.9917a8.1211,8.1211,0,0,0,.938.0435,5.0354,5.0354,0,0,0,3.0864-.9346l1.2285,1.5781A7.2449,7.2449,0,0,1,245.519,121.6768Zm-17.1909-.4463a12.27,12.27,0,0,1-.5366-3.2754,4.9179,4.9179,0,0,1,.5166-2.3325l1.7646,0.9424a2.9655,2.9655,0,0,0-.2812,1.39,10.3609,10.3609,0,0,0,.4614,2.7329Zm8.9932-2.36c-0.23-.3271-0.4678-0.7124-0.7183-1.1211a9.6379,9.6379,0,0,0-2.0352-2.62l1.2021-1.5977a11.04,11.04,0,0,1,2.5381,3.1724c0.2261,0.3691.4395,0.7183,0.6479,1.0142Z"/><path class="cls-4" d="M251.8076,113.0669l-1.9385-.4922a3.6806,3.6806,0,0,1,2.1177-2.4731l0.8779,1.7969A1.697,1.697,0,0,0,251.8076,113.0669Z"/><path class="cls-2" d="M6.7275,105h-2A4.5229,4.5229,0,0,1,6.17,101.9993l1.4932,1.4247A3,3,0,0,0,6.7275,105Z"/><path class="cls-2" d="M244.4795,96.8271c-1.2915-.8062-2.6968-1.6372-4.1772-2.47l0.9814-1.7432c1.5063,0.8481,2.938,1.6948,4.2544,2.5161ZM15.98,96.8057l-1.0576-1.6973c1.32-.8223,2.7515-1.6685,4.2544-2.5142l0.98,1.7432C18.6807,95.1685,17.2754,95.999,15.98,96.8057Zm214.81-7.354q-2.1306-1.0115-4.4282-2.0332l0.8125-1.8281q2.32,1.0313,4.4731,2.0547ZM29.6709,89.4355l-0.8574-1.8066q2.1526-1.0217,4.4731-2.0537l0.8115,1.8281Q31.8035,88.4221,29.6709,89.4355Zm186.7847-6.1211q-2.23-.8606-4.5664-1.7075l0.6807-1.8809q2.3562,0.8533,4.6064,1.7231ZM44.0044,83.3013l-0.72-1.8662q2.2493-.8679,4.606-1.7217l0.6807,1.8809Q46.2356,82.4395,44.0044,83.3013Zm157.7207-5.1206q-2.2976-.7185-4.6689-1.4106l0.56-1.92q2.3906,0.6965,4.7061,1.4214ZM58.7358,78.1694L58.1392,76.26q2.3145-.7236,4.7056-1.4209l0.56,1.92Q61.0327,77.4507,58.7358,78.1694Zm127.959-4.18q-2.3445-.5764-4.7466-1.1172l0.4395-1.9512q2.4207,0.5449,4.7847,1.126Zm-112.93-.0088-0.4766-1.9424q2.3628-.58,4.7842-1.1255l0.4395,1.9512Q76.1106,73.4048,73.7651,73.981Zm97.67-3.2373q-2.3818-.4292-4.8062-0.8164l0.3145-1.9746q2.4448,0.39,4.8462.8223Zm-82.4106-.0054L88.6709,68.77q2.4009-.4314,4.8457-0.8218l0.3145,1.9746Q91.4067,70.3091,89.0244,70.7383Zm66.979-2.2646q-2.4075-.2747-4.8486-0.5024L151.34,65.98q2.4617,0.2292,4.89.5063ZM104.4565,68.47L104.23,66.4824q2.428-.2761,4.89-0.5054l0.1846,1.9912Q106.8635,68.1946,104.4565,68.47Zm36.0029-1.2441q-2.4229-.1113-4.8706-0.1724l0.0488-1.999q2.47,0.06,4.9136.1733ZM120,67.2231l-0.0918-1.998q2.4441-.1128,4.9136-0.1724l0.0479,1.999Q122.4231,67.1111,120,67.2231Z"/><path class="cls-2" d="M255.6982,105h-2a3.0266,3.0266,0,0,0-.936-1.6707l1.4932-1.2355A4.3289,4.3289,0,0,1,255.6982,105Z"/><circle class="cls-5" cx="7.09" cy="104.5932" r="5.5899"/><path class="cls-4" d="M7.09,111.6831a7.09,7.09,0,1,1,7.09-7.09A7.0981,7.0981,0,0,1,7.09,111.6831Zm0-11.18a4.09,4.09,0,1,0,4.09,4.09A4.0942,4.0942,0,0,0,7.09,100.5034Z"/><circle class="cls-2" cx="253.3359" cy="104.5933" r="7.0898"/><path class="cls-2" d="M153.7062,63.51c-0.03,0-.78.0027-0.78,0.0027V63.4986l-14.2145-.0345-7.3778-24.2226-3.76-2.57-2.8477-.0068,3.82,26.7749-18.4911-.0429-4.3272-7.1517-6.4714-.015,3.2934,11.1692-3.341,11.153,6.4775,0.015,4.3713-7.1308,18.4961,0.0429L124.67,98.115l2.9343,0.0068,3.9449-2.5514,7.1149-24.0669,14.2618,0.0346V71.5221l0.7711,0.0033c3.1676,0.0073,5.735-1.781,5.74-3.9943S156.8738,63.5175,153.7062,63.51Z"/><g class="cls-6"><rect class="cls-7" x="98.4258" y="53.2421" width="12" height="28"/><rect class="cls-8" x="128.5258" y="34" width="10.1" height="47.94"/><rect class="cls-8" x="126.5103" y="72.2785" width="12.7075" height="28.2023" transform="translate(13.6612 -18.0473) rotate(8.1905)"/><rect class="cls-8" x="123.8258" y="35.0671" width="16.2" height="28.35"/><rect class="cls-2" x="110.0814" y="62.9641" width="1" height="9.2781"/></g></svg>