<?xml version="1.0" standalone="no"?>
<!DOCTYPE svg PUBLIC "-//W3C//DTD SVG 20010904//EN"
 "http://www.w3.org/TR/2001/REC-SVG-20010904/DTD/svg10.dtd">
<svg version="1.0" xmlns="http://www.w3.org/2000/svg"
 width="728.000000pt" height="728.000000pt" viewBox="0 0 728.000000 728.000000"
 preserveAspectRatio="xMidYMid meet">
<metadata>
Created by potrace 1.11, written by Peter Selinger 2001-2013
</metadata>
<g transform="translate(0.000000,728.000000) scale(0.100000,-0.100000)"
fill="#000000" stroke="none">
<path d="M5279 7176 c-100 -40 -197 -126 -324 -286 -33 -41 -68 -84 -78 -95
-82 -89 -326 -441 -397 -570 -12 -22 -31 -56 -42 -75 -49 -83 -169 -335 -217
-453 -123 -303 -227 -679 -266 -957 -3 -25 -8 -57 -10 -71 -6 -32 -11 -77 -20
-155 l-6 -62 73 -22 c91 -27 217 -87 283 -135 l50 -36 117 121 c189 196 389
461 534 705 43 74 83 134 88 134 20 2 182 -123 276 -214 114 -109 181 -190
264 -318 169 -259 265 -529 302 -852 12 -112 6 -389 -11 -455 -2 -8 -6 -35
-10 -60 -3 -25 -16 -88 -30 -140 -13 -52 -23 -96 -21 -97 3 -4 72 170 86 218
68 227 91 371 94 583 2 109 -7 260 -18 321 -3 17 -9 50 -12 75 -8 58 -49 217
-76 295 -126 365 -333 671 -625 923 l-61 53 25 57 c14 31 36 84 48 117 13 33
28 73 34 88 l11 28 57 -32 c220 -122 491 -353 657 -561 89 -110 177 -240 243
-355 29 -52 53 -97 53 -99 0 -2 12 -28 26 -57 32 -66 81 -186 104 -257 22 -65
60 -196 65 -219 2 -9 8 -36 14 -61 13 -57 19 -94 27 -150 3 -25 8 -54 10 -65
24 -119 24 -499 0 -660 -3 -16 -7 -46 -10 -65 -12 -88 -19 -122 -46 -230 -48
-188 -116 -377 -182 -502 -5 -10 -7 -18 -4 -18 15 0 159 281 209 410 46 116
112 323 122 383 3 17 10 48 15 67 5 19 11 53 15 75 6 44 12 84 20 130 24 143
25 567 1 690 -2 11 -7 43 -10 70 -25 199 -112 495 -208 708 -203 452 -537 855
-940 1134 -122 84 -114 63 -83 203 4 14 8 36 11 50 3 14 14 70 25 125 28 134
28 134 38 206 12 88 5 235 -14 288 -46 130 -151 178 -276 127z"/>
<path d="M3347 6514 c-1 -1 -33 -4 -72 -8 -122 -10 -203 -21 -275 -38 -42 -9
-54 -12 -106 -22 -67 -14 -250 -72 -360 -116 -395 -156 -753 -410 -1055 -746
-176 -196 -369 -515 -479 -793 -56 -141 -123 -365 -145 -481 -7 -38 -25 -160
-29 -200 -14 -122 -20 -176 -20 -192 0 -11 -19 -21 -66 -34 -153 -41 -427
-137 -501 -175 -90 -47 -172 -120 -194 -173 -20 -46 -19 -119 1 -159 20 -40
75 -90 133 -123 86 -48 274 -94 561 -139 271 -41 386 -50 680 -50 333 0 590
24 852 81 40 8 84 18 98 20 171 33 557 159 747 245 38 17 42 22 33 43 -27 73
-43 271 -30 375 3 28 6 51 5 51 -1 0 -72 18 -158 40 -144 37 -314 71 -425 86
-26 3 -54 8 -63 9 -9 2 -52 6 -95 10 -43 4 -90 8 -104 11 -14 2 -104 7 -200
10 -159 6 -197 13 -186 34 2 3 7 34 10 70 39 380 219 760 498 1056 250 263
542 431 953 548 l50 14 -55 -5 c-758 -67 -1440 -598 -1713 -1333 -37 -100 -97
-317 -97 -354 0 -36 -13 -44 -75 -50 -88 -8 -155 -17 -198 -26 l-38 -8 2 106
c2 140 25 312 64 487 16 74 79 269 112 350 28 66 126 268 145 300 7 11 33 51
57 90 157 253 370 482 641 688 290 221 746 412 1100 463 19 2 44 6 55 9 34 7
148 19 188 19 20 0 37 4 37 8 0 6 -275 8 -283 2z"/>
<path d="M3710 4165 c-247 -72 -385 -290 -345 -545 4 -25 18 -70 32 -100 78
-165 228 -268 405 -275 302 -13 531 245 484 545 -25 160 -138 298 -297 360
-68 26 -214 34 -279 15z"/>
<path d="M4369 3214 c-54 -58 -177 -146 -256 -183 -83 -40 -81 -21 -22 -213
98 -319 255 -671 421 -945 l19 -32 -48 -24 c-105 -53 -306 -124 -405 -142 -13
-3 -45 -9 -73 -14 -94 -18 -140 -22 -280 -26 -328 -7 -625 63 -923 217 -69 36
-241 143 -252 157 -3 4 -21 18 -40 31 -19 14 -42 32 -51 40 -153 144 -174 159
-114 81 62 -80 219 -241 300 -307 252 -205 566 -353 885 -417 172 -35 230 -41
415 -41 262 -1 425 25 665 103 68 23 124 40 125 39 1 -2 37 -48 81 -103 43
-55 85 -107 91 -116 11 -15 6 -21 -35 -47 -46 -30 -180 -99 -272 -140 -177
-79 -492 -161 -683 -177 -39 -4 -83 -9 -97 -11 -60 -10 -351 -3 -457 11 -24 3
-62 7 -85 11 -24 3 -50 6 -58 8 -8 1 -33 6 -55 10 -431 83 -873 300 -1201 592
-144 128 -257 251 -367 398 -37 48 -67 85 -67 82 0 -12 132 -220 184 -291 373
-503 891 -854 1501 -1015 98 -26 269 -59 395 -75 77 -10 461 -13 540 -4 41 4
98 11 125 14 68 8 246 42 320 61 92 24 309 95 320 105 5 5 15 9 23 9 8 0 71
27 139 60 69 33 132 60 139 60 7 0 28 -15 46 -33 18 -17 62 -57 97 -87 36 -30
83 -72 105 -94 23 -21 77 -65 121 -99 349 -263 584 -130 481 274 -38 150 -175
494 -288 723 -287 579 -728 1110 -1248 1500 -63 47 -117 86 -120 86 -3 0 -22
-16 -41 -36z"/>
</g>
</svg>
