<?xml version="1.0" standalone="no"?>
<!DOCTYPE svg PUBLIC "-//W3C//DTD SVG 20010904//EN"
 "http://www.w3.org/TR/2001/REC-SVG-20010904/DTD/svg10.dtd">
<svg version="1.0" xmlns="http://www.w3.org/2000/svg"
 width="767.000000pt" height="767.000000pt" viewBox="0 0 767.000000 767.000000"
 preserveAspectRatio="xMidYMid meet">
<metadata>
Created by potrace 1.11, written by Peter Selinger 2001-2013
</metadata>
<g transform="translate(0.000000,767.000000) scale(0.100000,-0.100000)"
fill="#000000" stroke="none">
<path d="M5345 7320 c-99 -22 -244 -135 -357 -278 -29 -37 -93 -117 -143 -177
-145 -179 -286 -373 -362 -500 -26 -44 -52 -88 -58 -97 -97 -162 -217 -426
-288 -638 -47 -139 -124 -444 -141 -565 -4 -22 -11 -65 -16 -95 -5 -30 -12
-80 -15 -110 -3 -30 -7 -64 -9 -75 -4 -24 -18 -150 -20 -184 -1 -13 3 -25 9
-26 124 -34 253 -91 343 -153 l54 -37 76 80 c70 73 109 116 196 215 100 114
323 432 414 590 17 30 36 61 41 69 7 11 28 1 101 -53 104 -76 142 -110 240
-211 207 -213 368 -495 446 -782 24 -89 28 -105 39 -163 3 -14 7 -35 9 -48 13
-61 21 -191 20 -322 0 -192 -13 -287 -69 -520 -12 -46 11 1 50 105 38 102 90
293 99 362 2 21 8 61 13 88 15 96 9 451 -11 565 -38 222 -93 395 -191 595
-123 254 -293 474 -514 668 -59 51 -64 58 -54 79 17 35 37 84 73 176 18 45 36
82 41 82 14 0 101 -51 189 -111 358 -244 648 -581 829 -964 51 -106 114 -262
132 -325 7 -25 14 -49 15 -55 18 -64 45 -165 49 -185 21 -113 36 -215 41 -265
3 -33 7 -71 10 -85 5 -31 5 -294 -1 -370 -5 -69 -16 -169 -21 -195 -2 -11 -6
-37 -9 -58 -21 -160 -134 -520 -209 -666 -26 -50 -12 -36 27 27 167 271 314
723 342 1052 4 41 9 86 11 100 10 64 3 377 -11 494 -3 23 -8 61 -11 86 -4 36
-28 155 -49 250 -15 68 -87 301 -110 355 -166 393 -336 654 -605 927 -154 157
-237 227 -391 334 -81 56 -108 80 -105 92 8 26 34 143 41 182 3 19 8 42 10 50
2 8 7 30 10 47 3 18 13 63 22 100 11 47 17 114 17 218 1 136 -1 155 -22 200
-13 27 -33 60 -45 73 -41 43 -113 65 -172 52z"/>
<path d="M3428 6644 c-2 -1 -40 -4 -86 -5 -45 -1 -103 -5 -129 -9 -27 -5 -70
-11 -98 -14 -100 -11 -201 -34 -361 -80 -420 -121 -817 -354 -1134 -666 -323
-318 -546 -676 -690 -1109 -22 -64 -41 -127 -44 -141 -2 -14 -11 -52 -20 -85
-8 -33 -17 -71 -20 -85 -26 -138 -29 -154 -42 -300 -4 -36 -8 -72 -10 -80 -1
-8 -3 -22 -3 -31 -1 -9 -7 -16 -14 -16 -31 0 -449 -138 -517 -171 -208 -100
-285 -220 -226 -349 34 -73 164 -154 305 -189 53 -13 152 -33 186 -38 22 -3
65 -10 95 -15 30 -6 70 -13 88 -16 17 -3 45 -7 60 -10 44 -7 101 -15 164 -21
32 -3 66 -7 77 -9 37 -7 289 -18 416 -18 441 1 897 74 1311 212 220 73 404
147 404 162 0 4 -8 38 -17 76 -11 47 -17 114 -17 219 l-1 151 -87 22 c-48 13
-89 22 -90 21 -2 -1 -16 3 -31 9 -15 6 -40 13 -55 16 -15 2 -70 13 -122 24
-52 11 -120 22 -150 26 -30 4 -57 8 -60 10 -3 2 -39 6 -80 10 -41 4 -82 8 -90
10 -34 7 -242 18 -340 19 -58 1 -108 6 -112 11 -11 15 5 147 36 292 45 215
161 468 303 661 79 108 88 117 213 242 249 247 533 404 909 500 23 6 41 13 40
14 -7 6 -247 -29 -314 -45 -650 -161 -1180 -620 -1430 -1239 -54 -136 -98
-284 -120 -410 -3 -19 -7 -35 -8 -36 -2 -2 -51 -10 -127 -19 -22 -3 -59 -8
-82 -11 -91 -13 -88 -13 -89 15 -6 198 24 424 85 651 88 321 269 663 494 930
87 103 270 278 383 366 361 281 810 467 1249 520 30 4 62 8 70 10 8 1 39 3 69
3 88 1 49 14 -49 16 -49 1 -91 1 -92 -1z"/>
<path d="M3785 4303 c-48 -6 -138 -35 -167 -55 -14 -10 -31 -18 -36 -18 -22 0
-131 -124 -161 -182 -132 -262 9 -582 292 -663 54 -16 158 -22 202 -11 11 2
34 7 50 11 102 23 231 125 283 222 121 229 49 500 -167 630 -86 52 -198 76
-296 66z"/>
<path d="M4321 3310 c-64 -61 -170 -132 -248 -166 -37 -16 -42 -23 -39 -44 5
-27 50 -188 66 -230 5 -14 23 -65 40 -115 17 -49 35 -99 40 -110 5 -11 28 -65
51 -120 61 -148 200 -422 256 -505 12 -19 23 -40 23 -46 0 -13 -145 -81 -250
-117 -116 -40 -247 -71 -350 -83 -25 -2 -61 -7 -80 -9 -46 -6 -278 -6 -310 -1
-14 2 -52 7 -85 11 -50 5 -156 25 -225 40 -292 68 -619 250 -852 474 -49 46
-88 81 -88 78 0 -3 6 -12 13 -19 6 -7 37 -44 68 -83 124 -155 282 -298 454
-410 111 -72 130 -83 215 -123 232 -110 438 -171 667 -197 27 -3 64 -8 83 -10
46 -6 298 -6 330 -1 14 2 52 7 85 10 33 4 76 9 95 12 68 10 279 65 358 93 l81
29 42 -56 c24 -31 65 -83 91 -115 26 -32 48 -62 48 -67 0 -22 -228 -139 -405
-207 -114 -44 -312 -98 -429 -118 -50 -9 -102 -18 -116 -20 -51 -9 -218 -19
-320 -19 -107 0 -308 12 -319 18 -3 2 -33 7 -66 11 -32 3 -62 8 -66 10 -3 3
-21 6 -40 9 -78 10 -297 74 -441 129 -138 52 -498 247 -498 269 0 4 -5 8 -11
8 -25 0 -224 165 -350 290 -134 133 -170 173 -232 258 -18 24 -42 55 -55 70
-24 28 -17 15 53 -107 33 -55 188 -262 250 -331 95 -108 254 -257 358 -337
180 -138 438 -290 597 -353 30 -12 69 -28 85 -35 97 -44 429 -136 540 -149 6
-1 33 -5 60 -9 244 -38 539 -39 785 -2 164 24 174 26 215 37 22 5 47 11 55 13
80 15 345 104 434 144 33 16 94 45 135 65 81 39 96 43 108 23 11 -17 236 -218
326 -290 210 -167 401 -197 484 -74 66 98 49 290 -47 527 -21 52 -62 156 -91
230 -158 402 -434 854 -729 1192 -80 92 -344 355 -430 429 -52 45 -192 157
-245 197 -6 4 -27 19 -47 35 -20 15 -43 27 -50 27 -7 -1 -42 -28 -77 -60z"/>
</g>
</svg>
