<?xml version="1.0" standalone="no"?>
<!DOCTYPE svg PUBLIC "-//W3C//DTD SVG 20010904//EN"
 "http://www.w3.org/TR/2001/REC-SVG-20010904/DTD/svg10.dtd">
<svg version="1.0" xmlns="http://www.w3.org/2000/svg"
 width="767.000000pt" height="767.000000pt" viewBox="0 0 767.000000 767.000000"
 preserveAspectRatio="xMidYMid meet">
<metadata>
Created by potrace 1.11, written by Peter Selinger 2001-2013
</metadata>
<g transform="translate(0.000000,767.000000) scale(0.100000,-0.100000)"
fill="#000000" stroke="none">
<path d="M3599 7666 c-2 -2 -47 -6 -99 -10 -52 -4 -122 -11 -155 -16 -33 -5
-80 -12 -105 -15 -62 -8 -248 -44 -285 -55 -16 -5 -41 -11 -55 -14 -47 -9
-235 -65 -337 -100 -222 -78 -471 -194 -673 -314 -103 -62 -273 -172 -315
-205 -5 -4 -46 -35 -91 -70 -343 -265 -676 -633 -903 -998 -285 -456 -487
-1015 -547 -1514 -3 -22 -7 -49 -9 -60 -19 -94 -28 -603 -13 -775 18 -197 56
-443 89 -564 6 -23 13 -50 15 -61 2 -11 20 -74 39 -140 42 -142 40 -136 48
-155 3 -8 18 -49 32 -90 91 -250 219 -508 362 -728 40 -62 73 -117 73 -122 0
-4 4 -10 8 -12 4 -2 33 -38 65 -82 192 -265 462 -542 732 -753 470 -367 1033
-625 1610 -737 174 -34 192 -36 320 -50 155 -17 210 -20 410 -20 232 0 360 7
515 28 92 13 112 16 190 31 41 8 86 16 100 19 20 3 100 22 220 51 31 8 114 33
196 60 396 131 776 330 1104 579 255 193 438 369 662 635 190 225 408 581 546
891 100 223 205 559 247 788 3 15 7 38 10 52 3 14 8 45 11 70 3 25 7 47 9 50
2 3 6 34 10 70 4 36 8 72 10 80 25 128 25 703 1 838 -2 9 -7 44 -10 77 -7 59
-17 123 -38 240 -5 33 -28 131 -50 219 -249 991 -894 1845 -1788 2368 -99 58
-314 167 -410 207 -30 13 -68 29 -85 36 -103 45 -326 117 -480 157 -124 31
-140 35 -190 43 -16 3 -52 10 -80 15 -80 16 -144 25 -240 35 -33 4 -71 9 -85
12 -30 6 -585 15 -591 9z"/>
</g>
</svg>
