<?xml version="1.0" encoding="UTF-8" standalone="no"?>
<svg width="12px" height="14px" viewBox="0 0 12 14" version="1.1" xmlns="http://www.w3.org/2000/svg" xmlns:xlink="http://www.w3.org/1999/xlink">
    <!-- Generator: Sketch 47.1 (45422) - http://www.bohemiancoding.com/sketch -->
    <title>apple_logo_white_ic</title>
    <desc>Created with Sketch.</desc>
    <defs></defs>
    <g id="Page-1" stroke="none" stroke-width="1" fill="none" fill-rule="evenodd">
        <g id="dashboard_split_cards" transform="translate(-1329.000000, -1120.000000)">
            <g id="apple_logo_white_ic" transform="translate(1327.000000, 1119.000000)">
                <polygon id="Path-Copy" points="0 0 19 0 19 19 0 19"></polygon>
                <path d="M13.7485857,11.9101832 C13.5331379,12.3993012 13.2780302,12.8495317 12.9826469,13.2634672 C12.5798915,13.8276813 12.2501246,14.2183708 11.9958962,14.4353629 C11.6020226,14.7913129 11.1799209,14.9736519 10.7278323,14.9841083 C10.4034296,14.9841083 10.0120182,14.8932845 9.55658801,14.7093035 C9.09957497,14.5260139 8.67949582,14.4353629 8.2954712,14.4353629 C7.89271581,14.4353629 7.460853,14.5260139 6.99873956,14.7093035 C6.53601055,14.8932845 6.16324198,14.9892069 5.87823538,14.9987991 C5.44478968,15.0169466 5.01275099,14.8294226 4.58150374,14.4353629 C4.30625824,14.1994455 3.96198153,13.7950158 3.54955298,13.2219873 C3.10704968,12.6101577 2.74325077,11.9007637 2.45824417,11.0919043 C2.15301187,10.2182324 2,9.3722138 2,8.55315719 C2,7.61493208 2.20630221,6.80572696 2.6195222,6.12761584 C2.94427671,5.58293196 3.3763154,5.15326859 3.91704529,4.83784797 C4.45777517,4.52242735 5.0420343,4.36169246 5.67122966,4.35140889 C6.01550638,4.35140889 6.46697933,4.4560594 7.02802286,4.66173092 C7.58748351,4.86809378 7.94670966,4.9727443 8.1042943,4.9727443 C8.22195515,4.9727443 8.62110509,4.85037838 9.29752308,4.6064243 C9.93718306,4.38018562 10.4772094,4.28651001 10.9195369,4.3234099 C12.1181299,4.41846817 13.0186135,4.88278461 13.6174703,5.71929737 C12.5455078,6.35757044 12.0152426,7.25155024 12.0257072,8.39838505 C12.0354683,9.29167352 12.3652352,10.0349428 13.0132493,10.6252546 C13.3069617,10.8991953 13.63497,11.110916 14,11.2612808 C13.9209439,11.4867418 13.8374029,11.7027833 13.7485857,11.9101832 L13.7485857,11.9101832 Z" id="Path" fill="#FFFFFF"></path>
                <path d="M10.9995603,1.28007623 C10.9995603,1.98022358 10.7393522,2.63396522 10.2205188,3.23905431 C9.59440129,3.95838615 8.83708046,4.37405004 8.01582881,4.30845983 C8.00536421,4.22446289 7.9992965,4.1360587 7.9992965,4.04316085 C7.9992965,3.37101247 8.29705408,2.65168063 8.82582442,2.06352919 C9.08981386,1.76573756 9.42547267,1.51806756 9.83262495,1.32060562 C10.2388978,1.12608183 10.6231863,1.01840674 10.9846109,1 C10.9953393,1.09358919 10.9995603,1.18717837 10.9995603,1.28007623 L10.9995603,1.28007623 Z" id="Path" fill="#FFFFFF"></path>
            </g>
        </g>
    </g>
</svg>