<?xml version="1.0" encoding="utf-8"?>
<!-- Generator: Adobe Illustrator 19.2.1, SVG Export Plug-In . SVG Version: 6.00 Build 0)  -->
<svg version="1.1" id="Layer_1" xmlns="http://www.w3.org/2000/svg" xmlns:xlink="http://www.w3.org/1999/xlink" x="0px" y="0px"
	 viewBox="0 0 275 275" style="enable-background:new 0 0 275 275;" xml:space="preserve">
<style type="text/css">
	.st0{fill:#FFFFFF;}
</style>
<g>
	
		<ellipse transform="matrix(0.9966 -8.291763e-02 8.291763e-02 0.9966 -11.2683 12.687)" class="st0" cx="147.1" cy="142" rx="16.7" ry="16.7"/>
	<path class="st0" d="M167.9,158.3c-3.6,4-8,7.1-13,9.1v0.1c3.8,14.5,9.7,28.3,17.5,41.1c-6.9,3.6-14.3,6-22,7l-1.1,0.1l-1.3,0.1
		l-2.6,0.2c-1.6,0-3.2,0.1-4.8,0c-6.6-0.1-13.1-1.2-19.3-3.3c-2.9-0.9-5.8-2.1-8.5-3.4c-2.5-1.2-4.9-2.5-7.2-4
		c-2-1.3-3.9-2.6-5.7-4.1c-1.7-1.3-3-2.6-4.2-3.6c-2.2-2.1-3.4-3.4-3.4-3.4s1,1.4,2.9,3.8c1,1.2,2.2,2.6,3.7,4.1
		c1.7,1.8,3.4,3.4,5.3,5c2.2,1.9,4.5,3.6,6.9,5.2c2.7,1.8,5.5,3.4,8.4,4.8c3.1,1.5,6.4,2.8,9.7,3.9c3.5,1.1,7,1.9,10.6,2.5
		c1.8,0.3,3.7,0.5,5.6,0.7l2.6,0.2l1.3,0.1h1.5c3.6,0,7.2-0.2,10.8-0.7c6.1-0.8,12.1-2.4,17.9-4.7c2.2,3,4.5,5.9,6.9,8.7
		c-0.1,0.1-0.2,0.1-0.3,0.2l-2.9,1.8l-0.4,0.2l-0.1,0.1l0,0c-0.5,0.2,0.6-0.3,0.5-0.2h-0.1l-0.2,0.1c-0.3,0.1-0.6,0.3-0.9,0.4
		l-1.8,0.9l-1,0.5l-0.5,0.3l-0.2,0.1h-0.1l0,0c-0.1,0,0.6-0.3,0.3-0.1l-0.1,0.1c-0.7,0.3-1.4,0.6-2.1,0.9c-0.7,0.3-1.5,0.6-2.2,1
		l-0.3,0.1l0,0c0.5-0.2,0.1,0,0.2-0.1h-0.1l-0.1,0.1l-0.6,0.2l-1.2,0.5c-10.9,4.2-22.6,6.2-34.4,5.8l-1.5-0.1l-1.7-0.1l-3.5-0.3
		c-2.1-0.3-4.3-0.5-6.5-1c-8.7-1.6-17.1-4.4-25-8.5c-1.9-1-3.7-2-5.5-3s-3.4-2.2-5.1-3.3c-3-2.1-6-4.4-8.7-6.8
		c-2.4-2.1-4.6-4.3-6.7-6.6c-2-2-3.4-4-4.7-5.6c-1.3-1.6-2.1-2.9-2.8-3.8l-1-1.4c0,0,0.3,0.5,0.8,1.4c0.6,0.9,1.3,2.4,2.4,4.1
		c1.1,1.7,2.4,3.8,4.2,6.1c1.9,2.6,4,5.1,6.1,7.4c2.6,2.8,5.3,5.5,8.2,7.9c1.6,1.3,3.2,2.7,4.9,3.9c1.7,1.3,3.5,2.6,5.4,3.8
		c3.9,2.5,7.9,4.7,12.1,6.7c4.4,2,8.9,3.7,13.5,5c2.3,0.7,4.8,1.2,7.2,1.8l3.4,0.6l1.7,0.3l1.9,0.3c4.7,0.6,9.4,0.9,14.1,0.9
		c8.5-0.1,16.9-1.3,25.1-3.5l1.2-0.3l0.6-0.2l0.9-0.3c0.8-0.3,1.6-0.5,2.3-0.8l2.2-0.7l2.4-0.9c0.7-0.3,1.3-0.5,1.9-0.7
		c0.3-0.1,0.6-0.2,0.9-0.4l0.2-0.1h0.1l0.6-0.3l0.1-0.1l0.4-0.2l3-1.5c1.6-0.8,2.8-1.4,3.8-1.8c2.6,2.5,5.2,4.9,8,7.1
		c0,0,13.1,13.5,20.3,8c6.8-5.2-1-21.6-1-21.6C213.6,202.5,193.9,176.5,167.9,158.3z"/>
	<path class="st0" d="M122.2,136.1L122.2,136.1c-14.3-4.3-29.1-6.4-43.9-6.3c0.4-8.1,2.4-16,5.8-23.3l0.5-1l0.6-1.2l1.2-2.3
		c0.8-1.4,1.5-2.8,2.5-4.1c3.6-5.5,8-10.4,13-14.6c2.3-2,4.8-3.8,7.4-5.4c2.3-1.5,4.8-2.8,7.3-4c2.1-1,4.3-1.9,6.5-2.7
		c2-0.8,3.8-1.2,5.2-1.6c2.9-0.7,4.7-1.1,4.7-1.1s-1.7,0.1-4.8,0.5c-1.5,0.2-3.4,0.4-5.5,0.9c-2.4,0.5-4.7,1.1-7,1.8
		c-2.7,0.9-5.4,1.9-8.1,3.1c-3,1.3-5.8,2.9-8.5,4.6c-3,1.9-5.8,3.9-8.5,6.2c-2.8,2.4-5.4,4.9-7.8,7.7c-1.2,1.3-2.4,2.9-3.6,4.4
		l-1.5,2.1l-0.7,1.1l-0.8,1.2c-1.9,3-3.7,6.2-5.1,9.5c-2.7,5.9-4.6,12.2-5.6,18.6v0.3c-3.6,0.3-7.2,0.8-10.8,1.4c0-0.6,0-1.2,0-1.9
		c0-1,0-2.1,0-3.4v-0.5V126c0.1-0.5-0.1,0.7-0.1,0.6v-0.1v-0.2c0-0.3,0.1-0.6,0.1-1c0.1-0.7,0.1-1.3,0.2-2c0-0.4,0.1-0.7,0.1-1.1
		v-0.5v-0.3v-0.1l0,0c0-0.1-0.1,0.7-0.1,0.3v-0.1c0.1-0.7,0.2-1.5,0.3-2.3s0.2-1.6,0.4-2.4v-0.3l0,0c-0.1,0.5,0,0.1-0.1,0.2v-0.1
		v-0.2l0.1-0.6l0.2-1.3c2.5-11.5,7-22.5,13.5-32.2l0.9-1.3l1-1.4l2.1-2.8c1.4-1.6,2.7-3.4,4.3-5c5.9-6.5,12.8-12.2,20.4-16.7
		c1.8-1.1,3.6-2.1,5.5-3c1.8-1,3.7-1.8,5.4-2.6c3.4-1.5,6.9-2.7,10.4-3.8c3-0.9,6.1-1.6,9.2-2.2c2.8-0.6,5.2-0.8,7.2-1.1
		c2-0.2,3.6-0.3,4.7-0.4l1.6,0l-1.7-0.1c-1.1,0-2.7-0.1-4.7-0.1c-2,0.1-4.5,0-7.4,0.3c-3.2,0.3-6.4,0.7-9.5,1.3
		c-3.8,0.7-7.5,1.6-11.1,2.8c-1.9,0.6-3.9,1.3-5.9,2.1c-2,0.7-4,1.6-6,2.6c-4.2,2-8.2,4.2-12.1,6.7c-4,2.6-7.8,5.6-11.4,8.8
		c-1.8,1.5-3.6,3.4-5.3,5.1l-2.3,2.6l-1.2,1.3l-1.2,1.5c-3,3.6-5.8,7.5-8.2,11.5c-4.4,7.2-7.9,15-10.3,23.1l-0.4,1.2l-0.2,0.6
		l-0.2,0.9c-0.2,0.8-0.4,1.6-0.6,2.4c-0.2,0.8-0.4,1.5-0.6,2.3c-0.2,0.9-0.3,1.7-0.5,2.5c-0.1,0.7-0.3,1.4-0.4,2
		c-0.1,0.3-0.1,0.6-0.2,1v0.2v0.1l-0.1,0.6v0.1v0.5c-0.1,1.2-0.2,2.3-0.4,3.4c-0.3,3.1-0.5,5.1-0.6,6c-3.5,0.9-7,2-10.4,3.2
		c0,0-18.3,4.3-17.3,13.3c1,8.5,19,10.2,19,10.2c31.1,6.4,63.4,2.9,92.4-10C121.7,146.8,121.3,141.4,122.2,136.1z"/>
	<path class="st0" d="M251.3,126.3c-0.4-4.8-1.2-9.5-2.3-14.2c-0.5-2.4-1.3-4.7-1.9-7.1l-1.1-3.3l-0.6-1.6l-0.7-1.8
		c-1.7-4.4-3.8-8.6-6.2-12.7c-4.2-7.3-9.4-14.1-15.4-20.1l-0.9-0.9l-0.4-0.5l-0.7-0.6c-0.6-0.6-1.2-1.1-1.8-1.7
		c-0.6-0.5-1.2-1.1-1.7-1.6c-0.7-0.6-1.3-1.1-2-1.6l-1.6-1.3l-0.8-0.6l-0.2-0.2l0,0l-0.5-0.4l-0.1-0.1l-0.4-0.3
		c-1-0.7-1.9-1.3-2.8-1.9c-1.6-1.1-2.8-2-3.7-2.6c1-3.8,1.8-7.7,2.4-11.6c1-5.9,5.1-18.1-3.3-21.6c-7.9-3.3-18.2,11.7-18.2,11.7
		c-20.7,24.1-33.2,54.1-36,85.7c5.2,1.1,10.2,3.4,14.4,6.7h0.1c10.3-10.2,19.1-21.8,26.1-34.4c6.7,4.2,12.6,9.6,17.3,16l0.7,0.9
		l0.7,1.1l1.4,2.2c0.8,1.4,1.7,2.7,2.4,4.2c3.1,5.8,5.3,12,6.6,18.4c0.6,3,1,6,1.2,9.1c0.2,2.8,0.2,5.5,0,8.3
		c-0.1,2.3-0.4,4.7-0.8,7c-0.3,2.1-0.7,3.9-1.1,5.4c-0.8,2.9-1.3,4.6-1.3,4.6s0.7-1.6,1.9-4.4c0.5-1.4,1.2-3.2,1.8-5.3
		c0.7-2.3,1.3-4.7,1.7-7c0.5-2.8,0.9-5.7,1.1-8.6c0.2-3.2,0.2-6.5,0-9.7c-0.2-3.5-0.7-7-1.4-10.4c-0.8-3.6-1.8-7.1-3-10.5
		c-0.6-1.7-1.4-3.5-2.2-5.2l-1.1-2.3l-0.6-1.2L216,99c-1.7-3.2-3.7-6.2-5.9-9.1c-3.8-5.1-8.3-9.6-13.3-13.6c1.5-3.4,3-6.9,4.2-10.5
		l0.6,0.3l3,1.6l0.4,0.2l0.1,0.1l0,0c0.4,0.3-0.6-0.4-0.5-0.3l0,0l0.2,0.1l0.8,0.5l1.7,1.1l0.9,0.6l0.5,0.3l0.2,0.2h0.1l0,0
		c0.1,0.1-0.5-0.4-0.3-0.2l0.1,0.1c0.6,0.5,1.2,0.9,1.9,1.4l2,1.5l0.3,0.2l0,0c-0.4-0.3-0.1-0.1-0.2-0.2h0.1l0.1,0.1l0.5,0.4l1,0.8
		c9.1,7.5,16.5,16.7,21.9,27.1l0.7,1.4l0.7,1.6l1.5,3.1c0.8,2,1.7,4,2.3,6.1c2.9,8.3,4.6,17.1,4.9,25.9c0.1,2.1,0.1,4.2,0.1,6.3
		s-0.2,4.1-0.3,6c-0.3,3.7-0.9,7.3-1.7,11c-0.7,3.1-1.5,6.1-2.5,9.1c-0.8,2.7-1.8,5-2.5,6.9c-0.8,1.9-1.5,3.3-1.9,4.3
		c-0.5,1-0.7,1.5-0.7,1.5s0.3-0.5,0.9-1.4c0.5-0.9,1.4-2.3,2.4-4.1c0.9-1.8,2.1-4,3.2-6.6c1.3-2.9,2.5-5.9,3.4-9
		c1.2-3.6,2.1-7.3,2.9-11.1c0.4-2,0.8-4.1,1-6.2c0.3-2.1,0.5-4.3,0.6-6.5C251.7,135.5,251.7,130.9,251.3,126.3z"/>
</g>
</svg>
