<?xml version="1.0" encoding="UTF-8" standalone="no"?>
<svg width="25px" height="16px" viewBox="0 0 25 16" version="1.1" xmlns="http://www.w3.org/2000/svg" xmlns:xlink="http://www.w3.org/1999/xlink">
    <!-- Generator: Sketch 49.1 (51147) - http://www.bohemiancoding.com/sketch -->
    <title>ic_pipeline</title>
    <desc>Created with Sketch.</desc>
    <defs></defs>
    <g id="Page-1" stroke="none" stroke-width="1" fill="none" fill-rule="evenodd">
        <g id="Concourse_Breadcrumbs_03" transform="translate(-95.000000, -22.000000)" fill="#FFFFFF" fill-rule="nonzero">
            <g id="ic_pipeline" transform="translate(94.000000, 22.000000)">
                <g id="flow" transform="translate(13.000000, 8.500000) rotate(90.000000) translate(-13.000000, -8.500000) translate(5.000000, -4.000000)">
                    <g id="Group">
                        <g id="Shape" transform="translate(0.288915, 0.361839)">
                            <path d="M0.127544834,0.0460047059 L0.127544834,5.75580862 L2.60027211,5.75580862 L2.60027211,17.5832597 L0.127544834,17.5832597 L0.127544834,23.2930635 L5.95797546,23.2930635 L5.95797546,17.6597302 C6.84750927,17.6520505 7.61089671,17.6288744 8.24850177,17.5832597 C9.49129137,17.4942682 10.3436254,17.3030714 10.9294587,16.7675733 C11.5152921,16.2320753 11.6950109,15.4579482 11.7623774,14.3969851 C11.8273292,13.3743788 11.7910972,12.0111354 11.7884061,10.2420831 L14.2871621,10.2420831 L14.2871621,4.53227921 L8.45673143,4.53227921 L8.45673143,10.2420831 L10.9554874,10.2420831 C10.9578712,12.0247157 10.9899144,13.3931396 10.9294587,14.3460047 C10.8666566,15.3344533 10.7080273,15.8602447 10.3568271,16.1812988 C10.005627,16.5022714 9.3482959,16.6832314 8.17041565,16.7675733 C7.07959622,16.845681 5.52249559,16.8445896 3.48524818,16.8440439 L3.48524818,5.75580862 L5.95797546,5.75580862 L5.95797546,0.0460047059 L0.127544834,0.0460047059 Z"></path>
                        </g>
                    </g>
                </g>
            </g>
        </g>
    </g>
</svg>