<?xml version="1.0" encoding="UTF-8" standalone="no"?>
<svg width="27px" height="8px" viewBox="0 0 27 8" version="1.1" xmlns="http://www.w3.org/2000/svg" xmlns:xlink="http://www.w3.org/1999/xlink">
    <!-- Generator: Sketch 49.1 (51147) - http://www.bohemiancoding.com/sketch -->
    <title>ic_resources</title>
    <desc>Created with Sketch.</desc>
    <defs></defs>
    <g id="Page-1" stroke="none" stroke-width="1" fill="none" fill-rule="evenodd">
        <g id="Concourse_Breadcrumbs_03" transform="translate(-222.000000, -24.000000)">
            <g id="ic_resources" transform="translate(235.500000, 28.500000) rotate(-90.000000) translate(-235.500000, -28.500000) translate(221.000000, 14.000000)">
                <polygon id="Shape" points="0 0 29 0 29 29 0 29"></polygon>
                <path d="M16.375,7.25 L16.375,2.41666667 C16.375,1.75208333 15.83125,1.20833333 15.1666667,1.20833333 C14.5020833,1.20833333 13.9583333,1.75208333 13.9583333,2.41666667 L13.9583333,7.25 L11.5416667,7.25 L11.5416667,14.5 L18.7916667,14.5 L18.7916667,7.25 L16.375,7.25 Z M11.5416667,19.3333333 C11.5416667,20.9041667 12.5566667,22.2333333 13.9583333,22.7408333 L13.9583333,27.7916667 L16.375,27.7916667 L16.375,22.7408333 C17.7766667,22.2454167 18.7916667,20.91625 18.7916667,19.3333333 L18.7916667,16.9166667 L11.5416667,16.9166667 L11.5416667,19.3333333 Z" id="Shape" fill="#FFFFFF" fill-rule="nonzero"></path>
            </g>
        </g>
    </g>
</svg>