<?xml version="1.0" encoding="UTF-8" standalone="no"?>
<svg width="17px" height="17px" viewBox="0 0 17 17" version="1.1" xmlns="http://www.w3.org/2000/svg" xmlns:xlink="http://www.w3.org/1999/xlink">
    <!-- Generator: Sketch 46.2 (44496) - http://www.bohemiancoding.com/sketch -->
    <title>pending_legend_d_ic</title>
    <desc>Created with Sketch.</desc>
    <defs></defs>
    <g id="Page-1" stroke="none" stroke-width="1" fill="none" fill-rule="evenodd">
        <g id="dashboard_legend_01" transform="translate(-983.000000, -655.000000)">
            <g id="Group-29" transform="translate(981.000000, 654.000000)">
                <g id="pending_legend_d_ic" transform="translate(0.714286, 0.000000)">
                    <polygon id="Shape" points="0 0 19 0 19 19 0 19"></polygon>
                    <path d="M9.5,1.58333333 C5.13,1.58333333 1.58333333,5.13 1.58333333,9.5 C1.58333333,13.87 5.13,17.4166667 9.5,17.4166667 C13.87,17.4166667 17.4166667,13.87 17.4166667,9.5 C17.4166667,5.13 13.87,1.58333333 9.5,1.58333333 Z M8.70833333,12.6666667 L7.125,12.6666667 L7.125,6.33333333 L8.70833333,6.33333333 L8.70833333,12.6666667 Z M11.875,12.6666667 L10.2916667,12.6666667 L10.2916667,6.33333333 L11.875,6.33333333 L11.875,12.6666667 Z" id="Shape" fill="#9B9B9B" fill-rule="nonzero"></path>
                </g>
            </g>
        </g>
    </g>
</svg>