<?xml version="1.0" encoding="UTF-8" standalone="no"?>
<svg width="20px" height="20px" viewBox="0 0 20 20" version="1.1" xmlns="http://www.w3.org/2000/svg" xmlns:xlink="http://www.w3.org/1999/xlink">
    <!-- Generator: Sketch 46.1 (44463) - http://www.bohemiancoding.com/sketch -->
    <title>ic_pause_grey</title>
    <desc>Created with Sketch.</desc>
    <defs></defs>
    <g id="Screens" stroke="none" stroke-width="1" fill="none" fill-rule="evenodd">
        <g id="dashboard_by_team_1462" transform="translate(-112.000000, -1207.000000)" fill-rule="nonzero" fill="#BDB6BF">
            <g id="ic_pause_grey" transform="translate(112.000000, 1207.000000)">
                <path d="M7,14 L9,14 L9,6 L7,6 L7,14 Z M10,0 C4.48,0 0,4.48 0,10 C0,15.52 4.48,20 10,20 C15.52,20 20,15.52 20,10 C20,4.48 15.52,0 10,0 Z M10,18 C5.59,18 2,14.41 2,10 C2,5.59 5.59,2 10,2 C14.41,2 18,5.59 18,10 C18,14.41 14.41,18 10,18 Z M11,14 L13,14 L13,6 L11,6 L11,14 Z" id="Shape"></path>
            </g>
        </g>
    </g>
</svg>