<?xml version="1.0" encoding="UTF-8" standalone="no"?>
<svg width="18px" height="27px" viewBox="0 0 18 27" version="1.1" xmlns="http://www.w3.org/2000/svg" xmlns:xlink="http://www.w3.org/1999/xlink">
    <!-- Generator: Sketch 49.3 (51167) - http://www.bohemiancoding.com/sketch -->
    <title>cf_ic</title>
    <desc>Created with Sketch.</desc>
    <defs>
        <path d="M0.013943662,3.58081132 C0.00481690141,4.61139623 0.501211268,5.54264151 1.30385915,6.19904717 C2.29639437,7.01108491 3.1104507,8.65477358 3.15811268,10.4482358 C3.21059155,12.4396132 3.07521127,14.7442925 2.99205634,15.9167547 C1.93107042,16.0675472 1.18546479,16.4244057 1.18546479,16.8398491 C1.18546479,17.3920755 2.50580282,18.0303962 4.13492958,18.0303962 C5.76405634,18.0303962 7.08464789,17.3920755 7.08464789,16.8398491 C7.08464789,16.4244057 6.34005634,16.0675472 5.27678873,15.9167547 C5.1936338,14.7442925 5.05952113,12.4396132 5.11174648,10.4482358 C5.16067606,8.65477358 5.9724507,7.01108491 6.96625352,6.19904717 C7.76890141,5.54264151 8.26630986,4.61139623 8.25616901,3.58081132 C8.23892958,1.61821698 6.3935493,0.0387169811 4.13492958,0.0387169811 C1.87529577,0.0387169811 0.029915493,1.61821698 0.013943662,3.58081132" id="path-1"></path>
    </defs>
    <g id="Page-1" stroke="none" stroke-width="1" fill="none" fill-rule="evenodd">
        <g id="concourse_login_00_max_10" transform="translate(-1066.000000, -130.000000)">
            <g id="cf_ic" transform="translate(1066.000000, 130.000000)">
                <path d="M6.24777465,16.1195094 C6.24777465,16.1195094 6.71121127,14.3555943 4.69850704,12.0817358 L4.63132394,12.0109245 C3.78430986,11.0009717 3.31630986,9.72101887 3.31630986,8.40336792 C3.31630986,5.31288679 5.82211268,2.7975566 8.90264789,2.7975566 L9.0324507,2.7975566 C12.1129859,2.7975566 14.6185352,5.31288679 14.6185352,8.40336792 C14.6185352,9.72101887 14.1518028,11.0009717 13.3047887,12.0096509 C13.2946479,12.0211132 13.271831,12.0453113 13.2376056,12.0794434 C11.4515493,13.8774906 11.6870704,16.1195094 11.6870704,16.1195094 C14.9498873,14.9893302 17.1550141,11.9067453 17.1732676,8.44921698 C17.1970986,4.12666981 13.7238592,0.441424528 9.432,0.23459434 C9.37850704,0.23204717 9.32501408,0.231028302 9.27253521,0.231028302 C9.2076338,0.231028302 8.96628169,0.235613208 8.9675493,0.235613208 C8.96070423,0.235613208 8.72721127,0.231028302 8.66357746,0.231028302 C8.61008451,0.231028302 8.55659155,0.23204717 8.50411268,0.23459434 C4.21123944,0.441424528 0.739014085,4.12666981 0.761830986,8.44921698 C0.781098592,11.9067453 2.98495775,14.9893302 6.24777465,16.1195094" id="Fill-1" fill="#FFFFFE"></path>
                <path d="M16.7907042,22.624217 C16.9319155,22.5648679 17.0969577,22.5167264 17.2789859,22.4813208 C17.4485915,22.4436226 17.6377183,22.4194245 17.843831,22.4125472 C17.843831,22.4125472 17.8347042,22.3486132 17.8220282,22.2536038 C17.8164507,22.1598679 17.7720845,22.0350566 17.7297465,21.9117736 C17.7081972,21.8511509 17.6866479,21.7905283 17.6671268,21.7342358 C17.6422817,21.6781981 17.610338,21.6267453 17.5875211,21.5821698 C17.5398592,21.4953113 17.5079155,21.4369811 17.5079155,21.4369811 C17.3040845,21.4038679 17.111662,21.3580189 16.9250704,21.3042736 C16.7349296,21.2505283 16.5561972,21.1888868 16.3990141,21.1224057 C16.1008732,20.9909717 15.8207324,20.8432358 15.6726761,20.6786887 C15.4939437,20.5220377 15.4609859,20.3651321 15.4668169,20.2235094 C15.4769577,20.153717 15.5089014,20.086217 15.5634085,20.0233019 C15.6136056,19.9614057 15.6795211,19.9053679 15.7750986,19.8574811 C15.7750986,19.8574811 15.7036056,19.8174906 15.5986479,19.7578868 C15.5451549,19.7293585 15.4870986,19.6949717 15.4189014,19.659566 C15.3471549,19.6251792 15.2721127,19.5885 15.1968169,19.5530943 C15.0490141,19.482283 14.9009577,19.411217 14.7767324,19.3643491 C14.658338,19.3164623 14.58,19.2843679 14.58,19.2843679 C14.436507,19.3037264 14.2805915,19.3141698 14.1221408,19.3164623 C13.9583662,19.3197736 13.7910423,19.3151887 13.6282817,19.3027075 C13.308338,19.2751981 12.9825634,19.2306226 12.7014085,19.1470755 C12.5556338,19.1093774 12.431662,19.0648019 12.3234085,19.0156415 C12.2154085,18.9675 12.1185634,18.9196132 12.0412394,18.8658679 C11.8931831,18.7571038 11.7917746,18.6473208 11.7930423,18.5362642 C11.7930423,18.5362642 11.7030423,18.5214906 11.5686761,18.498566 C11.4297465,18.4769151 11.1338873,18.4369245 10.9460282,18.4117075 C10.9427324,18.4438019 10.9221972,18.4733491 10.9153521,18.5260755 L10.8674366,18.7571038 C10.7695775,19.2191604 11.0360282,19.6880943 11.4878028,19.819783 C12.5944225,20.1432736 13.4312958,20.6763962 13.6726479,21.3305094 C14.1609296,22.6540189 12.1094366,23.9477264 8.99011268,23.9477264 C5.86977465,23.9477264 3.81828169,22.6540189 4.3055493,21.3305094 C4.54132394,20.6924434 5.34498592,20.1697642 6.41180282,19.8437264 C6.88411268,19.6995566 7.16425352,19.2112642 7.06284507,18.726283 L6.99692958,18.4117075 C6.87270423,18.4264811 6.72819718,18.4448208 6.58014085,18.4631604 C6.39456338,18.4837925 6.21811268,18.5169057 6.08273239,18.5385566 C5.94735211,18.5604623 5.85608451,18.5762547 5.85608451,18.5762547 C5.86521127,18.684 5.78890141,18.8052453 5.64312676,18.9091698 C5.56707042,18.9618962 5.48264789,19.0166604 5.37921127,19.0658208 C5.27552113,19.1162547 5.148,19.1585377 5.01490141,19.2031132 C4.87723944,19.2466698 4.72335211,19.2787642 4.56971831,19.3060189 C4.4183662,19.3358208 4.25661972,19.3574717 4.09056338,19.3712264 C3.75921127,19.397717 3.42684507,19.4045943 3.12515493,19.3666415 C3.12515493,19.3666415 3.10461972,19.3747925 3.07039437,19.3885472 C3.03743662,19.4033208 2.98394366,19.4226792 2.9304507,19.4491698 C2.81991549,19.5016415 2.67084507,19.5737264 2.52050704,19.6458113 C2.3724507,19.7201887 2.24061972,19.8001698 2.1336338,19.8597736 C2.07988732,19.8893208 2.03552113,19.9145377 2.00484507,19.9318585 C1.9764507,19.951217 1.96047887,19.9614057 1.96047887,19.9614057 C2.16887324,20.0587075 2.28498592,20.1901415 2.30780282,20.3297264 C2.36002817,20.4774623 2.28828169,20.6305472 2.15290141,20.7976415 C2.07430986,20.8822075 1.96859155,20.9624434 1.86033803,21.0401321 C1.74523944,21.1190943 1.60174648,21.1934717 1.44126761,21.264283 C1.14084507,21.4071792 0.75143662,21.5330094 0.333633803,21.6086604 C0.333633803,21.6086604 0.297380282,21.6680094 0.27,21.7571604 C0.238056338,21.8475849 0.195971831,21.9701038 0.152619718,22.0946604 C0.134366197,22.2181981 0.117380282,22.3450472 0.103690141,22.4423491 C0.0854366197,22.5406698 0.0945633803,22.6048585 0.0945633803,22.6048585 C0.526056338,22.6094434 0.909633803,22.6825472 1.19661972,22.7981887 C1.53025352,22.9089906 1.7315493,23.0748113 1.88771831,23.2773113 C2.01067606,23.4958585 2.05960563,23.7245943 1.95033803,23.9887358 C1.87402817,24.2462547 1.6643662,24.5333208 1.32287324,24.7941509 C1.32287324,24.7941509 1.34239437,24.811217 1.37535211,24.8397453 C1.41287324,24.8672547 1.4676338,24.9062264 1.5335493,24.9530943 C1.6691831,25.0468302 1.83980282,25.1795377 2.04008451,25.2995094 C2.25177465,25.4161698 2.46701408,25.5341038 2.62977465,25.6242736 C2.71064789,25.6701226 2.79278873,25.6986509 2.844,25.7228491 C2.89749296,25.7467925 2.92816901,25.7592736 2.92816901,25.7592736 C3.40960563,25.5524434 3.92653521,25.4459717 4.44346479,25.3909528 C4.70180282,25.3636981 4.95557746,25.3568208 5.19819718,25.3728679 C5.44512676,25.3853491 5.69661972,25.4047075 5.93239437,25.4607453 C6.16588732,25.5226415 6.3935493,25.5809717 6.5928169,25.6701226 C6.79538028,25.7582547 6.97512676,25.8736415 7.146,25.9846981 C7.48647887,26.2180189 7.74811268,26.5473679 7.86092958,26.8940377 C7.86092958,26.8940377 8.0363662,26.9009151 8.29926761,26.9111038 C8.5631831,26.9179811 8.91507042,26.9421792 9.26569014,26.9238396 C9.61630986,26.9123774 9.96819718,26.9065189 10.2288169,26.8894528 C10.4861408,26.8642358 10.6580282,26.8481887 10.6580282,26.8481887 C10.6945352,26.6675943 10.7741408,26.4971887 10.8834085,26.3428302 C10.9369014,26.2671792 10.998507,26.1950943 11.0667042,26.1275943 C11.1326197,26.0578019 11.2020845,25.9869906 11.279662,25.9240755 C11.4320282,25.7982453 11.6064507,25.6894811 11.8031831,25.6026226 C11.9945915,25.5121981 12.1994366,25.4276321 12.4362254,25.3738868 C12.6775775,25.326 12.9042254,25.2778585 13.1498873,25.2607925 C13.392507,25.2411792 13.6566761,25.2526415 13.9013239,25.2630849 C14.4010141,25.2903396 14.9554648,25.4059811 15.4371549,25.5888679 C15.4371549,25.5888679 15.5441408,25.5295189 15.7036056,25.4403679 C15.8559718,25.3486698 16.0757746,25.2401604 16.2441127,25.1051604 C16.416,24.9770377 16.5970141,24.8557925 16.7065352,24.7551792 C16.8135211,24.654566 16.8829859,24.5880849 16.8829859,24.5880849 C16.5242535,24.3399906 16.3181408,24.0733019 16.1863099,23.810434 C16.1247042,23.6833302 16.1077183,23.5643774 16.104169,23.4466981 C16.0950423,23.3277453 16.1201408,23.2166887 16.1863099,23.113783 C16.2796056,22.9033868 16.5186761,22.7477547 16.7907042,22.624217" id="Fill-2" fill="#FFFFFE"></path>
                <path d="M4.83084507,8.42043396 C4.82171831,9.45101887 5.31811268,10.3822642 6.12076056,11.0386698 C7.11329577,11.8507075 7.92735211,13.4943962 7.97501408,15.2878585 C8.02749296,17.2792358 7.89211268,19.5839151 7.80895775,20.7563774 C6.74797183,20.9071698 6.0023662,21.2640283 6.0023662,21.6794717 C6.0023662,22.2316981 7.32270423,22.8700189 8.95183099,22.8700189 C10.5809577,22.8700189 11.9015493,22.2316981 11.9015493,21.6794717 C11.9015493,21.2640283 11.1569577,20.9071698 10.0936901,20.7563774 C10.0105352,19.5839151 9.87642254,17.2792358 9.92864789,15.2878585 C9.97757746,13.4943962 10.7893521,11.8507075 11.7831549,11.0386698 C12.5858028,10.3822642 13.0832113,9.45101887 13.0730704,8.42043396 C13.055831,6.45783962 11.2104507,4.87833962 8.95183099,4.87833962 C6.69219718,4.87833962 4.8468169,6.45783962 4.83084507,8.42043396" id="Fill-3" fill="#FFFFFE"></path>
                <g id="Group-6" transform="translate(4.816901, 4.839623)">
                    <mask id="mask-2" fill="white">
                        <use xlink:href="#path-1"></use>
                    </mask>
                    <g id="Clip-5"></g>
                    <polyline id="Fill-4" fill="#FFFFFE" mask="url(#mask-2)" points="10.7733803 0.398377358 8.10101408 19.1924151 -2.50225352 17.6704811 0.170112676 -1.1235566 10.7733803 0.398377358"></polyline>
                </g>
            </g>
        </g>
    </g>
</svg>