<?xml version="1.0" encoding="UTF-8" standalone="no"?>
<svg width="16px" height="16px" viewBox="0 0 16 16" version="1.1" xmlns="http://www.w3.org/2000/svg" xmlns:xlink="http://www.w3.org/1999/xlink">
    <!-- Generator: Sketch 49.3 (51167) - http://www.bohemiancoding.com/sketch -->
    <title>placeholder_ic</title>
    <desc>Created with Sketch.</desc>
    <defs></defs>
    <g id="Page-1" stroke="none" stroke-width="1" fill="none" fill-rule="evenodd">
        <g id="concourse_login_00_max_10" transform="translate(-615.000000, -266.000000)">
            <g id="Group-3" transform="translate(604.000000, 200.000000)">
                <g id="placeholder_ic" transform="translate(7.000000, 62.000000)">
                    <path d="M12,5.9 C13.16,5.9 14.1,6.84 14.1,8 C14.1,9.16 13.16,10.1 12,10.1 C10.84,10.1 9.9,9.16 9.9,8 C9.9,6.84 10.84,5.9 12,5.9 Z M12,14.9 C14.97,14.9 18.1,16.36 18.1,17 L18.1,18.1 L5.9,18.1 L5.9,17 C5.9,16.36 9.03,14.9 12,14.9 Z M12,4 C9.79,4 8,5.79 8,8 C8,10.21 9.79,12 12,12 C14.21,12 16,10.21 16,8 C16,5.79 14.21,4 12,4 Z M12,13 C9.33,13 4,14.34 4,17 L4,20 L20,20 L20,17 C20,14.34 14.67,13 12,13 Z" id="Shape" fill="#FFFFFF" fill-rule="nonzero"></path>
                    <polygon id="Shape" points="0 0 24 0 24 24 0 24"></polygon>
                </g>
            </g>
        </g>
    </g>
</svg>