<?xml version="1.0" encoding="UTF-8" standalone="no"?>
<svg width="23px" height="22px" viewBox="0 0 23 22" version="1.1" xmlns="http://www.w3.org/2000/svg" xmlns:xlink="http://www.w3.org/1999/xlink">
    <!-- Generator: Sketch 49.3 (51167) - http://www.bohemiancoding.com/sketch -->
    <title>git_hub_white</title>
    <desc>Created with Sketch.</desc>
    <defs></defs>
    <g id="Page-1" stroke="none" stroke-width="1" fill="none" fill-rule="evenodd">
        <g id="concourse_login_00_max_10" transform="translate(-611.000000, -359.000000)" fill="#FFFFFE">
            <g id="Group-3" transform="translate(604.000000, 200.000000)">
                <path d="M18.161936,159 C11.998475,159 7,163.99779 7,170.163307 C7,175.095309 10.1982291,179.278979 14.6340844,180.755085 C15.1925924,180.857878 15.3961223,180.513179 15.3961223,180.217135 C15.3961223,179.95193 15.3865283,179.250197 15.381046,178.318894 C12.2760158,178.993215 11.6208825,176.822229 11.6208825,176.822229 C11.1130857,175.532521 10.3812004,175.189193 10.3812004,175.189193 C9.36766263,174.497054 10.4579524,174.51076 10.4579524,174.51076 C11.5783948,174.589568 12.1677406,175.661355 12.1677406,175.661355 C13.163461,177.367032 14.7807356,176.874311 15.4166809,176.588547 C15.5181032,175.867626 15.8066085,175.375591 16.1252665,175.096679 C13.6465875,174.815027 11.0404454,173.856997 11.0404454,169.579443 C11.0404454,168.361005 11.4756019,167.363914 12.1896698,166.584059 C12.0745418,166.301721 11.691467,165.166202 12.2993155,163.629791 C12.2993155,163.629791 13.2361013,163.329636 15.3687109,164.774219 C16.2588972,164.526145 17.2141857,164.402794 18.1633066,164.397997 C19.1117422,164.402794 20.0663454,164.526145 20.9579023,164.774219 C23.0891413,163.329636 24.0245565,163.629791 24.0245565,163.629791 C24.6337757,165.166202 24.2507009,166.301721 24.1362581,166.584059 C24.8516966,167.363914 25.2834266,168.361005 25.2834266,169.579443 C25.2834266,173.867962 22.6731728,174.811601 20.1869557,175.087771 C20.5871627,175.43247 20.9441966,176.113644 20.9441966,177.154593 C20.9441966,178.647145 20.9304909,179.851193 20.9304909,180.217135 C20.9304909,180.51592 21.1319649,180.86336 21.698011,180.7544 C26.13044,179.274867 29.3259279,175.093938 29.3259279,170.163307 C29.3259279,163.99779 24.3274529,159 18.161936,159" id="git_hub_white"></path>
            </g>
        </g>
    </g>
</svg>