<?xml version="1.0" encoding="UTF-8" standalone="no"?>
<svg width="202px" height="74px" viewBox="0 0 202 74" version="1.1" xmlns="http://www.w3.org/2000/svg" xmlns:xlink="http://www.w3.org/1999/xlink">
    <!-- Generator: Sketch 49.1 (51147) - http://www.bohemiancoding.com/sketch -->
    <title>CFF-BOSH-logo</title>
    <desc>Created with Sketch.</desc>
    <defs></defs>
    <g id="Page-1" stroke="none" stroke-width="1" fill="none" fill-rule="evenodd">
        <g id="concourse.ci_start_v2-copy" transform="translate(-308.000000, -1367.000000)">
            <g id="CFF-BOSH-logo" transform="translate(308.000000, 1367.000000)">
                <path d="M140.366068,35.0208801 L140.366068,36.7743601 L129.105176,36.7743601 L129.105176,35.2604401 C129.105176,31.3550367 126.487545,28.2456968 120.143311,28.2456968 C114.909687,28.2456968 112.133163,30.5573267 112.133163,33.9054034 C112.133163,37.9705134 114.83024,39.0859901 123.71184,42.0356234 C136.955612,45.7821434 141,49.6875468 141,58.2960635 C141,68.3402934 132.753151,74 120.619169,74 C106.503126,74 100,67.5425834 100,57.7387367 L100,55.3472534 L111.260892,55.3472534 L111.260892,56.9410268 C111.260892,61.8828768 114.513274,64.7526568 120.936135,64.7526568 C126.487545,64.7526568 129.581034,62.6007334 129.581034,58.9340668 C129.581034,54.7100733 127.518708,53.6736267 117.685391,50.4852567 C105.234443,47.1371801 100.715016,43.2317767 100.715016,34.3837 C100.715016,25.2960635 108.088775,19 120.461096,19 C134.021834,19 140.366068,25.5356234 140.366068,35.0208801" id="Fill-1" fill="#181D1B"></path>
                <path d="M12.5029962,62.3055686 L22.8267018,62.3055686 C26.4407359,62.3055686 30.4961849,60.7631059 30.4961849,56.2099451 C30.4961849,51.2880941 24.9658038,50.4805647 21.2043584,50.4805647 L12.5029962,50.4805647 L12.5029962,62.3055686 Z M12.5029962,40.7853176 L20.8358301,40.7853176 C24.3753396,40.7853176 28.0622603,39.3170824 28.0622603,35.1301647 C28.0622603,30.7972392 23.9331056,29.6952471 20.3198905,29.6952471 L12.5029962,29.6952471 L12.5029962,40.7853176 Z M1,20 L20.4673019,20 C29.6108981,20 39.5660754,21.9103373 39.5660754,33.2206431 C39.5660754,39.0234353 35.9528603,42.989302 30.5698905,44.6785882 L30.5698905,44.8254118 C37.4277924,45.7071686 42,50.7742118 42,57.5313569 C42,68.4011922 31.6754754,72 22.3844679,72 L1,72 L1,20 Z" id="Fill-2" fill="#181D1B"></path>
                <polyline id="Fill-3" fill="#181D1B" points="146 20 157.414151 20 157.414151 39.3904941 179.585037 39.3904941 179.585037 20 191 20 191 72 179.585037 72 179.585037 49.5262118 157.414151 49.5262118 157.414151 72 146 72 146 20"></polyline>
                <path d="M9,9.53318281 C7.97535104,10.5105233 6.61619179,11 5.26970339,11 C1.81563118,11 0.0180607157,8.69534715 0.000321533422,6.05443109 C-0.0275543244,3.44496412 1.7573453,1 5.26970339,1 C6.61619179,1 7.97535104,1.48867027 9,2.46681719 L8.45684313,2.91194259 C7.5800207,2.07491331 6.42359496,1.67010725 5.26970339,1.67010725 C2.28529715,1.67010725 0.747901357,3.68204177 0.763106371,6.02782034 C0.790982228,8.31795823 2.31317301,10.3000564 5.26970339,10.3000564 C6.42359496,10.3000564 7.59522571,9.88154181 8.47289287,9.05822111 L9,9.53318281" id="Fill-4" fill="#00B3D6"></path>
                <polyline id="Fill-5" fill="#00B3D6" points="12.7244845 1 12.7244845 10.2692784 18 10.2692784 18 11 12 11 12 1 12.7244845 1"></polyline>
                <path d="M21.7507902,4.9928138 C21.7655116,7.17901629 23.1820351,9.30772916 26.0011786,9.30772916 C28.8342257,9.30772916 30.2654706,7.17901629 30.2654706,4.9928138 C30.2654706,2.75151709 28.848947,0.69227084 26.0011786,0.69227084 C23.1525923,0.69227084 21.7360688,2.71079527 21.7507902,4.9928138 M30.9999037,5.0071862 C30.9876359,7.55030342 29.3298453,10 26.0011786,10 C22.671694,10 21,7.53832641 21,4.97844139 C21,2.38022996 22.6569727,0 26.0011786,0 C29.3421131,0 31.014625,2.39220696 30.9999037,5.0071862" id="Fill-6" fill="#00B3D6"></path>
                <path d="M42,1 L42,7.12875557 C42,12.2830919 34,12.2977326 34,7.12875557 L34,1 L34.7886231,1 L34.7886231,7.12875557 C34.7886231,11.3672354 41.2079293,11.3550348 41.2079293,7.12875557 L41.2079293,1 L42,1" id="Fill-7" fill="#00B3D6"></path>
                <path d="M46.7301273,1.72760271 L46.7301273,10.2567233 L49.2028875,10.2567233 C52.0134095,10.2567233 53.3106336,8.0277182 53.2685108,5.8861574 C53.2287283,3.79821812 51.9307242,1.72760271 49.2028875,1.72760271 L46.7301273,1.72760271 Z M53.9986381,5.8861574 C54.0524616,8.42946708 52.5118618,11 49.2028875,11 L46,11 L46,1 L49.2028875,1 C52.4042148,1 53.9448146,3.42946708 53.9986381,5.8861574 Z" id="Fill-8" fill="#00B3D6"></path>
                <polyline id="Fill-9" fill="#00B3D6" points="59 11 59 1 66 1 66 2.81795655 60.8351699 2.81795655 60.8351699 5.55026018 65.7227961 5.55026018 65.7227961 7.29553151 60.8351699 7.29553151 60.8351699 11 59 11"></polyline>
                <path d="M69.807675,5.08187643 C69.8486308,6.65691005 70.7119141,8.34269441 73.007043,8.34269441 C75.302172,8.34269441 76.1646522,6.6450439 76.191153,5.06763705 C76.220866,3.45067637 75.302172,1.64306621 73.007043,1.64306621 C70.7119141,1.64306621 69.7667193,3.46491575 69.807675,5.08187643 M77.9996311,5.04153152 C77.9731303,7.52076576 76.428054,10 73.007043,10 C69.5836229,10 68,7.57535005 68,5.0557709 C68,2.53381853 69.6414428,0 73.007043,0 C76.3581883,0 78.0285411,2.53381853 77.9996311,5.04153152" id="Fill-10" fill="#00B3D6"></path>
                <path d="M91,1 L91,6.61610608 C91,9.51471539 89.1383979,11 86.560079,11 C84.0959947,11 82,9.57050453 82,6.61610608 L82,1 L83.9208349,1 L83.9208349,6.61610608 C83.9208349,8.38114489 84.976871,9.31824062 86.5753103,9.31824062 C88.1729033,9.31824062 89.0800113,8.29624838 89.0800113,6.61610608 L89.0800113,1 L91,1" id="Fill-11" fill="#00B3D6"></path>
                <polyline id="Fill-12" fill="#00B3D6" points="100.186762 1 102 1 102 10.9876624 100.87268 10.9876624 100.87268 11 95.8132381 4.26204968 95.8132381 10.9876624 94 10.9876624 94 1.01480507 95.4702789 1.01480507 100.186762 7.19756539 100.186762 1"></polyline>
                <path d="M107.8871,9.18556701 L109.960417,9.18556701 C112.249045,9.18556701 113.15768,7.52865979 113.112789,5.89979381 C113.070391,4.34268041 112.149287,2.78474227 109.960417,2.78474227 L107.8871,2.78474227 L107.8871,9.18556701 Z M114.999058,5.91463918 C115.043949,8.44247423 113.486883,11 109.960417,11 L106,11 L106,1 L109.960417,1 C113.417052,1 114.95666,3.44371134 114.999058,5.91463918 Z" id="Fill-13" fill="#00B3D6"></path>
                <path d="M118.917676,2.76771005 L118.917676,5.96293245 L121.836096,5.96293245 C123.053921,5.96293245 123.576923,5.16392092 123.576923,4.36490939 C123.576923,3.56672158 123.038834,2.76771005 121.836096,2.76771005 L118.917676,2.76771005 Z M126,11 L123.720246,11 L120.75908,7.66144975 L118.917676,7.66144975 L118.917676,11 L117,11 L117,1 C118.612591,1 120.223505,1.01235585 121.836096,1.01235585 C124.229,1.02718287 125.492084,2.59719934 125.492084,4.32289951 C125.492084,5.69275124 124.85258,7.07495881 122.92317,7.46128501 L126,10.8706755 L126,11 Z" id="Fill-14" fill="#00B3D6"></path>
                <polyline id="Fill-15" fill="#00B3D6" points="132.926564 5.12803168 135.661092 1 138 1 138 1.08414453 133.896935 6.87196832 133.896935 11 131.955344 11 131.955344 6.87196832 128 1.08414453 128 1 130.308345 1 132.926564 5.12803168"></polyline>
                <path d="M65.9706264,45.7656093 C66.237861,43.2442629 68.3455925,41.2748489 70.897357,41.2748489 C73.6299938,41.2748489 75.8526035,43.5322276 75.8526035,46.3076119 C75.8526035,48.3051605 74.6997469,50.0321214 73.0352339,50.8438841 C73.0107917,50.8554689 72.8641385,50.9605595 72.8551764,51.1417787 C72.84377,51.3560972 72.9407241,51.4471206 72.9741284,51.4711176 C73.6870256,51.9949156 77.42831,54.7057561 78.9404668,55.8005186 C79.1254127,55.9345711 79.3567988,56.0156646 79.5678163,55.99746 C79.8049056,55.9776003 80.0167379,55.8443753 80.1079887,55.7525244 C82.5065822,53.342061 84,50.0056419 84,46.3076119 C84,38.9578912 78.1338746,33 70.897357,33 C65.7050213,33 61.2198795,36.068314 59.099927,40.5168727 C59.0534868,40.6145159 58.9614212,40.9182029 59.0176383,41.128384 C59.0877059,41.3915242 59.3174624,41.5578487 59.3174624,41.5578487 C59.3174624,41.5578487 64.4543959,45.2815307 65.4068266,45.976618 C65.4443046,46.003925 65.6170294,46.0957758 65.7669415,46.0287495 C65.9209273,45.9592408 65.9673674,45.7995362 65.9706264,45.7656093" id="Fill-16" fill="#285797"></path>
                <path d="M88.4490041,47.4898057 C87.6761376,56.5385767 79.9211052,63.6707284 70.5008667,63.6707284 C70.4670847,63.6707284 70.4333027,63.6683033 70.3995207,63.6683033 C60.8425062,63.6165684 53.0240296,56.2273585 52.5148275,46.9611389 C52.5123557,46.9142541 52.4859892,46.5084578 52.2363319,46.2796922 C51.9874985,46.0509266 51.6760448,46 51.4321552,46 C49.3953468,46 44.8924514,46 44.2316422,46 C43.7949479,46 43.4942056,46.063052 43.248668,46.2885842 C42.9874754,46.5278584 42.9915951,46.9958983 43.0047783,47.2456813 C43.0088981,47.3386426 43.0253771,47.5649831 43.0311448,47.6579444 C43.9053574,61.7436005 55.8386482,72.9450316 70.3995207,72.9967666 C70.4333027,72.9975749 70.4670847,73 70.5008667,73 C82.9796135,73 93.5377291,64.8064729 96.8978037,53.6171672 C96.9348815,53.4959133 97.0543545,53.0957756 96.9711354,52.7263555 C96.910163,52.4547469 96.6827523,52.2001138 96.5196099,52.0845184 C94.9120804,50.9431155 90.6382435,47.9101524 89.4805915,47.0953265 C89.3454635,46.9999401 89.0941582,46.8867699 88.8000075,47.0007485 C88.4951454,47.1179605 88.4539479,47.436454 88.4490041,47.4898057" id="Fill-17" fill="#181D1B"></path>
                <path d="M52.5505381,44.5101943 C53.3242289,35.460615 61.0784403,28.3284632 70.4995063,28.3284632 C70.5332883,28.3284632 70.5662464,28.3308883 70.6000284,28.3308883 C80.1570465,28.3834316 87.97635,35.7726415 88.4847284,45.0380528 C88.4872002,45.0857459 88.5143906,45.4915422 88.7632241,45.7194994 C89.0120576,45.948265 89.3235114,46 89.5682251,46 C91.6050342,46 96.1071074,46 96.7679168,46 C97.2054353,46 97.5053538,45.936948 97.7517154,45.7106075 C98.0120842,45.4713332 98.0079644,45.0032933 97.9956052,44.7543187 C97.9906614,44.6613574 97.9741824,44.4342086 97.9684147,44.3412473 C97.0942018,30.2555911 85.1609064,19.0541601 70.6000284,19.0024251 C70.5662464,19.0024251 70.5332883,19 70.4995063,19 C58.0199308,19 47.4618111,27.1927188 44.1017353,38.3820245 C44.0654814,38.5040867 43.9460084,38.9042244 44.0284036,39.2736445 C44.0902,39.5452531 44.3167867,39.7990779 44.4799292,39.9154816 C46.0874594,41.0560762 50.3612979,44.0890393 51.5197743,44.9046735 C51.6540784,44.9992515 51.9053837,45.1132301 52.1995346,44.9992515 C52.5043968,44.8812311 52.5455944,44.5627376 52.5505381,44.5101943" id="Fill-18" fill="#00B3D6"></path>
                <polyline id="Fill-19" fill="#181D1B" points="195.1625 68.6214689 194 68.6214689 194 68 197 68 197 68.6214689 195.8375 68.6214689 195.8375 72 195.1625 72 195.1625 68.6214689"></polyline>
                <polyline id="Fill-20" fill="#181D1B" points="198 68 199.031969 68 199.995139 70.8418079 200.010843 70.8418079 200.963545 68 202 68 202 72 201.345672 72 201.345672 68.7853107 201.335203 68.7853107 200.209759 72 199.749112 72 198.639372 68.7853107 198.628155 68.7853107 198.628155 72 198 72 198 68"></polyline>
            </g>
        </g>
    </g>
</svg>