<?xml version="1.0" encoding="UTF-8" standalone="no"?>
<!-- Created with Inkscape (http://www.inkscape.org/) -->
<svg
   xmlns:svg="http://www.w3.org/2000/svg"
   xmlns="http://www.w3.org/2000/svg"
   version="1.0"
   width="747.63776"
   height="909.28345"
   id="svg2811">
  <defs
     id="defs2813">
    <clipPath
       id="clp12">
      <path
         d="M 45.315,71.927 L 58.235,71.927 L 58.235,87.794 L 45.315,87.794 L 45.315,71.927 z "
         id="path184" />
    </clipPath>
    <clipPath
       id="clp21">
      <path
         d="M 123.91,72.178 L 150.14,72.178 L 150.14,87.472 L 123.91,87.472 L 123.91,72.178 z "
         id="path592" />
    </clipPath>
    <clipPath
       id="clp9">
      <path
         d="M 413.96,49.857 L 445.72,49.857 L 445.72,58.576 L 413.96,58.576 L 413.96,49.857 z "
         id="path100" />
    </clipPath>
  </defs>
  <g
     transform="translate(-1074.235,-1639.219)"
     id="layer1">
    <g
       transform="translate(19.48863,19.49672)"
       id="g25472">
      <g
         transform="matrix(54.85033,0,0,-54.85033,-1411.313,6454.729)"
         style="fill:#b3b3b3;fill-rule:nonzero;stroke:none"
         clip-path="url(#clp12)"
         id="g186">
        <path
           d="M 56.105,79.364 C 56.087,81.372 57.745,82.336 57.82,82.383 C 56.887,83.748 55.435,83.935 54.917,83.957 C 53.682,84.082 52.506,83.23 51.88,83.23 C 51.254,83.23 50.286,83.939 49.262,83.919 C 47.914,83.899 46.673,83.136 45.979,81.93 C 44.58,79.503 45.622,75.906 46.984,73.936 C 47.651,72.973 48.445,71.888 49.489,71.928 C 50.495,71.968 50.875,72.578 52.089,72.578 C 53.303,72.578 53.645,71.928 54.708,71.947 C 55.789,71.968 56.475,72.931 57.137,73.897 C 57.901,75.015 58.217,76.097 58.235,76.154 C 58.211,76.164 56.127,76.963 56.105,79.364"
           style="fill:#b3b3b3;fill-rule:nonzero;stroke:none"
           id="path188" />
      </g>
      <path
         d="M 1556.5087,1778.2074 C 1586.8952,1741.403 1607.4089,1690.2272 1601.7588,1639.2187 C 1557.9852,1640.9758 1505.0032,1668.3995 1473.5732,1705.2039 C 1445.4359,1737.7314 1420.7536,1789.8374 1427.4422,1839.8074 C 1476.2605,1843.5921 1526.1172,1814.9577 1556.5087,1778.2074"
         style="fill:#b3b3b3;fill-rule:nonzero;stroke:none"
         id="path190" />
    </g>
  </g>
</svg>
