<?xml version="1.0" encoding="UTF-8" standalone="no"?>
<svg width="200px" height="166px" viewBox="0 0 200 166" version="1.1" xmlns="http://www.w3.org/2000/svg" xmlns:xlink="http://www.w3.org/1999/xlink">
    <!-- Generator: Sketch 49.1 (51147) - http://www.bohemiancoding.com/sketch -->
    <title>docker-logo</title>
    <desc>Created with Sketch.</desc>
    <defs>
        <path d="M26.7708861,0.10625 C34.0924051,11.958125 45.0050633,16.11125 49.6316456,17.353125 C24.2987342,25.005 8.93101266,11.603125 0.306329114,4.500625 C2.89367089,4.61375 15.2734177,4.044375 26.7708861,0.10625 Z" id="path-1"></path>
        <polygon id="path-3" points="0.559288175 0.0782661597 154.986138 0.0782661597 154.986138 165.962129 0.559288175 165.962129"></polygon>
    </defs>
    <g id="Page-1" stroke="none" stroke-width="1" fill="none" fill-rule="evenodd">
        <g id="concourse.ci_start_v2-copy" transform="translate(-309.000000, -834.000000)">
            <g id="docker-logo" transform="translate(309.000000, 834.000000)">
                <polygon id="Fill-1" fill="#2097C8" points="65 51 81 51 81 37 65 37"></polygon>
                <polygon id="Fill-2" fill="#2097C8" points="46 51 62 51 62 37 46 37"></polygon>
                <polygon id="Fill-3" fill="#2097C8" points="83 51 99 51 99 37 83 37"></polygon>
                <polygon id="Fill-4" fill="#2097C8" points="101 51 117 51 117 37 101 37"></polygon>
                <polygon id="Fill-5" fill="#2097C8" points="120 51 136 51 136 37 120 37"></polygon>
                <polygon id="Fill-6" fill="#2097C8" points="65 33 81 33 81 19 65 19"></polygon>
                <polygon id="Fill-7" fill="#2097C8" points="83 33 99 33 99 19 83 19"></polygon>
                <polygon id="Fill-8" fill="#2097C8" points="101 33 117 33 117 19 101 19"></polygon>
                <polygon id="Fill-9" fill="#2097C8" points="101 17 117 17 117 3 101 3"></polygon>
                <path d="M181.887665,40.245625 C178.704598,38.126851 170.342004,37.2227405 164.260808,38.8418746 C163.934713,32.8524559 160.810533,27.8053408 155.097223,23.4031243 L152.981722,22 L151.571599,24.1049995 C148.801375,28.2636571 147.634398,33.8041511 148.04724,38.8418746 C148.373969,41.9449019 149.464962,45.4336161 151.571599,47.9650002 C149.957587,49.2047084 144.94079,51.6014776 138.177644,51.4737501 L37.368715,51.4737501 C35.5761426,62 38.6458675,102 85.3059389,102 C119.946087,102 148.408794,86.5963122 161.441195,54.2806249 C165.729818,54.3501237 177.050695,55.0407288 182.59051,44.4562502 C182.724747,44.2778073 184,41.6493755 184,41.6493755 L181.887665,40.245625" id="Fill-10" fill="#2097C8"></path>
                <g id="Group-13" transform="translate(47.000000, 84.000000)">
                    <mask id="mask-2" fill="white">
                        <use xlink:href="#path-1"></use>
                    </mask>
                    <g id="Clip-12"></g>
                    <polygon id="Fill-11" fill="#FFFFFE" mask="url(#mask-2)" points="0.303797468 19.6375 49.6708861 19.6375 49.6708861 0.0625 0.303797468 0.0625"></polygon>
                </g>
                <path d="M72.6295057,81 C67.1121773,83.8449442 60.7167477,85.4430864 53.9343476,85.4430864 C50.4970646,85.4430864 47.1677293,85.0301475 44,84.2561721 C46.0068178,87.3030229 46.0068178,87.3030229 46.0068178,87.3030229 C48.5710498,87.7598794 51.221135,88 53.9343476,88 C61.2438609,88 68.060981,86.2740976 74,83.2375132 C73.5082381,82.5023222 73.0511963,81.7671311 72.6295057,81" id="Fill-14" fill="#1869A5"></path>
                <path d="M83.0003229,80 C85.7614157,80 88,77.7609546 88,74.9996792 C88,72.2384038 85.7614157,70 83.0003229,70 C80.2385843,70 78,72.2384038 78,74.9996792 C78,77.7609546 80.2385843,80 83.0003229,80" id="Fill-15" fill="#FFFFFE"></path>
                <path d="M83.7750904,73.5097687 C83.7750904,73.0287447 84.0144665,72.6191332 84.3643761,72.3422412 C83.9541139,72.1306984 83.494349,72 83,72 C81.3433544,72 80,73.3426903 80,75 C80,76.656636 81.3433544,78 83,78 C84.6566456,78 86,76.656636 86,75 L85.9823689,74.827532 C85.7707957,74.9400404 85.5409132,75.0195374 85.2845841,75.0195374 C84.4511754,75.0195374 83.7750904,74.3438132 83.7750904,73.5097687" id="Fill-16" fill="#435155"></path>
                <path d="M181,41 C178.726281,39.9180509 174.581488,39.248062 170.301818,39.248062 C167.807934,39.248062 165.267769,39.4756368 163.025124,39.9811739 C163.018512,39.8693245 163.009917,39.7580288 163,39.6467331 C165.020496,39.1993355 167.339835,39 169.655207,39 C174.258843,39 178.841983,39.7906977 181,41" id="Fill-17" fill="#E6E2DE"></path>
                <path d="M92.4717599,103 C94.1496221,102.658964 95.8770012,102.223371 97.6513579,101.684396 C95.4783264,101.097512 91.9213601,99.8670094 88,97.4961488 C120.309163,96.7151075 143.9681,80.2476804 162.879759,41.379686 L164.176721,39.5635601 C164.308132,39.5257372 164.441447,39.4891752 164.575396,39.4538739 C164.584919,39.5805803 164.593172,39.7072868 164.59952,39.8346236 C166.752872,39.2590863 169.191898,39 171.586486,39 C175.695757,39 179.675521,39.7627603 181.85871,40.9945236 C181.860615,40.9957843 181.862519,40.9970451 181.865058,40.9983059 L184,42.4355732 L182.925229,44.6954869 C178.022418,54.5609401 167.379451,55.3035282 162.396016,55.3035282 C161.990358,55.3035282 161.621521,55.2984851 161.297121,55.2934421 C149.081675,85.3323287 123.701073,100.825818 92.4717599,103" id="Fill-18" fill="#E6E2DE"></path>
                <path d="M92.4717599,103 C94.1496221,102.658964 95.8770012,102.223371 97.6513579,101.684396 C95.4783264,101.097512 91.9213601,99.8670094 88,97.4961488 C120.309163,96.7151075 143.9681,80.2476804 162.879759,41.379686 L164.176721,39.5635601 C164.308132,39.5257372 164.441447,39.4891752 164.575396,39.4538739 C164.584919,39.5805803 164.593172,39.7072868 164.59952,39.8346236 C166.752872,39.2590863 169.191898,39 171.586486,39 C175.695757,39 179.675521,39.7627603 181.85871,40.9945236 C181.860615,40.9957843 181.862519,40.9970451 181.865058,40.9983059 L184,42.4355732 L182.925229,44.6954869 C178.022418,54.5609401 167.379451,55.3035282 162.396016,55.3035282 C161.990358,55.3035282 161.621521,55.2984851 161.297121,55.2934421 C149.081675,85.3323287 123.701073,100.825818 92.4717599,103" id="Fill-19" fill="#2A8BB4"></path>
                <path d="M67,102 C57.5141512,99.4437908 50.7698266,94.6640523 46,89 C46.4811118,89.0980392 46.9653518,89.1869281 47.45272,89.2666667 C51.7157838,94.3248366 57.5185307,98.6535948 65.3514568,101.320261 C65.8907525,101.555556 66.4413097,101.783007 67,102" id="Fill-20" fill="#E6E2DE"></path>
                <path d="M66,101 C58.1227586,98.3451903 52.2871824,94.0356794 48,89 C48.1447097,89.0240755 48.2906778,89.0468496 48.4360166,89.068973 C52.639519,92.7024184 58.3788318,97.7068648 66,101" id="Fill-21" fill="#E6E2DE"></path>
                <path d="M66,101 C58.1227586,98.3451903 52.2871824,94.0356794 48,89 C48.1447097,89.0240755 48.2906778,89.0468496 48.4360166,89.068973 C52.639519,92.7024184 58.3788318,97.7068648 66,101" id="Fill-22" fill="#2A8BB4"></path>
                <path d="M46,88 C35.4398327,75.7329906 34.6574576,59.3298883 35.0878271,53 L36.7562198,53 C36.0117627,59.5414759 36.9350664,73.5683361 45.0122357,85.1004905 C44.7227948,85.029539 44.433986,84.9547865 44.146441,84.8768665 C45.3004126,86.8204311 45.7914509,87.6477764 46,88" id="Fill-23" fill="#E6E2DE"></path>
                <path d="M54,86 C51.1066685,85.9426766 48.2915524,85.5710195 45.5867073,84.9196747 C37.3926744,73.4524787 36.456012,59.504629 37.2112402,53 L41.2290795,53 C42.5805403,66.5459561 45.7835282,78.1498463 54,86" id="Fill-24" fill="#E6E2DE"></path>
                <path d="M54,86 C51.1066685,85.9426766 48.2915524,85.5710195 45.5867073,84.9196747 C37.3926744,73.4524787 36.456012,59.504629 37.2112402,53 L41.2290795,53 C42.5805403,66.5459561 45.7835282,78.1498463 54,86" id="Fill-25" fill="#2A8BB4"></path>
                <path d="M84.0283659,103 C77.7225606,103 72.2129973,102.310514 67.3987171,101.09003 C66.8316963,100.882872 66.2729299,100.665731 65.7255928,100.441102 C58.0343009,97.2831929 52.2421796,92.4842448 48,89 C49.9493326,89.2795383 51.9431126,89.4249231 53.9724504,89.4249231 C54.809965,89.4249231 55.64113,89.4005883 56.4646754,89.3525427 C63.3959181,94.3692561 73.2225865,97.2532424 87.1911105,97.2913045 C87.2425424,97.2900566 87.2952443,97.2888087 87.3466762,97.2875607 C91.268835,99.6343094 94.8265259,100.852298 97,101.433213 C95.2252818,101.966707 93.4975509,102.39787 91.8193469,102.735437 C89.259181,102.91202 86.6628223,103 84.0283659,103" id="Fill-26" fill="#E6E2DE"></path>
                <path d="M84.0283659,103 C77.7225606,103 72.2129973,102.310514 67.3987171,101.09003 C66.8316963,100.882872 66.2729299,100.665731 65.7255928,100.441102 C58.0343009,97.2831929 52.2421796,92.4842448 48,89 C49.9493326,89.2795383 51.9431126,89.4249231 53.9724504,89.4249231 C54.809965,89.4249231 55.64113,89.4005883 56.4646754,89.3525427 C63.3959181,94.3692561 73.2225865,97.2532424 87.1911105,97.2913045 C87.2425424,97.2900566 87.2952443,97.2888087 87.3466762,97.2875607 C91.268835,99.6343094 94.8265259,100.852298 97,101.433213 C95.2252818,101.966707 93.4975509,102.39787 91.8193469,102.735437 C89.259181,102.91202 86.6628223,103 84.0283659,103" id="Fill-27" fill="#E3E0DB"></path>
                <path d="M53.6045163,89 C51.6539518,89 49.7375648,88.8580134 47.8638999,88.5850091 C47.7229173,88.5642901 47.5813244,88.5429616 47.4409521,88.5204144 C46.9655172,88.4460695 46.493134,88.3631932 46.0238023,88.2717855 C45.9450717,88.182206 45.8675618,88.0938452 45.7900519,88.0042657 C45.5886482,87.6654479 45.1144339,86.8695917 44,85 C44.277693,85.0749543 44.5566067,85.1468617 44.8361306,85.2151127 C47.4110467,85.8452163 50.0909368,86.2047532 52.8452853,86.2602072 C53.8205676,87.2071907 54.8709185,88.0987203 56,88.9293114 C55.2084223,88.976234 54.4095209,89 53.6045163,89" id="Fill-28" fill="#E6E2DE"></path>
                <path d="M53.6045163,89 C51.6539518,89 49.7375648,88.8580134 47.8638999,88.5850091 C47.7229173,88.5642901 47.5813244,88.5429616 47.4409521,88.5204144 C46.9655172,88.4460695 46.493134,88.3631932 46.0238023,88.2717855 C45.9450717,88.182206 45.8675618,88.0938452 45.7900519,88.0042657 C45.5886482,87.6654479 45.1144339,86.8695917 44,85 C44.277693,85.0749543 44.5566067,85.1468617 44.8361306,85.2151127 C47.4110467,85.8452163 50.0909368,86.2047532 52.8452853,86.2602072 C53.8205676,87.2071907 54.8709185,88.0987203 56,88.9293114 C55.2084223,88.976234 54.4095209,89 53.6045163,89" id="Fill-29" fill="#1D6296"></path>
                <polygon id="Fill-30" fill="#1869A5" points="49 48 51 48 51 40 49 40"></polygon>
                <polygon id="Fill-31" fill="#1869A5" points="53 48 55 48 55 40 53 40"></polygon>
                <polygon id="Fill-32" fill="#1869A5" points="57 48 59 48 59 40 57 40"></polygon>
                <polygon id="Fill-33" fill="#1869A5" points="67 48 69 48 69 40 67 40"></polygon>
                <polygon id="Fill-34" fill="#1869A5" points="72 48 74 48 74 40 72 40"></polygon>
                <polygon id="Fill-35" fill="#1869A5" points="76 48 78 48 78 40 76 40"></polygon>
                <polygon id="Fill-36" fill="#1869A5" points="86 48 88 48 88 40 86 40"></polygon>
                <polygon id="Fill-37" fill="#1869A5" points="90 48 92 48 92 40 90 40"></polygon>
                <polygon id="Fill-38" fill="#1869A5" points="94 48 96 48 96 40 94 40"></polygon>
                <polygon id="Fill-39" fill="#1869A5" points="104 48 106 48 106 40 104 40"></polygon>
                <polygon id="Fill-40" fill="#1869A5" points="108 48 110 48 110 40 108 40"></polygon>
                <polygon id="Fill-41" fill="#1869A5" points="112 48 114 48 114 40 112 40"></polygon>
                <polygon id="Fill-42" fill="#1869A5" points="123 48 125 48 125 40 123 40"></polygon>
                <polygon id="Fill-43" fill="#1869A5" points="126 48 128 48 128 40 126 40"></polygon>
                <polygon id="Fill-44" fill="#1869A5" points="131 48 133 48 133 40 131 40"></polygon>
                <polygon id="Fill-45" fill="#1869A5" points="72 30 74 30 74 22 72 22"></polygon>
                <polygon id="Fill-46" fill="#1869A5" points="76 30 78 30 78 22 76 22"></polygon>
                <polygon id="Fill-47" fill="#1869A5" points="86 30 88 30 88 22 86 22"></polygon>
                <polygon id="Fill-48" fill="#1869A5" points="90 30 92 30 92 22 90 22"></polygon>
                <polygon id="Fill-49" fill="#1869A5" points="94 30 96 30 96 22 94 22"></polygon>
                <polygon id="Fill-50" fill="#1869A5" points="104 30 106 30 106 22 104 22"></polygon>
                <polygon id="Fill-51" fill="#1869A5" points="108 30 110 30 110 22 108 22"></polygon>
                <polygon id="Fill-52" fill="#1869A5" points="112 30 114 30 114 22 112 22"></polygon>
                <polygon id="Fill-53" fill="#1869A5" points="108 14 110 14 110 6 108 6"></polygon>
                <polygon id="Fill-54" fill="#1869A5" points="104 14 106 14 106 6 104 6"></polygon>
                <polygon id="Fill-55" fill="#1869A5" points="112 14 114 14 114 6 112 6"></polygon>
                <g id="Group-59" transform="translate(0.000000, 22.000000)" fill="#1869A5">
                    <polygon id="Fill-56" points="67.0429091 8.91221053 68.4398455 8.91221053 68.4398455 0.474315789 67.0429091 0.474315789"></polygon>
                    <path d="M26.5116818,131.093684 C25.9609364,132.373263 25.2107182,133.495579 24.2610273,134.461263 C23.3113364,135.428842 22.1954182,136.195579 20.9164091,136.758316 C19.6355182,137.323579 18.2649273,137.604632 16.8040091,137.604632 C15.3236455,137.604632 13.9436455,137.323579 12.6627545,136.758316 C11.3818636,136.195579 10.2715909,135.434526 9.33319091,134.477053 C8.39165455,133.520842 7.64708182,132.398526 7.09696364,131.108842 C6.54621818,129.820421 6.27147273,128.449263 6.27147273,126.999158 C6.27147273,125.549053 6.54621818,124.179789 7.09696364,122.890105 C7.64708182,121.601684 8.39165455,120.478737 9.33319091,119.520632 C10.2715909,118.565684 11.3818636,117.805263 12.6627545,117.24 C13.9436455,116.677263 15.3236455,116.394316 16.8040091,116.394316 C18.2649273,116.394316 19.6355182,116.677263 20.9164091,117.24 C22.1954182,117.805263 23.3113364,118.570105 24.2610273,119.535789 C25.2107182,120.504 25.9609364,121.626316 26.5116818,122.905895 C27.0618,124.185474 27.3365455,125.549053 27.3365455,126.999158 C27.3365455,128.449263 27.0618,129.814737 26.5116818,131.093684 Z M30.4584818,95.5768421 C29.5577182,95.5768421 28.8118909,95.8749474 28.2222545,96.4686316 C27.6313636,97.0629474 27.3365455,97.8126316 27.3365455,98.7183158 L27.3365455,113.795368 C24.2961545,111.317684 20.7846818,110.079789 16.8040091,110.079789 C12.1628182,110.079789 8.20159091,111.731368 4.92095455,115.034526 C1.63969091,118.339579 0,122.326105 0,126.999158 C0,131.672842 1.63969091,135.660632 4.92095455,138.964421 C8.20159091,142.267579 12.1628182,143.918526 16.8040091,143.918526 C21.4050545,143.918526 25.3662818,142.267579 28.6876909,138.964421 C31.9683273,135.700421 33.6080182,131.712 33.6080182,126.999158 L33.6080182,98.7183158 C33.6080182,97.8126316 33.3037909,97.0629474 32.6934545,96.4686316 C32.0831182,95.8749474 31.3385455,95.5768421 30.4584818,95.5768421 Z" id="Fill-58"></path>
                </g>
                <path d="M63.820664,153.114039 C63.2641608,154.399716 62.503966,155.527381 61.5432523,156.497667 C60.5825386,157.469857 59.4530337,158.240248 58.1591796,158.805667 C56.8634217,159.373624 55.4775573,159.656016 53.9996827,159.656016 C52.5015024,159.656016 51.1054852,159.373624 49.8109964,158.805667 C48.5152386,158.240248 47.3927138,157.475568 46.4415184,156.513532 C45.489054,155.552764 44.7358392,154.4251 44.179336,153.129269 C43.6228327,151.834708 43.3442638,150.457016 43.3442638,149 C43.3442638,147.542984 43.6228327,146.167195 44.179336,144.871365 C44.7358392,143.576804 45.489054,142.448505 46.4415184,141.485834 C47.3927138,140.526335 48.5152386,139.76229 49.8109964,139.194333 C51.1054852,138.628915 52.5015024,138.344619 53.9996827,138.344619 C55.4775573,138.344619 56.8634217,138.628915 58.1591796,139.194333 C59.4530337,139.76229 60.5825386,140.530778 61.5432523,141.501064 C62.503966,142.473889 63.2641608,143.601553 63.820664,144.88723 C64.3758982,146.172907 64.6544671,147.542984 64.6544671,149 C64.6544671,150.457016 64.3758982,151.828997 63.820664,153.114039 Z M66.0206603,136.978349 C62.6607006,133.65945 58.6534966,132 53.9996827,132 C49.3039884,132 45.2967843,133.65945 41.9793397,136.978349 C38.6587223,140.299153 37,144.304677 37,149 C37,153.695957 38.6587223,157.702751 41.9793397,161.022285 C45.2967843,164.341185 49.3039884,166 53.9996827,166 C58.6534966,166 62.6607006,164.341185 66.0206603,161.022285 C69.339374,157.74273 71,153.735302 71,149 C70.9784252,146.653291 70.5589855,144.477285 69.7397772,142.473889 C68.9199343,140.469857 67.6812863,138.638434 66.0206603,136.978349 Z" id="Fill-60" fill="#1869A5"></path>
                <path d="M135,135.520336 C135,135.099541 134.91671,134.700696 134.746372,134.320665 C134.576034,133.940633 134.35184,133.605754 134.071284,133.3154 C133.791354,133.0263 133.46195,132.801165 133.082448,132.63937 C132.703572,132.480083 132.293383,132.400439 131.854388,132.400439 C131.235035,132.400439 130.675801,132.561608 130.176687,132.879555 L112.262417,144.55079 L112.262417,121.149998 C112.262417,120.270783 111.956811,119.526398 111.347478,118.914333 C110.740023,118.305405 110.004816,118 109.145612,118 C108.265742,118 107.522394,118.305405 106.914939,118.914333 C106.30498,119.526398 106,120.270783 106,121.149998 L106,162.850002 C106,163.710404 106.30498,164.45228 106.914939,165.070616 C107.522394,165.690205 108.265742,166 109.145612,166 C110.004816,166 110.740023,165.690205 111.347478,165.070616 C111.956811,164.45228 112.262417,163.710404 112.262417,162.850002 L112.262417,152.019728 L115.917163,149.621014 L129.758357,165.190395 C130.316338,165.730968 131.01585,166 131.854388,166 C132.293383,166 132.703572,165.920356 133.082448,165.760442 C133.46195,165.601155 133.791354,165.376021 134.071284,165.085667 C134.35184,164.796567 134.576034,164.459806 134.746372,164.080401 C134.91671,163.701624 135,163.30027 135,162.881358 C135,162.061091 134.71005,161.33113 134.131403,160.690218 L121.249611,146.170628 L133.802,138.009982 C134.599832,137.469409 135,136.641617 135,135.520336" id="Fill-61" fill="#1869A5"></path>
                <path d="M83.385544,141.456643 C84.3500239,140.495875 85.4766172,139.736907 86.7646931,139.179738 C88.052769,138.623204 89.4304172,138.344619 90.8995302,138.344619 C92.2267151,138.344619 93.4529734,138.567994 94.5808283,139.011572 C95.70616,139.458322 96.7835516,140.116391 97.8092183,140.985778 C98.4128855,141.471873 99.0966633,141.71492 99.8605516,141.71492 C100.766368,141.71492 101.515117,141.410952 102.109323,140.803651 C102.702266,140.195715 103,139.437381 103,138.526746 C103,137.576132 102.637926,136.77655 101.913147,136.128 C98.8146996,133.376423 95.1441249,132 90.8995302,132 C86.2310436,132 82.2475965,133.65945 78.9498195,136.978349 C75.6501501,140.299153 74,144.304677 74,149 C74,153.695957 75.6501501,157.702751 78.9498195,161.022285 C82.2475965,164.341185 86.2310436,166 90.8995302,166 C95.1233088,166 98.7951451,164.624211 101.913147,161.872 C102.57737,161.203143 102.908535,160.425772 102.908535,159.534809 C102.908535,158.622905 102.610802,157.870283 102.01975,157.2725 C101.425545,156.675986 100.675534,156.375826 99.7709792,156.375826 C99.0064602,156.398037 98.3422369,156.619508 97.7795711,157.044683 C96.7734589,157.914704 95.70616,158.56833 94.5808283,159.003024 C93.4529734,159.438352 92.2267151,159.656016 90.8995302,159.656016 C89.4304172,159.656016 88.052769,159.377431 86.7646931,158.820897 C85.4766172,158.264362 84.3500239,157.505394 83.385544,156.544627 C82.4191717,155.583224 81.6590682,154.454291 81.1071258,153.159095 C80.5539218,151.864534 80.2770044,150.477957 80.2770044,149 C80.2770044,147.523946 80.5539218,146.136101 81.1071258,144.84027 C81.6590682,143.546344 82.4191717,142.418679 83.385544,141.456643" id="Fill-62" fill="#1869A5"></path>
                <path d="M199.139779,134.123969 C198.565442,133.578857 197.843345,133.14924 196.97413,132.83385 C196.102345,132.521632 195.149613,132.302699 194.115292,132.180858 C193.079687,132.059651 192.111537,132 191.2102,132 C189.161474,132 187.23481,132.324275 185.432779,132.970921 C183.630106,133.619471 181.960416,134.549143 180.423068,135.764381 L180.423068,135.157079 C180.423068,134.287693 180.110845,133.54332 179.485755,132.925865 C178.861951,132.30841 178.106447,132 177.226953,132 C176.324331,132 175.56176,132.30841 174.936671,132.925865 C174.312866,133.54332 174,134.287693 174,135.157079 L174,162.84419 C174,163.714211 174.312866,164.457315 174.936671,165.074769 C175.56176,165.692224 176.324331,166 177.226953,166 C178.106447,166 178.861951,165.692224 179.485755,165.074769 C180.110845,164.457315 180.423068,163.714211 180.423068,162.84419 L180.423068,149 C180.423068,147.523946 180.70574,146.136101 181.267871,144.84027 C181.831929,143.546344 182.599639,142.418679 183.572929,141.456643 C184.546861,140.495875 185.688468,139.736907 187.000321,139.179738 C188.310247,138.623204 189.713968,138.344619 191.2102,138.344619 C192.726347,138.344619 194.130068,138.59782 195.421363,139.103587 C195.9321,139.326963 196.384374,139.437381 196.773047,139.437381 C197.22211,139.437381 197.642905,139.358057 198.033505,139.194333 C198.420894,139.033148 198.760742,138.805331 199.047911,138.511516 C199.333795,138.21897 199.564429,137.8801 199.738529,137.49427 C199.913271,137.110978 200,136.695957 200,136.249207 C200,135.37982 199.712831,134.670984 199.139779,134.123969" id="Fill-63" fill="#1869A5"></path>
                <g id="Group-68" transform="translate(34.000000, 0.000000)">
                    <mask id="mask-4" fill="white">
                        <use xlink:href="#path-3"></use>
                    </mask>
                    <g id="Clip-65"></g>
                    <path d="M110.220752,145.869186 C110.540833,144.76273 111.034817,143.752844 111.697033,142.83511 C112.360508,141.919901 113.143699,141.134084 114.047866,140.479551 C114.953293,139.827544 115.948191,139.31692 117.032561,138.954624 C118.116931,138.592958 119.232175,138.41181 120.378293,138.41181 C121.52378,138.41181 122.632724,138.592958 123.707642,138.954624 C124.782561,139.31692 125.768638,139.827544 126.661463,140.479551 C127.556179,141.134084 128.34063,141.919901 129.012297,142.83511 C129.687744,143.752844 130.193699,144.76273 130.535833,145.869186 L110.220752,145.869186 Z M132.315183,137.052882 C128.977642,133.751817 124.998679,132.101285 120.378293,132.101285 C115.715061,132.101285 111.736098,133.751817 108.442033,137.052882 C105.144817,140.35584 103.497785,144.33984 103.497785,149.009932 C103.497785,153.680654 105.144817,157.665916 108.442033,160.967612 C111.736098,164.268677 115.715061,165.918578 120.378293,165.918578 C124.61685,165.918578 128.294634,164.550183 131.410386,161.81276 C132.013374,161.189787 132.315183,160.434897 132.315183,159.548722 C132.315183,158.641719 132.017785,157.893141 131.423618,157.297939 C130.831972,156.705262 130.084065,156.407346 129.179268,156.407346 C128.396707,156.428175 127.701728,156.690745 127.1,157.192532 C126.154248,157.998548 125.129106,158.602586 124.024573,159.004015 C122.91752,159.40797 121.704614,159.608684 120.378293,159.608684 C119.211382,159.608684 118.091728,159.426905 117.015549,159.064608 C115.94189,158.702312 114.956443,158.194844 114.062358,157.539681 C113.168902,156.886411 112.389492,156.102487 111.727907,155.184753 C111.063801,154.268913 110.560366,153.257764 110.220752,152.150046 L134.092642,152.150046 C134.974756,152.150046 135.724553,151.853392 136.336992,151.258821 C136.950691,150.665513 137.257541,149.915673 137.257541,149.009932 C137.257541,146.675833 136.844207,144.507103 136.021951,142.50311 C135.197175,140.50038 133.960955,138.683217 132.315183,137.052882 Z" id="Fill-64" fill="#1869A5" mask="url(#mask-4)"></path>
                    <path d="M136.572642,52.2521293 C133.501626,53.3333384 130.718557,53.575711 126.546159,53.4886084 C126.504573,53.4879772 126.24372,53.4829278 125.816524,53.4740913 L124.85124,53.458943 L124.491463,54.3621597 C112.21748,85.1939772 85.4157114,101.579376 50.0322358,101.579376 C29.8053659,101.579376 16.6064228,93.9067681 9.32457317,80.8142281 C6.51504065,75.7622738 4.72813008,70.0930266 3.89075203,64.2912319 C3.30981707,60.2662053 3.23105691,56.3611027 3.55176829,53.4740913 L9.46823171,53.4740913 L9.46823171,53.4848213 L103.468171,53.4848213 L103.468171,53.4576806 C109.026118,53.3945627 114.221768,51.672076 116.829675,49.6422053 L117.980203,48.7471939 L117.052724,47.6192776 C115.314959,45.5048289 114.195935,42.4070038 113.860102,39.1785247 C113.46252,34.2521749 114.654004,29.0348517 117.141565,25.2515665 L117.764715,24.3092167 L118.660691,24.9113612 C124.106484,29.1743422 126.902785,33.9088137 127.198293,39.4025932 L127.292805,41.1427529 L128.96189,40.6920913 C134.425325,39.2189202 142.424207,39.9384639 145.359756,41.9165779 L146.444126,42.6468517 C146.39372,42.7497338 146.344573,42.8513536 146.275894,42.9921065 C146.101992,43.3468289 145.954553,43.6453764 145.841138,43.870076 C145.78002,43.9918935 145.730244,44.0884639 145.594146,44.3314677 C143.511728,48.3621749 140.452683,50.8856274 136.572642,52.2521293 Z M12.2739837,50.6445171 L27.706565,50.6445171 L27.706565,36.6190951 L12.2739837,36.6190951 L12.2739837,50.6445171 Z M30.5129472,50.6445171 L45.9455285,50.6445171 L45.9455285,36.6190951 L30.5129472,36.6190951 L30.5129472,50.6445171 Z M30.5129472,33.8090875 L45.9455285,33.8090875 L45.9455285,19.7546312 L30.5129472,19.7546312 L30.5129472,33.8090875 Z M48.7519106,36.6190951 L64.1844919,36.6190951 L64.1844919,50.6451483 L48.7519106,50.6445171 L48.7519106,36.6190951 Z M48.7519106,33.8090875 L64.1844919,33.8090875 L64.1844919,19.7546312 L48.7519106,19.7546312 L48.7519106,33.8090875 Z M66.990874,50.6445171 L82.4234553,50.6445171 L82.4234553,36.6190951 L66.990874,36.6190951 L66.990874,50.6445171 Z M66.990874,33.8090875 L82.4234553,33.8090875 L82.4234553,19.7546312 L66.990874,19.7546312 L66.990874,33.8090875 Z M66.990874,16.9433612 L82.4234553,16.9433612 L82.4234553,2.88890494 L66.990874,2.88890494 L66.990874,16.9433612 Z M85.2298374,50.6445171 L100.662419,50.6445171 L100.662419,36.6190951 L85.2298374,36.6190951 L85.2298374,50.6445171 Z M148.057134,45.6891331 C148.192602,45.4638023 148.391077,45.0642662 148.813862,44.2001825 C148.966341,43.8871179 149.128902,43.551962 149.290203,43.2174373 C149.346911,43.100038 149.399207,42.9914753 149.505061,42.7705627 L150.03622,41.6622129 L146.917947,39.5635437 C143.548272,37.2913004 135.863801,36.4354221 129.843374,37.5904791 C129.066484,31.9054525 125.883943,26.9715285 120.299533,22.6126084 L116.986565,20.3851787 L114.805224,23.684981 C111.952846,28.0230722 110.616443,33.8728365 111.066951,39.4410951 C111.398374,42.633597 112.383821,45.7143802 113.964065,48.1532548 C111.577317,49.4863042 107.657581,50.5776122 103.468171,50.6331559 L103.468171,33.8084563 L85.2298374,33.8084563 L85.2298374,0.0782661597 L64.1844919,0.0782661597 L64.1844919,16.9433612 L27.7071951,16.9433612 L27.7071951,33.8084563 L9.46823171,33.8084563 L9.46823171,50.6445171 L1.1454878,50.6445171 L0.947642276,51.8229278 C0.401361789,55.0728669 0.408922764,59.8149125 1.11398374,64.6983422 C1.99861789,70.8270875 3.88949187,76.8258099 6.8773374,82.198403 C14.6588415,96.1897414 28.7972358,104.409582 50.0322358,104.409582 C86.164878,104.409582 113.843089,87.6978631 126.728882,56.3226008 C131.082114,56.4008669 134.091382,56.1231483 137.498232,54.9232776 C142.011504,53.3339696 145.630691,50.3566996 148.057134,45.6891331 Z" id="Fill-66" fill="#1869A5" mask="url(#mask-4)"></path>
                    <path d="M152.870325,164.100783 L153.066911,164.100783 C153.29752,164.100783 153.484024,164.023779 153.484024,163.836319 C153.484024,163.671582 153.363679,163.561757 153.100305,163.561757 C152.990671,163.561757 152.913801,163.572487 152.870325,163.583217 L152.870325,164.100783 Z M152.858984,165.12203 L152.44187,165.12203 L152.44187,163.320015 C152.606951,163.287194 152.836931,163.264471 153.133699,163.264471 C153.473943,163.264471 153.626423,163.320015 153.75874,163.397019 C153.856402,163.47276 153.933272,163.616038 153.933272,163.792137 C153.933272,163.990327 153.779533,164.144335 153.560894,164.209346 L153.560894,164.232068 C153.736057,164.297711 153.83498,164.429627 153.889797,164.670738 C153.945244,164.9453 153.976748,165.055125 154.022114,165.12203 L153.571606,165.12203 C153.517419,165.055125 153.484024,164.891019 153.428577,164.681468 C153.397073,164.483909 153.286809,164.396175 153.056199,164.396175 L152.858984,164.396175 L152.858984,165.12203 Z M151.750671,164.176525 C151.750671,164.978753 152.344207,165.615612 153.155122,165.615612 C153.945244,165.615612 154.525549,164.978753 154.525549,164.187886 C154.525549,163.385658 153.945244,162.737437 153.14378,162.737437 C152.344207,162.737437 151.750671,163.385658 151.750671,164.176525 Z M154.986138,164.176525 C154.986138,165.199034 154.185935,166 153.14378,166 C152.112967,166 151.291341,165.199034 151.291341,164.176525 C151.291341,163.177369 152.112967,162.37451 153.14378,162.37451 C154.185935,162.37451 154.986138,163.177369 154.986138,164.176525 Z" id="Fill-67" fill="#1869A5" mask="url(#mask-4)"></path>
                </g>
            </g>
        </g>
    </g>
</svg>