<?xml version="1.0" encoding="UTF-8" standalone="no"?>
<svg width="19px" height="18px" viewBox="0 0 19 18" version="1.1" xmlns="http://www.w3.org/2000/svg" xmlns:xlink="http://www.w3.org/1999/xlink">
    <!-- Generator: Sketch 49.3 (51167) - http://www.bohemiancoding.com/sketch -->
    <title>gitlab_white_ic</title>
    <desc>Created with Sketch.</desc>
    <defs></defs>
    <g id="Page-1" stroke="none" stroke-width="1" fill="none" fill-rule="evenodd">
        <g id="concourse_login_00_max_10" transform="translate(-612.000000, -410.000000)" fill="#FFFFFF" fill-rule="nonzero">
            <g id="Group-3" transform="translate(604.000000, 200.000000)">
                <g id="gitlab_white_ic" transform="translate(8.000000, 210.000000)">
                    <polygon id="path50" points="9.5 18 9.5 18 13 7 6 7"></polygon>
                    <path d="M1.04249418,7 L0.0336418116,10.3421713 C-0.0577397435,10.6456467 0.0409523361,10.9806521 0.282199642,11.1698316 L9,18 L1.04249418,7 Z" id="path66"></path>
                    <path d="M1,7 L6,7 L3.85208497,0.258665139 C3.74193548,-0.086221713 3.26199843,-0.086221713 3.14791503,0.258665139 L1,7 Z" id="path74"></path>
                    <path d="M17.9575058,7 L18.9663582,10.3421713 C19.0577397,10.6456467 18.9590477,10.9806521 18.7178004,11.1698316 L10,18 L17.9575058,7 Z" id="path82"></path>
                    <path d="M18,7 L13,7 L15.147915,0.258665139 C15.2580645,-0.086221713 15.7380016,-0.086221713 15.852085,0.258665139 L18,7 Z" id="path86"></path>
                </g>
            </g>
        </g>
    </g>
</svg>