<?xml version="1.0" encoding="UTF-8" standalone="no"?>
<svg width="24px" height="24px" viewBox="0 0 24 24" version="1.1" xmlns="http://www.w3.org/2000/svg" xmlns:xlink="http://www.w3.org/1999/xlink">
    <!-- Generator: Sketch 49.3 (51167) - http://www.bohemiancoding.com/sketch -->
    <title>linkedin_ic</title>
    <desc>Created with Sketch.</desc>
    <defs>
        <polygon id="path-1" points="0 0 24 0 24 24 0 24"></polygon>
    </defs>
    <g id="Page-1" stroke="none" stroke-width="1" fill="none" fill-rule="evenodd">
        <g id="concourse_login_00_max_10" transform="translate(-611.000000, -500.000000)">
            <g id="Group-3" transform="translate(604.000000, 200.000000)">
                <g id="linkedin_ic" transform="translate(7.000000, 300.000000)">
                    <mask id="mask-2" fill="white">
                        <use xlink:href="#path-1"></use>
                    </mask>
                    <g id="Clip-9"></g>
                    <path d="M20.4507653,20.4511667 L16.8935307,20.4511667 L16.8935307,14.8811667 C16.8935307,13.553 16.8691981,11.8445 15.0439154,11.8445 C13.1916336,11.8445 12.9073081,13.2913333 12.9073081,14.7851667 L12.9073081,20.4511667 L9.35090692,20.4511667 L9.35090692,8.9975 L12.7649788,8.9975 L12.7649788,10.5625 L12.8126441,10.5625 C13.2879642,9.66216667 14.448932,8.71283333 16.1807172,8.71283333 C19.7852837,8.71283333 20.4507653,11.0851667 20.4507653,14.1688333 L20.4507653,20.4511667 Z M5.33901836,7.43183333 C4.19821672,7.43183333 3.27474237,6.507 3.27474237,5.3675 C3.27474237,4.229 4.19821672,3.30416667 5.33901836,3.30416667 C6.47698675,3.30416667 7.40179439,4.229 7.40179439,5.3675 C7.40179439,6.507 6.47698675,7.43183333 5.33901836,7.43183333 Z M3.55840116,20.4511667 L7.11813561,20.4511667 L7.11813561,8.9975 L3.55840116,8.9975 L3.55840116,20.4511667 Z M22.2235493,0 L1.77145079,0 C0.794144607,0 0,0.774666667 0,1.72933333 L0,22.2683333 C0,23.2241667 0.794144607,24 1.77145079,24 L22.2235493,24 C23.2025222,24 24,23.2241667 24,22.2683333 L24,1.72933333 C24,0.774666667 23.2025222,0 22.2235493,0 Z" id="Fill-10" fill="#FFFFFE" mask="url(#mask-2)"></path>
                </g>
            </g>
        </g>
    </g>
</svg>