<svg xmlns="http://www.w3.org/2000/svg" width="21" height="24"><g fill="none" fill-rule="evenodd"><path d="M-6-3h31.886v32H-6z"/><path fill="#FFF" fill-rule="nonzero" d="M20.43 18.743q-.542 1.235-1.286 2.28-1.015 1.425-1.656 1.973-.991.899-2.128.925-.818.001-1.966-.463-1.15-.463-2.116-.462-1.013 0-2.176.462-1.164.464-1.88.487-1.091.046-2.177-.949-.693-.595-1.732-2.043-1.114-1.544-1.831-3.588-.769-2.206-.77-4.275 0-2.371 1.04-4.086A6.06 6.06 0 0 1 3.93 6.832a5.9 5.9 0 0 1 2.944-.82q.865.002 2.277.524 1.41.522 1.806.523c.197 0 .867-.206 2.002-.617q1.61-.57 2.723-.476 3.018.239 4.527 2.35-2.698 1.614-2.671 4.513.025 2.257 1.657 3.75a5.5 5.5 0 0 0 1.656 1.072q-.199.57-.422 1.092M15.815.84q0 1.77-1.308 3.3c-1.05 1.211-2.321 1.911-3.7 1.8a4 4 0 0 1-.027-.446c0-1.132.5-2.344 1.387-3.334q.664-.753 1.69-1.252Q14.88.416 15.79.368q.026.238.025.472"/></g></svg>