<?xml version="1.0" encoding="UTF-8"?>
<svg width="21px" height="24px" viewBox="0 0 21 24" version="1.1" xmlns="http://www.w3.org/2000/svg" xmlns:xlink="http://www.w3.org/1999/xlink">
    <!-- Generator: Sketch Beta 51.2 (57516) - http://www.bohemiancoding.com/sketch -->
    <title>apple_logo_legend_d_ic</title>
    <desc>Created with Sketch Beta.</desc>
    <defs></defs>
    <g id="Page-1" stroke="none" stroke-width="1" fill="none" fill-rule="evenodd">
        <g id="dashboard_empty_state_member1_no-pipelines" transform="translate(-823.000000, -510.000000)">
            <g id="apple_logo_legend_d_ic" transform="translate(817.000000, 507.000000)">
                <g id="Group-10">
                    <polygon id="Shape" points="0 0 31.8857143 0 31.8857143 32 0 32"></polygon>
                    <path d="M26.4292054,21.7434664 C26.067642,22.5672441 25.6395213,23.325527 25.1438105,24.0226817 C24.4679082,24.9729369 23.9144948,25.6309402 23.4878499,25.9964006 C22.8268529,26.5958953 22.1184837,26.9029927 21.3597908,26.9206035 C20.8153796,26.9206035 20.1585147,26.767637 19.3942139,26.4577743 C18.6272566,26.149076 17.9222817,25.9964006 17.2778133,25.9964006 C16.6019111,25.9964006 15.8771608,26.149076 15.1016441,26.4577743 C14.3250944,26.767637 13.6995159,26.9291906 13.2212191,26.9453459 C12.4938125,26.9759101 11.7687671,26.6600801 11.0450499,25.9964006 C10.5831341,25.5990661 10.0053705,24.9179213 9.31323478,23.9528207 C8.57062774,22.9223708 7.96010204,21.7276021 7.48180526,20.3653125 C6.96956579,18.8938651 6.71278195,17.4689917 6.71278195,16.0895279 C6.71278195,14.5093593 7.0589974,13.1464875 7.75246132,12.0044056 C8.29746287,11.0870433 9.02250826,10.3633997 9.92995871,9.832165 C10.8374092,9.30093028 11.8179102,9.03021888 12.873823,9.01289918 C13.4515866,9.01289918 14.2092465,9.18915267 15.1507872,9.53554682 C16.0896716,9.88310532 16.6925233,10.0593588 16.9569811,10.0593588 C17.154439,10.0593588 17.8242906,9.85326885 18.9594523,9.44239881 C20.0329268,9.06136525 20.9391966,8.90359581 21.6815085,8.965743 C23.6929818,9.12584113 25.2041694,9.90784776 26.2091682,11.3167114 C24.4102056,12.3916976 23.5203168,13.8973478 23.5378785,15.828859 C23.5542595,17.3333449 24.107673,18.5851668 25.1951673,19.5793762 C25.6880741,20.0407499 26.238536,20.3973321 26.8511278,20.6505783 C26.7184562,21.0303019 26.5782581,21.3941613 26.4292054,21.7434664 Z M21.8158035,3.84012838 C21.8158035,5.01932393 21.3791234,6.12036248 20.5084196,7.13945989 C19.4576719,8.35096615 18.1867395,9.05103164 16.8085187,8.94056393 C16.7909571,8.79909539 16.7807743,8.65020412 16.7807743,8.49374458 C16.7807743,7.36170521 17.2804697,6.15019895 18.1678497,5.15962811 C18.6108756,4.65808432 19.1741767,4.2409559 19.8574578,3.9083884 C20.5392632,3.5807694 21.1841743,3.39942187 21.7907154,3.36842105 C21.8087198,3.52604495 21.8158035,3.68366884 21.8158035,3.84012838 Z" id="Shape" fill="#FFFFFF" fill-rule="nonzero"></path>
                </g>
            </g>
        </g>
    </g>
</svg>