<svg width="20" height="20" viewBox="0 0 20 20" fill="none" xmlns="http://www.w3.org/2000/svg">
<path d="M10 3C5.45455 3 1.57273 6.00909 0 10C1.57273 13.9909 5.45455 17 10 17C14.5455 17 18.4273 13.9909 20 10C18.4273 6.00909 14.5455 3 10 3ZM10 14.5455C7.49091 14.5455 5.45455 12.5091 5.45455 10C5.45455 7.49091 7.49091 5.45455 10 5.45455C12.5091 5.45455 14.5455 7.49091 14.5455 10C14.5455 12.5091 12.5091 14.5455 10 14.5455ZM10 7.27273C8.49091 7.27273 7.27273 8.49091 7.27273 10C7.27273 11.5091 8.49091 12.7273 10 12.7273C11.5091 12.7273 12.7273 11.5091 12.7273 10C12.7273 8.49091 11.5091 7.27273 10 7.27273Z" fill="white"/>
</svg>
