<svg width="15" height="12" viewBox="0 0 15 12" fill="none" xmlns="http://www.w3.org/2000/svg">
<path d="M10.2944 5.14727C11.4679 5.14727 12.4081 4.2 12.4081 3.02651C12.4081 1.85303 11.4679 0.905762 10.2944 0.905762C9.12095 0.905762 8.17368 1.85303 8.17368 3.02651C8.17368 4.2 9.12095 5.14727 10.2944 5.14727ZM4.78048 5.14727C5.95396 5.14727 6.89416 4.2 6.89416 3.02651C6.89416 1.85303 5.95396 0.905762 4.78048 0.905762C3.60699 0.905762 2.65972 1.85303 2.65972 3.02651C2.65972 4.2 3.60699 5.14727 4.78048 5.14727ZM4.78048 6.84387C2.23557 6.84387 0.538971 8.58995 0.538971 10.2371V11.0854H9.02198V10.2371C9.02198 8.58995 7.32538 6.84387 4.78048 6.84387Z" fill="#FFFFFF"/>
<path d="M9.87028 11.0854H14.1118V10.2371C14.1118 8.58995 12.8323 6.84387 10.2874 6.84387C9.55301 6.84387 8.88929 6.98926 8.31659 7.23571C9.56389 8.15855 9.87028 9.4734 9.87028 10.7461V11.0854Z" fill="#FFFFFF"/>
</svg>