<svg xmlns="http://www.w3.org/2000/svg" width="20" height="20" fill="none"><path fill="#fff" fill-rule="evenodd" d="M5.164 4.21 2.954 2 2 2.955l1.98 1.98A11.3 11.3 0 0 0 0 10c1.573 3.99 5.455 7 10 7 1.74 0 3.383-.441 4.836-1.21l2.189 2.19.954-.955-1.96-1.96-2.363-2.364-1.309-1.309-3.74-3.739L7.3 6.344zm5.074 3.073 2.48 2.48a2.72 2.72 0 0 0-2.48-2.48m4.095 4.095a4.547 4.547 0 0 0-5.71-5.71l-2.07-2.07A10.2 10.2 0 0 1 10 3c4.546 0 8.427 3.01 10 7a11.3 11.3 0 0 1-2.873 4.172zM5.455 10c0-1.011.33-1.946.89-2.7l1.308 1.308A2.7 2.7 0 0 0 7.273 10 2.724 2.724 0 0 0 10 12.727c.51 0 .985-.138 1.392-.38l1.309 1.309A4.547 4.547 0 0 1 5.455 10" clip-rule="evenodd"/></svg>