<svg xmlns="http://www.w3.org/2000/svg" width="104" height="34"><defs><filter id="a" width="200%" height="200%" x="-50%" y="-50%" filterUnits="objectBoundingBox"><feOffset in="SourceAlpha" result="shadowOffsetOuter1"/><feGaussianBlur in="shadowOffsetOuter1" result="shadowBlurOuter1" stdDeviation="3.5"/><feColorMatrix in="shadowBlurOuter1" result="shadowMatrixOuter1" values="0 0 0 0 0.901960784 0 0 0 0 0.494117647 0 0 0 0 0.133333333 0 0 0 0.55041327 0"/><feMerge><feMergeNode in="shadowMatrixOuter1"/><feMergeNode in="SourceGraphic"/></feMerge></filter></defs><g fill="none" fill-rule="evenodd" filter="url(#a)" transform="translate(7 7)"><path fill="#E67E22" d="M14.787 2.591C7.983.661 6.804 10.056 0 6.935v11.994c6.747 3.127 7.967-6.259 14.771-4.347v.449a2.903 2.903 0 0 0 2.896 2.897h12.676a2.903 2.903 0 0 0 2.897-2.897V2.897A2.903 2.903 0 0 0 30.343 0H17.667a2.9 2.9 0 0 0-2.88 2.591m5.987.963h6.464a2.32 2.32 0 0 1 2.316 2.316v6.188a2.32 2.32 0 0 1-2.316 2.317h-6.464a2.33 2.33 0 0 1-2.317-2.317V5.87a2.32 2.32 0 0 1 2.317-2.316m6.19 1.993c.321 0 .585.264.585.584v5.666a.59.59 0 0 1-.585.583h-5.918a.583.583 0 0 1-.585-.583V6.131c0-.284.274-.584.585-.584zM68.199 0h3.593a2.905 2.905 0 0 1 2.889 2.692c6.919-2.36 8.214 7.41 15.133 4.237v11.994c-6.863 3.182-8.206-6.591-15.126-4.239v.347a2.906 2.906 0 0 1-2.896 2.896h-3.593a2.904 2.904 0 0 1-2.897-2.896v-.756H60.54c-.697 0-1.33-.285-1.79-.745l-.005-.004a2.53 2.53 0 0 1-.745-1.79V6.189c0-.699.286-1.337.744-1.795h.005a2.54 2.54 0 0 1 1.792-.744h4.762v-.755A2.9 2.9 0 0 1 68.199 0m-2.897 11.152V6.775h-2.896a1.2 1.2 0 0 0-.848.353h-.003a1.2 1.2 0 0 0-.352.849v1.972c0 .33.135.63.353.848l.002.001c.217.218.517.353.847.353zm6.055-5.957c0-3.825-2.726-3.833-2.726 0v7.535c0 3.834 2.726 3.825 2.726 0z"/><path fill="#E74C3C" d="M52.872 12.776h-6.219v4.164L39 9.471 46.653 2v4.166h6.219z"/></g></svg>