<svg xmlns="http://www.w3.org/2000/svg" xmlns:xlink="http://www.w3.org/1999/xlink" width="51" height="51"><defs><path id="a" d="M.306.829h24.209v14.424H.305z"/><path id="c" d="M0 .29h19.373v18.322H0z"/><path id="e" d="M.81 1.268h15.028v24.894H.811z"/></defs><g fill="none" fill-rule="evenodd"><path fill="#FEFEFE" d="M24.005 26.109a2.132 2.132 0 1 0 4.253-.354 2.132 2.132 0 0 0-4.253.354"/><g transform="translate(13.627 27.539)"><mask id="b" fill="#fff"><use xlink:href="#a"/></mask><path fill="#FEFEFE" d="M15.597.829a5.3 5.3 0 0 1-1.935 1.35l-.006.017a22.5 22.5 0 0 0 2.603 6.11 9.7 9.7 0 0 1-1.903.761 10 10 0 0 1-1.372.275l-.161.02-.192.015-.386.029c-.237 0-.469.023-.716.008a10 10 0 0 1-1.469-.14 10.3 10.3 0 0 1-2.664-.857 10 10 0 0 1-1.076-.599 9 9 0 0 1-.852-.61c-.252-.19-.449-.38-.62-.53-.325-.312-.505-.501-.505-.501s.151.21.435.569c.15.17.322.39.55.616a10.487 10.487 0 0 0 1.81 1.51 10.923 10.923 0 0 0 4.285 1.664c.266.052.555.069.832.102l.388.023.192.012.221.003a11.1 11.1 0 0 0 4.257-.802q.488.665 1.024 1.29l-.05.03-.426.263-.06.037-.015.01-.003.002.075-.038-.008.005-.032.015q-.062.034-.128.067l-.273.137-.143.074-.073.036-.037.02-.01.005-.005.001c-.013.006.096-.038.048-.018l-.02.007-.315.14-.334.146-.043.02-.004.001c.073-.026.016-.006.032-.01l-.011.004-.021.008-.089.035-.18.07c-.885.343-2 .648-3.214.785-.608.067-1.246.1-1.893.075l-.227-.008-.256-.02-.513-.04c-.319-.05-.637-.074-.964-.144a14 14 0 0 1-1.925-.499 14 14 0 0 1-1.784-.758 10 10 0 0 1-.816-.451c-.267-.151-.511-.322-.754-.485-.48-.33-.912-.678-1.297-1.018-.38-.341-.72-.67-.997-.982-.291-.302-.511-.595-.705-.827-.187-.235-.319-.433-.416-.563l-.145-.201.123.215c.084.139.194.35.359.606.17.251.361.569.624.903a13.82 13.82 0 0 0 2.135 2.28c.232.195.468.398.73.583q.38.292.802.558a14.3 14.3 0 0 0 3.805 1.734c.34.112.71.18 1.064.27l.507.093.254.046.282.041a15 15 0 0 0 2.097.131 14.9 14.9 0 0 0 3.725-.52l.186-.052.092-.026.126-.04q.179-.056.347-.112.168-.054.329-.105l.357-.138.285-.11.136-.053.032-.012.01-.003.085-.043.016-.007.061-.03q.248-.123.452-.22.352-.17.564-.274.573.551 1.187 1.062s1.95 2.009 3.025 1.182c1.01-.776-.154-3.21-.154-3.21A22.55 22.55 0 0 0 15.597.828" mask="url(#b)"/></g><g transform="translate(6 10.76)"><mask id="d" fill="#fff"><use xlink:href="#c"/></mask><path fill="#FEFEFE" d="m16.42 14.306-.01-.013a22.5 22.5 0 0 0-6.521-.917 9.7 9.7 0 0 1 .372-2.16c.13-.432.29-.874.493-1.309l.068-.148.089-.17.18-.342c.125-.201.23-.41.373-.612.266-.415.575-.802.897-1.171a10.2 10.2 0 0 1 2.137-1.806 10.2 10.2 0 0 1 2.047-.996c.295-.113.56-.179.778-.244.438-.11.694-.164.694-.164s-.26.019-.714.07c-.224.036-.501.065-.813.138-.315.06-.665.156-1.043.271a10.8 10.8 0 0 0-2.468 1.152c-.429.265-.847.578-1.257.921-.401.351-.798.728-1.153 1.144-.186.199-.352.434-.53.652l-.224.317-.11.157-.121.186c-.295.458-.548.934-.765 1.411a11.3 11.3 0 0 0-.837 2.758l-.006.038q-.808.075-1.608.206l.002-.28.001-.501.002-.07v-.021c.007-.08-.01.103-.01.083l.002-.009.003-.035.012-.145.042-.465.007-.08.003-.042.002-.01v-.007c.001-.014-.017.102-.01.052l.004-.021.05-.342.052-.36.007-.046v-.006l-.007.034.003-.012.003-.023.018-.093.035-.19a13.05 13.05 0 0 1 1.976-4.788l.128-.189.152-.206.307-.413c.21-.244.398-.502.633-.741a13.4 13.4 0 0 1 3.03-2.48c.27-.165.54-.32.815-.454.269-.146.543-.263.81-.38A14 14 0 0 1 15.99.87c.491-.14.95-.254 1.362-.325.41-.087.775-.119 1.074-.16.299-.033.537-.04.699-.053.161-.01.248-.017.248-.017l-.248-.01c-.162 0-.402-.02-.704-.016-.303.01-.674.005-1.096.05a13 13 0 0 0-1.417.19c-.516.097-1.073.23-1.65.413-.288.095-.585.188-.88.311q-.447.167-.898.385c-.604.277-1.203.62-1.795 1.002-.581.393-1.16.82-1.692 1.305-.274.23-.527.507-.793.76l-.348.381-.172.19-.185.218a14.6 14.6 0 0 0-2.754 5.146l-.055.185-.026.09-.034.13-.088.352-.084.335-.073.375-.057.301q-.016.073-.027.143l-.008.034-.001.01-.01.095-.001.018-.008.07q-.029.271-.053.496c-.049.458-.08.766-.095.888q-.778.21-1.543.476s-2.726.638-2.572 1.983c.146 1.266 2.833 1.524 2.833 1.524 4.598.952 9.408.442 13.741-1.486a5.3 5.3 0 0 1-.16-2.354" mask="url(#d)"/></g><g transform="translate(25.83 6.184)"><mask id="f" fill="#fff"><use xlink:href="#e"/></mask><path fill="#FEFEFE" d="M15.79 17.42a14.5 14.5 0 0 0-.338-2.111c-.07-.351-.192-.706-.288-1.059l-.168-.488-.084-.242-.103-.266a14.6 14.6 0 0 0-3.202-4.88l-.136-.137-.067-.067-.098-.091-.266-.246-.255-.235q-.151-.126-.295-.242l-.236-.196-.111-.091-.028-.023-.007-.006-.08-.053-.015-.011-.056-.04-.412-.284-.554-.382a23 23 0 0 0 .363-1.724s.761-2.694-.493-3.21C7.684.853 6.158 3.078 6.158 3.078A22.57 22.57 0 0 0 .811 15.823a5.3 5.3 0 0 1 2.138.999l.017-.003A22.5 22.5 0 0 0 6.843 11.7a9.5 9.5 0 0 1 2.574 2.381l.097.132.108.16.216.322c.115.206.248.396.358.62a10 10 0 0 1 .598 1.347c.16.462.296.93.384 1.391.1.461.151.917.182 1.35.03.435.027.85.006 1.233a10 10 0 0 1-.111 1.042c-.043.31-.112.576-.158.799-.112.438-.189.686-.189.686s.109-.235.281-.657c.076-.215.183-.473.268-.781a10.2 10.2 0 0 0 .425-2.319 10.879 10.879 0 0 0-.656-4.55c-.087-.257-.214-.517-.32-.776l-.172-.35-.083-.172-.106-.195c-.262-.477-.56-.927-.874-1.345A11.3 11.3 0 0 0 7.693 10q.344-.769.631-1.562l.086.047.44.242.059.034.016.008.003.003a1 1 0 0 0-.068-.048l.007.005.03.02.12.08.255.168.134.09.069.045.033.024.01.005.004.003-.041-.032.016.013q.135.101.278.206.141.108.29.218l.038.03.005.002-.026-.022.009.007.018.015.073.06.15.122a13 13 0 0 1 2.265 2.413c.357.497.697 1.036.996 1.612l.104.202.108.232.217.468c.112.302.25.59.347.909.225.625.383 1.275.511 1.92.116.649.197 1.297.218 1.928q.025.474.008.932c0 .307-.029.604-.052.896a13.7 13.7 0 0 1-.613 2.98c-.12.403-.267.737-.374 1.02-.113.28-.22.49-.286.64l-.104.226.126-.214c.08-.142.21-.342.351-.61.136-.272.32-.595.48-.987a13.943 13.943 0 0 0 .937-2.98c.055-.3.116-.605.148-.922q.068-.476.092-.973c.046-.665.032-1.354-.022-2.056" mask="url(#f)"/></g></g></svg>