<svg xmlns="http://www.w3.org/2000/svg" viewBox="0 0 256 256"><g transform="translate(-603.94 -1106.9)scale(5.8009)"><ellipse cx="126" cy="213" fill="#34495e" fill-rule="evenodd" rx="20.908" ry="20.131"/><circle cx="107.71" cy="222.45" r="2.363" fill="#fff" class="cls-1" transform="rotate(-4.756)"/><path fill="#fff" d="M128.73 215.08a5 5 0 0 1-1.845 1.287l-.005.015a21.4 21.4 0 0 0 2.481 5.825 9 9 0 0 1-3.12.988l-.155.02-.184.013-.367.029c-.226 0-.447.02-.683.007a9.4 9.4 0 0 1-2.734-.467 9 9 0 0 1-1.206-.483 10 10 0 0 1-1.026-.571 9 9 0 0 1-.812-.582c-.24-.18-.427-.362-.59-.505-.31-.298-.482-.478-.482-.478s.144.2.415.542c.142.163.307.373.523.588a9 9 0 0 0 .747.705 10 10 0 0 0 .979.734 10 10 0 0 0 1.197.68 10.4 10.4 0 0 0 1.38.55 10.6 10.6 0 0 0 1.507.356c.254.05.53.065.795.098l.369.022.183.01.211.004a10.6 10.6 0 0 0 1.527-.095 10.8 10.8 0 0 0 2.53-.67q.465.632.976 1.229l-.047.029-.407.251-.055.035-.015.009-.004.002.072-.036-.007.004-.03.016-.124.062-.26.132-.136.07-.07.035-.035.018-.01.005-.004.002.045-.018-.018.008-.302.132-.317.14-.04.017-.006.002c.07-.025.017-.006.03-.01l-.01.005-.02.008-.084.033-.171.066a12.4 12.4 0 0 1-4.87.822l-.215-.008-.244-.02-.49-.039c-.303-.048-.607-.069-.918-.137a12.7 12.7 0 0 1-3.536-1.198 10 10 0 0 1-.778-.43c-.254-.144-.487-.307-.718-.463a13 13 0 0 1-1.236-.969 12 12 0 0 1-.951-.937c-.278-.287-.487-.566-.672-.787-.18-.225-.304-.414-.397-.538l-.138-.192.119.205c.08.132.185.335.341.578.162.24.345.542.595.86a13 13 0 0 0 .868 1.05 13 13 0 0 0 1.168 1.125c.22.185.447.38.695.555q.361.278.765.532a14 14 0 0 0 1.717.945 14 14 0 0 0 1.91.709c.324.106.676.171 1.014.257l.484.089.24.044.27.038a14 14 0 0 0 1.999.125 14 14 0 0 0 3.552-.496l.176-.05.087-.023.122-.039.33-.106.313-.102.34-.13.272-.106.13-.05.03-.012.009-.003.082-.04.015-.008.06-.029.43-.208.537-.261q.546.525 1.131 1.012s1.86 1.914 2.884 1.127c.962-.74-.147-3.061-.147-3.061a21.5 21.5 0 0 0-7.96-10.5zM122.25 211.93l-.01-.013a21.4 21.4 0 0 0-6.216-.874 9 9 0 0 1 .824-3.306l.066-.141.085-.163.17-.327c.12-.191.22-.39.356-.583a9.4 9.4 0 0 1 1.845-2.071 9 9 0 0 1 1.048-.767 10 10 0 0 1 1.028-.567 9 9 0 0 1 .924-.381c.28-.107.533-.17.74-.232.418-.107.662-.157.662-.157s-.247.016-.68.065c-.214.034-.479.063-.776.132a10 10 0 0 0-.993.26 10 10 0 0 0-1.142.441 10 10 0 0 0-1.21.656 10.4 10.4 0 0 0-1.199.879 10.6 10.6 0 0 0-1.1 1.09c-.176.19-.336.414-.504.621l-.214.302-.106.15-.115.177a10.6 10.6 0 0 0-.728 1.345 10.8 10.8 0 0 0-.798 2.629l-.006.036q-.77.071-1.533.197l.001-.267.002-.478v-.087l-.008.08.001-.008.003-.034.012-.138.026-.29.013-.152.007-.078.004-.04.001-.01v-.005l-.007.049.003-.02.047-.326.05-.343.006-.044v-.006c-.015.073-.003.017-.006.032l.002-.011.004-.022.017-.089.034-.18a12.4 12.4 0 0 1 1.883-4.565l.12-.179.146-.196.293-.395c.201-.232.38-.478.603-.706a12.7 12.7 0 0 1 2.889-2.365q.386-.237.777-.431c.256-.14.518-.252.772-.365a13 13 0 0 1 1.477-.535 12 12 0 0 1 1.299-.31c.39-.083.738-.113 1.023-.152.286-.034.513-.04.666-.053l.237-.015-.237-.008c-.154-.002-.381-.02-.67-.017-.29.01-.643.005-1.045.048a13 13 0 0 0-1.351.18 13 13 0 0 0-1.572.395c-.274.09-.559.178-.839.296q-.428.16-.856.367a14 14 0 0 0-1.711.955 14 14 0 0 0-1.614 1.244c-.261.22-.503.483-.755.725l-.332.363-.165.181-.175.208a14 14 0 0 0-1.165 1.63 14 14 0 0 0-1.46 3.275l-.053.176-.025.086-.032.124-.084.336-.08.32-.07.358-.054.286-.026.136-.006.033-.002.008-.01.092-.001.016-.007.066-.051.475-.09.845q-.743.2-1.471.455s-2.6.607-2.452 1.89c.139 1.207 2.7 1.452 2.7 1.452a21.5 21.5 0 0 0 13.1-1.415 5 5 0 0 1-.154-2.245zM140.55 210.54a14 14 0 0 0-.321-2.012c-.067-.335-.183-.673-.275-1.01l-.16-.465-.08-.232-.098-.253a14 14 0 0 0-.874-1.802 14 14 0 0 0-2.178-2.85l-.13-.13-.064-.064-.093-.086-.255-.235-.242-.223-.282-.232-.225-.185-.106-.088-.026-.022-.006-.005-.076-.051-.014-.01-.054-.038-.394-.272-.527-.364q.204-.812.345-1.643s.726-2.568-.469-3.06c-1.123-.462-2.576 1.66-2.576 1.66a21.5 21.5 0 0 0-5.098 12.15 5 5 0 0 1 2.038.953l.016-.003a21.4 21.4 0 0 0 3.697-4.878 9 9 0 0 1 2.453 2.27l.093.124.103.153.205.306c.11.197.237.38.342.592a9.4 9.4 0 0 1 .937 2.61 9 9 0 0 1 .171 1.287 10 10 0 0 1 .007 1.174 9 9 0 0 1-.107.994c-.04.297-.106.55-.15.762-.107.417-.18.655-.18.655s.104-.224.268-.628c.072-.205.174-.45.255-.744a9 9 0 0 0 .247-.997 10 10 0 0 0 .159-1.214 10 10 0 0 0 .004-1.377 10.4 10.4 0 0 0-.2-1.472 10.5 10.5 0 0 0-.43-1.487c-.082-.246-.203-.494-.305-.74l-.163-.333-.08-.165-.101-.185a11 11 0 0 0-.834-1.283 10.8 10.8 0 0 0-1.885-1.924q.328-.732.601-1.488l.083.044.418.23.058.032.015.008.004.002-.066-.045.007.005.028.019.115.076.243.162.127.085.065.044.033.021.008.006.004.003-.038-.03.016.012.264.197.278.208.035.027.004.003-.024-.022.008.007.018.014.07.058.142.116a12.4 12.4 0 0 1 3.108 3.836l.1.192.103.222.206.446c.108.288.239.563.332.867a12.7 12.7 0 0 1 .695 3.669c.015.301.02.598.007.888 0 .292-.027.576-.05.853a13 13 0 0 1-.236 1.553 12 12 0 0 1-.348 1.289c-.114.383-.254.702-.356.972-.107.266-.211.468-.273.61l-.1.215.121-.204c.076-.134.2-.325.335-.581.13-.259.303-.567.458-.94a13 13 0 0 0 .487-1.273 13 13 0 0 0 .406-1.57c.052-.283.11-.575.141-.878q.064-.45.088-.927a14 14 0 0 0-.022-1.96z" class="cls-1"/></g></svg>