<?xml version="1.0" encoding="UTF-8"?>
<svg version="1.1" viewBox="0 0 256 256" xmlns="http://www.w3.org/2000/svg" xmlns:cc="http://creativecommons.org/ns#" xmlns:dc="http://purl.org/dc/elements/1.1/" xmlns:rdf="http://www.w3.org/1999/02/22-rdf-syntax-ns#">
<metadata>
<rdf:RDF>
<cc:Work rdf:about="">
<dc:format>image/svg+xml</dc:format>
<dc:type rdf:resource="http://purl.org/dc/dcmitype/StillImage"/>
<dc:title/>
</cc:Work>
</rdf:RDF>
</metadata>
<g transform="matrix(5.8009 0 0 5.8009 -603.94 -1106.9)">
<ellipse cx="126" cy="213" rx="20.908" ry="20.131" fill="#34495e" fill-rule="evenodd" stroke-width=".57591"/>
<circle class="cls-1" transform="rotate(-4.7565)" cx="107.71" cy="222.45" r="2.3628" fill="#fff"/>
<path class="cls-1" d="m128.73 215.08a5.0208 5.0208 0 0 1 -1.845 1.2866l-5e-3 0.0158a21.431 21.431 0 0 0 2.481 5.8248 9.0389 9.0389 0 0 1 -3.1208 0.9873l-0.1543 0.02-0.1835 0.0139-0.3676 0.0281c-0.2257 0-0.4467 0.0207-0.683 7e-3a9.4023 9.4023 0 0 1 -2.7338 -0.4668 9.1152 9.1152 0 0 1 -1.2057 -0.4827 9.6615 9.6615 0 0 1 -1.0258 -0.571 9.2024 9.2024 0 0 1 -0.8128 -0.5819c-0.2393-0.18-0.4267-0.3624-0.5894-0.5047-0.3109-0.2984-0.4824-0.4787-0.4824-0.4787s0.1444 0.2005 0.4149 0.5418c0.1427 0.1638 0.3071 0.3733 0.5232 0.5881a9.4366 9.4366 0 0 0 0.7466 0.7052 10.082 10.082 0 0 0 0.979 0.7343 9.716 9.716 0 0 0 1.1975 0.68 10.404 10.404 0 0 0 1.38 0.55 10.55 10.55 0 0 0 1.5071 0.3556c0.2542 0.0494 0.529 0.0657 0.7945 0.0984l0.3692 0.0219 0.1836 0.0107 0.2109 3e-3a10.602 10.602 0 0 0 1.5265 -0.0949 10.75 10.75 0 0 0 2.5308 -0.67q0.4645 0.6318 0.9753 1.2287l-0.0471 0.0291-0.4064 0.2514-0.056 0.0346-0.0142 9e-3 -4e-3 2e-3c-0.0683 0.0341 0.0892-0.0439 0.0715-0.0352l-7e-3 4e-3 -0.03 0.0153-0.1233 0.0626-0.26 0.1321-0.1365 0.0693-0.07 0.0355-0.0354 0.0179-9e-3 5e-3 -5e-3 2e-3c-0.0123 5e-3 0.0914-0.0375 0.0453-0.0184l-0.0183 8e-3 -0.3015 0.1324-0.3173 0.1394-0.0407 0.0179-5e-3 2e-3c0.07-0.025 0.0166-6e-3 0.0308-0.0108l-0.0101 5e-3 -0.0209 8e-3 -0.084 0.0329-0.171 0.0668a12.409 12.409 0 0 1 -4.869 0.8212l-0.216-8e-3 -0.244-0.0193-0.4894-0.0392c-0.3036-0.048-0.6071-0.069-0.9186-0.1372a12.684 12.684 0 0 1 -3.5361 -1.1979c-0.27-0.1349-0.5305-0.2767-0.7775-0.4306-0.2542-0.143-0.4878-0.306-0.7183-0.4619a12.963 12.963 0 0 1 -1.2364 -0.9691 12.306 12.306 0 0 1 -0.9511 -0.9371c-0.2777-0.2876-0.4869-0.5663-0.6714-0.7873-0.1795-0.2247-0.3037-0.414-0.3967-0.5375l-0.1388-0.1923 0.1192 0.2052c0.08 0.1321 0.1849 0.3345 0.3416 0.5778 0.1617 0.24 0.3442 0.5423 0.5942 0.8607a12.574 12.574 0 0 0 0.8684 1.05 13.384 13.384 0 0 0 1.1675 1.1244c0.2212 0.1852 0.447 0.3791 0.6952 0.5546 0.241 0.1863 0.4975 0.362 0.765 0.532a13.745 13.745 0 0 0 1.7169 0.9448 13.899 13.899 0 0 0 1.91 0.7093c0.3243 0.106 0.6759 0.1711 1.0142 0.257l0.484 0.0889 0.2408 0.044 0.2689 0.0384a13.909 13.909 0 0 0 1.9994 0.1247 14.107 14.107 0 0 0 3.5516 -0.496l0.1769-0.0491 0.087-0.0241 0.1215-0.0387 0.33-0.1065 0.3133-0.1011 0.34-0.1312 0.272-0.105 0.129-0.05 0.0315-0.0121 8e-3 -3e-3 0.0828-0.0409 0.015-7e-3 0.0592-0.0288 0.43-0.2088 0.5371-0.261c0.365 0.3493 0.7411 0.6881 1.1314 1.0121 0 0 1.8593 1.9146 2.8834 1.1271 0.9628-0.74-0.1463-3.0611-0.1463-3.0611a21.506 21.506 0 0 0 -7.9612 -10.499z" fill="#fff"/>
<path class="cls-1" d="m122.25 211.93-0.0108-0.0129a21.43 21.43 0 0 0 -6.2148 -0.8743 9.0281 9.0281 0 0 1 0.8241 -3.3055l0.065-0.1413 0.0851-0.163 0.1709-0.3267c0.1195-0.1914 0.219-0.39 0.3559-0.5831a9.4005 9.4005 0 0 1 1.8443 -2.0713 9.1157 9.1157 0 0 1 1.048 -0.7668 9.6749 9.6749 0 0 1 1.0279 -0.567 9.1958 9.1958 0 0 1 0.9242 -0.3811c0.28-0.1073 0.5334-0.17 0.74-0.2325 0.4179-0.1064 0.6619-0.1564 0.6619-0.1564s-0.2465 0.0162-0.6794 0.0649c-0.2145 0.0342-0.4792 0.0626-0.7759 0.1321a9.46 9.46 0 0 0 -0.9937 0.26 10.094 10.094 0 0 0 -1.1415 0.4413 9.7121 9.7121 0 0 0 -1.211 0.6555 10.398 10.398 0 0 0 -1.1979 0.8789 10.548 10.548 0 0 0 -1.1 1.09c-0.1767 0.1894-0.336 0.4139-0.5043 0.6217l-0.2142 0.3015-0.1063 0.15-0.1147 0.1771a10.602 10.602 0 0 0 -0.7282 1.3449 10.768 10.768 0 0 0 -0.798 2.6289l-6e-3 0.0366q-0.7692 0.0705-1.5323 0.1968l1e-3 -0.2674 2e-3 -0.4779v-0.0866c7e-3 -0.076-0.01 0.0988-8e-3 0.0793l7e-4 -8e-3 3e-3 -0.0336 0.0123-0.1377 0.0256-0.29 0.0135-0.1525 7e-3 -0.078 4e-3 -0.0394 8e-4 -0.01 5e-4 -5e-3c2e-3 -0.0132-0.0167 0.0973-8e-3 0.0482l3e-3 -0.02 0.0474-0.3258 0.05-0.343 6e-3 -0.0441 8e-4 -6e-3c-0.0162 0.0729-4e-3 0.017-7e-3 0.0319l2e-3 -0.011 4e-3 -0.022 0.0167-0.0887 0.034-0.18a12.408 12.408 0 0 1 1.883 -4.5647l0.1211-0.1791 0.1456-0.1967 0.2925-0.3943c0.2015-0.232 0.38-0.4784 0.603-0.7064a12.688 12.688 0 0 1 2.8892 -2.3645c0.2573-0.1573 0.5157-0.3033 0.777-0.4313 0.2561-0.14 0.518-0.2516 0.7723-0.3646a12.967 12.967 0 0 1 1.4769 -0.5352 12.303 12.303 0 0 1 1.2987 -0.31c0.391-0.0832 0.7382-0.1129 1.0235-0.1524 0.286-0.0339 0.5123-0.039 0.666-0.0524l0.2367-0.0158-0.2367-8e-3c-0.1544-2e-3 -0.3818-0.02-0.671-0.0165-0.2888 0.01-0.6423 5e-3 -1.0448 0.048a12.572 12.572 0 0 0 -1.3507 0.18 13.391 13.391 0 0 0 -1.5721 0.3945c-0.2742 0.09-0.5583 0.1783-0.8386 0.2959-0.2857 0.1057-0.5706 0.23-0.8565 0.367a13.739 13.739 0 0 0 -1.7108 0.9556 13.907 13.907 0 0 0 -1.6137 1.2443c-0.2616 0.2188-0.5031 0.4826-0.7552 0.7241l-0.3318 0.3634-0.1648 0.1812-0.175 0.2077a13.898 13.898 0 0 0 -1.1651 1.63 14.104 14.104 0 0 0 -1.4608 3.2751l-0.0521 0.176-0.0256 0.0866-0.0315 0.1236-0.0846 0.3362-0.08 0.3193q-0.0354 0.1845-0.0689 0.3582l-0.0551 0.2863-0.0261 0.1357-6e-3 0.0332-2e-3 8e-3 -9e-3 0.0918-2e-3 0.0166-7e-3 0.0655-0.0507 0.4752c-0.0465 0.4359-0.0776 0.7289-0.09 0.845-0.4945 0.1343-0.9856 0.2843-1.4713 0.4544 0 0-2.5987 0.6074-2.4513 1.8907 0.1386 1.2067 2.699 1.4515 2.699 1.4515a21.506 21.506 0 0 0 13.1 -1.4151 5.0185 5.0185 0 0 1 -0.1528 -2.2446z" fill="#fff"/>
<path class="cls-1" d="m140.55 210.54a13.912 13.912 0 0 0 -0.321 -2.0122c-0.067-0.3345-0.1833-0.6727-0.2747-1.01l-0.16-0.4652-0.08-0.2313-0.0986-0.2531a13.896 13.896 0 0 0 -0.8741 -1.8026 14.108 14.108 0 0 0 -2.1774 -2.8493l-0.13-0.13-0.0638-0.0639-0.0936-0.0862-0.2548-0.235-0.242-0.2232-0.2816-0.2319-0.2251-0.1853-0.1065-0.0879-0.026-0.0215-6e-3 -5e-3 -0.0763-0.0519-0.0137-0.01-0.0541-0.0375-0.3934-0.2716-0.5272-0.3644q0.2041-0.8125 0.3452-1.6427s0.7255-2.5683-0.469-3.06c-1.123-0.4624-2.5759 1.66-2.5759 1.66a21.507 21.507 0 0 0 -5.0983 12.15 5.02 5.02 0 0 1 2.0378 0.9522l0.0165-3e-3a21.429 21.429 0 0 0 3.6961 -4.8779 9.0273 9.0273 0 0 1 2.4537 2.27l0.0929 0.1247 0.1025 0.1527 0.2051 0.3063c0.111 0.1965 0.2376 0.3789 0.3419 0.5915a9.3995 9.3995 0 0 1 0.9369 2.61 9.1312 9.1312 0 0 1 0.1718 1.2876 9.6819 9.6819 0 0 1 7e-3 1.1739 9.2116 9.2116 0 0 1 -0.1073 0.9939c-0.04 0.2971-0.106 0.55-0.15 0.7613-0.1071 0.4175-0.18 0.6554-0.18 0.6554s0.1038-0.2243 0.2679-0.6277c0.0726-0.2048 0.1742-0.4508 0.2551-0.7446a9.4385 9.4385 0 0 0 0.2472 -0.9968 10.08 10.08 0 0 0 0.1584 -1.2135 9.7237 9.7237 0 0 0 4e-3 -1.377 10.399 10.399 0 0 0 -0.199 -1.4725 10.536 10.536 0 0 0 -0.431 -1.4873c-0.0818-0.2457-0.2028-0.4931-0.3048-0.74l-0.1624-0.3323-0.0809-0.1651-0.1006-0.1853a10.612 10.612 0 0 0 -0.8335 -1.2828 10.766 10.766 0 0 0 -1.8856 -1.9236q0.3283-0.7324 0.6016-1.4883l0.0824 0.0443 0.4187 0.23 0.0577 0.0318 0.0147 8e-3 4e-3 2e-3c0.0632 0.0427-0.082-0.056-0.0659-0.045l7e-3 5e-3 0.0281 0.0187 0.1151 0.0766 0.2424 0.1618 0.1275 0.0848 0.0653 0.0434 0.0329 0.0219 8e-3 6e-3 4e-3 3e-3c0.0106 8e-3 -0.0775-0.0611-0.0384-0.03l0.0161 0.012 0.2641 0.197 0.2775 0.2078 0.0356 0.0267 4e-3 3e-3c-0.0563-0.049-0.0131-0.0116-0.0247-0.0216l9e-3 7e-3 0.0174 0.0142 0.07 0.0571 0.1423 0.116a12.409 12.409 0 0 1 3.1082 3.8369l0.0993 0.192 0.1031 0.222 0.2065 0.4455c0.1073 0.288 0.2382 0.5626 0.3319 0.8675a12.684 12.684 0 0 1 0.6947 3.6683c0.0151 0.3012 0.02 0.598 7e-3 0.8887 0 0.2917-0.0268 0.5753-0.0492 0.8526a12.962 12.962 0 0 1 -0.2364 1.553 12.292 12.292 0 0 1 -0.3487 1.2889c-0.1139 0.3832-0.2539 0.7024-0.3556 0.9717-0.1075 0.2668-0.2114 0.4679-0.2732 0.61l-0.0993 0.2153 0.1205-0.2039c0.0758-0.1345 0.2-0.3254 0.3354-0.5814 0.129-0.2585 0.3031-0.5663 0.4574-0.9405a12.556 12.556 0 0 0 0.4877 -1.2724 13.383 13.383 0 0 0 0.4054 -1.5693c0.0526-0.2837 0.11-0.5757 0.1413-0.878 0.0439-0.3014 0.0708-0.6111 0.0874-0.9277a13.751 13.751 0 0 0 -0.0216 -1.9602z" fill="#fff"/>
</g>
</svg>
