<svg xmlns="http://www.w3.org/2000/svg" width="30" height="30"><g fill="none" fill-rule="evenodd"><path d="M-2-2h35v35H-2z"/><path fill="#FFF" fill-rule="nonzero" d="M16.506 7.844H13.62v5.775H7.844v2.887h5.775v5.775h2.887v-5.775h5.775V13.62h-5.775zM15.062.625C7.094.625.626 7.093.626 15.063c0 7.969 6.468 14.437 14.438 14.437 7.969 0 14.437-6.468 14.437-14.437C29.5 7.093 23.032.624 15.063.624m0 25.988c-6.366 0-11.55-5.184-11.55-11.55s5.184-11.55 11.55-11.55 11.55 5.183 11.55 11.55c0 6.366-5.183 11.55-11.55 11.55"/></g></svg>