<svg xmlns="http://www.w3.org/2000/svg" width="30" height="30"><g fill="none" fill-rule="evenodd"><path d="M-2-2h35v35H-2z"/><path fill="#FFF" fill-rule="nonzero" d="m21.188 10.979-2.042-2.042-4.084 4.084-4.083-4.084-2.042 2.042 4.084 4.084-4.084 4.083 2.042 2.042 4.084-4.084 4.083 4.084 2.042-2.042-4.084-4.084zm8.312 4.084C29.5 7.093 23.032.624 15.063.624 7.093.625.624 7.093.624 15.063c0 7.969 6.468 14.437 14.438 14.437 7.969 0 14.437-6.468 14.437-14.437m-25.987 0c0-6.367 5.183-11.55 11.55-11.55 6.366 0 11.55 5.183 11.55 11.55 0 6.366-5.184 11.55-11.55 11.55s-11.55-5.184-11.55-11.55"/></g></svg>