<?xml version="1.0" encoding="UTF-8" standalone="no"?>
<svg width="40px" height="20px" viewBox="0 0 40 20" version="1.1" xmlns="http://www.w3.org/2000/svg" xmlns:xlink="http://www.w3.org/1999/xlink">
    <!-- Generator: Sketch 50.2 (55047) - http://www.bohemiancoding.com/sketch -->
    <title>ic_resource_page</title>
    <desc>Created with Sketch.</desc>
    <defs>
        <path d="M21.6666667,-4.26446281 C21.6666667,-5.21900826 20.9166667,-6 20,-6 C19.0833333,-6 18.3333333,-5.21900826 18.3333333,-4.26446281 L18.3333333,2.67768595 L15,2.67768595 L15,13.0909091 L25,13.0909091 L25,2.67768595 L21.6666667,2.67768595 L21.6666667,-4.26446281 Z M15,19.1010101 C15,20.9393939 16.4,22.4949495 18.3333333,23.0888889 L18.3333333,29 L21.6666667,29 L21.6666667,23.0888889 C23.6,22.4949495 25,20.9393939 25,19.1010101 L25,16.2727273 L15,16.2727273 L15,19.1010101 Z" id="path-1"></path>
    </defs>
    <g id="ic_resource_page" stroke="none" stroke-width="1" fill="none" fill-rule="evenodd">
        <g transform="translate(0.000000, -2.000000)">
            <polygon id="Shape" points="0 0 40 0 40 24 0 24"></polygon>
            <mask id="mask-2" fill="white">
                <use xlink:href="#path-1"></use>
            </mask>
            <use id="Shape" fill="#FFFFFF" fill-rule="nonzero" transform="translate(20.000000, 11.500000) rotate(90.000000) translate(-20.000000, -11.500000) " xlink:href="#path-1"></use>
        </g>
    </g>
</svg>