<svg width="15" height="13" viewBox="0 0 15 13" fill="none" xmlns="http://www.w3.org/2000/svg">
<path d="M14.1118 0.505859L9.89637 0.505859V2.20246L4.78052 2.20246V0.505859L0.539011 0.505859V4.74736H4.78052L4.78048 3.05076H6.47712C6.47712 3.05076 6.47712 7.29227 6.47712 8.14057C6.47708 9.57208 7.74953 10.6855 9.13387 10.6656C9.92683 10.7152 8.49851 10.6875 9.87028 10.6855V12.3821H14.1118V8.14057H9.87028V9.83717C8.48798 9.83899 9.91228 9.86347 9.1734 9.81729C8.17368 9.81729 7.29565 8.78342 7.29565 8.14057C7.23509 7.30734 7.29523 4.6268 7.29565 3.07064H9.89637V4.74736H14.1118V0.505859Z" fill="#FFFFFF"/>
</svg>