<svg width="24" height="24" xmlns="http://www.w3.org/2000/svg">

 <g>
  <title>background</title>
  <rect fill="none" id="canvas_background" height="402" width="582" y="-1" x="-1"/>
 </g>
 <g>
  <title>Layer 1</title>
  <path stroke="null" id="svg_1" fill="#8D8C8C" d="m19.631701,7.7928l-4.3626,4.3626l3.27195,0c0,3.610052 -2.933849,6.5439 -6.5439,6.5439c-1.101557,0 -2.148581,-0.272663 -3.05382,-0.763455l-1.592349,1.592349c1.3415,0.850707 2.933849,1.352406 4.646169,1.352406c4.820673,0 8.725201,-3.904527 8.725201,-8.725201l3.27195,0l-4.3626,-4.3626zm-14.178451,4.3626c0,-3.610052 2.933849,-6.5439 6.5439,-6.5439c1.101557,0 2.148581,0.272663 3.05382,0.763455l1.592349,-1.592349c-1.3415,-0.850707 -2.933849,-1.352406 -4.646169,-1.352406c-4.820673,0 -8.725201,3.904527 -8.725201,8.725201l-3.27195,0l4.3626,4.3626l4.3626,-4.3626l-3.27195,0z"/>
 </g>
</svg>