<svg xmlns="http://www.w3.org/2000/svg" width="20" height="20"><path fill="#FFF" fill-rule="nonzero" d="M13.238 15.667a2.337 2.337 0 0 0 2.333-2.334A2.337 2.337 0 0 0 13.238 11a2.33 2.33 0 0 0-2.333 2.333 2.33 2.33 0 0 0 2.333 2.334m4.952-1.686 1.41 1.105a.334.334 0 0 1 .076.428l-1.333 2.305c-.086.143-.248.2-.41.143l-1.657-.667a5 5 0 0 1-1.124.657l-.257 1.762a.33.33 0 0 1-.324.286h-2.666a.34.34 0 0 1-.334-.286l-.247-1.762a5 5 0 0 1-1.124-.657l-1.667.667a.325.325 0 0 1-.4-.143L6.8 15.514a.334.334 0 0 1 .076-.428l1.41-1.105-.048-.648.048-.657-1.41-1.095a.34.34 0 0 1-.076-.429l1.333-2.304c.077-.153.257-.21.4-.153l1.667.676a4.6 4.6 0 0 1 1.124-.657l.247-1.771a.34.34 0 0 1 .334-.276h2.666c.162 0 .305.123.324.276l.257 1.771c.4.162.781.39 1.124.657l1.657-.676a.327.327 0 0 1 .41.153l1.333 2.304a.34.34 0 0 1-.076.429l-1.41 1.095.048.657zm-13.723-8.2c.828 0 1.495-.667 1.495-1.495A1.5 1.5 0 1 0 4.467 5.78m3.18-1.076.924.705a.23.23 0 0 1 .029.276L7.743 7.17c-.048.096-.162.134-.257.096l-1.067-.429-.705.42-.18 1.132a.214.214 0 0 1-.21.181H3.61a.22.22 0 0 1-.22-.18l-.152-1.134-.724-.419-1.085.429c-.086.038-.19 0-.248-.096L.324 5.686A.22.22 0 0 1 .37 5.41l.905-.705-.028-.42.028-.418-.905-.705a.22.22 0 0 1-.047-.276L1.18 1.4c.057-.095.162-.133.248-.095l1.076.428.733-.419L3.39.181A.22.22 0 0 1 3.61 0h1.714c.105 0 .19.076.21.181l.18 1.133.705.42 1.067-.43c.095-.037.21 0 .257.096L8.6 2.886a.23.23 0 0 1-.029.276l-.923.705.028.419z"/></svg>