<?xml version="1.0" encoding="UTF-8"?>
<svg width="14px" height="14px" viewBox="0 0 14 14" version="1.1" xmlns="http://www.w3.org/2000/svg" xmlns:xlink="http://www.w3.org/1999/xlink">
    <!-- Generator: Sketch Beta 51.2 (57516) - http://www.bohemiancoding.com/sketch -->
    <title>ic_interupted</title>
    <desc>Created with Sketch Beta.</desc>
    <defs></defs>
    <g id="Resource_pinning_flow" stroke="none" stroke-width="1" fill="none" fill-rule="evenodd">
        <g id="ic_interupted" transform="translate(-5.000000, -5.000000)">
            <polygon id="Shape" points="0 0 24 0 24 24 0 24"></polygon>
            <path d="M11.2964824,6.42110553 L11.2964824,5 C9.88241206,5.14070352 8.59497487,5.70351759 7.55376884,6.55477387 L8.55276382,7.56080402 C9.33366834,6.95577889 10.2693467,6.54773869 11.2964824,6.42110553 Z M16.4462312,6.55477387 C15.4050251,5.70351759 14.1175879,5.14070352 12.7035176,5 L12.7035176,6.42110553 C13.7306533,6.54773869 14.6663317,6.95577889 15.4472362,7.56080402 L16.4462312,6.55477387 Z M17.5788945,11.2964824 L19,11.2964824 C18.8592965,9.88241206 18.2964824,8.59497487 17.4452261,7.55376884 L16.439196,8.55276382 C17.0442211,9.33366834 17.4522613,10.2693467 17.5788945,11.2964824 Z M7.56080402,8.55276382 L6.55477387,7.55376884 C5.70351759,8.59497487 5.14070352,9.88241206 5,11.2964824 L6.42110553,11.2964824 C6.54773869,10.2693467 6.95577889,9.33366834 7.56080402,8.55276382 Z M6.42110553,12.7035176 L5,12.7035176 C5.14070352,14.1175879 5.70351759,15.4050251 6.55477387,16.4462312 L7.56080402,15.440201 C6.95577889,14.6663317 6.54773869,13.7306533 6.42110553,12.7035176 Z M14.1105528,12 C14.1105528,10.8321608 13.1678392,9.88944724 12,9.88944724 C10.8321608,9.88944724 9.88944724,10.8321608 9.88944724,12 C9.88944724,13.1678392 10.8321608,14.1105528 12,14.1105528 C13.1678392,14.1105528 14.1105528,13.1678392 14.1105528,12 Z M16.439196,15.4472362 L17.4452261,16.4532663 C18.2964824,15.4120603 18.8592965,14.1175879 19,12.7105528 L17.5788945,12.7105528 C17.4522613,13.7306533 17.0442211,14.6663317 16.439196,15.4472362 Z M12.7035176,17.5788945 L12.7035176,19 C14.1175879,18.8592965 15.4050251,18.2964824 16.4462312,17.4452261 L15.440201,16.439196 C14.6663317,17.0442211 13.7306533,17.4522613 12.7035176,17.5788945 Z M7.55376884,17.4452261 C8.59497487,18.2964824 9.88944724,18.8592965 11.2964824,19 L11.2964824,17.5788945 C10.2693467,17.4522613 9.33366834,17.0442211 8.55276382,16.439196 L7.55376884,17.4452261 Z" id="Shape" fill="#9B9B9B" fill-rule="nonzero"></path>
        </g>
    </g>
</svg>