<svg xmlns="http://www.w3.org/2000/svg" width="14" height="14"><g fill="none" fill-rule="evenodd"><path d="M-5-5h24v24H-5z"/><path fill="#9B9B9B" fill-rule="nonzero" d="M6.296 1.421V0a7 7 0 0 0-3.742 1.555l.999 1.006a5.6 5.6 0 0 1 2.743-1.14m5.15.134A7 7 0 0 0 7.704 0v1.421a5.6 5.6 0 0 1 2.743 1.14zm1.133 4.741H14a7 7 0 0 0-1.555-3.742l-1.006.999a5.6 5.6 0 0 1 1.14 2.743M2.56 3.553l-1.006-1A7 7 0 0 0 0 6.297h1.421a5.6 5.6 0 0 1 1.14-2.743m-1.14 4.15H0a7 7 0 0 0 1.555 3.743L2.56 10.44a5.54 5.54 0 0 1-1.14-2.736m10.018 2.744 1.006 1.006A7 7 0 0 0 14 7.711h-1.421a5.6 5.6 0 0 1-1.14 2.736M7.704 12.58V14a7 7 0 0 0 3.742-1.555L10.44 11.44a5.54 5.54 0 0 1-2.736 1.14m-5.15-.134A7 7 0 0 0 6.296 14v-1.421a5.6 5.6 0 0 1-2.743-1.14z"/></g></svg>