<?xml version="1.0" encoding="UTF-8"?>
<svg width="31px" height="31px" viewBox="0 0 31 31" version="1.1" xmlns="http://www.w3.org/2000/svg" xmlns:xlink="http://www.w3.org/1999/xlink">
    <!-- Generator: Sketch 51.2 (57519) - http://www.bohemiancoding.com/sketch -->
    <title>ic_pause_circle_outline_white_24px (2)</title>
    <desc>Created with Sketch.</desc>
    <defs></defs>
    <g id="Page-1" stroke="none" stroke-width="1" fill="none" fill-rule="evenodd">
        <g id="Artboard-3" transform="translate(-844.000000, -14.000000)">
            <g id="ic_pause_circle_outline_white_24px-(2)" transform="translate(842.000000, 12.000000)">
                <polygon id="Shape" points="0 0 35 0 35 35 0 35"></polygon>
                <path d="M13.125,23.3333333 L16.0416667,23.3333333 L16.0416667,11.6666667 L13.125,11.6666667 L13.125,23.3333333 Z M17.5,2.91666667 C9.45,2.91666667 2.91666667,9.45 2.91666667,17.5 C2.91666667,25.55 9.45,32.0833333 17.5,32.0833333 C25.55,32.0833333 32.0833333,25.55 32.0833333,17.5 C32.0833333,9.45 25.55,2.91666667 17.5,2.91666667 Z M17.5,29.1666667 C11.06875,29.1666667 5.83333333,23.93125 5.83333333,17.5 C5.83333333,11.06875 11.06875,5.83333333 17.5,5.83333333 C23.93125,5.83333333 29.1666667,11.06875 29.1666667,17.5 C29.1666667,23.93125 23.93125,29.1666667 17.5,29.1666667 Z M18.9583333,23.3333333 L21.875,23.3333333 L21.875,11.6666667 L18.9583333,11.6666667 L18.9583333,23.3333333 Z" id="Shape" fill="#FFFFFF" fill-rule="nonzero"></path>
            </g>
        </g>
    </g>
</svg>