<svg xmlns="http://www.w3.org/2000/svg" width="37" height="34"><g fill="#FFF" fill-rule="nonzero"><path stroke="#FFF" stroke-width=".5" d="m29.7 10.106-3.175.842 6.85 6.657 2.472-9.129-3.357.89C29.493 4.313 24.043 1.22 18 1.22c-7.376 0-13.807 4.622-16 11.5-.228.714.179 1.473.908 1.695q.206.063.413.062c.59 0 1.136-.371 1.32-.95C6.473 7.782 11.841 3.924 18 3.924c4.79 0 9.131 2.333 11.7 6.181Z"/><path d="M15.66 31.094c-.75-.121-1.466.374-1.593 1.11a1.36 1.36 0 0 0 1.136 1.559q.116.02.233.018a1.37 1.37 0 0 0 1.361-1.129c.127-.737-.379-1.434-1.136-1.558M11.198 29.564h.004a1.405 1.405 0 0 0-1.886.521 1.343 1.343 0 0 0 .536 1.844v-.003a1.4 1.4 0 0 0 .675.172c.484 0 .956-.25 1.208-.693a1.34 1.34 0 0 0-.537-1.84M5.558 26.543a1.33 1.33 0 0 0-.12 1.91v-.003c.274.304.653.458 1.039.458.322 0 .652-.11.915-.337.57-.495.626-1.353.12-1.91a1.405 1.405 0 0 0-1.954-.118M20.4 31.086c-.753.125-1.26.825-1.128 1.562.116.66.7 1.123 1.36 1.123q.12-.001.237-.019c.754-.128 1.26-.829 1.13-1.566-.132-.737-.844-1.228-1.598-1.1M24.855 29.531a1.34 1.34 0 0 0-.524 1.845 1.393 1.393 0 0 0 1.883.513 1.335 1.335 0 0 0 .528-1.84 1.4 1.4 0 0 0-1.887-.518M28.53 26.613a1.33 1.33 0 0 0 .132 1.907 1.397 1.397 0 0 0 1.95-.125 1.335 1.335 0 0 0-.128-1.91 1.405 1.405 0 0 0-1.953.128M32.783 20.402c-.367 0-.724.143-.978.396-.26.252-.405.601-.405.956 0 .356.146.704.405.957.255.25.614.396.978.396s.72-.146.979-.396c.255-.253.4-.6.4-.957 0-.355-.145-.707-.4-.956a1.4 1.4 0 0 0-.979-.396M2.624 17.605.153 26.734l9.322-2.472zM20.158 10h-3.053v6.105H11v3.052h6.105v6.105h3.052v-6.105h6.105v-3.052h-6.105z"/></g></svg>