<?xml version="1.0" encoding="UTF-8"?>
<svg width="37px" height="34px" viewBox="0 0 37 34" version="1.1" xmlns="http://www.w3.org/2000/svg" xmlns:xlink="http://www.w3.org/1999/xlink">
    <!-- Generator: Sketch 56.2 (81672) - https://sketch.com -->
    <title>re-trigger_bttn</title>
    <desc>Created with Sketch.</desc>
    <g id="Page-1" stroke="none" stroke-width="1" fill="none" fill-rule="evenodd">
        <g id="00_build_page_split_trigger_resource_list_old_build_slice_1" transform="translate(-1389.000000, -76.000000)" fill="#FFFFFF" fill-rule="nonzero">
            <g id="re-trigger_bttn" transform="translate(1389.000000, 77.000000)">
                <path d="M29.699625,9.10616667 L26.52525,9.94803333 L33.37575,16.6048667 L35.847,7.47633333 L32.490375,8.3666 C29.493,3.31246667 24.043125,0.2189 18,0.2189 C10.62375,0.2189 4.19325,4.84073333 1.999125,11.7197667 C1.7715,12.4329333 2.17875,13.1919333 2.908125,13.4141333 C3.045375,13.4559333 3.184125,13.4761 3.320625,13.4761 C3.910125,13.4761 4.4565,13.1046667 4.641,12.5253333 C6.472875,6.78296667 11.841375,2.9249 18,2.9249 C22.790625,2.9249 27.13125,5.258 29.699625,9.10616667 Z" id="Path" stroke="#FFFFFF" stroke-width="0.5"></path>
                <path d="M15.66075,30.0938 C14.91075,29.9728 14.1945,30.4678 14.067,31.2044333 C13.94325,31.9414333 14.4495,32.6381 15.20325,32.7627667 C15.282,32.7774333 15.357,32.7811 15.43575,32.7811 C16.0995,32.7811 16.6845,32.3154333 16.797,31.6521333 C16.9245,30.9147667 16.41825,30.2184667 15.66075,30.0938 Z" id="Path"></path>
                <path d="M11.19825,28.5644333 C11.202,28.5644333 11.202,28.5644333 11.202,28.5644333 C10.53075,28.2018 9.69075,28.4328 9.31575,29.0854667 C8.9445,29.7377667 9.1845,30.5627667 9.852,30.9294333 L9.852,30.9257667 C10.06575,31.0431 10.29825,31.0981 10.527,31.0981 C11.01075,31.0981 11.48325,30.8487667 11.7345,30.4051 C12.10575,29.7528 11.86575,28.9278 11.19825,28.5644333 Z" id="Path"></path>
                <path d="M5.55825,25.5434667 C4.9845,26.0384667 4.932,26.8928 5.43825,27.4538 L5.43825,27.4497667 C5.712,27.7541 6.09075,27.9081 6.477,27.9081 C6.7995,27.9081 7.1295,27.7981 7.392,27.5707667 C7.962,27.0757667 8.01825,26.2181333 7.512,25.6604333 C7.00575,25.0998 6.132,25.0481 5.55825,25.5434667 Z" id="Path"></path>
                <path d="M20.40075,30.0864667 C19.647,30.2111333 19.140375,30.9114667 19.272,31.6484667 C19.387875,32.3084667 19.972875,32.7708333 20.632875,32.7708333 C20.712,32.7708333 20.790375,32.7631333 20.8695,32.7525 C21.62325,32.6238 22.129125,31.9234667 21.99825,31.1864667 C21.867375,30.4494667 21.1545,29.9581333 20.40075,30.0864667 Z" id="Path"></path>
                <path d="M24.855375,28.5314333 C24.191625,28.8981 23.956125,29.7231 24.331125,30.3757667 C24.586125,30.8157667 25.054875,31.0651 25.53825,31.0651 C25.767375,31.0651 25.9995,31.0064333 26.213625,30.8894667 C26.88075,30.5228 27.117375,29.6978 26.742375,29.0484333 C26.367,28.3957667 25.52325,28.1647667 24.855375,28.5314333 Z" id="Path"></path>
                <path d="M28.53075,25.6131333 C28.02825,26.1741333 28.084875,27.0284667 28.662,27.5198 C28.924875,27.7471333 29.247375,27.8571333 29.57325,27.8571333 C29.956125,27.8571333 30.338625,27.6994667 30.612375,27.3951333 C31.114875,26.8304667 31.05825,25.9761333 30.484125,25.4848 C29.907,24.9934667 29.03325,25.0481 28.53075,25.6131333 Z" id="Path"></path>
                <path d="M32.78325,19.4018 C32.41575,19.4018 32.0595,19.5448 31.804875,19.7978 C31.54575,20.0504333 31.399875,20.3991333 31.399875,20.7544333 C31.399875,21.1104667 31.54575,21.4584333 31.804875,21.7114333 C32.059875,21.9607667 32.4195,22.1074333 32.78325,22.1074333 C33.147,22.1074333 33.50325,21.9607667 33.761625,21.7114333 C34.017375,21.4584333 34.162875,21.1101 34.162875,20.7544333 C34.162875,20.3987667 34.017,20.0467667 33.761625,19.7978 C33.50325,19.5448 33.147375,19.4018 32.78325,19.4018 Z" id="Path"></path>
                <polygon id="Path" points="2.62425 16.6048667 0.153 25.7337667 9.475125 23.2620667"></polygon>
                <polygon id="Path" points="20.1575 9 17.105 9 17.105 15.105 11 15.105 11 18.1575 17.105 18.1575 17.105 24.2625 20.1575 24.2625 20.1575 18.1575 26.2625 18.1575 26.2625 15.105 20.1575 15.105"></polygon>
            </g>
        </g>
    </g>
</svg>