<?xml version="1.0" encoding="UTF-8" standalone="no"?>
<svg width="15px" height="14px" viewBox="0 0 15 14" version="1.1" xmlns="http://www.w3.org/2000/svg" xmlns:xlink="http://www.w3.org/1999/xlink">
    <!-- Generator: Sketch 46.2 (44496) - http://www.bohemiancoding.com/sketch -->
    <title>ic_search_white_24px</title>
    <desc>Created with Sketch.</desc>
    <defs></defs>
    <g id="Page-1" stroke="none" stroke-width="1" fill="none" fill-rule="evenodd" opacity="0.515275187">
        <g id="dashboard_legend_01" transform="translate(-580.000000, -26.000000)">
            <g id="Group-7" transform="translate(567.000000, 14.000000)">
                <g id="ic_search_white_24px" transform="translate(11.000000, 10.000000)">
                    <path d="M12.5186741,10.8314394 L11.8806256,10.8314394 L11.6544818,10.6225473 C12.4459851,9.74055871 12.9225023,8.59552083 12.9225023,7.3499053 C12.9225023,4.57241477 10.5722222,2.32102273 7.67273576,2.32102273 C4.7732493,2.32102273 2.42296919,4.57241477 2.42296919,7.3499053 C2.42296919,10.1273958 4.7732493,12.3787879 7.67273576,12.3787879 C8.97306256,12.3787879 10.168394,11.9223201 11.0891223,11.1641193 L11.3071895,11.3807481 L11.3071895,11.9919508 L15.3454715,15.8525852 L16.5488796,14.6998106 L12.5186741,10.8314394 Z M7.67273576,10.8314394 C5.66167134,10.8314394 4.03828198,9.27635417 4.03828198,7.3499053 C4.03828198,5.42345644 5.66167134,3.86837121 7.67273576,3.86837121 C9.68380019,3.86837121 11.3071895,5.42345644 11.3071895,7.3499053 C11.3071895,9.27635417 9.68380019,10.8314394 7.67273576,10.8314394 Z" id="Shape" fill="#FFFFFF" fill-rule="nonzero"></path>
                    <polygon id="Shape" points="0 0 19.3837535 0 19.3837535 18.5681818 0 18.5681818"></polygon>
                </g>
            </g>
        </g>
    </g>
</svg>