<svg xmlns="http://www.w3.org/2000/svg" width="15" height="14"><g fill="none" fill-rule="evenodd"><path fill="#FFF" fill-rule="nonzero" d="M10.519 8.831H9.88l-.227-.208a4.89 4.89 0 0 0 1.269-3.273c0-2.778-2.35-5.029-5.25-5.029S.423 2.572.423 5.35s2.35 5.029 5.25 5.029c1.3 0 2.495-.457 3.416-1.215l.218.217v.611l4.038 3.86L14.55 12.7zm-4.846 0c-2.011 0-3.635-1.555-3.635-3.481 0-1.927 1.624-3.482 3.635-3.482S9.307 3.423 9.307 5.35c0 1.926-1.623 3.481-3.634 3.481"/><path d="M-2-2h19.384v18.568H-2z"/></g></svg>