<?xml version="1.0" encoding="UTF-8" standalone="no"?>
<svg width="40px" height="20px" viewBox="0 0 40 20" version="1.1" xmlns="http://www.w3.org/2000/svg" xmlns:xlink="http://www.w3.org/1999/xlink">
    <!-- Generator: Sketch 50.2 (55047) - http://www.bohemiancoding.com/sketch -->
    <title>ic_pipeline_page</title>
    <desc>Created with Sketch.</desc>
    <defs></defs>
    <g id="ic_pipeline_page" stroke="none" stroke-width="1" fill="none" fill-rule="evenodd">
        <g transform="translate(0.000000, -2.000000)" id="Shape">
            <path d="M12,0 L12,6.14035087 L14.6194853,6.14035087 L14.6194853,18.8596492 L12,18.8596492 L12,25 L18.1764706,25 L18.1764706,18.941886 C19.1187988,18.9336271 19.9274938,18.9087035 20.6029412,18.8596492 C21.9194912,18.7639474 22.8224118,18.5583334 23.4430147,17.9824561 C24.0636177,17.4065789 24.2540029,16.5740789 24.3253676,15.433114 C24.3941744,14.3333982 24.3557921,12.8673597 24.3529412,10.9649123 L27,10.9649123 L27,4.8245614 L20.8235294,4.8245614 L20.8235294,10.9649123 L23.4705882,10.9649123 C23.4731135,12.881964 23.5070585,14.3535737 23.4430147,15.3782895 C23.3764853,16.4412719 23.2084412,17.0067105 22.8363971,17.3519737 C22.4643529,17.6971492 21.7680088,17.8917544 20.5202206,17.9824561 C19.3646603,18.0664535 17.7151447,18.0652798 15.5569853,18.0646929 L15.5569853,6.14035087 L18.1764706,6.14035087 L18.1764706,0 L12,0 Z" fill="#FFFFFF" fill-rule="nonzero" transform="translate(19.500000, 12.500000) rotate(90.000000) translate(-19.500000, -12.500000) "></path>
            <polygon points="0 0 40 0 40 24 0 24"></polygon>
        </g>
    </g>
</svg>