<?xml version="1.0" encoding="UTF-8" standalone="no"?>
<svg width="12px" height="21px" viewBox="0 0 12 21" version="1.1" xmlns="http://www.w3.org/2000/svg" xmlns:xlink="http://www.w3.org/1999/xlink">
    <!-- Generator: Sketch 46.2 (44496) - http://www.bohemiancoding.com/sketch -->
    <title>ic_pending</title>
    <desc>Created with Sketch.</desc>
    <defs></defs>
    <g id="Page-1" stroke="none" stroke-width="1" fill="none" fill-rule="evenodd">
        <g id="dashboard_split_cards" transform="translate(-298.000000, -1045.000000)">
            <g id="ic_pending" transform="translate(293.000000, 1044.000000)">
                <path d="M5.5,1.83333333 L5.5,7.83333333 L5.50916667,7.83333333 L5.5,7.84333333 L9.16666667,11.8333333 L5.5,15.8333333 L5.50916667,15.8433333 L5.5,15.8433333 L5.5,21.8333333 L16.5,21.8333333 L16.5,15.8433333 L16.4908333,15.8433333 L16.5,15.8333333 L12.8333333,11.8333333 L16.5,7.84333333 L16.4908333,7.83333333 L16.5,7.83333333 L16.5,1.83333333 L5.5,1.83333333 Z M14.6666667,16.3333333 L14.6666667,19.8333333 L7.33333333,19.8333333 L7.33333333,16.3333333 L11,12.3333333 L14.6666667,16.3333333 Z M11,11.3333333 L7.33333333,7.33333333 L7.33333333,3.83333333 L14.6666667,3.83333333 L14.6666667,7.33333333 L11,11.3333333 Z" id="Shape" fill="#9B9B9B" fill-rule="nonzero"></path>
                <polygon id="Shape" points="0 0 22 0 22 22 0 22"></polygon>
            </g>
        </g>
    </g>
</svg>