<svg xmlns="http://www.w3.org/2000/svg" width="25" height="30"><g fill="none" fill-rule="evenodd"><path d="M-3-1h31.886v32H-3z"/><path fill="#FFF" fill-rule="nonzero" d="M24.09 24.04c-.756-.312-1.377-.797-1.333-1.738.043-.935-.668-1.555-.668-1.555s.624-2.048.043-3.74c-.577-1.694-2.488-4.405-3.956-6.453-1.462-2.048-.219-4.406-1.552-7.433C15.288.1 11.822.275 9.954 1.567c-1.87 1.288-1.292 4.493-1.201 6.01.087 1.51.04 2.588-.132 2.98-.178.391-1.377 1.826-2.176 3.027-.8 1.2-1.377 3.693-1.958 4.715-.578 1.026-.178 1.958-.178 1.958s-.4.131-.712.803c-.312.663-.93.976-2.042 1.195-1.112.222-1.112.938-.846 1.741.268.798 0 1.248-.312 2.27s1.243 1.336 2.754 1.511c1.511.181 3.2 1.16 4.624 1.335 1.421.178 1.867-.979 1.867-.979s1.6-.356 3.286-.4c1.689-.047 3.285.354 3.285.354s.312.713.89 1.022c.58.313 1.823.357 2.622-.488.8-.847 2.935-1.913 4.132-2.58 1.21-.671.989-1.694.233-2M13.689 4.412c.764 0 1.377.757 1.377 1.69 0 .662-.31 1.232-.761 1.51-.114-.053-.234-.1-.362-.158.271-.135.464-.482.464-.885 0-.526-.327-.953-.727-.953-.397 0-.723.43-.723.953 0 .195.046.38.125.534-.236-.093-.455-.184-.627-.245a2 2 0 0 1-.146-.76c.003-.929.619-1.686 1.38-1.686m-.1 3.565c.38.131.806.38.762.625-.046.245-.245.245-.761.564-.517.313-1.634 1.008-1.993 1.052-.359.046-.56-.158-.94-.403s-1.096-.833-.915-1.146c0 0 .557-.43.802-.651.245-.225.875-.763 1.254-.693.38.065 1.413.517 1.792.652M10.157 4.68c.6 0 1.088.716 1.088 1.601 0 .164-.017.313-.047.459a1.5 1.5 0 0 0-.44.251l-.201.173a1.15 1.15 0 0 0 .09-.702c-.079-.485-.403-.835-.72-.783-.319.056-.508.488-.43.976.082.488.403.839.721.783q.026-.006.056-.014a5 5 0 0 1-.444.385c-.44-.204-.764-.812-.764-1.53.006-.883.49-1.599 1.09-1.599M8.983 27.166c-.143.637-.89 1.102-.89 1.102-.677.21-2.559-.605-3.408-.961-.851-.354-3.016-.465-3.302-.78-.283-.325.143-1.035.25-1.707.106-.678-.21-1.101-.107-1.566.108-.461 1.49-.461 2.022-.78.534-.321.639-1.244 1.065-1.493.426-.251 1.204.637 1.525 1.14.321.493 1.526 2.63 2.022 3.16.505.533.963 1.248.823 1.885m7.86-6.2c-.129.629-.129 2.893-.129 2.893s-1.377 1.91-3.512 2.223c-2.133.313-3.2.088-3.2.088l-1.2-1.379s.93-.134.8-1.07c-.135-.931-2.845-2.226-3.332-3.383-.488-1.157-.088-3.117.534-4.096.621-.979 1.02-3.114 1.642-3.827.625-.71 1.109-2.224.89-2.89 0 0 1.333 1.604 2.267 1.336.93-.27 3.023-1.827 3.332-1.558.312.27 2.979 6.142 3.241 8.011.269 1.87-.178 3.29-.178 3.29s-1.024-.263-1.155.363m6.821 4.193c-.414.38-2.725 1.318-3.416 2.042-.689.725-1.59 1.312-2.142 1.14-.554-.175-1.039-.932-.793-2.042.239-1.105.449-2.314.414-3.007-.035-.692-.175-1.627 0-1.764.172-.135.446-.068.446-.068s-.134 1.312.657 1.66c.79.345 1.931-.137 2.278-.488.347-.345.59-.862.59-.862s.344.175.312.728c-.035.552.239 1.35.761 1.624.51.275 1.307.654.893 1.037"/></g></svg>