<?xml version="1.0" encoding="UTF-8"?>
<svg width="25px" height="30px" viewBox="0 0 25 30" version="1.1" xmlns="http://www.w3.org/2000/svg" xmlns:xlink="http://www.w3.org/1999/xlink">
    <!-- Generator: Sketch Beta 51.2 (57516) - http://www.bohemiancoding.com/sketch -->
    <title>linux_logo</title>
    <desc>Created with Sketch Beta.</desc>
    <defs></defs>
    <g id="Page-1" stroke="none" stroke-width="1" fill="none" fill-rule="evenodd">
        <g id="dashboard_empty_state_member1_no-pipelines" transform="translate(-902.000000, -508.000000)">
            <g id="linux_logo" transform="translate(899.000000, 507.000000)">
                <g id="Group-18">
                    <polygon id="Shape" points="0 0 31.8857143 0 31.8857143 32 0 32"></polygon>
                    <path d="M27.0899806,25.0401974 C26.3343407,24.7275781 25.7129071,24.2425798 25.75667,23.3018001 C25.8004329,22.3668638 25.0885559,21.7474685 25.0885559,21.7474685 C25.0885559,21.7474685 25.7129071,19.6993735 25.1323188,18.0077231 C24.5546481,16.3131509 22.6436668,13.6018355 21.1761498,11.5537406 C19.7144679,9.50564564 20.9573352,7.14785304 19.6240245,4.12099661 C18.2877964,1.09998353 14.8217722,1.27528409 12.9545538,2.56666493 C11.0844179,3.85512408 11.6620886,7.06020275 11.752532,8.57655264 C11.8400578,10.0870592 11.7933774,11.1651577 11.6212432,11.5566623 C11.4432739,11.9481669 10.2441696,13.3827098 9.44476671,14.5835187 C8.64536383,15.7843276 8.06769314,18.2765173 7.48710492,19.2991039 C6.90943422,20.3246122 7.30913566,21.2566269 7.30913566,21.2566269 C7.30913566,21.2566269 6.90943422,21.3881023 6.59725865,22.0600878 C6.28508307,22.7233083 5.66656697,23.0359276 4.55498852,23.2550533 C3.44341006,23.4771007 3.44341006,24.1929113 3.70890518,24.9963723 C3.97731782,25.7939898 3.70890518,26.243928 3.3967296,27.2665146 C3.08455403,28.2891012 4.63959685,28.6017206 6.15087675,28.7770211 C7.66215664,28.958165 9.35140579,29.9369265 10.7751598,30.1122271 C12.1959963,30.2904493 12.6423782,29.1334656 12.6423782,29.1334656 C12.6423782,29.1334656 14.241184,28.7770211 15.9275156,28.733196 C17.6167648,28.6864492 19.212653,29.0867188 19.212653,29.0867188 C19.212653,29.0867188 19.5248286,29.7996078 20.1024993,30.1093054 C20.6830875,30.4219248 21.9259547,30.4657499 22.7253576,29.6213855 C23.5247605,28.7740995 25.6603915,27.7076877 26.8565783,27.0415455 C28.0673528,26.36956 27.8456206,25.3469734 27.0899806,25.0401974 Z M16.6889906,5.41237744 C17.4533831,5.41237744 18.0660642,6.16909154 18.0660642,7.10110622 C18.0660642,7.76432669 17.7568061,8.33405353 17.3045892,8.61161276 C17.1908056,8.55902259 17.0711869,8.51227577 16.9428156,8.45384225 C17.2141458,8.31944515 17.4067027,7.97176569 17.4067027,7.56857439 C17.4067027,7.0426727 17.0799395,6.61610799 16.680238,6.61610799 C16.2834541,6.61610799 15.9566909,7.04559437 15.9566909,7.56857439 C15.9566909,7.76432669 16.0033714,7.94839228 16.0821446,8.10324112 C15.8458248,8.00974748 15.6270101,7.91917552 15.4548759,7.85782033 C15.3644326,7.63285127 15.3089995,7.37282209 15.3089995,7.09818454 C15.311917,6.16909154 15.9275156,5.41237744 16.6889906,5.41237744 Z M16.5897946,8.97682227 C16.9690734,9.10829769 17.3950326,9.35664016 17.3512696,9.60206095 C17.3045892,9.84748174 17.1061972,9.84748174 16.5897946,10.1659444 C16.073392,10.4785638 14.9559785,11.1739227 14.5971225,11.2177478 C14.2382665,11.2644946 14.036957,11.0599773 13.6576782,10.8145565 C13.2783995,10.5691357 12.5606874,9.98187884 12.7415742,9.6692595 C12.7415742,9.6692595 13.2988222,9.23977312 13.5438946,9.01772573 C13.788967,8.79275667 14.4191532,8.25516827 14.798432,8.3252885 C15.1777107,8.38956537 16.2105159,8.84242517 16.5897946,8.97682227 Z M13.1558633,5.68117164 C13.7568742,5.68117164 14.2441015,6.39698228 14.2441015,7.28225014 C14.2441015,7.445864 14.2265963,7.59486948 14.1974211,7.74095328 C14.0515446,7.79354345 13.9027507,7.87242871 13.7568742,7.99221743 C13.683936,8.05357262 13.6197504,8.10908447 13.5555647,8.16459631 C13.6489256,7.98637407 13.6897711,7.73218825 13.6460081,7.46339405 C13.5672348,6.97839582 13.2433892,6.62779469 12.9253785,6.68038486 C12.6073679,6.73589671 12.4177285,7.16830477 12.4965018,7.65622467 C12.5781926,8.14414458 12.8991208,8.49474571 13.2171314,8.43923387 C13.2346366,8.43631219 13.2521417,8.43046884 13.2725644,8.42462549 C13.1179354,8.57363097 12.9749765,8.70218472 12.8291001,8.81028673 C12.3885532,8.6057694 12.0647075,7.99806078 12.0647075,7.27932846 C12.0705426,6.39698228 12.5548524,5.68117164 13.1558633,5.68117164 Z M11.9830167,28.1663908 C11.8400578,28.8033162 11.0931705,29.2678627 11.0931705,29.2678627 C10.4163038,29.4782234 8.53449774,28.6630758 7.68549687,28.3066313 C6.83357848,27.9531085 4.66877214,27.8420848 4.38285432,27.5265438 C4.09985403,27.2022377 4.52581323,26.4922704 4.63376179,25.8202849 C4.73879283,25.1424561 4.42369972,24.718813 4.52581323,24.2542665 C4.63376179,23.7926417 6.01667042,23.7926417 6.54766066,23.474179 C7.08156842,23.1527947 7.18659946,22.229545 7.61255865,21.9812025 C8.03851785,21.7299384 8.81749803,22.6181279 9.13842619,23.1206562 C9.45935436,23.6144195 10.6642937,25.7501647 11.1602736,26.2819097 C11.6650061,26.8136548 12.1230581,27.5294654 11.9830167,28.1663908 Z M19.8428392,21.9665942 C19.7144679,22.5947545 19.7144679,24.8590535 19.7144679,24.8590535 C19.7144679,24.8590535 18.3373944,26.7698297 16.2017633,27.082449 C14.0690498,27.3950683 13.0012343,27.1700993 13.0012343,27.1700993 L11.8021299,25.7910682 C11.8021299,25.7910682 12.7328216,25.6566711 12.6015328,24.7217347 C12.4673265,23.78972 9.75694229,22.4954175 9.26971499,21.3384338 C8.78248768,20.1814501 9.18218912,18.2210054 9.80362275,17.2422439 C10.4250564,16.2634824 10.8247578,14.1277372 11.4461914,13.4148482 C12.0705426,12.704881 12.5548524,11.1914527 12.3360377,10.5253106 C12.3360377,10.5253106 13.6693483,12.1293108 14.6029576,11.8605166 C15.5336492,11.5917224 17.6255173,10.034469 17.9347754,10.3032632 C18.246951,10.5720574 20.9135722,16.4446264 21.1761498,18.3144991 C21.4445625,20.1843717 20.9981806,21.6043063 20.9981806,21.6043063 C20.9981806,21.6043063 19.974128,21.3413555 19.8428392,21.9665942 Z M26.6640214,26.1591994 C26.2497323,26.5390172 23.9390496,27.4768753 23.2475953,28.2014509 C22.5590585,28.9260266 21.6575421,29.5132835 21.1061291,29.3409046 C20.5517987,29.1656041 20.0674889,28.4088899 20.3125613,27.298653 C20.5517987,26.1942595 20.7618608,24.9846856 20.7268504,24.2922483 C20.6918401,23.5998111 20.5517987,22.6648747 20.7268504,22.527556 C20.8989846,22.3931589 21.1732323,22.4603574 21.1732323,22.4603574 C21.1732323,22.4603574 21.039026,23.77219 21.8296763,24.1198694 C22.6203266,24.4646272 23.7610803,23.9825507 24.1082662,23.6319495 C24.4554522,23.2871918 24.697607,22.7700551 24.697607,22.7700551 C24.697607,22.7700551 25.0418754,22.9453557 25.0097826,23.4975524 C24.9747723,24.0497492 25.24902,24.8473668 25.7712576,25.1220043 C26.2818252,25.3966419 27.0783105,25.7764598 26.6640214,26.1591994 Z" id="Shape" fill="#FFFFFF" fill-rule="nonzero"></path>
                </g>
            </g>
        </g>
    </g>
</svg>