<?xml version="1.0" encoding="UTF-8" standalone="no"?>
<svg width="15px" height="17px" viewBox="0 0 15 17" version="1.1" xmlns="http://www.w3.org/2000/svg" xmlns:xlink="http://www.w3.org/1999/xlink">
    <!-- Generator: Sketch 47.1 (45422) - http://www.bohemiancoding.com/sketch -->
    <title>linxus_logo_white_ic</title>
    <desc>Created with Sketch.</desc>
    <defs></defs>
    <g id="Page-1" stroke="none" stroke-width="1" fill="none" fill-rule="evenodd">
        <g id="dashboard_split_cards" transform="translate(-1381.000000, -1120.000000)">
            <g id="linxus_logo_white_ic" transform="translate(1377.000000, 1119.000000)">
                <polygon id="Path" points="0 0 19 0 19 19 0 19"></polygon>
                <path d="M18.1423272,14.8676172 C17.6920578,14.6819995 17.3217591,14.3940318 17.3478365,13.8354438 C17.3739139,13.2803254 16.9497219,12.9125594 16.9497219,12.9125594 C16.9497219,12.9125594 17.3217591,11.696503 16.9757993,10.6920856 C16.631578,9.68593336 15.492866,8.07608984 14.6184047,6.86003347 C13.7474204,5.6439771 14.4880178,4.24403774 13.6935272,2.44684173 C12.897298,0.65311522 10.83197,0.757199931 9.71933538,1.5239573 C8.60496226,2.28897992 8.9491836,4.19199538 9.00307684,5.09232813 C9.05523159,5.98919139 9.02741572,6.62931236 8.92484472,6.86176821 C8.81879673,7.09422407 8.10427668,7.94598395 7.62792999,8.65896422 C7.15158329,9.37194449 6.80736195,10.8516821 6.46140212,11.4588429 C6.11718079,12.0677385 6.35535414,12.6211222 6.35535414,12.6211222 C6.35535414,12.6211222 6.11718079,12.6991857 5.93116219,13.0981771 C5.74514359,13.4919643 5.37658337,13.677582 4.71421807,13.8076879 C4.05185277,13.9395285 4.05185277,14.3645411 4.21005551,14.841596 C4.36999673,15.3151815 4.21005551,15.5823322 4.0240369,16.189493 C3.8380183,16.7966539 4.76463433,16.9822716 5.66517297,17.0863563 C6.56571162,17.1939105 7.57229825,17.7750501 8.42068215,17.8791348 C9.26732756,17.9849543 9.53331678,17.2979952 9.53331678,17.2979952 C9.53331678,17.2979952 10.4860102,17.0863563 11.4908583,17.0603351 C12.4974449,17.0325792 13.4483999,17.2702393 13.4483999,17.2702393 C13.4483999,17.2702393 13.6344185,17.6935171 13.9786398,17.8774001 C14.3245996,18.0630178 15.065197,18.089039 15.5415437,17.5876977 C16.0178904,17.0846216 17.2904663,16.4514396 18.0032478,16.0559177 C18.7247218,15.6569263 18.5925965,15.0497655 18.1423272,14.8676172 Z M11.9446046,3.2135991 C12.4000894,3.2135991 12.7651727,3.6628981 12.7651727,4.21628182 C12.7651727,4.61006897 12.5808925,4.94834428 12.3114263,5.11314507 C12.2436252,5.08191966 12.172347,5.05416374 12.0958534,5.01946883 C12.2575331,4.93967056 12.3722736,4.73323588 12.3722736,4.49384105 C12.3722736,4.18158691 12.1775625,3.92831412 11.9393891,3.92831412 C11.7029543,3.92831412 11.5082432,4.18332166 11.5082432,4.49384105 C11.5082432,4.61006897 11.5360591,4.71935792 11.5829984,4.81129941 C11.4421805,4.75578757 11.3117937,4.70201047 11.2092227,4.66558082 C11.1553294,4.53200544 11.1222981,4.37761312 11.1222981,4.21454707 C11.1240366,3.6628981 11.4908583,3.2135991 11.9446046,3.2135991 Z M11.8854959,5.32998822 C12.1114998,5.40805175 12.3653196,5.55550509 12.3392422,5.70122369 C12.3114263,5.84694228 12.1932089,5.84694228 11.8854959,6.03602951 C11.5777829,6.22164724 10.9119406,6.6345166 10.6981061,6.66053777 C10.4842717,6.6882937 10.3643158,6.56686153 10.1383119,6.42114294 C9.91230794,6.27542434 9.48463901,5.92674056 9.59242549,5.74112283 C9.59242549,5.74112283 9.92447738,5.48611529 10.0705107,5.35427465 C10.216544,5.22069928 10.5920582,4.90150616 10.8180621,4.94314005 C11.044066,4.98130444 11.659492,5.25018994 11.8854959,5.32998822 Z M9.8392913,3.37319566 C10.1974206,3.37319566 10.4877487,3.79820823 10.4877487,4.32383602 C10.4877487,4.42098175 10.4773177,4.50945375 10.4599328,4.59619101 C10.3730082,4.62741642 10.2843451,4.67425454 10.1974206,4.7453791 C10.1539583,4.78180874 10.1157115,4.8147689 10.0774646,4.84772906 C10.1330964,4.74190961 10.1574353,4.59098678 10.1313579,4.43139022 C10.0844186,4.14342252 9.89144604,3.9352531 9.70195046,3.96647851 C9.51245488,3.99943867 9.39945292,4.25618096 9.4463922,4.5458834 C9.49506996,4.83558585 9.68630404,5.04375527 9.87579962,5.01079511 C9.88623057,5.00906036 9.89666152,5.00559087 9.90883096,5.00212138 C9.81669091,5.09059339 9.73150482,5.16692217 9.64458024,5.23110775 C9.38206801,5.10967558 9.18909544,4.74884859 9.18909544,4.32210127 C9.19257242,3.79820823 9.48116203,3.37319566 9.8392913,3.37319566 Z M9.14041767,16.7237946 C9.05523159,17.101969 8.61017774,17.3777935 8.61017774,17.3777935 C8.20684769,17.5026951 7.08552061,17.0187012 6.57961955,16.8070623 C6.07198001,16.5971582 4.78201924,16.5312378 4.61164706,16.3438854 C4.44301338,16.1513286 4.69683315,15.7297856 4.76115734,15.3307942 C4.82374304,14.9283333 4.63598595,14.6767952 4.69683315,14.4009708 C4.76115734,14.126881 5.58520236,14.126881 5.90160783,13.9377938 C6.21975179,13.7469718 6.28233749,13.1987924 6.53615726,13.051339 C6.78997704,12.9021509 7.25415429,13.4295135 7.44538837,13.7278896 C7.63662244,14.0210616 8.35461947,15.2891603 8.65016304,15.6048839 C8.95092209,15.9206075 9.22386527,16.3456201 9.14041767,16.7237946 Z M13.823914,13.0426653 C13.7474204,13.4156355 13.7474204,14.760063 13.7474204,14.760063 C13.7474204,14.760063 12.9268524,15.8945864 11.6542765,16.0802041 C10.3834392,16.2658218 9.74715124,16.1322464 9.74715124,16.1322464 L9.0326312,15.3134467 C9.0326312,15.3134467 9.58721002,15.2336484 9.50897789,14.67853 C9.42900728,14.1251463 7.81394859,13.3566542 7.52362049,12.6696951 C7.23329239,11.982736 7.47146574,10.818722 7.84176445,10.2375823 C8.21206316,9.6564427 8.45023651,8.38834397 8.82053522,7.96506615 C9.19257242,7.54352307 9.48116203,6.64492507 9.35077516,6.24940317 C9.35077516,6.24940317 10.1452658,7.20177827 10.7015831,7.04218171 C11.2561619,6.88258516 12.5026604,5.95796598 12.6869405,6.11756253 C12.8729591,6.27715909 14.4619405,9.7639969 14.6184047,10.8742338 C14.7783459,11.9844707 14.5123567,12.8275569 14.5123567,12.8275569 C14.5123567,12.8275569 13.9021462,12.6714298 13.823914,13.0426653 Z M17.8885074,15.5320246 C17.6416416,15.7575415 16.2647562,16.3143947 15.8527337,16.7446115 C15.4424497,17.1748283 14.9052558,17.5235121 14.5766809,17.4211621 C14.2463675,17.3170774 13.9577779,16.8677784 14.1038112,16.2085752 C14.2463675,15.5528416 14.3715389,14.8346571 14.350677,14.4235224 C14.3298151,14.0123878 14.2463675,13.4572694 14.350677,13.3757364 C14.453248,13.2959381 14.6166662,13.3358372 14.6166662,13.3358372 C14.6166662,13.3358372 14.5366956,14.1147378 15.0078268,14.3211725 C15.478958,14.5258724 16.1587083,14.2396395 16.3655888,14.03147 C16.5724693,13.8267701 16.7167641,13.5197202 16.7167641,13.5197202 C16.7167641,13.5197202 16.9219061,13.6238049 16.9027827,13.9516718 C16.8819208,14.2795386 17.045339,14.753124 17.356529,14.9161901 C17.660765,15.0792561 18.1353732,15.304773 17.8885074,15.5320246 Z" id="Shape" fill="#FFFFFF" fill-rule="nonzero"></path>
            </g>
        </g>
    </g>
</svg>