<svg xmlns="http://www.w3.org/2000/svg" width="174" height="167"><g fill="none" fill-rule="nonzero"><path fill="#FFF" d="M27.012 44.018c.363-.986.183-2.058-.508-2.935-.781-.99-2.09-1.582-3.502-1.582l-.078.001C21.757 37.393 19.176 36 16.367 36c-3.549 0-6.592 2.2-7.13 5.079-3.17.442-5.503 2.704-5.503 5.421 0 .657.147 1.286.402 1.871.157-.045.313-.09.474-.127C5.568 45.187 8.935 43 12.758 43c2.988 0 5.822 1.379 7.31 3.536 1.568.163 2.95.88 3.832 1.999.741.938 1.03 2.043.828 3.139.067.058.126.121.192.182C27.261 51.359 29 49.598 29 47.5c0-1.356-.735-2.631-1.988-3.482"/><path fill="#FFF" d="M23.403 52.018 23.41 52c.18 0 .479-1.657-.515-2.917-.734-.932-1.915-1.506-3.237-1.575a.62.62 0 0 1-.496-.268C17.926 45.271 15.413 44 12.758 44c-3.385 0-6.353 2.001-7.059 4.759-.05.19-.226.34-.455.383C2.281 49.7.125 51.896.125 54.5c0 3.032 2.968 5.5 6.617 5.5h13.235c2.985 0 5.414-2.019 5.414-4.5 0-1.371-.788-2.67-1.988-3.482M172.899 108.512l.003-.012c.1 0 .265-1.14-.285-2.005a2.29 2.29 0 0 0-1.794-1.083.33.33 0 0 1-.275-.184c-.684-1.354-2.077-2.228-3.548-2.228-1.875 0-3.52 1.376-3.911 3.272a.34.34 0 0 1-.252.263c-1.642.384-2.837 1.894-2.837 3.684 0 2.084 1.645 3.781 3.667 3.781H171c1.654 0 3-1.388 3-3.094a3.17 3.17 0 0 0-1.101-2.394M157.404 13.03l.008-.03c.236 0 .625-2.693-.673-4.74-.958-1.515-2.501-2.447-4.228-2.56a.78.78 0 0 1-.648-.435C150.251 2.065 146.968 0 143.5 0c-4.42 0-8.297 3.252-9.22 7.733a.8.8 0 0 1-.594.623c-3.87.906-6.686 4.475-6.686 8.707 0 4.927 3.877 8.937 8.643 8.937h17.286c3.898 0 7.071-3.28 7.071-7.312 0-2.228-1.03-4.34-2.596-5.659"/><g transform="translate(39 65)"><circle cx="23.455" cy="82.944" r="8.026" fill="#2F99DE"/><path fill="#2F99DE" d="m98.697 78.782-.059-.101c-1.205-2.048-4.398-2.406-7.128-.8L70.53 90.224c-.772-.635-1.772-1.132-2.915-1.39l-12.544-2.827.982-3.12a5.23 5.23 0 0 0-3.418-6.564L44.316 73.7c-2.191-.69-4.48.15-5.771 1.901l-5.128-13.106a4.304 4.304 0 0 0-5.577-2.44l-.107.043a4.3 4.3 0 0 0-2.439 5.576l7.461 19.07c-.033.099-.086.188-.109.292l-1.167 5.18c-.486 2.146 1.533 4.429 4.505 5.099l28.712 6.473c2.396.539 4.659-.146 5.709-1.55.451-.158.9-.347 1.338-.604l24.193-14.23c2.728-1.609 3.967-4.574 2.761-6.622"/><circle cx="3.829" cy="35.531" r="3.829" fill="#26CD6F"/><path fill="#26CD6F" d="m39.727 33.544-.027-.047c-.575-.978-2.099-1.148-3.4-.382l-10.013 5.89a3.3 3.3 0 0 0-1.39-.664l-5.606-1.264.495-1.574a2.5 2.5 0 0 0-1.631-3.133l-3.969-1.25a2.5 2.5 0 0 0-2.947 1.193l-3.224-8.239a2.054 2.054 0 0 0-2.66-1.164l-.051.021a2.053 2.053 0 0 0-1.165 2.66l3.66 9.354c.156.398.423.72.75.944a1.45 1.45 0 0 0-.336.638l-.558 2.472c-.23 1.023.732 2.112 2.15 2.433l13.698 3.089c1.143.257 2.223-.07 2.724-.74a3.5 3.5 0 0 0 .639-.288l11.542-6.789c1.304-.767 1.895-2.183 1.319-3.16"/><path fill="#FFF" d="m93 25.725 7.478-7.606-2.229-1.062L84.614 22h.003l-16.918-5.987L86.986 2.075 82.589.263 52.146 10.505 36.702 4.944c-1.701-.594-5.954.361-6.569 2.125l-.087.256c-.615 1.764 2.641 3.676 4.342 4.271l48.088 17.485c1.704.594 9.338.923 9.952-.841l.393-.252c.31-.888.18-1.65.18-2.266v.003z"/></g></g></svg>