<svg xmlns="http://www.w3.org/2000/svg" width="145" height="144"><g fill="#FFF" fill-rule="nonzero"><path d="M138.998 55.919c-3.89-.874-7.932.443-10.613 3.439L121.55 67H118V32h21v23.919zM0 128h134v16H0z"/><path d="m142.657 72.948-30.019 32.73a9.2 9.2 0 0 1-1.502 1.333c-4.405 3.172-10.564 2.183-13.752-2.19l-9.736-13.408a3.623 3.623 0 0 0-5.035-.8 3.58 3.58 0 0 0-1.483 2.904V124H33l57.02-59.8L103.5 82.745c1.152 1.605 3.42 1.965 5.032.81.2-.142.38-.313.546-.492l20.314-22.141c3.342-3.654 9.02-3.917 12.676-.585 3.676 3.324 3.92 8.973.588 12.611M23.945 124l6.017-12.612L80 59H41.14a9.67 9.67 0 0 0-8.729 5.493L4 124zM41.244 21.183l40.543-3.177c.17-.016.333 0 .503.037l9.122 1.704a1.99 1.99 0 0 1 1.582 1.783c.085 1.092-.721 2.04-1.782 2.114l-9.05.712c.713 3.78.428 7.696-.847 11.326-3.962 11.221-16.134 17.06-27.194 13.056-11.061-4-16.826-16.342-12.877-27.555M41.218 15l41.136-3.096L87.26 5.64c1.208-1.536.906-3.735-.676-4.911a3.66 3.66 0 0 0-2.457-.72L42.315 3.167c-1.978.153-3.461 1.84-3.303 3.767.014.226.06.447.119.662z"/></g></svg>