<svg xmlns="http://www.w3.org/2000/svg" width="8" height="13"><path fill="#fff" fill-rule="nonzero" d="m6.517 0-.963.001L5.552 0H1.483c-.18 0-.326.167-.326.373 0 .207.146.375.326.374h.603l-.51 5.538H.326c-.18 0-.326.167-.326.374 0 .206.146.373.326.374l1.543-.001h1.805v5.595c0 .206.146.373.326.373.09 0 .172-.042.23-.11a.4.4 0 0 0 .096-.263V7.032h3.348c.09 0 .172-.042.231-.11A.4.4 0 0 0 8 6.659c0-.206-.145-.373-.326-.373h-1.25L5.915.748h.603c.09 0 .171-.042.23-.11a.4.4 0 0 0 .096-.264c0-.206-.146-.373-.326-.373"/></svg>