<svg xmlns="http://www.w3.org/2000/svg" width="24" height="24" fill="none"><path stroke="#C6C6C6" stroke-width="2" d="M22.84 9.654h.007l.023.004.007.014a.04.04 0 0 1 .002.02v.002l-.017.017-5.112 4.215a2.03 2.03 0 0 0-.73 2.001l.005.03.008.027 1.672 6.393.003.018v.001a.04.04 0 0 1-.015.016l-.015.008-.02-.01-5.582-3.563c-.677-.458-1.531-.432-2.192-.007l-5.567 3.57-.02.01-.015-.008a.04.04 0 0 1-.015-.016v-.001l.002-.019 1.672-6.412.001-.003c.206-.78-.102-1.594-.677-2.073l-.006-.005-5.121-4.197-.001-.001q-.016-.015-.016-.016v-.001c0-.001-.002-.01.002-.021l.006-.014.023-.003h.008l6.625-.4h.002a2.04 2.04 0 0 0 1.766-1.277l.003-.006 2.423-6.171.011-.02v-.001h.001q.001-.003.021-.005c.014 0 .02.004.022.004v.002q.003 0 .012.02l2.423 6.195.003.007a2.04 2.04 0 0 0 1.766 1.276h.001z"/></svg>