<?xml version="1.0" standalone="no"?>
<!DOCTYPE svg PUBLIC "-//W3C//DTD SVG 20010904//EN"
 "http://www.w3.org/TR/2001/REC-SVG-20010904/DTD/svg10.dtd">
<svg version="1.0" xmlns="http://www.w3.org/2000/svg"
 width="1024.000000pt" height="1024.000000pt" viewBox="0 0 1024.000000 1024.000000"
 preserveAspectRatio="xMidYMid meet">
<metadata>
Created by potrace 1.11, written by Peter Selinger 2001-2013
</metadata>
<g transform="translate(0.000000,1024.000000) scale(0.100000,-0.100000)"
fill="#000000" stroke="none">
<path d="M7154 9291 c-132 -48 -265 -167 -473 -426 -349 -434 -532 -714 -731
-1120 -260 -531 -425 -1073 -505 -1659 -37 -272 -43 -246 68 -279 113 -35 249
-99 341 -160 38 -26 72 -47 76 -47 12 0 199 198 306 322 194 228 417 540 562
790 31 54 61 98 67 98 15 0 168 -112 261 -191 380 -322 659 -801 764 -1311 41
-196 54 -357 47 -572 -6 -193 -22 -318 -62 -485 -14 -57 -23 -106 -21 -108 7
-7 86 206 117 317 227 807 45 1685 -488 2345 -80 99 -314 336 -385 389 l-37
28 15 36 c9 21 42 101 73 180 32 78 60 145 64 148 17 17 255 -135 449 -286
115 -90 378 -354 478 -480 385 -485 619 -1069 679 -1694 16 -158 13 -474 -4
-642 -34 -322 -124 -669 -246 -946 -53 -122 -55 -131 -24 -83 48 74 172 328
228 470 100 253 177 563 213 855 23 191 23 579 0 765 -100 803 -420 1478 -966
2039 -193 199 -418 383 -647 530 -1 1 5 28 13 61 8 33 37 173 65 310 73 359
78 537 18 675 -56 128 -181 179 -315 131z"/>
<path d="M4675 8444 c-16 -2 -79 -9 -140 -15 -538 -54 -1095 -263 -1565 -587
-692 -477 -1189 -1197 -1394 -2020 -50 -200 -63 -276 -86 -486 -12 -104 -23
-193 -25 -197 -3 -4 -17 -10 -32 -13 -54 -13 -419 -127 -503 -158 -115 -41
-243 -108 -312 -163 -187 -149 -174 -346 31 -469 140 -84 270 -117 791 -201
919 -149 1970 -25 2840 335 69 28 133 54 144 57 20 6 20 9 -9 143 -17 76 -25
275 -15 380 l5 55 -119 32 c-398 108 -810 170 -1208 180 l-228 6 0 38 c0 120
61 415 120 584 264 746 875 1306 1658 1520 126 34 127 35 57 29 -192 -16 -464
-82 -663 -160 -327 -129 -604 -309 -861 -559 -231 -225 -393 -447 -531 -730
-106 -217 -198 -495 -234 -707 l-7 -36 -72 -7 c-39 -4 -125 -15 -191 -25
l-119 -17 6 191 c20 664 285 1329 743 1866 84 98 277 290 379 376 485 409
1099 668 1765 743 l165 19 -180 -1 c-99 0 -193 -2 -210 -3z"/>
<path d="M5181 5475 c-155 -29 -313 -140 -394 -276 -110 -186 -111 -422 -2
-604 110 -184 297 -289 510 -289 174 0 313 60 432 188 105 113 157 247 157
401 0 164 -56 297 -174 415 -143 143 -333 202 -529 165z"/>
<path d="M5975 4252 c-92 -86 -206 -166 -308 -217 -50 -26 -93 -48 -95 -49 -5
-6 89 -320 134 -445 122 -336 288 -690 446 -950 22 -35 38 -64 36 -66 -14 -12
-152 -75 -245 -111 -391 -153 -853 -192 -1281 -109 -446 87 -843 289 -1197
609 l-100 91 49 -62 c359 -459 883 -789 1458 -917 223 -50 315 -59 583 -60
268 0 357 9 583 60 95 21 322 90 392 118 11 5 30 -13 65 -61 28 -37 82 -107
122 -155 l72 -87 -87 -51 c-750 -440 -1705 -529 -2567 -238 -617 208 -1195
632 -1579 1158 -27 36 -50 67 -53 70 -14 12 57 -105 132 -220 419 -642 1076
-1133 1830 -1369 677 -211 1409 -210 2083 4 187 59 291 100 465 183 l148 71
67 -63 c135 -127 359 -320 427 -369 39 -27 113 -70 165 -95 81 -39 106 -46
171 -50 97 -6 140 9 195 64 62 62 78 124 71 273 -6 129 -32 234 -96 398 -21
54 -72 181 -112 283 -86 217 -264 580 -377 767 -369 612 -836 1132 -1387 1545
-162 121 -140 116 -210 50z"/>
</g>
</svg>
