<?xml version="1.0" encoding="UTF-8" standalone="no"?>
<svg
   xmlns:dc="http://purl.org/dc/elements/1.1/"
   xmlns:cc="http://creativecommons.org/ns#"
   xmlns:rdf="http://www.w3.org/1999/02/22-rdf-syntax-ns#"
   xmlns:svg="http://www.w3.org/2000/svg"
   xmlns="http://www.w3.org/2000/svg"
   xmlns:sodipodi="http://sodipodi.sourceforge.net/DTD/sodipodi-0.dtd"
   xmlns:inkscape="http://www.inkscape.org/namespaces/inkscape"
   width="128"
   height="128"
   style="enable-background:new 0 0 128 128;"
   version="1.1"
   id="svg3792"
   sodipodi:docname="booklit.svg"
   inkscape:version="0.92.1 r15371">
  <metadata
     id="metadata3798">
    <rdf:RDF>
      <cc:Work
         rdf:about="">
        <dc:format>image/svg+xml</dc:format>
        <dc:type
           rdf:resource="http://purl.org/dc/dcmitype/StillImage" />
        <dc:title></dc:title>
      </cc:Work>
    </rdf:RDF>
  </metadata>
  <defs
     id="defs3796" />
  <sodipodi:namedview
     pagecolor="#ffffff"
     bordercolor="#666666"
     borderopacity="1"
     objecttolerance="10"
     gridtolerance="10"
     guidetolerance="10"
     inkscape:pageopacity="0"
     inkscape:pageshadow="2"
     inkscape:window-width="2560"
     inkscape:window-height="1311"
     id="namedview3794"
     showgrid="true"
     inkscape:zoom="5.7507669"
     inkscape:cx="59.081652"
     inkscape:cy="46.960551"
     inkscape:window-x="0"
     inkscape:window-y="55"
     inkscape:window-maximized="1"
     inkscape:current-layer="layer1"
     showguides="true">
    <inkscape:grid
       type="xygrid"
       id="grid3973" />
  </sodipodi:namedview>
  <g
     id="g3790"
     transform="translate(0,5.3905854)">
    <path
       d="m 36.36,93.75 c -4.59,-0.15 -9.19,0.08 -13.73,0.72 -3.9,0.55 -7.75,1.42 -11.5,2.59 C 10.22,97.34 9.2,97.57 8.34,98 7.79,98.28 7.34,98.6 6.85,97.99 6.17,97.17 6.62,95.68 6.73,94.74 6.95,92.85 7.2,90.97 7.49,89.09 c 1.26,-8.37 2.95,-16.66 4.1,-25.05 0.5,-3.71 0.91,-7.45 1.39,-11.16 0.24,-1.91 0.51,-3.82 0.82,-5.72 0.38,-2.33 0.46,-3.97 2.64,-5.38 3.71,-2.4 8.16,-3.46 12.41,-4.49 4.58,-1.11 9.15,-2.05 13.89,-1.87 3.32,0.13 6.55,1.01 9.48,2.56 1.42,0.75 2.78,1.63 4.07,2.6 1.28,0.95 2.84,1.97 3.86,3.19 0.91,1.08 1.2,2.06 1.29,3.18 -0.63,14.33 -0.53,49.86 -0.42,52.38 0.01,0.21 0.03,0.42 0.04,0.63 -0.05,0.27 -0.2,0.48 -0.64,0.48 -0.53,0.01 -1.11,-0.34 -1.57,-0.58 C 57.9,99.36 56.94,98.88 55.98,98.43 49.77,95.5 43.23,93.97 36.36,93.75 Z"
       style="fill:#ffffff"
       id="path3766"
       inkscape:connector-curvature="0" />
    <path
       d="m 121.15,97.98 c -0.5,0.61 -0.94,0.29 -1.49,0.01 -0.85,-0.43 -1.87,-0.66 -2.79,-0.94 -3.75,-1.17 -7.6,-2.03 -11.5,-2.59 -4.54,-0.64 -9.15,-0.86 -13.74,-0.72 -6.86,0.22 -13.4,1.75 -19.62,4.68 -0.96,0.46 -1.92,0.94 -2.87,1.43 -0.46,0.24 -1.04,0.58 -1.58,0.58 -0.44,0 -0.59,-0.21 -0.64,-0.48 0.01,-0.21 0.04,-0.42 0.04,-0.63 0.11,-2.52 0.22,-38.05 -0.42,-52.38 0.09,-1.12 0.38,-2.1 1.28,-3.18 1.04,-1.22 2.59,-2.25 3.87,-3.19 1.29,-0.96 2.64,-1.85 4.07,-2.6 2.94,-1.55 6.16,-2.43 9.48,-2.56 4.74,-0.19 9.31,0.76 13.89,1.87 4.25,1.03 8.7,2.08 12.42,4.49 2.18,1.41 2.26,3.05 2.64,5.38 0.31,1.9 0.58,3.81 0.82,5.72 0.47,3.72 0.88,7.45 1.39,11.16 1.15,8.38 2.85,16.68 4.1,25.05 0.27,1.88 0.54,3.76 0.76,5.65 0.12,0.94 0.57,2.43 -0.11,3.25 z"
       style="fill:#ffffff"
       id="path3768"
       inkscape:connector-curvature="0" />
    <g
       id="g3788">
      <path
         d="m 126.8,106.82 c 0.07,-1.4 0.71,-5.31 0.69,-6.07 -0.07,-9.74 -6.25,-41.84 -7.24,-49.66 l -0.06,-0.48 c -0.34,-3.07 -0.47,-6.72 -1.6,-9.62 -1.14,-2.92 -4.83,-3.94 -7.49,-4.97 -11.01,-4.2 -23.44,-7.74 -35.12,-4.04 -4.56,1.44 -8.67,4.01 -11.97,8.06 -3.29,-4.05 -7.41,-6.62 -11.96,-8.06 -11.68,-3.7 -24.11,-0.16 -35.12,4.04 -2.66,1.02 -6.37,2.04 -7.5,4.97 -1.13,2.9 -1.26,6.54 -1.6,9.62 l -0.06,0.48 c -0.99,7.82 -7.16,39.92 -7.24,49.66 -0.02,0.77 0.63,4.67 0.7,6.07 0.1,2.02 -0.14,4.05 -0.04,6.06 -0.2,0.7 -0.02,1.36 0.41,1.88 0.28,0.54 0.71,0.87 1.18,1.04 1.07,1.18 3.01,0.4 4.28,0 11.38,-3.68 23.89,-3.54 35.63,-1.98 2.08,0.27 4.15,0.61 6.21,1.01 2.14,0.42 4.17,1.18 6.22,1.91 1.69,0.6 3.46,1.1 5.24,1.44 1.28,0.29 2.53,0.41 3.1,0.42 0.2,0 0.38,-0.02 0.57,-0.03 0.19,0 0.38,0.03 0.57,0.03 0.57,0 1.82,-0.12 3.1,-0.42 1.78,-0.34 3.55,-0.84 5.24,-1.44 2.05,-0.73 4.09,-1.49 6.23,-1.91 2.06,-0.4 4.13,-0.74 6.21,-1.01 11.73,-1.56 24.25,-1.7 35.63,1.98 1.26,0.41 3.2,1.18 4.27,0 0.48,-0.17 0.9,-0.5 1.18,-1.04 0.43,-0.52 0.61,-1.18 0.41,-1.88 0.07,-2.02 -0.17,-4.04 -0.07,-6.06 z M 36.36,93.75 c -4.59,-0.15 -9.19,0.08 -13.73,0.72 -3.9,0.55 -7.75,1.42 -11.5,2.59 C 10.22,97.34 9.2,97.57 8.34,98 7.79,98.28 7.34,98.6 6.85,97.99 6.17,97.17 6.62,95.68 6.73,94.74 6.95,92.85 7.2,90.97 7.49,89.09 c 1.26,-8.37 2.95,-16.66 4.1,-25.05 0.5,-3.71 0.91,-7.45 1.39,-11.16 0.24,-1.91 0.51,-3.82 0.82,-5.72 0.38,-2.33 0.46,-3.97 2.64,-5.38 3.71,-2.4 8.16,-3.46 12.41,-4.49 4.58,-1.11 9.15,-2.05 13.89,-1.87 3.32,0.13 6.55,1.01 9.48,2.56 1.42,0.75 2.78,1.63 4.07,2.6 1.28,0.95 2.84,1.97 3.86,3.19 0.91,1.08 1.2,2.06 1.29,3.18 -0.63,14.33 -0.53,49.86 -0.42,52.38 0.01,0.21 0.03,0.42 0.04,0.63 -0.05,0.27 -0.2,0.48 -0.64,0.48 -0.53,0.01 -1.11,-0.34 -1.57,-0.58 C 57.9,99.36 56.94,98.88 55.98,98.43 49.77,95.5 43.23,93.97 36.36,93.75 Z m 84.79,4.23 c -0.5,0.61 -0.94,0.29 -1.49,0.01 -0.85,-0.43 -1.87,-0.66 -2.79,-0.94 -3.75,-1.17 -7.6,-2.03 -11.5,-2.59 -4.54,-0.64 -9.15,-0.86 -13.74,-0.72 -6.86,0.22 -13.4,1.75 -19.62,4.68 -0.96,0.46 -1.92,0.94 -2.87,1.43 -0.46,0.24 -1.04,0.58 -1.58,0.58 -0.44,0 -0.59,-0.21 -0.64,-0.48 0.01,-0.21 0.04,-0.42 0.04,-0.63 0.11,-2.52 0.22,-38.05 -0.42,-52.38 0.09,-1.12 0.38,-2.1 1.28,-3.18 1.04,-1.22 2.59,-2.25 3.87,-3.19 1.29,-0.96 2.64,-1.85 4.07,-2.6 2.94,-1.55 6.16,-2.43 9.48,-2.56 4.74,-0.19 9.31,0.76 13.89,1.87 4.25,1.03 8.7,2.08 12.42,4.49 2.18,1.41 2.26,3.05 2.64,5.38 0.31,1.9 0.58,3.81 0.82,5.72 0.47,3.72 0.88,7.45 1.39,11.16 1.15,8.38 2.85,16.68 4.1,25.05 0.27,1.88 0.54,3.76 0.76,5.65 0.12,0.94 0.57,2.43 -0.11,3.25 z"
         style="fill:#432e2b"
         id="path3770"
         inkscape:connector-curvature="0" />
      <path
         d="M 53.07,46.61 C 43.6,42.17 30.84,41.93 21.31,46.49 c -2.52,1.21 -0.32,4.86 2.18,3.73 8.11,-3.7 19.23,-3.14 27.1,0.63 2.84,1.35 5.33,-2.9 2.48,-4.24 z"
         style="fill:#432e2b"
         id="path3772"
         inkscape:connector-curvature="0" />
      <path
         d="M 52.77,58.31 C 42.69,53.89 29.73,52.22 19.56,57.46 c -2.21,1.14 -0.27,4.26 1.92,3.28 9.33,-4.17 20.51,-1.72 29.58,1.64 2.35,0.88 4.02,-3.06 1.71,-4.07 z"
         style="fill:#432e2b"
         id="path3774"
         inkscape:connector-curvature="0" />
      <path
         d="m 52.24,69.98 c -1.07,-0.9 -2.56,-1.32 -3.85,-1.79 -9.36,-3.42 -21.79,-3.56 -30.78,1.04 -1.98,1.01 -0.31,3.89 1.64,3.33 4.9,-1.39 9.51,-2.16 14.6,-2.21 3.99,-0.04 7.61,0.38 11.42,1.52 1.15,0.34 2.25,0.47 3.35,0.99 0.79,0.37 1.77,0.84 2.64,0.95 1.9,0.23 2.29,-2.56 1.22,-3.62 z"
         style="fill:#432e2b"
         id="path3776"
         inkscape:connector-curvature="0" />
      <path
         d="m 51.25,81.25 c -10.82,-5.1 -22.96,-4.16 -33.91,-0.3 -2.26,0.8 -1.18,4.28 1.12,3.56 5.15,-1.62 9.44,-2.83 14.91,-2.9 5.26,-0.06 10.97,1.66 15.79,3.55 2.59,1.03 4.72,-2.67 2.09,-3.91 z"
         style="fill:#432e2b"
         id="path3778"
         inkscape:connector-curvature="0" />
      <path
         d="m 77.41,50.84 c 7.87,-3.77 18.99,-4.32 27.1,-0.63 2.49,1.14 4.7,-2.52 2.18,-3.73 -9.52,-4.56 -22.28,-4.32 -31.75,0.12 -2.86,1.35 -0.38,5.6 2.47,4.24 z"
         style="fill:#432e2b"
         id="path3780"
         inkscape:connector-curvature="0" />
      <path
         d="m 76.95,62.38 c 9.07,-3.36 20.25,-5.81 29.58,-1.64 2.19,0.98 4.13,-2.14 1.92,-3.28 -10.18,-5.24 -23.14,-3.57 -33.21,0.85 -2.31,1.01 -0.65,4.95 1.71,4.07 z"
         style="fill:#432e2b"
         id="path3782"
         inkscape:connector-curvature="0" />
      <path
         d="m 76.74,73.82 c 0.88,-0.11 1.84,-0.58 2.63,-0.95 1.11,-0.52 2.21,-0.65 3.36,-0.99 3.81,-1.13 7.43,-1.55 11.42,-1.52 5.09,0.04 9.71,0.81 14.61,2.21 1.94,0.56 3.61,-2.33 1.64,-3.33 -8.99,-4.6 -21.43,-4.46 -30.78,-1.04 -1.29,0.47 -2.78,0.88 -3.86,1.79 l -0.24,0.22 c -1.08,1.04 -0.67,3.84 1.22,3.61 z"
         style="fill:#432e2b"
         id="path3784"
         inkscape:connector-curvature="0" />
      <path
         d="m 110.67,80.95 c -10.95,-3.86 -23.09,-4.8 -33.91,0.3 -2.63,1.24 -0.5,4.94 2.1,3.91 4.81,-1.89 10.51,-3.61 15.78,-3.55 5.46,0.07 9.76,1.28 14.9,2.9 2.31,0.73 3.39,-2.76 1.13,-3.56 z"
         style="fill:#432e2b"
         id="path3786"
         inkscape:connector-curvature="0" />
    </g>
  </g>
  <g
     inkscape:groupmode="layer"
     id="layer1"
     inkscape:label="lit">
    <g
       id="g3876"
       transform="matrix(0.75264824,0,0,0.75264824,15.809313,2.8489397)">
      <path
         id="path3872"
         style="fill:#ed6c30"
         d="m 98.59,51.16 c -4.23,0.92 -7.88,3.28 -9.59,7.35 -1.03,2.47 -2.47,8.85 -6.42,7.2 -1.89,-0.78 -1.86,-3.49 -1.64,-5.18 0.47,-3.47 2.03,-6.64 3.1,-9.94 1.1,-3.42 2.05,-6.86 2.73,-10.4 C 89.05,28.47 88.42,14.97 80.13,5.6 78.73,4 75.2,0.3 72.87,0.22 c -1.44,-0.04 -0.02,1.66 0.38,2.23 0.81,1.17 1.49,2.44 2.01,3.77 6.13,15.64 -8.98,27.55 -18.91,36.82 -4.76,4.45 -8.56,9.17 -11.98,14.68 -0.34,0.53 -1.09,2.31 -2.06,1.94 -1.15,-0.44 -1.27,-3.07 -1.63,-4.05 -0.68,-1.88 -1.73,-3.93 -3.08,-5.4 -2.61,-2.86 -6.26,-4.79 -10.21,-4.53 -0.15,0.01 -0.58,0.08 -1.11,0.2 -0.83,0.18 -3.05,0.47 -2.45,1.81 0.31,0.69 1.22,0.63 1.87,0.82 8.34,2.56 8.15,11.3 6.8,18.32 -2.44,12.78 -9.2,24.86 -4.4,38 5.66,15.49 23.38,25.16 39.46,22.5 4.39,-0.72 9.45,-2.14 13.39,-4.26 4.19,-2.26 8.78,-5.35 12.05,-8.83 4.21,-4.47 6.89,-10.2 7.68,-16.27 0.93,-7.02 -1.31,-13.64 -3.35,-20.27 -2.46,-8 -5.29,-21.06 4.93,-24.97 0.5,-0.2 1.5,-0.35 1.85,-0.88 1.3,-1.94 -4.94,-0.81 -5.52,-0.69 z"
         inkscape:connector-curvature="0" />
      <path
         id="path3874"
         style="fill:#fcc21b"
         d="m 68.13,106.07 c 2.12,1.78 5.09,0.91 7.09,-0.61 1.07,-0.81 1.99,-1.85 2.59,-3.06 0.25,-0.52 0.54,-1.18 0.54,-1.77 0,-0.79 -0.47,-1.57 -0.27,-2.38 1.68,-0.33 3.76,4.5 3.97,5.62 1.68,8.83 -6.64,16.11 -14.67,17.52 -13.55,2.37 -21.34,-9.5 -19.78,-20.04 0.97,-6.56 5.37,-11.07 9.85,-15.57 3.71,-3.73 7.15,-6.93 8.35,-11.78 0.21,-0.86 0.16,-2.18 -0.09,-3.03 -0.21,-0.73 -0.61,-1.4 -0.63,-2.19 -0.06,-1.66 1.55,0.51 1.92,0.93 4.46,5.03 5.73,12.46 4.54,18.96 -0.77,4.2 -3.77,7.2 -4.82,11.22 -0.61,2.29 -0.55,4.52 1.41,6.18 z"
         inkscape:connector-curvature="0" />
    </g>
  </g>
</svg>
