<?xml version="1.0" encoding="UTF-8" standalone="no"?>
<svg width="134px" height="134px" viewBox="0 0 134 134" version="1.1" xmlns="http://www.w3.org/2000/svg" xmlns:xlink="http://www.w3.org/1999/xlink">
    <!-- Generator: Sketch 47.1 (45422) - http://www.bohemiancoding.com/sketch -->
    <title>slack_logo </title>
    <desc>Created with Sketch.</desc>
    <defs></defs>
    <g id="Page-1" stroke="none" stroke-width="1" fill="none" fill-rule="evenodd">
        <g id="Desktop-HD" transform="translate(-1062.000000, -553.000000)">
            <g id="slack_logo-" transform="translate(1063.000000, 554.000000)">
                <circle id="Oval" stroke="#41BAD5" cx="66" cy="66" r="66"></circle>
                <g id="Slack_Mark" transform="translate(33.000000, 33.000000)" fill-rule="nonzero">
                    <path d="M43.0623102,4.09616985 C42.0167801,0.987714456 38.6600784,-0.702849004 35.5234883,0.278768489 C32.3868982,1.31492029 30.6810334,4.6415129 31.6715355,7.7499683 L47.1343746,54.867608 C48.1799046,57.7579261 51.3715226,59.3939553 54.3980569,58.5214064 C57.589675,57.5943232 59.5156513,54.2677306 58.4701213,51.2138095 C58.4701213,51.1047409 43.0623102,4.09616985 43.0623102,4.09616985 Z" id="Shape" fill="#ECB32D"></path>
                    <path d="M19.7208468,11.3400723 C18.6753167,8.2316169 15.318615,6.54105344 12.1820249,7.52267093 C9.04543478,8.55882273 7.33956998,11.8854153 8.33007212,14.9938707 L23.7929111,62.1115104 C24.8384412,65.0018286 28.0300592,66.6378577 31.0565935,65.7653088 C34.2482115,64.8382257 36.1741879,61.511633 35.1286579,58.457712 C35.1286579,58.3486433 19.7208468,11.3400723 19.7208468,11.3400723 Z" id="Shape" fill="#63C1A0"></path>
                    <path d="M61.9076285,42.2340088 C65.0132014,41.1905769 66.7021973,37.8406114 65.72149,34.7103157 C64.686299,31.5800201 61.3627911,29.8775786 58.2572181,30.866093 L11.1287863,46.3528188 C8.24114827,47.3962507 6.60663618,50.5814638 7.47837596,53.6019246 C8.40459948,56.7871377 11.7281074,58.709249 14.7791966,57.6658172 C14.8881641,57.6658172 61.9076285,42.2340088 61.9076285,42.2340088 Z" id="Shape" fill="#E01A59"></path>
                    <path d="M21.2499555,55.5365854 C24.2109667,54.5848318 28.0708563,53.315827 32.195122,51.9939469 C31.2433683,49.0329357 29.9743635,45.1730461 28.6524835,41.0487805 L17.7073171,44.5914189 L21.2499555,55.5365854 Z" id="Shape" fill="#331433"></path>
                    <path d="M44.5914189,48.2926829 C48.7156845,46.9708029 52.5755741,45.7017981 55.5365854,44.7500445 C54.5848318,41.7890333 53.315827,37.9291437 51.9939469,33.804878 L41.0487805,37.3475165 L44.5914189,48.2926829 Z" id="Shape" fill="#D62027"></path>
                    <path d="M54.6599277,18.9159687 C57.7683831,17.8704387 59.4589466,14.513737 58.4773291,11.3771469 C57.4411773,8.24055673 54.1145847,6.53469193 51.0061293,7.52519407 L3.8884896,22.9880331 C0.998171424,24.0335631 -0.637857731,27.2251811 0.234691152,30.2517155 C1.16177434,33.4433335 4.48836695,35.3693099 7.54228804,34.3237798 C7.65135665,34.3237798 54.6599277,18.9159687 54.6599277,18.9159687 Z" id="Shape" fill="#89D3DF"></path>
                    <path d="M14.0060531,32.195122 C16.9670643,31.2433683 20.8269539,29.9743635 24.9512195,28.6524835 C23.6293395,24.5282179 22.3603347,20.6683283 21.4085811,17.7073171 L10.4634146,21.2499555 L14.0060531,32.195122 Z" id="Shape" fill="#258B74"></path>
                    <path d="M37.3475165,24.1463415 C41.4717821,22.8244615 45.3316717,21.5554566 48.2926829,20.603703 C46.9708029,16.4794374 45.7017981,12.6195478 44.7500445,9.65853659 L33.804878,13.201175 L37.3475165,24.1463415 Z" id="Shape" fill="#819C3C"></path>
                </g>
            </g>
        </g>
    </g>
</svg>