<?xml version="1.0" encoding="UTF-8" standalone="no"?>
<svg width="134px" height="134px" viewBox="0 0 134 134" version="1.1" xmlns="http://www.w3.org/2000/svg" xmlns:xlink="http://www.w3.org/1999/xlink">
    <!-- Generator: Sketch 47.1 (45422) - http://www.bohemiancoding.com/sketch -->
    <title>so__ic</title>
    <desc>Created with Sketch.</desc>
    <defs></defs>
    <g id="Page-1" stroke="none" stroke-width="1" fill="none" fill-rule="evenodd">
        <g id="Desktop-HD" transform="translate(-1062.000000, -361.000000)">
            <g id="so__ic" transform="translate(1063.000000, 362.000000)">
                <circle id="Oval" stroke="#41BAD5" cx="66" cy="66" r="66"></circle>
                <g id="so-icon" transform="translate(36.000000, 31.000000)" fill-rule="nonzero">
                    <polygon id="Shape" fill="#BCBBBB" points="49.7956835 63.7702265 49.7956835 45 56 45 56 70 0 70 0 45 6.20431655 45 6.20431655 63.7702265"></polygon>
                    <path d="M13.6516464,42.8902954 L44.4419411,49.2236287 L45.745234,43.1308017 L14.9549393,36.7974684 L13.6516464,42.8902954 Z M17.7244367,28.4599156 L46.2339688,41.5274262 L48.8405546,35.9156118 L20.3310225,22.7679325 L17.7244367,28.4599156 Z M25.6256499,14.6708861 L49.8180243,34.4725738 L53.8093588,29.742616 L29.6169844,9.94092827 L25.6256499,14.6708861 Z M41.2651646,0 L36.2149047,3.68776371 L54.94974,28.5400844 L60,24.8523207 L41.2651646,0 Z M13,57 L44.4419411,57 L44.4419411,50.8270042 L13,50.8270042 L13,57 Z" id="Shape" fill="#F48023"></path>
                </g>
            </g>
        </g>
    </g>
</svg>