<?xml version="1.0" encoding="UTF-8" standalone="no"?>
<svg width="168px" height="168px" viewBox="0 0 168 168" version="1.1" xmlns="http://www.w3.org/2000/svg" xmlns:xlink="http://www.w3.org/1999/xlink">
    <!-- Generator: Sketch 3.6.1 (26313) - http://www.bohemiancoding.com/sketch -->
    <title>Group 8 Copy</title>
    <desc>Created with Sketch.</desc>
    <defs>
        <linearGradient x1="50%" y1="0%" x2="50%" y2="100%" id="linearGradient-1">
            <stop stop-color="#F8F8F8" offset="0%"></stop>
            <stop stop-color="#DCF4FA" offset="100%"></stop>
        </linearGradient>
        <circle id="path-2" cx="84" cy="84" r="84"></circle>
    </defs>
    <g id="Page-1" stroke="none" stroke-width="1" fill="none" fill-rule="evenodd">
        <g id="Group-8-Copy">
            <g id="Oval-52">
                <use fill="url(#linearGradient-1)" fill-rule="evenodd" xlink:href="#path-2"></use>
                <use fill="none" xlink:href="#path-2"></use>
                <use fill="none" xlink:href="#path-2"></use>
                <use fill="none" xlink:href="#path-2"></use>
                <use fill="none" xlink:href="#path-2"></use>
            </g>
            <g id="Group-4" transform="translate(43.000000, 51.000000)">
                <g id="Group-3">
                    <g id="noun_221802_cc-copy-3">
                        <g id="Group">
                            <path d="M69.9292929,0.805353535 L6.85353535,0.805353535 C3.25252525,0.805353535 0.348484848,3.68161616 0.348484848,7.24818182 L0.348484848,50.0469697 C0.348484848,53.6135354 3.25252525,56.6048485 6.85353535,56.6048485 L69.9292929,56.6048485 C73.530303,56.6048485 76.5505051,53.7285859 76.5505051,50.0469697 L76.5505051,7.24818182 C76.4343434,3.79666667 73.530303,0.805353535 69.9292929,0.805353535 L69.9292929,0.805353535 Z" id="Shape" fill="#2772A4"></path>
                            <path d="M7.43434343,52.3479798 L7.31818182,52.3479798 L32.2929293,28.4174747 L37.7525253,32.6743434 C38.1010101,32.9044444 38.5656566,33.1345455 38.9141414,33.1345455 C39.2626263,33.1345455 39.7272727,33.0194949 40.0757576,32.6743434 L45.5353535,28.4174747 L70.510101,52.3479798 L70.3939394,52.3479798 L7.43434343,52.3479798 L7.43434343,52.3479798 Z" id="Path" fill="url(#linearGradient-1)"></path>
                            <path d="M7.31818182,4.25686869 L69.8131313,4.25686869 L38.5656566,28.9927273 L7.31818182,4.25686869 L7.31818182,4.25686869 Z" id="Path" fill="url(#linearGradient-1)"></path>
                            <path d="M3.83333333,49.5867677 L3.83333333,6.7879798 L3.83333333,6.55787879 L28.459596,26.0014141 L3.83333333,49.5867677 L3.83333333,49.5867677 Z" id="Path" fill="url(#linearGradient-1)"></path>
                            <path d="M47.9747475,26.0014141 L72.6010101,6.55787879 L72.6010101,6.7879798 L72.6010101,49.4717172 L47.9747475,26.0014141 L47.9747475,26.0014141 Z" id="Path" fill="url(#linearGradient-1)"></path>
                        </g>
                    </g>
                    <g id="Group-2" transform="translate(57.777778, 22.888889)" fill="#5DADE2">
                        <path d="M8.92857143,18.5714286 L23.2142857,18.5714286 L23.2142857,13.2142857 C23.2142857,11.2425497 22.516748,9.55915876 21.1216518,8.1640625 C19.7265555,6.76896624 18.0431646,6.07142857 16.0714286,6.07142857 C14.0996925,6.07142857 12.4163016,6.76896624 11.0212054,8.1640625 C9.6261091,9.55915876 8.92857143,11.2425497 8.92857143,13.2142857 L8.92857143,18.5714286 Z M32.1428571,21.25 L32.1428571,37.3214286 C32.1428571,38.0654799 31.8824431,38.6979141 31.3616071,39.21875 C30.8407712,39.7395859 30.2083371,40 29.4642857,40 L2.67857143,40 C1.93452009,40 1.30208594,39.7395859 0.78125,39.21875 C0.260414062,38.6979141 0,38.0654799 0,37.3214286 L0,21.25 C0,20.5059487 0.260414062,19.8735145 0.78125,19.3526786 C1.30208594,18.8318426 1.93452009,18.5714286 2.67857143,18.5714286 L3.57142857,18.5714286 L3.57142857,13.2142857 C3.57142857,9.79164955 4.79909487,6.85269085 7.25446429,4.39732143 C9.70983371,1.94195201 12.6487924,0.714285714 16.0714286,0.714285714 C19.4940647,0.714285714 22.4330234,1.94195201 24.8883929,4.39732143 C27.3437623,6.85269085 28.5714286,9.79164955 28.5714286,13.2142857 L28.5714286,18.5714286 L29.4642857,18.5714286 C30.2083371,18.5714286 30.8407712,18.8318426 31.3616071,19.3526786 C31.8824431,19.8735145 32.1428571,20.5059487 32.1428571,21.25 L32.1428571,21.25 Z" id=""></path>
                    </g>
                </g>
                <path d="M66.6911552,35.9726216 C66.7134742,32.6588499 69.3886794,29.543407 72.6545985,29.0689752 C72.6545985,29.0689752 72.7744685,28.9606934 73.815579,28.9606934 C74.8566896,28.9606934 74.7821848,29.0355521 74.7821848,29.0355521 C78.0633911,29.4791209 80.7808182,32.5306246 80.8514065,35.8362223 L80.9794786,41.8337402 L66.6516791,41.8337402 L66.6911552,35.9726216 Z" id="Rectangle-393" fill="#EDF6F8"></path>
            </g>
        </g>
    </g>
</svg>