<?xml version="1.0" encoding="UTF-8" standalone="no"?>
<svg width="134px" height="134px" viewBox="0 0 134 134" version="1.1" xmlns="http://www.w3.org/2000/svg" xmlns:xlink="http://www.w3.org/1999/xlink">
    <!-- Generator: Sketch 47.1 (45422) - http://www.bohemiancoding.com/sketch -->
    <title>github_ic</title>
    <desc>Created with Sketch.</desc>
    <defs></defs>
    <g id="Page-1" stroke="none" stroke-width="1" fill="none" fill-rule="evenodd">
        <g id="Desktop-HD" transform="translate(-1063.000000, -161.000000)">
            <g id="github_ic" transform="translate(1064.000000, 162.000000)">
                <g id="Oval" stroke="#41BAD5">
                    <circle cx="66" cy="66" r="66"></circle>
                </g>
                <g id="community_github" transform="translate(25.000000, 30.000000)" fill-rule="nonzero">
                    <g id="Group">
                        <path d="M64.9066036,63.960525 C64.9066036,68.3958 54.5711418,71.9907 41.8223418,71.9907 C29.0735418,71.9907 18.7374764,68.3958 18.7374764,63.960525 C18.7374764,59.52525 29.0724855,55.92945 41.8224173,55.92945 C54.5723491,55.92945 64.9066791,59.525175 64.9066791,63.960525 L64.9066791,63.960525 L64.9066036,63.960525 Z" id="Shape" fill="#9CDAF1"></path>
                        <path d="M64.9066036,63.960525 C64.9066036,68.3958 54.5711418,71.9907 41.8223418,71.9907 C29.0735418,71.9907 18.7374764,68.3958 18.7374764,63.960525 C18.7374764,59.52525 29.0724855,55.92945 41.8224173,55.92945 C54.5723491,55.92945 64.9066791,59.525175 64.9066791,63.960525 L64.9066791,63.960525 L64.9066036,63.960525 Z" id="Shape" fill="#7DBBE6"></path>
                        <path d="M15.4520345,40.34715 L14.7856955,42.65475 C14.7318531,42.8666117 14.7672573,43.091136 14.8837306,43.276464 C15.0002039,43.4617921 15.1876731,43.5918958 15.4028382,43.636725 C15.6538596,43.6361643 15.8882641,43.5119118 16.0285891,43.3050287 C16.1689141,43.0981456 16.1968941,42.835561 16.1032827,42.60405 L15.45211,40.347225 L15.45211,40.347225 L15.4520345,40.34715 Z" id="Shape" fill="#9CDAF1"></path>
                        <path d="M82.5618355,30.67185 L82.6227273,30.37185 C76.7126364,29.2975299 70.6981882,28.8996616 64.6969909,29.186025 C65.3743618,26.4071823 65.6764453,23.5510573 65.5952773,20.69295 C65.6667066,16.5776721 64.034904,12.6137784 61.0816618,9.7287 C61.9679661,6.58288073 61.7380594,3.22971044 60.4305645,0.2325 C60.4305645,0.2325 57.2706791,-0.765 50.1234736,3.99 C47.2553197,3.29129831 44.3122257,2.94242958 41.3592018,2.9511 C38.0855097,2.94213698 34.8251333,3.36559276 31.66367,4.21035 C24.2870073,-0.79215 21.0308418,0.232425 21.0308418,0.232425 C18.9049855,5.5152 20.2193282,9.426825 20.6187845,10.3983 C17.9842624,13.1807436 16.5413551,16.8723406 16.59502,20.692875 C16.5232539,23.5679308 16.9456506,26.4340749 17.8440191,29.167875 C11.9947904,28.917498 6.13577936,29.3212564 0.377272727,30.37155 L0.437636364,30.67155 C6.21434287,29.6189505 12.0922401,29.2187601 17.9593891,29.4786 C18.1518295,29.9849799 18.3709507,30.4809409 18.6158436,30.964425 C12.501652,31.1230258 6.42666793,31.9867852 0.51294,33.53835 L0.596694545,33.832125 C6.5351101,32.2766131 12.6358886,31.4153612 18.7752036,31.26585 C21.2652036,35.879175 26.1742764,38.858925 34.9078382,39.79455 C33.3211035,40.8701341 32.2344993,42.5331901 31.8912409,44.411475 C30.20204,45.2145 24.8549536,47.17485 21.6467018,41.68995 C21.6467018,41.68995 19.8508836,38.42625 16.4138536,38.170725 C16.4138536,38.170725 13.0792909,38.120025 16.1832645,40.23615 C16.1832645,40.23615 18.4147573,41.281275 19.9539545,45.208275 C19.9539545,45.208275 21.9620264,51.9066 31.6531064,49.757475 L31.6531064,56.6766 C31.4957854,58.1303701 30.5510757,59.3821647 29.1909491,59.9391 C29.1909491,59.9391 27.85729,60.85695 29.2939445,61.3662 C29.2939445,61.3662 35.5510882,61.8762 35.5510882,56.778675 L35.5510882,49.233675 C35.5510882,49.233675 35.3034464,46.241175 36.7816764,45.201675 L36.7816764,57.59415 C36.7816764,57.59415 36.6795864,60.550725 35.1408418,61.6725 C35.1408418,61.6725 34.11466,63.507375 36.3715055,62.998125 C36.3715055,62.998125 40.67996,62.3865 40.8847436,57.3903 L40.9828345,44.849175 L42.0179955,44.849175 L42.1165391,57.3903 C42.3216245,62.3865 46.6297018,62.998125 46.6297018,62.998125 C48.8857927,63.507375 47.8603655,61.6725 47.8603655,61.6725 C46.3216209,60.550725 46.2195309,57.59415 46.2195309,57.59415 L46.2195309,45.308625 C47.6973836,46.4526 47.4501945,49.23375 47.4501945,49.23375 L47.4501945,56.77875 C47.4501945,61.876425 53.7072627,61.366275 53.7072627,61.366275 C55.1430118,60.857025 53.8103336,59.939175 53.8103336,59.939175 C52.450207,59.3822397 51.5054973,58.1304451 51.3481764,56.676675 L51.3481764,46.7865 C51.3481764,42.92985 49.71451,40.8876 48.1166091,39.809475 C57.4305673,38.891625 61.8999664,35.901975 63.9594982,31.2576 C70.1881067,31.3914978 76.3790461,32.255676 82.4038336,33.8322 L82.4868336,33.538425 C76.4773264,31.9649211 70.3028104,31.0978164 64.0899591,30.9549 C64.2868296,30.4774845 64.4593121,29.990489 64.6067473,29.495775 C70.6174207,29.2022797 76.6421116,29.5968976 82.5620618,30.67185 L82.5620618,30.67185 L82.5618355,30.67185 Z" id="Shape" fill="#000000"></path>
                        <path d="M56.4851218,20.4783 C58.4913827,22.284675 59.6647009,24.4662 59.6647009,26.816475 C59.6647009,37.790325 51.4344964,38.0877 41.2829173,38.0877 C31.1301309,38.0877 22.9003791,36.56805 22.9003791,26.816475 C22.9943922,24.3670298 24.136507,22.0741288 26.0392882,20.514825 C29.3441973,17.5164 34.9376427,19.10415 41.2829927,19.10415 C47.60299,19.10415 53.1757609,17.50035 56.4851973,20.4783 L56.4851973,20.4783 L56.4851218,20.4783 Z" id="Shape" fill="#F4CBB2"></path>
                        <path d="M35.1700427,27.37605 C35.1700427,30.39855 33.4572245,32.8485 31.3455536,32.8485 C29.2338827,32.8485 27.5200082,30.398475 27.5200082,27.37605 C27.5200082,24.353625 29.2328264,21.9045 31.3455536,21.9045 C33.4582809,21.9045 35.1700427,24.353625 35.1700427,27.37605 L35.1700427,27.37605 Z" id="Shape" fill="#FFFFFF"></path>
                        <path d="M33.9429255,27.4446 C33.9429255,29.45925 32.8005436,31.092 31.3929391,31.092 C29.9841273,31.092 28.8430282,29.45925 28.8430282,27.4446 C28.8430282,25.42995 29.9841273,23.7954 31.3929391,23.7954 C32.8004682,23.7954 33.9429255,25.42905 33.9429255,27.4446 L33.9429255,27.4446 Z" id="Shape" fill="#AD5C51"></path>
                        <path d="M55.6898309,27.37605 C55.6898309,30.39855 53.9770127,32.8485 51.8642855,32.8485 C49.7515582,32.8485 48.0397964,30.398475 48.0397964,27.37605 C48.0397964,24.353625 49.7526145,21.9045 51.8642855,21.9045 C53.9759564,21.9045 55.6898309,24.353625 55.6898309,27.37605 L55.6898309,27.37605 Z" id="Shape" fill="#FFFFFF"></path>
                        <path d="M54.4618082,27.4446 C54.4618082,29.45925 53.3198791,31.092 51.9118973,31.092 C50.5039155,31.092 49.3619109,29.45925 49.3619109,27.4446 C49.3619109,25.42995 50.5039155,23.7954 51.9118973,23.7954 C53.3198791,23.7954 54.4618082,25.42905 54.4618082,27.4446 L54.4618082,27.4446 Z" id="Shape" fill="#AD5C51"></path>
                        <path d="M42.2934045,32.235975 C42.2934879,32.7611564 41.8652316,33.1869671 41.3368673,33.18705 C40.808503,33.1871328 40.3801116,32.7614564 40.3800282,32.236275 C40.3799449,31.7110936 40.8082012,31.2852828 41.3365655,31.2852 C41.5903133,31.2851005 41.8337015,31.3852296 42.0131567,31.5635475 C42.1926118,31.7418653 42.2934246,31.9837557 42.2934045,32.235975 L42.2934045,32.235975 L42.2934045,32.235975 Z" id="Shape" fill="#AD5C51"></path>
                        <path d="M39.1082418,34.63965 C39.0716068,34.5366771 39.093023,34.4220995 39.1644231,34.3390773 C39.2358232,34.2560552 39.3463599,34.2172016 39.4543949,34.2371523 C39.56243,34.2571031 39.6515505,34.3328271 39.6881855,34.4358 C39.9333161,35.1276769 40.5909726,35.590515 41.3289445,35.590515 C42.0669164,35.590515 42.724573,35.1276769 42.9697036,34.4358 C43.0263365,34.276742 43.2019698,34.1934335 43.3619918,34.2497251 C43.5220138,34.3060167 43.6058273,34.480592 43.5491945,34.63965 C43.2168963,35.5753753 42.3270791,36.2011163 41.3287559,36.2011163 C40.3304327,36.2011163 39.4406155,35.5753753 39.1083173,34.63965 L39.1083173,34.63965 L39.1082418,34.63965 Z" id="Shape" fill="#AD5C51"></path>
                        <path d="M17.9016664,38.986875 C18.0111226,39.276831 17.9183244,39.6038484 17.6725663,39.7942156 C17.4268082,39.9845828 17.0851071,39.9941339 16.8289743,39.8177953 C16.5728416,39.6414567 16.4617012,39.3201398 16.5545909,39.0245278 C16.6474806,38.7289159 16.9228495,38.5275923 17.2344218,38.5275 C17.5438775,38.4819091 17.8358063,38.6828921 17.9016664,38.986875 L17.9016664,38.986875 L17.9016664,38.986875 Z" id="Shape" fill="#C3E4D8"></path>
                        <path d="M19.7485673,40.0062 C19.8586947,40.2962835 19.7663222,40.6238462 19.5205505,40.8147719 C19.2747789,41.0056976 18.9326762,41.0156533 18.6760876,40.8393469 C18.4194991,40.6630406 18.3080045,40.3414106 18.400869,40.0454198 C18.4937336,39.749429 18.769394,39.5478065 19.0813227,39.547725 C19.390422,39.5023837 19.6820371,39.7027573 19.7485673,40.0062 L19.7485673,40.0062 Z" id="Shape" fill="#C3E4D8"></path>
                        <path d="M20.8770655,41.332725 C20.9863761,41.6225542 20.8935582,41.9493657 20.6479065,42.1395928 C20.4022548,42.3298199 20.0607469,42.3393406 19.8047544,42.1630986 C19.5487619,41.9868565 19.4376609,41.66573 19.530456,41.3702664 C19.6232512,41.0748028 19.8984192,40.8735332 20.2098209,40.87335 C20.5192219,40.8279916 20.8110057,41.0288747 20.8770655,41.332725 L20.8770655,41.332725 Z" id="Shape" fill="#C3E4D8"></path>
                        <path d="M21.9025682,42.8622 C22.0119081,43.152107 21.919009,43.4790055 21.6732306,43.669206 C21.4274522,43.8594065 21.0858334,43.8687683 20.829885,43.6923172 C20.5739366,43.5158661 20.4630579,43.1945519 20.5561614,42.8990971 C20.649265,42.6036424 20.9247438,42.4026146 21.2362291,42.402825 C21.545419,42.3575183 21.8369224,42.5584811 21.9025682,42.8622 L21.9025682,42.8622 L21.9025682,42.8622 Z" id="Shape" fill="#C3E4D8"></path>
                        <path d="M23.0315945,44.290125 C23.141063,44.5801134 23.0482311,44.9071671 22.8024201,45.0975232 C22.5566092,45.2878794 22.2148618,45.2973643 21.9587475,45.1209385 C21.7026331,44.9445128 21.5915853,44.6231177 21.6846035,44.3275094 C21.7776217,44.0319012 22.0531201,43.8306783 22.3647273,43.83075 C22.674013,43.7855293 22.9656074,43.9863956 23.0315945,44.290125 L23.0315945,44.290125 Z" id="Shape" fill="#C3E4D8"></path>
                        <path d="M24.5707918,45.513375 C24.6807372,45.8033002 24.5883397,46.1306057 24.3427008,46.3213562 C24.097062,46.5121067 23.7552008,46.5220242 23.4987876,46.3458383 C23.2423744,46.1696525 23.1309292,45.8482605 23.2236758,45.5524552 C23.3164223,45.2566498 23.5918318,45.055095 23.9035473,45.0549 C24.2126828,45.0094042 24.5043942,45.2098441 24.5707918,45.513375 L24.5707918,45.513375 Z" id="Shape" fill="#C3E4D8"></path>
                        <path d="M26.7252455,46.32975 C26.8347163,46.6197449 26.7418776,46.9468058 26.4960561,47.1371597 C26.2502346,47.3275137 25.908478,47.3369853 25.6523674,47.1605421 C25.3962567,46.984099 25.2852274,46.6626882 25.3782713,46.3670807 C25.4713152,46.0714732 25.7468395,45.8702705 26.0584536,45.870375 C26.3677217,45.8251586 26.6592928,46.0260316 26.7252455,46.32975 L26.7252455,46.32975 L26.7252455,46.32975 Z" id="Shape" fill="#C3E4D8"></path>
                        <path d="M28.8695127,46.32975 C28.9789836,46.6197449 28.8861449,46.9468058 28.6403234,47.1371597 C28.3945019,47.3275137 28.0527453,47.3369853 27.7966346,47.1605421 C27.5405239,46.984099 27.4294947,46.6626882 27.5225386,46.3670807 C27.6155824,46.0714732 27.8911068,45.8702705 28.2027209,45.870375 C28.511989,45.8251586 28.8035601,46.0260316 28.8695127,46.32975 L28.8695127,46.32975 L28.8695127,46.32975 Z" id="Shape" fill="#C3E4D8"></path>
                        <path d="M31.0459236,45.97455 C31.1553945,46.2645449 31.0625558,46.5916058 30.8167343,46.7819597 C30.5709128,46.9723137 30.2291562,46.9817853 29.9730455,46.8053421 C29.7169348,46.628899 29.6059056,46.3074882 29.6989495,46.0118807 C29.7919934,45.7162732 30.0675177,45.5150705 30.3791318,45.515175 C30.6884181,45.4698812 30.9800375,45.6707875 31.0459236,45.97455 L31.0459236,45.97455 L31.0459236,45.97455 Z" id="Shape" fill="#C3E4D8"></path>
                    </g>
                </g>
            </g>
        </g>
    </g>
</svg>