<?xml version="1.0" encoding="UTF-8" standalone="no"?>
<svg width="134px" height="134px" viewBox="0 0 134 134" version="1.1" xmlns="http://www.w3.org/2000/svg" xmlns:xlink="http://www.w3.org/1999/xlink">
    <!-- Generator: Sketch 47.1 (45422) - http://www.bohemiancoding.com/sketch -->
    <title>medium_ic</title>
    <desc>Created with Sketch.</desc>
    <defs></defs>
    <g id="Page-1" stroke="none" stroke-width="1" fill="none" fill-rule="evenodd">
        <g id="Desktop-HD" transform="translate(-1062.000000, -937.000000)">
            <g id="medium_ic" transform="translate(1063.000000, 938.000000)">
                <circle id="Oval" stroke="#41BAD5" cx="66" cy="66" r="66"></circle>
                <g id="Monogram" transform="translate(36.000000, 41.000000)" fill-rule="nonzero" fill="#000000">
                    <path d="M7.2334267,9.79188711 C7.30921455,9.04968794 7.02366107,8.31610662 6.46451914,7.81657846 L0.768907561,1.01587302 L0.768907561,0 L18.4537815,0 L32.1232493,29.7142855 L44.14099,0 L61,0 L61,1.01587302 L56.1302522,5.64373897 C55.7104264,5.96092971 55.5021715,6.48225517 55.5891692,6.99823634 L55.5891692,41.0017638 C55.5021715,41.5177449 55.7104264,42.0390702 56.1302522,42.3562611 L60.8860879,46.9841271 L60.8860879,48 L36.9645192,48 L36.9645192,46.9841271 L41.8912234,42.2433863 C42.3753501,41.7636683 42.3753501,41.6225751 42.3753501,40.8888891 L42.3753501,13.4038801 L28.6774043,47.8871252 L26.8263306,47.8871252 L10.8786181,13.4038801 L10.8786181,36.5149911 C10.7456519,37.4866472 11.0712299,38.4648923 11.7614379,39.1675486 L18.1690009,46.8712523 L18.1690009,47.8871252 L0,47.8871252 L0,46.8712523 L6.40756302,39.1675486 C7.09274571,38.4637274 7.39933902,37.4789931 7.2334267,36.5149911 L7.2334267,9.79188711 Z" id="Shape"></path>
                </g>
            </g>
        </g>
    </g>
</svg>