<?xml version="1.0" encoding="UTF-8" standalone="no"?>
<svg width="134px" height="134px" viewBox="0 0 134 134" version="1.1" xmlns="http://www.w3.org/2000/svg" xmlns:xlink="http://www.w3.org/1999/xlink">
    <!-- Generator: Sketch 47.1 (45422) - http://www.bohemiancoding.com/sketch -->
    <title>speaking_ic</title>
    <desc>Created with Sketch.</desc>
    <defs></defs>
    <g id="Page-1" stroke="none" stroke-width="1" fill="none" fill-rule="evenodd">
        <g id="Desktop-HD" transform="translate(-1062.000000, -1129.000000)">
            <g id="speaking_ic" transform="translate(1063.000000, 1130.000000)">
                <circle id="Oval" stroke="#41BAD5" cx="66" cy="66" r="66"></circle>
                <g id="noun_1351407_cc" transform="translate(30.000000, 30.000000)" fill-rule="nonzero">
                    <path d="M9.5,47 C5.91014913,47 3,49.9101491 3,53.5 C3,57.0898509 5.91014913,60 9.5,60 C13.0898509,60 16,57.0898509 16,53.5 C15.994292,49.9125161 13.0874839,47.005708 9.5,47 L9.5,47 Z M9.5,57.9370016 C7.70959336,57.9370016 6.0954817,56.8584867 5.41032274,55.2043666 C4.72516378,53.5502466 5.10388786,51.646272 6.36989654,50.3802634 C7.63590521,49.1142547 9.53987974,48.7355306 11.1939998,49.4206896 C12.8481198,50.1058485 13.9266348,51.7199602 13.9266348,53.5103668 C13.9209349,55.9527648 11.942398,57.9313017 9.5,57.9370016 L9.5,57.9370016 Z" id="Shape" fill="#379FDA"></path>
                    <path d="M9.99474721,60 C5.58176974,60.0056941 2.00578752,63.5239246 2,67.8656331 L2,70.9664083 C2,71.5372452 2.47035089,72 3.05055811,72 C3.63076533,72 4.10111622,71.5372452 4.10111622,70.9664083 L4.10111622,67.8656331 C4.10111617,65.7922002 5.22543706,63.8762692 7.05055807,62.8395527 C8.87567909,61.8028363 11.1243209,61.8028363 12.9494419,62.8395527 C14.7745629,63.8762692 15.8988838,65.7922002 15.8988838,67.8656331 L15.8988838,70.9664083 C15.8988838,71.5372452 16.3692347,72 16.9494419,72 C17.5296491,72 18,71.5372452 18,70.9664083 L18,67.8656331 C17.9942033,63.5198925 14.4118268,59.9999963 9.99474721,60 Z" id="Shape" fill="#379FDA"></path>
                    <path d="M20,53.499905 C20,56.1288712 21.583651,58.4989724 24.012499,59.5050342 C26.4413471,60.511096 29.2370721,59.9549917 31.0960319,58.0960319 C32.9549917,56.2370721 33.511096,53.4413471 32.5050342,51.012499 C31.4989724,48.583651 29.1288712,47 26.499905,47 C22.9124736,47.0057079 20.0057079,49.9124736 20,53.499905 L20,53.499905 Z M30.9368418,53.499905 C30.9368418,55.9446322 28.9549988,57.9264751 26.5102717,57.9264751 C24.0655445,57.9264751 22.0837016,55.9446322 22.0837016,53.499905 C22.0837016,51.0551779 24.0655445,49.0733349 26.5102717,49.0733349 C28.9445333,49.0903914 30.9104805,51.0655902 30.9161084,53.499905 L30.9368418,53.499905 Z" id="Shape" fill="#379FDA"></path>
                    <path d="M26.9947472,60 C22.5817697,60.0056941 19.0057875,63.5239246 19,67.8656331 L19,70.9664083 C19,71.5372452 19.4703509,72 20.0505581,72 C20.6307653,72 21.1011162,71.5372452 21.1011162,70.9664083 L21.1011162,67.8656331 C21.1011162,65.7922002 22.225437,63.8762691 24.0505581,62.8395527 C25.8756791,61.8028362 28.1243209,61.8028362 29.9494419,62.8395527 C31.774563,63.8762691 32.8988838,65.7922002 32.8988838,67.8656331 L32.8988838,70.9664083 C32.8988838,71.5372452 33.3692347,72 33.9494419,72 C34.5296491,72 35,71.5372452 35,70.9664083 L35,67.8656331 C34.9942033,63.5198925 31.4118268,59.9999963 26.9947472,60 Z" id="Shape" fill="#379FDA"></path>
                    <path d="M37,53.5 C37,57.0898509 39.9101491,60 43.5,60 C47.0898509,60 50,57.0898509 50,53.5 C50,49.9101491 47.0898509,47 43.5,47 C39.9125161,47.005708 37.005708,49.9125161 37,53.5 L37,53.5 Z M47.9370016,53.5 C47.9370016,55.2904066 46.8584867,56.9045183 45.2043666,57.5896773 C43.5502466,58.2748362 41.646272,57.8961121 40.3802634,56.6301035 C39.1142547,55.3640948 38.7355306,53.4601203 39.4206896,51.8060002 C40.1058485,50.1518802 41.7199602,49.0733652 43.5103668,49.0733652 C45.9365556,49.1017042 47.8900307,51.073652 47.8955343,53.5 L47.9370016,53.5 Z" id="Shape" fill="#379FDA"></path>
                    <path d="M43.9947472,60 C39.5817697,60.0056941 36.0057875,63.5239246 36,67.8656331 L36,70.9664083 C36,71.5372452 36.4703509,72 37.0505581,72 C37.6307653,72 38.1011162,71.5372452 38.1011162,70.9664083 L38.1011162,67.8656331 C38.1011162,64.6603836 40.7421364,62.0620155 44,62.0620155 C47.2578636,62.0620155 49.8988838,64.6603836 49.8988838,67.8656331 L49.8988838,70.9664083 C49.8988838,71.5372452 50.3692347,72 50.9494419,72 C51.5296491,72 52,71.5372452 52,70.9664083 L52,67.8656331 C51.9942033,63.5198925 48.4118268,59.9999963 43.9947472,60 Z" id="Shape" fill="#379FDA"></path>
                    <path d="M54,53.5 C54,57.0898509 56.9101491,60 60.5,60 C64.0898509,60 67,57.0898509 67,53.5 C67,49.9101491 64.0898509,47 60.5,47 C56.9125161,47.005708 54.005708,49.9125161 54,53.5 L54,53.5 Z M64.9370016,53.5 C64.9370016,55.2904066 63.8584867,56.9045183 62.2043666,57.5896773 C60.5502466,58.2748362 58.646272,57.8961121 57.3802634,56.6301035 C56.1142547,55.3640948 55.7355306,53.4601203 56.4206896,51.8060002 C57.1058485,50.1518802 58.7199602,49.0733652 60.5103668,49.0733652 C62.9527648,49.0790651 64.9313017,51.057602 64.9370016,53.5 Z" id="Shape" fill="#379FDA"></path>
                    <path d="M60.9947472,60 C56.5817697,60.0056941 53.0057875,63.5239246 53,67.8656331 L53,70.9664083 C53,71.5372452 53.4703509,72 54.0505581,72 C54.6307653,72 55.1011162,71.5372452 55.1011162,70.9664083 L55.1011162,67.8656331 C55.1011162,64.6603836 57.7421364,62.0620155 61,62.0620155 C64.2578636,62.0620155 66.8988838,64.6603836 66.8988838,67.8656331 L66.8988838,70.9664083 C66.8988838,71.5372452 67.3692347,72 67.9494419,72 C68.5296491,72 69,71.5372452 69,70.9664083 L69,67.8656331 C68.9942033,63.5198925 65.4118268,59.9999963 60.9947472,60 Z" id="Shape" fill="#379FDA"></path>
                    <path d="M2.06152359,40.8969683 C2.07887492,38.597453 3.47025285,36.5289934 5.59996606,35.6366252 C7.72967927,34.744257 10.1887815,35.1993323 11.8537607,36.7939366 L11.8537607,36.7939366 C12.9663117,37.872124 13.5944253,39.3515662 13.5957481,40.8969683 L13.5957481,43.9742421 C13.5957481,44.5407525 14.0572359,45 14.6265099,45 C15.1957839,45 15.6572717,44.5407525 15.6572717,43.9742421 L15.6572717,40.8969683 C15.6523196,39.5543147 15.2971449,38.235944 14.6265099,37.0708913 L62.9692382,37.0708913 C63.5385122,37.0708913 64,36.6116438 64,36.0451333 L64,1.02575792 C64,0.459247464 63.5385122,0 62.9692382,0 L7.79255919,0 C7.22328517,0 6.76179739,0.459247464 6.76179739,1.02575792 L6.76179739,19.940734 C3.4303095,20.4754733 1.0705215,23.4673896 1.34005663,26.8148236 C1.60959175,30.1622576 4.41801412,32.7420605 7.79255919,32.7420605 C11.1671043,32.7420605 13.9755266,30.1622576 14.2450618,26.8148236 C14.5145969,23.4673896 12.1548089,20.4754733 8.82332099,19.940734 L8.82332099,2.05151584 L61.9900145,2.05151584 L61.9900145,35.0706633 L12.9979063,35.0706633 C10.6904367,33.0575646 7.41431807,32.570556 4.61640639,33.8247185 C1.81849471,35.078881 0.0140569117,37.8432466 0,40.8969683 L0,43.9742421 C0,44.5407525 0.461487776,45 1.0307618,45 C1.60003582,45 2.06152359,44.5407525 2.06152359,43.9742421 L2.06152359,40.8969683 Z M12.2454502,26.22863 C12.2454502,28.6476297 10.2748973,30.6086164 7.84409728,30.6086164 C5.41329721,30.6086164 3.4427444,28.6476297 3.4427444,26.22863 C3.4427444,23.8096304 5.41329721,21.8486437 7.84409728,21.8486437 C9.01953348,21.8513256 10.145293,22.3207002 10.9716022,23.1526268 C11.7979113,23.9845534 12.2564387,25.110236 12.2454502,26.2799179 L12.2454502,26.22863 Z" id="Shape" fill="#44C6D0"></path>
                </g>
            </g>
        </g>
    </g>
</svg>