<?xml version="1.0" encoding="UTF-8" standalone="no"?>
<svg width="134px" height="134px" viewBox="0 0 134 134" version="1.1" xmlns="http://www.w3.org/2000/svg" xmlns:xlink="http://www.w3.org/1999/xlink">
    <!-- Generator: Sketch 47.1 (45422) - http://www.bohemiancoding.com/sketch -->
    <title>email_security_ic</title>
    <desc>Created with Sketch.</desc>
    <defs></defs>
    <g id="Page-1" stroke="none" stroke-width="1" fill="none" fill-rule="evenodd">
        <g id="Desktop-HD" transform="translate(-1062.000000, -745.000000)">
            <g id="email_security_ic" transform="translate(1063.000000, 746.000000)">
                <circle id="Oval" stroke="#41BAD5" cx="66" cy="66" r="66"></circle>
                <g id="noun_986370_cc" transform="translate(30.000000, 44.000000)" fill-rule="nonzero">
                    <g id="Group">
                        <path d="M76.4179104,25.32 L72.5970149,25.32 L72.5970149,19.32 C72.5970149,14.88 69.0149254,11.28 64.5970149,11.28 C64.119403,11.28 63.761194,11.28 63.4029851,11.4 L63.4029851,3.6 C63.4029851,1.68 61.8507463,3.55271368e-15 59.8208955,3.55271368e-15 L4.41791045,3.55271368e-15 C2.50746269,3.55271368e-15 0.835820896,1.56 0.835820896,3.6 L0.835820896,38.4 C0.835820896,40.32 2.3880597,42 4.41791045,42 L49.9104478,42 L49.9104478,44.16 C49.9104478,45.6 51.1044776,46.92 52.6567164,46.92 L76.4179104,46.92 C77.8507463,46.92 79.1641791,45.72 79.1641791,44.16 L79.1641791,27.96 C79.1641791,26.52 77.8507463,25.32 76.4179104,25.32 Z M70.8059701,19.32 L70.8059701,25.32 L58.2686567,25.32 L58.2686567,19.32 C58.2686567,15.84 61.0149254,13.08 64.4776119,13.08 C67.9402985,13.08 70.8059701,15.84 70.8059701,19.32 Z M56.4776119,19.32 L56.4776119,25.32 L52.6567164,25.32 C51.2238806,25.32 49.9104478,26.52 49.9104478,28.08 L49.9104478,28.68 L41.3134328,21.24 L61.4925373,4.68 L61.4925373,12 C58.6268657,13.08 56.4776119,15.96 56.4776119,19.32 Z M4.41791045,1.8 L59.7014925,1.8 C60.2985075,1.8 60.7761194,2.04 61.1343284,2.52 L33.9104478,24.96 C32.8358209,25.8 31.4029851,25.8 30.3283582,24.96 L2.98507463,2.52 C3.34328358,2.04 3.82089552,1.8 4.41791045,1.8 Z M2.74626866,38.64 C2.74626866,38.52 2.74626866,38.52 2.74626866,38.4 L2.74626866,4.56 L22.9253731,21.12 L2.74626866,38.64 Z M4.41791045,40.2 C4.17910448,40.2 3.94029851,40.2 3.70149254,40.08 L24.119403,22.32 L29.1343284,26.4 C29.9701493,27 31.0447761,27.36 32,27.36 C33.0746269,27.36 34.0298507,27 34.9850746,26.4 L39.880597,22.32 L49.9104478,31.08 L49.9104478,40.32 L4.41791045,40.32 L4.41791045,40.2 Z M77.3731343,44.16 C77.3731343,44.64 77.0149254,45.12 76.4179104,45.12 L52.6567164,45.12 C52.1791045,45.12 51.7014925,44.76 51.7014925,44.16 L51.7014925,27.96 C51.7014925,27.48 52.0597015,27 52.6567164,27 L76.4179104,27 C76.8955224,27 77.3731343,27.36 77.3731343,27.96 L77.3731343,44.16 Z" id="Shape" fill="#44C6D0"></path>
                        <rect id="Rectangle-path" fill="#379FDA" x="56.238806" y="32.88" width="16.4776119" height="1.8"></rect>
                        <rect id="Rectangle-path" fill="#379FDA" x="59.1044776" y="38.4" width="10.8656716" height="1.8"></rect>
                    </g>
                </g>
            </g>
        </g>
    </g>
</svg>