<svg xmlns="http://www.w3.org/2000/svg" xmlns:xlink="http://www.w3.org/1999/xlink" viewBox="0 0 987.22 456.53">
  <defs>
    <clipPath id="a">
      <rect width="987.22" height="456.53" style="fill: none"/>
    </clipPath>
  </defs>
  <title>concourse-pattern</title>
  <rect width="987.22" height="456.53" style="fill: #2a2929"/>
  <g style="clip-path: url(#a)">
    <g>
      <rect x="559.58" y="416.48" width="75.33" height="24.52" style="fill: #3d3c3c"/>
      <rect x="168.81" y="353.91" width="87.99" height="20.64" style="fill: #3d3c3c"/>
      <rect x="168.81" y="413.03" width="62.53" height="20.64" style="fill: #3d3c3c"/>
      <rect x="168.81" y="288.32" width="87.99" height="20.64" style="fill: #3d3c3c"/>
      <rect x="536.02" y="352.52" width="87.99" height="20.64" style="fill: #3d3c3c"/>
      <rect x="180.48" y="320.92" width="64.65" height="20.64" style="fill: #3d3c3c"/>
      <rect x="347.5" y="424.97" width="64.65" height="20.64" style="fill: #3d3c3c"/>
      <rect x="297.58" y="385.35" width="30.92" height="86.83" style="fill: #3d3c3c"/>
      <rect x="297.58" y="286.66" width="30.92" height="86.83" style="fill: #3d3c3c"/>
      <rect x="104.87" y="387.18" width="38.79" height="87.73" style="fill: #3d3c3c"/>
      <rect x="-8.67" y="387.18" width="38.79" height="87.73" style="fill: #3d3c3c"/>
      <rect x="82.24" y="349.42" width="70.43" height="28.06" style="fill: #3d3c3c"/>
      <line x1="99.94" y1="364.46" x2="179.54" y2="364.46" style="fill: none;stroke: #3d3c3c;stroke-miterlimit: 10"/>
      <line x1="225.62" y1="423.35" x2="307.61" y2="423.35" style="fill: none;stroke: #3d3c3c;stroke-miterlimit: 10"/>
      <line x1="234.08" y1="330.28" x2="307.61" y2="330.28" style="fill: none;stroke: #3d3c3c;stroke-miterlimit: 10;stroke-dasharray: 6"/>
      <line x1="234.08" y1="231.42" x2="410.13" y2="231.42" style="fill: none;stroke: #3d3c3c;stroke-miterlimit: 10;stroke-dasharray: 6"/>
      <rect x="359.91" y="320.12" width="93.23" height="20.64" style="fill: #3d3c3c"/>
      <rect x="374.2" y="353.13" width="64.65" height="20.64" style="fill: #3d3c3c"/>
      <rect x="400.49" y="243.82" width="68.18" height="20.64" style="fill: #3d3c3c"/>
      <rect x="400.49" y="219.72" width="68.18" height="20.64" style="fill: #3d3c3c"/>
      <rect x="359.91" y="286.77" width="93.23" height="20.64" style="fill: #3d3c3c"/>
      <rect x="485.01" y="286.66" width="30.92" height="86.83" style="fill: #3d3c3c"/>
      <line x1="434.58" y1="330.28" x2="508.11" y2="330.28" style="fill: none;stroke: #3d3c3c;stroke-miterlimit: 10;stroke-dasharray: 6"/>
      <line x1="318.92" y1="330.07" x2="368.37" y2="330.07" style="fill: none;stroke: #3d3c3c;stroke-miterlimit: 10"/>
      <line x1="318.92" y1="435.29" x2="368.37" y2="435.29" style="fill: none;stroke: #3d3c3c;stroke-miterlimit: 10"/>
      <line x1="30.12" y1="431.04" x2="113.76" y2="431.04" style="fill: none;stroke: #3d3c3c;stroke-miterlimit: 10"/>
      <path d="M372,364.73c-12.53,0-16.87-8.27-22.67-17.33s-10.13-17.33-22.66-17.33" style="fill: none;stroke: #3d3c3c;stroke-miterlimit: 10;stroke-dasharray: 6"/>
      <path d="M858.76,331.44c-14.51,0-19.54-8-26.26-16.72S820.76,298,806.25,298" style="fill: none;stroke: #3d3c3c;stroke-miterlimit: 10;stroke-dasharray: 6"/>
      <path d="M368.37,395.61c-11.54,0-15.53-15.64-20.87-32.77s-9.34-32.77-20.87-32.77" style="fill: none;stroke: #3d3c3c;stroke-miterlimit: 10"/>
      <path d="M297.58,461.87c-18.92,0-25.46-9.19-34.22-19.26s-15.31-19.26-34.22-19.26" style="fill: none;stroke: #3d3c3c;stroke-miterlimit: 10;stroke-dasharray: 6"/>
      <path d="M481.07,461.87c-19.52,0-26.28-6.35-35.32-13.29s-15.8-13.29-35.32-13.29" style="fill: none;stroke: #3d3c3c;stroke-miterlimit: 10"/>
      <rect x="550.71" y="451.54" width="93.07" height="20.64" style="fill: #3d3c3c"/>
      <rect x="745.46" y="451.54" width="64.65" height="20.64" style="fill: #3d3c3c"/>
      <rect x="681.79" y="370.06" width="30.92" height="102.12" style="fill: #3d3c3c"/>
      <rect x="481.07" y="387.18" width="38.79" height="87.73" style="fill: #3d3c3c"/>
      <rect x="485.01" y="286.66" width="30.92" height="86.83" style="fill: #3d3c3c"/>
      <rect x="481.07" y="387.18" width="38.79" height="87.73" style="fill: #3d3c3c"/>
      <rect x="960.56" y="321.56" width="30.92" height="86.83" style="fill: #3d3c3c"/>
      <rect x="956.62" y="220.14" width="38.79" height="87.73" style="fill: #3d3c3c"/>
      <rect x="363.28" y="384.2" width="86.49" height="24.52" style="fill: #3d3c3c"/>
      <line x1="444.65" y1="396.45" x2="487.67" y2="396.45" style="fill: none;stroke: #3d3c3c;stroke-miterlimit: 10"/>
      <line x1="431.58" y1="362.84" x2="487.67" y2="362.84" style="fill: none;stroke: #3d3c3c;stroke-miterlimit: 10"/>
      <line x1="512.71" y1="362.84" x2="568.8" y2="362.84" style="fill: none;stroke: #3d3c3c;stroke-miterlimit: 10"/>
      <rect x="842.86" y="418.33" width="93.07" height="20.64" style="fill: #3d3c3c"/>
      <line x1="443.3" y1="232.02" x2="555.11" y2="232.02" style="fill: none;stroke: #3d3c3c;stroke-miterlimit: 10"/>
      <rect x="559.58" y="383.35" width="75.33" height="24.52" style="fill: #3d3c3c"/>
      <rect x="298.87" y="241.88" width="75.33" height="24.52" style="fill: #3d3c3c"/>
      <rect x="857.07" y="319.3" width="64.65" height="20.64" style="fill: #3d3c3c"/>
      <rect x="745.44" y="342.12" width="64.65" height="20.64" style="fill: #3d3c3c"/>
      <path d="M924,328.35c12.53,0,16.87,8.27,22.67,17.32S956.76,363,969.29,363" style="fill: none;stroke: #3d3c3c;stroke-miterlimit: 10;stroke-dasharray: 6"/>
      <rect x="846.15" y="284.36" width="86.49" height="24.52" style="fill: #3d3c3c"/>
      <line x1="860.46" y1="395.61" x2="804.55" y2="395.61" style="fill: none;stroke: #3d3c3c;stroke-miterlimit: 10"/>
      <line x1="858.76" y1="263.58" x2="814.51" y2="263.58" style="fill: none;stroke: #3d3c3c;stroke-miterlimit: 10"/>
      <line x1="972.31" y1="263.58" x2="928.06" y2="263.58" style="fill: none;stroke: #3d3c3c;stroke-miterlimit: 10"/>
      <rect x="842.86" y="385.32" width="93.07" height="20.64" style="fill: #3d3c3c"/>
      <rect x="851.73" y="449.4" width="75.33" height="24.52" style="fill: #3d3c3c"/>
      <rect x="175.15" y="219.07" width="75.33" height="24.52" style="fill: #3d3c3c"/>
      <rect x="166.28" y="254.14" width="93.07" height="20.64" style="fill: #3d3c3c"/>
      <line x1="620.54" y1="395.61" x2="758.66" y2="395.61" style="fill: none;stroke: #3d3c3c;stroke-miterlimit: 10"/>
      <g>
        <line x1="712.71" y1="429" x2="715.71" y2="429" style="fill: none;stroke: #3d3c3c;stroke-miterlimit: 10"/>
        <line x1="722.68" y1="429" x2="747.08" y2="429" style="fill: none;stroke: #3d3c3c;stroke-miterlimit: 10;stroke-dasharray: 6.971138000488281,6.971138000488281"/>
        <line x1="750.56" y1="429" x2="753.56" y2="429" style="fill: none;stroke: #3d3c3c;stroke-miterlimit: 10"/>
      </g>
      <rect x="740.12" y="383.35" width="75.33" height="24.52" style="fill: #3d3c3c"/>
      <rect x="740.12" y="416.74" width="75.33" height="24.52" style="fill: #3d3c3c"/>
      <line x1="514.79" y1="395.67" x2="564.56" y2="395.67" style="fill: none;stroke: #3d3c3c;stroke-miterlimit: 10"/>
      <path d="M642.42,463.42c11.5,0,15.48-8.27,20.81-17.32s9.31-17.33,20.81-17.33" style="fill: none;stroke: #3d3c3c;stroke-miterlimit: 10"/>
      <path d="M641,298.1c10.58,0,14.24-5.13,19.14-10.74s8.56-10.74,19.14-10.74" style="fill: none;stroke: #3d3c3c;stroke-miterlimit: 10"/>
      <path d="M514.79,331.44c11.14,0,15-8.2,20.16-17.17s9-17.18,20.16-17.18" style="fill: none;stroke: #3d3c3c;stroke-miterlimit: 10"/>
      <path d="M254.24,367c12,0,16.12-8.81,21.67-18.45s9.69-18.46,21.67-18.46" style="fill: none;stroke: #3d3c3c;stroke-miterlimit: 10"/>
      <path d="M930,293.85c7.35,0,9.89-7,13.29-14.69s5.95-14.7,13.3-14.7" style="fill: none;stroke: #3d3c3c;stroke-miterlimit: 10"/>
      <path d="M935.93,395.61c8.43,0,11.35-7.82,15.26-16.39s6.82-16.38,15.26-16.38" style="fill: none;stroke: #3d3c3c;stroke-miterlimit: 10"/>
      <path d="M935.93,427.21c8.43,0,11.35-15.36,15.26-32.18s6.82-32.19,15.26-32.19" style="fill: none;stroke: #3d3c3c;stroke-miterlimit: 10"/>
      <path d="M259.34,264.83c11.49,0,15.47-2.69,20.79-5.62s9.3-5.62,20.79-5.62" style="fill: none;stroke: #3d3c3c;stroke-miterlimit: 10"/>
      <path d="M514.79,331.44c11.14,0,15-16.12,20.16-33.77s9-33.76,20.16-33.76" style="fill: none;stroke: #3d3c3c;stroke-miterlimit: 10"/>
      <path d="M449.77,297.67c29.11,0,39.19-15.66,52.67-32.82S526,232,555.11,232" style="fill: none;stroke: #3d3c3c;stroke-miterlimit: 10"/>
      <path d="M514.79,331.44c11.14,0,15-23.72,20.16-49.71S544,232,555.11,232" style="fill: none;stroke: #3d3c3c;stroke-miterlimit: 10;stroke-dasharray: 6"/>
      <path d="M150.75,363.45c8.22,0,11.07-8,14.87-16.69s6.65-16.69,14.86-16.69" style="fill: none;stroke: #3d3c3c;stroke-miterlimit: 10"/>
      <path d="M171,423.35c-8.64,0-11.63-5.68-15.64-11.89s-7-11.89-15.63-11.89" style="fill: none;stroke: #3d3c3c;stroke-miterlimit: 10"/>
      <rect x="100.95" y="230.36" width="38.79" height="87.73" style="fill: #3d3c3c"/>
      <rect x="-15.29" y="252.1" width="86.49" height="24.52" style="fill: #3d3c3c"/>
      <line x1="65.61" y1="264.36" x2="124.26" y2="264.36" style="fill: none;stroke: #3d3c3c;stroke-miterlimit: 10"/>
      <line x1="123.74" y1="263.58" x2="173.36" y2="263.58" style="fill: none;stroke: #3d3c3c;stroke-miterlimit: 10"/>
      <line x1="368.37" y1="253.59" x2="417.99" y2="253.59" style="fill: none;stroke: #3d3c3c;stroke-miterlimit: 10"/>
      <rect x="-4.37" y="288.62" width="64.65" height="20.64" style="fill: #3d3c3c"/>
      <rect x="-4.37" y="320.33" width="64.65" height="20.64" style="fill: #3d3c3c"/>
      <line x1="57.75" y1="298.94" x2="124.26" y2="298.94" style="fill: none;stroke: #3d3c3c;stroke-miterlimit: 10"/>
      <line x1="118.63" y1="298.94" x2="303.02" y2="298.94" style="fill: none;stroke: #3d3c3c;stroke-miterlimit: 10"/>
      <path d="M57.75,297.92c13.54,0,18.22-8.2,24.49-17.17s10.94-17.17,24.48-17.17" style="fill: none;stroke: #3d3c3c;stroke-miterlimit: 10;stroke-dasharray: 6"/>
      <path d="M632.54,395.61c12.92,0,17.39-28.4,23.37-59.5s10.45-59.49,23.37-59.49" style="fill: none;stroke: #3d3c3c;stroke-miterlimit: 10"/>
      <path d="M758.9,396.45c-13.16,0-17.72-23.57-23.82-49.39s-10.65-49.39-23.82-49.39" style="fill: none;stroke: #3d3c3c;stroke-miterlimit: 10;stroke-dasharray: 6"/>
      <path d="M812.62,395.61c9.27,0,12.48-23.51,16.77-49.26s7.5-49.26,16.76-49.26" style="fill: none;stroke: #3d3c3c;stroke-miterlimit: 10"/>
      <rect x="677.85" y="220.4" width="38.79" height="112.09" style="fill: #3d3c3c"/>
      <rect x="734.54" y="252.1" width="86.49" height="24.52" style="fill: #3d3c3c"/>
      <rect x="845.7" y="252.1" width="86.49" height="24.52" style="fill: #3d3c3c"/>
      <line x1="769.91" y1="264.36" x2="711.26" y2="264.36" style="fill: none;stroke: #3d3c3c;stroke-miterlimit: 10"/>
      <rect x="745.46" y="288.62" width="64.65" height="20.64" style="fill: #3d3c3c"/>
      <line x1="777.77" y1="298.94" x2="711.26" y2="298.94" style="fill: none;stroke: #3d3c3c;stroke-miterlimit: 10"/>
      <line x1="390.68" y1="298.94" x2="324.18" y2="298.94" style="fill: none;stroke: #3d3c3c;stroke-miterlimit: 10"/>
      <path d="M684,461.87c-15.06,0-20.27-8-27.24-16.7s-12.18-16.7-27.24-16.7" style="fill: none;stroke: #3d3c3c;stroke-miterlimit: 10;stroke-dasharray: 6"/>
      <rect x="554.45" y="286.77" width="87.99" height="20.64" style="fill: #3d3c3c"/>
      <rect x="554.45" y="220.4" width="87.99" height="20.64" style="fill: #3d3c3c"/>
      <rect x="554.45" y="253.59" width="87.97" height="20.64" style="fill: #3d3c3c"/>
      <rect x="345.21" y="-10.13" width="75.33" height="24.52" style="fill: #3d3c3c"/>
      <rect x="723.31" y="56.31" width="87.99" height="20.64" style="fill: #3d3c3c"/>
      <rect x="748.78" y="-2.8" width="62.53" height="20.64" style="fill: #3d3c3c"/>
      <rect x="723.31" y="121.91" width="87.99" height="20.64" style="fill: #3d3c3c"/>
      <rect x="356.1" y="57.71" width="87.99" height="20.64" style="fill: #3d3c3c"/>
      <rect x="734.98" y="89.31" width="64.65" height="20.64" style="fill: #3d3c3c"/>
      <rect x="567.97" y="-14.74" width="64.65" height="20.64" style="fill: #3d3c3c"/>
      <rect x="651.62" y="-41.32" width="30.92" height="86.83" style="fill: #3d3c3c"/>
      <rect x="651.62" y="57.38" width="30.92" height="86.83" style="fill: #3d3c3c"/>
      <rect x="836.46" y="-11.52" width="38.79" height="87.73" style="fill: #3d3c3c"/>
      <rect x="950" y="-11.52" width="38.79" height="87.73" style="fill: #3d3c3c"/>
      <rect x="827.45" y="85.91" width="70.43" height="28.06" style="fill: #3d3c3c"/>
      <line x1="880.18" y1="98.92" x2="800.58" y2="98.92" style="fill: none;stroke: #3d3c3c;stroke-miterlimit: 10"/>
      <line x1="746.04" y1="100.59" x2="672.51" y2="100.59" style="fill: none;stroke: #3d3c3c;stroke-miterlimit: 10;stroke-dasharray: 6"/>
      <line x1="746.04" y1="199.45" x2="569.99" y2="199.45" style="fill: none;stroke: #3d3c3c;stroke-miterlimit: 10;stroke-dasharray: 6"/>
      <rect x="526.98" y="90.11" width="93.23" height="20.64" style="fill: #3d3c3c"/>
      <rect x="541.27" y="57.1" width="64.65" height="20.64" style="fill: #3d3c3c"/>
      <rect x="511.45" y="166.4" width="68.18" height="20.64" style="fill: #3d3c3c"/>
      <rect x="511.45" y="190.51" width="68.18" height="20.64" style="fill: #3d3c3c"/>
      <rect x="526.98" y="123.45" width="93.23" height="20.64" style="fill: #3d3c3c"/>
      <rect x="464.19" y="57.38" width="30.92" height="86.83" style="fill: #3d3c3c"/>
      <line x1="545.54" y1="100.59" x2="472" y2="100.59" style="fill: none;stroke: #3d3c3c;stroke-miterlimit: 10;stroke-dasharray: 6"/>
      <line x1="661.2" y1="100.79" x2="611.75" y2="100.79" style="fill: none;stroke: #3d3c3c;stroke-miterlimit: 10"/>
      <line x1="950" y1="32.34" x2="866.35" y2="32.34" style="fill: none;stroke: #3d3c3c;stroke-miterlimit: 10"/>
      <path d="M608.15,66.14c12.53,0,16.87,8.27,22.67,17.33s10.14,17.32,22.67,17.32" style="fill: none;stroke: #3d3c3c;stroke-miterlimit: 10;stroke-dasharray: 6"/>
      <path d="M121.36,128.36c14.51,0,19.54,8,26.25,16.72s11.75,16.72,26.26,16.72" style="fill: none;stroke: #3d3c3c;stroke-miterlimit: 10;stroke-dasharray: 6"/>
      <path d="M611.75,35.26c11.53,0,15.53,15.64,20.87,32.77s9.33,32.76,20.87,32.76" style="fill: none;stroke: #3d3c3c;stroke-miterlimit: 10"/>
      <path d="M682.54-31c18.91,0,25.46,9.19,34.22,19.26S732.06,7.52,751,7.52" style="fill: none;stroke: #3d3c3c;stroke-miterlimit: 10;stroke-dasharray: 6"/>
      <rect x="170.01" y="-12.39" width="64.65" height="20.64" style="fill: #3d3c3c"/>
      <rect x="267.41" y="-41.32" width="30.92" height="102.12" style="fill: #3d3c3c"/>
      <rect x="460.25" y="-44.04" width="38.79" height="87.73" style="fill: #3d3c3c"/>
      <rect x="464.19" y="57.38" width="30.92" height="86.83" style="fill: #3d3c3c"/>
      <rect x="460.25" y="-44.04" width="38.79" height="87.73" style="fill: #3d3c3c"/>
      <rect x="-11.36" y="51.41" width="30.92" height="86.83" style="fill: #3d3c3c"/>
      <rect x="-15.29" y="151.93" width="38.79" height="87.73" style="fill: #3d3c3c"/>
      <rect x="530.35" y="22.15" width="86.49" height="24.52" style="fill: #3d3c3c"/>
      <line x1="535.47" y1="34.41" x2="492.45" y2="34.41" style="fill: none;stroke: #3d3c3c;stroke-miterlimit: 10"/>
      <line x1="548.54" y1="68.03" x2="492.45" y2="68.03" style="fill: none;stroke: #3d3c3c;stroke-miterlimit: 10"/>
      <line x1="467.41" y1="68.03" x2="411.32" y2="68.03" style="fill: none;stroke: #3d3c3c;stroke-miterlimit: 10"/>
      <rect x="44.19" y="20.83" width="93.07" height="20.64" style="fill: #3d3c3c"/>
      <line x1="536.82" y1="198.84" x2="425" y2="198.84" style="fill: none;stroke: #3d3c3c;stroke-miterlimit: 10"/>
      <rect x="345.21" y="23" width="75.33" height="24.52" style="fill: #3d3c3c"/>
      <rect x="605.92" y="164.47" width="75.33" height="24.52" style="fill: #3d3c3c"/>
      <rect x="58.4" y="119.85" width="64.65" height="20.64" style="fill: #3d3c3c"/>
      <rect x="170.03" y="97.04" width="64.65" height="20.64" style="fill: #3d3c3c"/>
      <path d="M56.16,131.45c-12.53,0-16.87-8.26-22.67-17.32S23.35,96.8,10.83,96.8" style="fill: none;stroke: #3d3c3c;stroke-miterlimit: 10;stroke-dasharray: 6"/>
      <rect x="47.47" y="150.92" width="86.49" height="24.52" style="fill: #3d3c3c"/>
      <line x1="119.66" y1="64.19" x2="175.57" y2="64.19" style="fill: none;stroke: #3d3c3c;stroke-miterlimit: 10"/>
      <line x1="121.36" y1="196.22" x2="165.61" y2="196.22" style="fill: none;stroke: #3d3c3c;stroke-miterlimit: 10"/>
      <line x1="7.81" y1="196.22" x2="52.06" y2="196.22" style="fill: none;stroke: #3d3c3c;stroke-miterlimit: 10"/>
      <rect x="44.19" y="53.84" width="93.07" height="20.64" style="fill: #3d3c3c"/>
      <rect x="53.06" y="-14.11" width="75.33" height="24.52" style="fill: #3d3c3c"/>
      <rect x="729.64" y="187.27" width="75.33" height="24.52" style="fill: #3d3c3c"/>
      <rect x="720.77" y="156.08" width="93.07" height="20.64" style="fill: #3d3c3c"/>
      <line x1="359.58" y1="64.19" x2="221.46" y2="64.19" style="fill: none;stroke: #3d3c3c;stroke-miterlimit: 10"/>
      <g>
        <line x1="267.41" y1="1.87" x2="264.41" y2="1.87" style="fill: none;stroke: #3d3c3c;stroke-miterlimit: 10"/>
        <line x1="257.44" y1="1.87" x2="233.04" y2="1.87" style="fill: none;stroke: #3d3c3c;stroke-miterlimit: 10;stroke-dasharray: 6.971138000488281,6.971138000488281"/>
        <line x1="229.55" y1="1.87" x2="226.55" y2="1.87" style="fill: none;stroke: #3d3c3c;stroke-miterlimit: 10"/>
      </g>
      <rect x="164.67" y="51.93" width="75.33" height="24.52" style="fill: #3d3c3c"/>
      <rect x="164.67" y="18.54" width="75.33" height="24.52" style="fill: #3d3c3c"/>
      <line x1="465.33" y1="35.19" x2="415.56" y2="35.19" style="fill: none;stroke: #3d3c3c;stroke-miterlimit: 10"/>
      <path d="M337.7-32.56c-11.51,0-15.49,8.27-20.81,17.33S307.58,2.1,296.08,2.1" style="fill: none;stroke: #3d3c3c;stroke-miterlimit: 10"/>
      <path d="M339.11,132.77c-10.57,0-14.24,5.12-19.13,10.74s-8.56,10.74-19.14,10.74" style="fill: none;stroke: #3d3c3c;stroke-miterlimit: 10"/>
      <path d="M465.33,99.43c-11.15,0-15,8.19-20.16,17.17s-9,17.17-20.17,17.17" style="fill: none;stroke: #3d3c3c;stroke-miterlimit: 10"/>
      <path d="M725.88,63.89c-12,0-16.13,8.8-21.67,18.45s-9.69,18.45-21.67,18.45" style="fill: none;stroke: #3d3c3c;stroke-miterlimit: 10"/>
      <path d="M50.09,166c-7.35,0-9.9,7-13.3,14.69s-5.95,14.7-13.3,14.7" style="fill: none;stroke: #3d3c3c;stroke-miterlimit: 10"/>
      <path d="M44.19,64.19c-8.44,0-11.36,7.82-15.26,16.39S22.1,97,13.67,97" style="fill: none;stroke: #3d3c3c;stroke-miterlimit: 10"/>
      <path d="M44.19,32.59c-8.44,0-11.36,15.36-15.26,32.18S22.1,97,13.67,97" style="fill: none;stroke: #3d3c3c;stroke-miterlimit: 10"/>
      <path d="M720.77,166c-11.49,0-15.46,2.68-20.78,5.62s-9.3,5.62-20.79,5.62" style="fill: none;stroke: #3d3c3c;stroke-miterlimit: 10"/>
      <path d="M465.33,99.43c-11.15,0-15,16.11-20.16,33.76S436.15,167,425,167" style="fill: none;stroke: #3d3c3c;stroke-miterlimit: 10"/>
      <path d="M530.35,133.19c-29.11,0-39.19,15.67-52.67,32.83S454.12,198.84,425,198.84" style="fill: none;stroke: #3d3c3c;stroke-miterlimit: 10"/>
      <path d="M465.33,99.43c-11.15,0-15,23.72-20.16,49.71s-9,49.7-20.17,49.7" style="fill: none;stroke: #3d3c3c;stroke-miterlimit: 10;stroke-dasharray: 6"/>
      <path d="M809.11,7.52c8.64,0,11.63,5.67,15.63,11.89s7,11.89,15.64,11.89" style="fill: none;stroke: #3d3c3c;stroke-miterlimit: 10"/>
      <rect x="840.38" y="145.29" width="38.79" height="87.73" style="fill: #3d3c3c"/>
      <rect x="908.92" y="186.77" width="86.49" height="24.52" style="fill: #3d3c3c"/>
      <line x1="914.5" y1="199.03" x2="855.86" y2="199.03" style="fill: none;stroke: #3d3c3c;stroke-miterlimit: 10"/>
      <line x1="856.38" y1="199.81" x2="806.76" y2="199.81" style="fill: none;stroke: #3d3c3c;stroke-miterlimit: 10"/>
      <line x1="611.75" y1="177.28" x2="562.13" y2="177.28" style="fill: none;stroke: #3d3c3c;stroke-miterlimit: 10"/>
      <rect x="919.84" y="154.12" width="64.65" height="20.64" style="fill: #3d3c3c"/>
      <rect x="919.84" y="122.41" width="64.65" height="20.64" style="fill: #3d3c3c"/>
      <line x1="922.36" y1="164.44" x2="855.86" y2="164.44" style="fill: none;stroke: #3d3c3c;stroke-miterlimit: 10"/>
      <line x1="861.48" y1="164.44" x2="777.1" y2="164.44" style="fill: none;stroke: #3d3c3c;stroke-miterlimit: 10"/>
      <path d="M922.36,165.47c-13.53,0-18.21,8.19-24.48,17.17s-11,17.17-24.48,17.17" style="fill: none;stroke: #3d3c3c;stroke-miterlimit: 10;stroke-dasharray: 6"/>
      <path d="M347.58,35.26c-12.92,0-17.39,28.39-23.37,59.49s-10.45,59.5-23.37,59.5" style="fill: none;stroke: #3d3c3c;stroke-miterlimit: 10"/>
      <path d="M221.21,63.35c13.17,0,17.73,23.57,23.82,49.39s10.66,49.39,23.83,49.39" style="fill: none;stroke: #3d3c3c;stroke-miterlimit: 10;stroke-dasharray: 6"/>
      <path d="M167.49,64.19c-9.26,0-12.47,23.51-16.76,49.26s-7.5,49.26-16.76,49.26" style="fill: none;stroke: #3d3c3c;stroke-miterlimit: 10"/>
      <rect x="263.47" y="98.38" width="38.79" height="112.09" style="fill: #3d3c3c"/>
      <rect x="159.09" y="183.18" width="86.49" height="24.52" style="fill: #3d3c3c"/>
      <rect x="47.93" y="183.18" width="86.49" height="24.52" style="fill: #3d3c3c"/>
      <line x1="210.21" y1="195.44" x2="268.86" y2="195.44" style="fill: none;stroke: #3d3c3c;stroke-miterlimit: 10"/>
      <rect x="170.01" y="150.53" width="64.65" height="20.64" style="fill: #3d3c3c"/>
      <line x1="202.35" y1="160.86" x2="268.86" y2="160.86" style="fill: none;stroke: #3d3c3c;stroke-miterlimit: 10"/>
      <line x1="589.43" y1="131.92" x2="655.94" y2="131.92" style="fill: none;stroke: #3d3c3c;stroke-miterlimit: 10"/>
      <path d="M296.08-31c15.05,0,20.27,8,27.24,16.7S335.5,2.39,350.55,2.39" style="fill: none;stroke: #3d3c3c;stroke-miterlimit: 10;stroke-dasharray: 6"/>
      <rect x="337.68" y="123.45" width="87.99" height="20.64" style="fill: #3d3c3c"/>
      <rect x="337.68" y="189.82" width="87.99" height="20.64" style="fill: #3d3c3c"/>
      <rect x="337.7" y="156.64" width="87.97" height="20.64" style="fill: #3d3c3c"/>
    </g>
  </g>
</svg>
