<svg id="Layer_1" data-name="Layer 1" xmlns="http://www.w3.org/2000/svg" viewBox="0 0 180 64.1687"><defs><style>.cls-1{fill:#fff;}</style></defs><title>concourse_white</title><path class="cls-1" d="M14.343,44.7291a9.4477,9.4477,0,0,1,3.2956,2.1723L16.0047,49a8.3079,8.3079,0,0,0-5.96-2.3209,7.244,7.244,0,0,0-3.6763.9283,6.5275,6.5275,0,0,0-2.5251,2.6087,8.5534,8.5534,0,0,0,0,7.6774A6.738,6.738,0,0,0,6.3685,60.52a7.0788,7.0788,0,0,0,3.6763.9562,9.0111,9.0111,0,0,0,3.5463-.6684,7.0468,7.0468,0,0,0,2.6551-1.931l1.7082,1.8381a9.3592,9.3592,0,0,1-3.4256,2.5437,11.2174,11.2174,0,0,1-4.5953.91A10.2565,10.2565,0,0,1,4.79,62.8969a9.0492,9.0492,0,0,1-3.5184-3.5741A10.7234,10.7234,0,0,1,0,54.05,10.5477,10.5477,0,0,1,1.29,48.786a9.0888,9.0888,0,0,1,3.5927-3.5649,10.57,10.57,0,0,1,5.1988-1.2718A11.3251,11.3251,0,0,1,14.343,44.7291Z"/><path class="cls-1" d="M34.9771,45.2211a9.1182,9.1182,0,0,1,3.6113,3.5741,10.4265,10.4265,0,0,1,1.3,5.2173,10.54,10.54,0,0,1-1.3,5.273,9.2453,9.2453,0,0,1-3.6113,3.5927,10.5759,10.5759,0,0,1-5.2452,1.29,10.6282,10.6282,0,0,1-5.2545-1.29,9.1647,9.1647,0,0,1-3.6113-3.5927,10.6,10.6,0,0,1-1.29-5.273,10.4717,10.4717,0,0,1,1.29-5.2266,9.0564,9.0564,0,0,1,3.6113-3.5649,10.7521,10.7521,0,0,1,5.2545-1.2718A10.699,10.699,0,0,1,34.9771,45.2211Zm-8.9586,2.3673a6.582,6.582,0,0,0-2.5622,2.6272,7.9234,7.9234,0,0,0-.91,3.8341,8.0171,8.0171,0,0,0,.91,3.8619,6.629,6.629,0,0,0,2.5622,2.6458,7.6886,7.6886,0,0,0,7.4268,0,6.629,6.629,0,0,0,2.5622-2.6458,8.0171,8.0171,0,0,0,.91-3.8619,7.9091,7.9091,0,0,0-.91-3.8434,6.5806,6.5806,0,0,0-2.5715-2.6179A7.7364,7.7364,0,0,0,26.0185,47.5884Z"/><path class="cls-1" d="M59.8135,45.7183a7.8393,7.8393,0,0,1,2.0145,5.7093V63.7933H58.8573V52.226a5.5568,5.5568,0,0,0-1.5039-4.14A5.6614,5.6614,0,0,0,53.1944,46.6a6.4912,6.4912,0,0,0-4.6974,1.7917,7.2861,7.2861,0,0,0-2.0424,4.6325V63.7933H43.5024V43.76h2.9521v4.4q2.0609-4.4561,7.761-4.5118A7.45,7.45,0,0,1,59.8135,45.7183Z"/><path class="cls-1" d="M79.7008,44.465a9.4477,9.4477,0,0,1,3.2956,2.1723l-1.6339,2.0981a8.3079,8.3079,0,0,0-5.96-2.3209,7.244,7.244,0,0,0-3.6763.9283,6.5275,6.5275,0,0,0-2.5251,2.6087,8.5534,8.5534,0,0,0,0,7.6774,6.738,6.738,0,0,0,2.5251,2.6272,7.0788,7.0788,0,0,0,3.6763.9562,9.0111,9.0111,0,0,0,3.5463-.6684,7.0468,7.0468,0,0,0,2.6551-1.931l1.7082,1.8381a9.3592,9.3592,0,0,1-3.4256,2.5437,11.2174,11.2174,0,0,1-4.5953.91,10.2565,10.2565,0,0,1-5.1431-1.2718A9.0492,9.0492,0,0,1,66.63,59.0587a10.7234,10.7234,0,0,1-1.2718-5.273,10.5477,10.5477,0,0,1,1.29-5.2637,9.0888,9.0888,0,0,1,3.5927-3.5649A10.57,10.57,0,0,1,75.44,43.6852,11.3251,11.3251,0,0,1,79.7008,44.465Z"/><path class="cls-1" d="M100.0708,44.9571a9.1182,9.1182,0,0,1,3.6113,3.5741,10.4265,10.4265,0,0,1,1.3,5.2173,10.54,10.54,0,0,1-1.3,5.273,9.2453,9.2453,0,0,1-3.6113,3.5927,11.3242,11.3242,0,0,1-10.5,0A9.1647,9.1647,0,0,1,85.96,59.0216a10.6,10.6,0,0,1-1.29-5.273,10.4717,10.4717,0,0,1,1.29-5.2266,9.0564,9.0564,0,0,1,3.6113-3.5649A11.4708,11.4708,0,0,1,100.0708,44.9571Zm-8.9586,2.3673A6.582,6.582,0,0,0,88.55,49.9516a7.9234,7.9234,0,0,0-.91,3.8341,8.0171,8.0171,0,0,0,.91,3.8619,6.629,6.629,0,0,0,2.5622,2.6458,7.6886,7.6886,0,0,0,7.4268,0,6.629,6.629,0,0,0,2.5622-2.6458,8.0171,8.0171,0,0,0,.91-3.8619,7.9091,7.9091,0,0,0-.91-3.8434A6.5806,6.5806,0,0,0,98.53,47.3244,7.7364,7.7364,0,0,0,91.1122,47.3244Z"/><path class="cls-1" d="M126.4844,63.7933h-2.9521v-4.53q-1.931,4.5675-7.6125,4.6417a7.2286,7.2286,0,0,1-5.4865-2.0888,7.9227,7.9227,0,0,1-1.9959-5.7093V43.76h2.9521V55.3082a5.5966,5.5966,0,0,0,1.4854,4.14,5.4945,5.4945,0,0,0,4.0662,1.4854,6.1566,6.1566,0,0,0,4.8367-2.07A7.77,7.77,0,0,0,123.5322,53.6V43.76h2.9521V63.7933Z"/><path class="cls-1" d="M136.4879,44.8457a8.1731,8.1731,0,0,1,4.3632-1.1976v2.9893a6.9107,6.9107,0,0,0-5.0131,1.736,7.1944,7.1944,0,0,0-2.1723,4.781V63.7933h-2.9521V43.76h2.9521V48.197A7.6029,7.6029,0,0,1,136.4879,44.8457Z"/><path class="cls-1" d="M154.5246,44.1216a9.5768,9.5768,0,0,1,2.915,1.3461l-1.1326,2.358a10.1216,10.1216,0,0,0-2.6179-1.1976,9.7585,9.7585,0,0,0-2.8222-.4363,5.4833,5.4833,0,0,0-2.8686.6591,2.18,2.18,0,0,0-1.0862,1.9959,2.067,2.067,0,0,0,.6127,1.5225,4.7183,4.7183,0,0,0,1.5039.9933,21.0352,21.0352,0,0,0,2.488.8262,24.32,24.32,0,0,1,3.407,1.2254,6.2042,6.2042,0,0,1,2.2373,1.7731,4.6824,4.6824,0,0,1,.9283,3.0171,4.8244,4.8244,0,0,1-2.1074,4.2611,9.0552,9.0552,0,0,1-5.2266,1.4389,12.318,12.318,0,0,1-4.224-.7427,9.9676,9.9676,0,0,1-3.4627-2.0609l1.1512-2.2466a9.3519,9.3519,0,0,0,3.0635,1.8567,9.9972,9.9972,0,0,0,3.5834.687,5.7885,5.7885,0,0,0,3.0914-.7427,2.4173,2.4173,0,0,0,1.1976-2.1909,2.3323,2.3323,0,0,0-1.1512-2.1445,15.4236,15.4236,0,0,0-3.5463-1.3832,28.5613,28.5613,0,0,1-3.3328-1.2161,5.8336,5.8336,0,0,1-2.1352-1.69,4.5322,4.5322,0,0,1-.9-2.9243,4.644,4.644,0,0,1,1.9774-4.094,8.5782,8.5782,0,0,1,4.9852-1.3647A12.675,12.675,0,0,1,154.5246,44.1216Z"/><path class="cls-1" d="M177.8241,46.7024q2.3951,3.0171,2.1538,8.2345H163.639a7.1265,7.1265,0,0,0,2.3487,4.66,7.1991,7.1991,0,0,0,4.911,1.7267,8.9341,8.9341,0,0,0,3.4349-.65A8.25,8.25,0,0,0,177.1,58.8173l1.6339,1.7453a9.8424,9.8424,0,0,1-3.5184,2.4694,11.57,11.57,0,0,1-4.54.8726,10.4363,10.4363,0,0,1-5.1988-1.2718,8.89,8.89,0,0,1-3.5184-3.5741,10.8511,10.8511,0,0,1-1.2533-5.273,10.6705,10.6705,0,0,1,1.2718-5.2637,8.9966,8.9966,0,0,1,3.5556-3.5649,10.4645,10.4645,0,0,1,5.18-1.2718Q175.429,43.6852,177.8241,46.7024Zm-2.46,1.2161a6.647,6.647,0,0,0-4.7253-1.69,6.8644,6.8644,0,0,0-4.7624,1.7082,6.9849,6.9849,0,0,0-2.2373,4.5675h13.6839A6.4485,6.4485,0,0,0,175.364,47.9185Z"/><circle class="cls-1" cx="92.1891" cy="17.6171" r="2.3628" transform="translate(-1.1433 7.7051) rotate(-4.7565)"/><path class="cls-1" d="M95.1381,19.9386a5.0208,5.0208,0,0,1-1.845,1.2866l-0.0055.0158a21.4307,21.4307,0,0,0,2.481,5.8248,9.0389,9.0389,0,0,1-3.1208.9873l-0.1543.02L92.31,28.087l-0.3676.0281c-0.2257,0-.4467.0207-0.683,0.007a9.4023,9.4023,0,0,1-2.7338-.4668,9.1152,9.1152,0,0,1-1.2057-.4827,9.6615,9.6615,0,0,1-1.0258-.571,9.2024,9.2024,0,0,1-.8128-0.5819c-0.2393-.18-0.4267-0.3624-0.5894-0.5047-0.3109-.2984-0.4824-0.4787-0.4824-0.4787s0.1444,0.2005.4149,0.5418c0.1427,0.1638.3071,0.3733,0.5232,0.5881a9.4366,9.4366,0,0,0,.7466.7052,10.0819,10.0819,0,0,0,.979.7343,9.716,9.716,0,0,0,1.1975.68,10.4043,10.4043,0,0,0,1.38.55,10.55,10.55,0,0,0,1.5071.3556c0.2542,0.0494.529,0.0657,0.7945,0.0984l0.3692,0.0219,0.1836,0.0107,0.2109,0.0034a10.6023,10.6023,0,0,0,1.5265-.0949,10.7505,10.7505,0,0,0,2.5308-.67q0.4645,0.6318.9753,1.2287l-0.0471.0291-0.4064.2514-0.056.0346-0.0142.0088-0.0036.0022c-0.0683.0341,0.0892-.0439,0.0715-0.0352l-0.0074.0038-0.03.0153-0.1233.0626-0.26.1321-0.1365.0693-0.07.0355-0.0354.0179-0.0088.0045-0.0045.0023c-0.0123.0052,0.0914-.0375,0.0453-0.0184l-0.0183.008-0.3015.1324-0.3173.1394-0.0407.0179-0.0051.0022c0.07-.025.0166-0.0057,0.0308-0.0108L96,30.6991l-0.0209.0082-0.084.0329-0.171.0668a12.4088,12.4088,0,0,1-4.869.8212l-0.216-.0078-0.244-.0193-0.4894-.0392c-0.3036-.048-0.6071-0.069-0.9186-0.1372a12.6838,12.6838,0,0,1-3.5361-1.1979c-0.27-.1349-0.5305-0.2767-0.7775-0.4306-0.2542-.143-0.4878-0.306-0.7183-0.4619a12.9632,12.9632,0,0,1-1.2364-.9691,12.3055,12.3055,0,0,1-.9511-0.9371c-0.2777-.2876-0.4869-0.5663-0.6714-0.7873-0.1795-.2247-0.3037-0.414-0.3967-0.5375l-0.1388-.1923L80.68,26.1162c0.08,0.1321.1849,0.3345,0.3416,0.5778,0.1617,0.24.3442,0.5423,0.5942,0.8607a12.5735,12.5735,0,0,0,.8684,1.05,13.3837,13.3837,0,0,0,1.1675,1.1244c0.2212,0.1852.447,0.3791,0.6952,0.5546,0.241,0.1863.4975,0.362,0.765,0.532a13.7448,13.7448,0,0,0,1.7169.9448,13.899,13.899,0,0,0,1.91.7093c0.3243,0.106.6759,0.1711,1.0142,0.257l0.484,0.0889,0.2408,0.044,0.2689,0.0384a13.9092,13.9092,0,0,0,1.9994.1247,14.1071,14.1071,0,0,0,3.5516-.496l0.1769-.0491,0.087-.0241,0.1215-.0387,0.33-.1065,0.3133-.1011,0.34-.1312,0.272-.105,0.129-.05,0.0315-.0121,0.0078-.003,0.0828-.0409,0.015-.0073,0.0592-.0288,0.43-.2088,0.5371-.261c0.365,0.3493.7411,0.6881,1.1314,1.0121,0,0,1.8593,1.9146,2.8834,1.1271,0.9628-.74-0.1463-3.0611-0.1463-3.0611A21.5059,21.5059,0,0,0,95.1381,19.9386Z"/><path class="cls-1" d="M88.6523,16.7919l-0.0108-.0129a21.43,21.43,0,0,0-6.2148-.8743,9.0281,9.0281,0,0,1,.8241-3.3055l0.065-.1413,0.0851-.163,0.1709-.3267c0.1195-.1914.219-0.39,0.3559-0.5831a9.4005,9.4005,0,0,1,1.8443-2.0713A9.1157,9.1157,0,0,1,86.82,8.547,9.6749,9.6749,0,0,1,87.8479,7.98a9.1958,9.1958,0,0,1,.9242-0.3811c0.28-.1073.5334-0.17,0.74-0.2325C89.93,7.26,90.174,7.21,90.174,7.21s-0.2465.0162-.6794,0.0649c-0.2145.0342-.4792,0.0626-0.7759,0.1321a9.46,9.46,0,0,0-.9937.26,10.0938,10.0938,0,0,0-1.1415.4413,9.7121,9.7121,0,0,0-1.211.6555,10.3977,10.3977,0,0,0-1.1979.8789,10.5478,10.5478,0,0,0-1.1,1.09c-0.1767.1894-.336,0.4139-0.5043,0.6217l-0.2142.3015-0.1063.15-0.1147.1771a10.6018,10.6018,0,0,0-.7282,1.3449,10.768,10.768,0,0,0-.798,2.6289l-0.0061.0366q-0.7692.0705-1.5323,0.1968l0.0012-.2674,0.0021-.4779,0-.0659V15.3583c0.0073-.076-0.01.0988-0.008,0.0793l0.0007-.0083,0.0029-.0336,0.0123-.1377,0.0256-.29,0.0135-.1525,0.0069-.078,0.0035-.0394,0.0008-.01,0.0005-.005c0.002-.0132-0.0167.0973-0.0084,0.0482l0.0028-.02,0.0474-.3258,0.05-.343,0.0064-.0441,0.0008-.0055c-0.0162.0729-.0039,0.017-0.0072,0.0319l0.0021-.011,0.0041-.022,0.0167-.0887,0.034-.18a12.4078,12.4078,0,0,1,1.883-4.5647l0.1211-.1791,0.1456-.1967,0.2925-.3943c0.2015-.232.38-0.4784,0.603-0.7064a12.6878,12.6878,0,0,1,2.8892-2.3645c0.2573-.1573.5157-0.3033,0.777-0.4313,0.2561-.14.518-0.2516,0.7723-0.3646a12.9673,12.9673,0,0,1,1.4769-.5352,12.3031,12.3031,0,0,1,1.2987-.31c0.391-.0832.7382-0.1129,1.0235-0.1524C90.85,3.49,91.0763,3.4849,91.23,3.4715l0.2367-.0158L91.23,3.4473c-0.1544-.0023-0.3818-0.02-0.671-0.0165-0.2888.01-.6423,0.0046-1.0448,0.048a12.572,12.572,0,0,0-1.3507.18,13.3914,13.3914,0,0,0-1.5721.3945c-0.2742.09-.5583,0.1783-0.8386,0.2959-0.2857.1057-.5706,0.23-0.8565,0.367a13.7386,13.7386,0,0,0-1.7108.9556,13.9073,13.9073,0,0,0-1.6137,1.2443c-0.2616.2188-.5031,0.4826-0.7552,0.7241l-0.3318.3634L80.32,8.1848l-0.175.2077a13.8985,13.8985,0,0,0-1.1651,1.63,14.1036,14.1036,0,0,0-1.4608,3.2751l-0.0521.176-0.0256.0866-0.0315.1236-0.0846.3362-0.08.3193q-0.0354.1845-.0689,0.3582l-0.0551.2863-0.0261.1357-0.0064.0332-0.0016.0082-0.0091.0918-0.0018.0166-0.0069.0655-0.0507.4752c-0.0465.4359-.0776,0.7289-0.09,0.845-0.4945.1343-.9856,0.2843-1.4713,0.4544,0,0-2.5987.6074-2.4513,1.8907,0.1386,1.2067,2.699,1.4515,2.699,1.4515a21.5064,21.5064,0,0,0,13.1-1.4151A5.0185,5.0185,0,0,1,88.6523,16.7919Z"/><path class="cls-1" d="M106.9532,15.3976a13.9119,13.9119,0,0,0-.321-2.0122c-0.067-.3345-0.1833-0.6727-0.2747-1.01l-0.16-.4652-0.08-.2313-0.0986-.2531a13.8957,13.8957,0,0,0-.8741-1.8026,14.1079,14.1079,0,0,0-2.1774-2.8493l-0.13-.13-0.0638-.0639L102.68,6.4938l-0.2548-.235-0.242-.2232-0.2816-.2319-0.2251-.1853L101.57,5.5305l-0.026-.0215-0.0065-.0053-0.0763-.0519-0.0137-.0095-0.0541-.0375L101,5.1332l-0.5272-.3644q0.2041-.8125.3452-1.6427s0.7255-2.5683-.469-3.06c-1.123-.4624-2.5759,1.66-2.5759,1.66a21.5069,21.5069,0,0,0-5.0983,12.15,5.02,5.02,0,0,1,2.0378.9522l0.0165-.0032a21.4286,21.4286,0,0,0,3.6961-4.8779,9.0273,9.0273,0,0,1,2.4537,2.27l0.0929,0.1247,0.1025,0.1527,0.2051,0.3063c0.111,0.1965.2376,0.3789,0.3419,0.5915a9.3995,9.3995,0,0,1,.9369,2.61A9.1312,9.1312,0,0,1,102.73,17.29a9.6819,9.6819,0,0,1,.0068,1.1739,9.2116,9.2116,0,0,1-.1073.9939c-0.04.2971-.106,0.55-0.15,0.7613-0.1071.4175-.18,0.6554-0.18,0.6554s0.1038-.2243.2679-0.6277c0.0726-.2048.1742-0.4508,0.2551-0.7446a9.4385,9.4385,0,0,0,.2472-0.9968,10.08,10.08,0,0,0,.1584-1.2135,9.7237,9.7237,0,0,0,.0036-1.377,10.399,10.399,0,0,0-.199-1.4725,10.5359,10.5359,0,0,0-.431-1.4873c-0.0818-.2457-0.2028-0.4931-0.3048-0.74l-0.1624-.3323-0.0809-.1651-0.1006-.1853a10.6117,10.6117,0,0,0-.8329-1.2828,10.766,10.766,0,0,0-1.8856-1.9236q0.3283-.7324.6016-1.4883L99.9185,6.882l0.4187,0.23,0.0577,0.0318,0.0147,0.008,0.0037,0.002c0.0632,0.0427-.082-0.056-0.0659-0.045l0.007,0.0046,0.0281,0.0187,0.1151,0.0766L100.74,7.3705l0.1275,0.0848,0.0653,0.0434,0.0329,0.0219,0.0083,0.0055,0.0042,0.0028c0.0106,0.0081-.0775-0.0611-0.0384-0.03l0.0161,0.012L101.22,7.7079l0.2775,0.2078,0.0356,0.0267,0.0045,0.0034c-0.0563-.049-0.0131-0.0116-0.0247-0.0216l0.0087,0.0071,0.0174,0.0142,0.07,0.0571,0.1423,0.116a12.4089,12.4089,0,0,1,3.1082,3.8369l0.0993,0.192,0.1031,0.222,0.2065,0.4455c0.1073,0.288.2382,0.5626,0.3319,0.8675a12.6838,12.6838,0,0,1,.6947,3.6683c0.0151,0.3012.02,0.598,0.0071,0.8887,0,0.2917-.0268.5753-0.0492,0.8526a12.9622,12.9622,0,0,1-.2364,1.553,12.2917,12.2917,0,0,1-.3487,1.2889c-0.1139.3832-.2539,0.7024-0.3556,0.9717-0.1075.2668-.2114,0.4679-0.2732,0.61l-0.0993.2153,0.1205-.2039c0.0758-.1345.2-0.3254,0.3354-0.5814,0.129-.2585.3031-0.5663,0.4574-0.9405a12.5564,12.5564,0,0,0,.4877-1.2724,13.3828,13.3828,0,0,0,.4054-1.5693c0.0526-.2837.11-0.5757,0.1413-0.878,0.0439-.3014.0708-0.6111,0.0874-0.9277A13.7506,13.7506,0,0,0,106.9532,15.3976Z"/></svg>