<svg id="Layer_1" data-name="Layer 1" xmlns="http://www.w3.org/2000/svg" viewBox="0 0 253.5872 250"><defs><style>.cls-1{fill:#d6f3f8;}.cls-2{fill:#bcbec0;}.cls-3{fill:#35bd51;}.cls-4{fill:#fff;}.cls-5{fill:#38c4e3;}.cls-6{fill:#3381e8;}.cls-7{fill:#e5f8fb;}</style></defs><title>value_prop</title><circle class="cls-1" cx="125" cy="125" r="125"/><path class="cls-2" d="M227.9582,151.2324h-4.5v-2h4.5v2Zm-9.5,0h-4.5v-2h4.5v2Zm-9.5,0h-4.5v-2h4.5v2Zm-9.5,0h-4.5v-2h4.5v2Zm-9.5,0h-4.5v-2h4.5v2Zm-9.5,0h-4.5v-2h4.5v2Zm52.7568-.3467-0.5723-1.916c1.1494-.3428,1.9521-1,1.9521-1.5986v-0.5518h2v0.5518C236.5949,148.917,235.3,150.2637,233.215,150.8857Zm3.38-9.0664h-2v-4.5h2v4.5Zm0-9.5h-2v-4.5h2v4.5Zm0-9.5h-2v-4.5h2v4.5Zm0-9.5h-2v-4.5h2v4.5Zm0-9.5h-2v-4.5h2v4.5Zm0-9.5h-2V93.6143c0.001-.58-0.7334-1.2061-1.8271-1.56l0.6152-1.9033c1.9824,0.6416,3.2129,1.9688,3.2119,3.4639v0.7041Zm-8.4844-2.5659h-4.5v-2h4.5v2Zm-9.5,0h-4.5v-2h4.5v2Z"/><rect class="cls-2" x="201.5744" y="90" width="2" height="2"/><path class="cls-2" d="M197.0436,92h-4V90h4v2Zm-9,0h-4V90h4v2Zm-9,0h-4V90h4v2Zm-9,0h-4V90h4v2Zm-9,0h-4V90h4v2Zm-9,0h-4V90h4v2Zm-9,0h-4V90h4v2Zm-9,0h-4V90h4v2Zm-9,0h-4V90h4v2Zm-9,0h-4V90h4v2Zm-9,0h-4V90h4v2Zm-9,0h-4V90h4v2Zm-9,0h-4V90h4v2Zm-9,0h-4V90h4v2Zm-9,0h-4V90h4v2Zm-9,0h-4V90h4v2Z"/><rect class="cls-2" x="50.5744" y="90" width="2" height="2"/><polygon class="cls-3" points="158.049 106.587 136.216 106.587 136.216 81.658 158.049 62.83 158.049 81.658 158.049 106.587"/><path class="cls-4" d="M158.549,107.0869H135.716V81.4292l22.833-19.69v45.3477Zm-21.833-1h20.833V63.9219L136.716,81.8872v24.2Z"/><rect class="cls-4" x="136.0744" y="81.5" width="21.833" height="1"/><path class="cls-4" d="M136.506,101.2529l-0.8633-.5059,2.53-4.3125,0.8633,0.5059Zm5.0605-8.6255-0.8633-.5059,2.5293-4.3125,0.8633,0.5059Zm5.06-8.625-0.8633-.5059,2.53-4.3125,0.8633,0.5059Zm5.0605-8.6255-0.8633-.5059,2.53-4.3125,0.8633,0.5059Zm5.06-8.625-0.8633-.5059,1.76-2.999,0.8633,0.5059Z"/><rect class="cls-5" x="28.4578" y="62.5167" width="44.4748" height="43.6662"/><path class="cls-4" d="M73.4328,106.6826H27.9582V62.0166H73.4328v44.666Zm-44.4746-1H72.4328V63.0166H28.9582v42.666Z"/><rect class="cls-4" x="28.4287" y="80.0316" width="2.4995" height="0.9994" transform="translate(-45.2642 38.7018) rotate(-40.6013)"/><path class="cls-4" d="M34.5871,76.9819l-0.65-.7588L37.57,73.1084l0.65,0.7588Zm7.2676-6.2295-0.65-.7588,3.6338-3.1152,0.65,0.7588Z"/><path class="cls-4" d="M49.1222,64.5234l-0.65-.76,1.8984-1.627a0.4991,0.4991,0,0,1,.65,0l1.8975,1.627-0.65.7588-1.5723-1.3477Z"/><path class="cls-4" d="M66.8029,76.9819l-3.6338-3.1147,0.65-.7588,3.6338,3.1147Zm-7.2676-6.2295-3.6338-3.1147,0.65-.7588,3.6338,3.1147Z"/><rect class="cls-4" x="71.212" y="79.2811" width="1.0001" height="2.5002" transform="translate(-36.1012 82.5792) rotate(-49.4036)"/><path class="cls-4" d="M51.1955,106.5869h-1v-5h1v5Zm0-10h-1v-5h1v5Zm0-10h-1v-5h1v5Zm0-10h-1v-5h1v5Zm0-10h-1V62.1123h1v4.4746Z"/><rect class="cls-4" x="28.9972" y="81.4238" width="43.666" height="1"/><polygon class="cls-5" points="126.475 106.183 82.809 106.183 82.809 82 104.642 62.197 126.475 82 126.475 106.183"/><path class="cls-4" d="M126.9757,106.6826H82.31V81.7783l22.333-20.2563,22.333,20.2563v24.9043Zm-43.666-1h42.666V82.2217l-21.333-19.35L83.31,82.2217v23.4609Z"/><polygon class="cls-6" points="82.742 81.99 126.542 81.99 104.642 62.231 82.742 81.99"/><path class="cls-4" d="M126.5422,82.49h-43.8l-0.335-.8711,21.9-19.7593h0.67l21.8994,19.7593Zm-42.499-1h41.1982L104.6427,62.9043Z"/><rect class="cls-4" x="104.1427" y="62.1968" width="1" height="19.7441"/><path class="cls-4" d="M105.1427,106.5869h-1v-5h1v5Zm0-10h-1v-5h1v5Zm0-10h-1v-5h1v5Zm0-10h-1v-5h1v5Zm0-10h-1V62.1123h1v4.4746Z"/><path class="cls-2" d="M124.37,210.0781q-2.269,0-4.5322-.0508l0.0449-2q2.24,0.05,4.4873.0508v2Zm5.0273-.0664-0.0547-2q2.2515-.0615,4.4756-0.1729l0.1,1.998Q131.674,209.9482,129.3976,210.0117Zm-14.5937-.1553q-2.2632-.1025-4.5146-0.251l0.1309-1.9961q2.2295,0.1465,4.4756.249Zm24.1309-.332-0.15-1.9941q2.2529-.17,4.4658-0.3828l0.1914,1.99Q141.2077,209.353,138.9347,209.5244Zm-33.6543-.3018q-2.2632-.1948-4.501-0.4316l0.209-1.9883q2.2207,0.2329,4.4639.4277Zm43.1563-.627L148.2,206.6094q2.2485-.2681,4.4443-0.5771l0.2773,1.98Q150.7057,208.3232,148.4367,208.5957ZM95.79,208.2168q-2.2573-.2827-4.4795-0.5977l0.2813-1.98q2.2046,0.312,4.4463.5938Zm62.1-.957-0.32-1.9746q2.2441-.3633,4.4189-0.76l0.3574,1.9668Q160.153,206.8921,157.89,207.26Zm-71.5449-.3906q-2.2515-.36-4.4561-0.75l0.3477-1.9687q2.187,0.3853,4.4248.7441Zm80.9346-1.3271-0.3984-1.959q2.2383-.4556,4.3867-0.9346l0.4336,1.9531Q169.5363,205.082,167.2795,205.542Zm-90.3262-.3379q-2.2471-.4365-4.4277-0.8936l0.4082-1.957q2.168,0.4526,4.4.8877Zm99.6406-1.7412-0.4727-1.9434q2.2368-.5449,4.35-1.1l0.5059,1.9355Q178.85,202.9121,176.5939,203.4629Zm-108.9746-.2236q-2.2441-.5112-4.3994-1.0342l0.4727-1.9434q2.14,0.52,4.37,1.0264Zm118.2051-2.207-0.5449-1.9238q2.2471-.6357,4.3047-1.2617l0.58,1.9141Q188.0915,200.3892,185.8244,201.0322Zm-127.4727-.0527q-2.2456-.5845-4.3652-1.1729l0.5332-1.9277q2.1035,0.583,4.3359,1.165Zm-9.1953-2.5566q-2.26-.6709-4.3242-1.3223l0.6016-1.9082q2.0464,0.646,4.291,1.3125Zm145.8018-.168-0.6191-1.9023c1.5381-.5,2.957-0.98,4.249-1.4307l0.6582,1.8887C197.9425,197.2646,196.51,197.749,194.9582,198.2549ZM40.0529,195.5342c-1.5537-.5293-2.9824-1.0361-4.2725-1.5137l0.6934-1.875c1.2764,0.4717,2.6875.9727,4.2236,1.4961Zm163.9258-.4365-0.7051-1.8711c2.66-1.0029,4.1406-1.6387,4.1553-1.6445l0.791,1.8359C208.1593,193.4443,206.6877,194.0771,203.9787,195.0977ZM31.0744,192.167c-3.9424-1.6836-4.1416-2.1787-4.1387-2.8477v-0.4258h1.89a0.5555,0.5555,0,0,0-.0908-0.125,1.3171,1.3171,0,0,0,.1729.125l0.0283,0.0186a22.2737,22.2737,0,0,0,2.9238,1.415Zm-2.1387-2.8506v0Zm0-5.4229h-2v-4.5h2v4.5Zm0-9.5h-2v-4.5h2v4.5Zm0-9.5h-2v-4.5h2v4.5Zm0-9.5h-2v-2.84a3.04,3.04,0,0,1,.9775-2.1748l1.4063,1.4219a1.088,1.088,0,0,0-.3838.7529v2.84Zm46.85-4.7012h-4.5v-2h4.5v2Zm-9.5,0h-4.5v-2h4.5v2Zm-9.5,0h-4.5v-2h4.5v2Zm-9.5,0h-4.5v-2h4.5v2Zm-9.5,0h-4.5v-2h4.5v2Z"/><polygon class="cls-6" points="157.557 122.659 146.574 159.217 149.399 167.219 157.636 165.336 166.344 167.219 169.168 159.217 157.557 122.659"/><polygon class="cls-5" points="157.583 165.336 157.557 122.659 169.168 159.217 166.344 167.219 157.583 165.336"/><polygon class="cls-3" points="155.661 165.78 157.583 122.816 159.479 165.754 157.597 167.532 155.661 165.78"/><polygon class="cls-6" points="126.057 122.659 115.074 159.217 117.899 167.219 126.136 165.336 134.844 167.219 137.668 159.217 126.057 122.659"/><polygon class="cls-5" points="126.083 165.336 126.057 122.659 137.668 159.217 134.844 167.219 126.083 165.336"/><polygon class="cls-3" points="124.161 165.78 126.083 122.816 127.979 165.754 126.097 167.532 124.161 165.78"/><polygon class="cls-6" points="94.557 122.659 83.574 159.217 86.399 167.219 94.636 165.336 103.344 167.219 106.168 159.217 94.557 122.659"/><polygon class="cls-5" points="94.583 165.336 94.557 122.659 106.168 159.217 103.344 167.219 94.583 165.336"/><polygon class="cls-3" points="92.661 165.78 94.583 122.816 96.479 165.754 94.597 167.532 92.661 165.78"/><polygon class="cls-6" points="253.587 168.343 216.313 176.574 210.703 182.94 216.362 189.215 218.963 197.736 227.327 196.301 253.587 168.343"/><polygon class="cls-5" points="216.337 189.169 253.587 168.343 227.327 196.301 218.963 197.736 216.337 189.169"/><polygon class="cls-3" points="215.012 187.707 253.463 168.443 216.896 191.028 214.425 190.251 215.012 187.707"/><polygon class="cls-3" points="189.815 106.412 167.982 106.412 167.982 100.311 189.815 62.655 189.815 81.483 189.815 106.412"/><path class="cls-4" d="M190.3146,106.9121h-22.833v-6.7354l0.0674-.1167,22.7656-39.2642v46.1162Zm-21.833-1h20.833V64.5146l-20.833,35.9307v5.4668Z"/><polygon class="cls-6" points="167.849 100.311 189.815 81.483 189.815 62.655 167.849 100.311"/><path class="cls-4" d="M168.174,100.69l-0.7568-.6313L189.383,62.4033l0.9316,0.252V81.4834l-0.1748.3794Zm21.1406-36.1855-19.54,33.4966,19.54-16.748V64.5049Z"/><path class="cls-4" d="M179.6222,106.27l-0.9707-.2363,1.1826-4.8584,0.9707,0.2363Zm2.3652-9.7163-0.9707-.2363,1.1816-4.8584,0.9707,0.2363Zm2.3643-9.7163-0.9707-.2363,1.1826-4.8584,0.9707,0.2363Zm2.3652-9.7163-0.9707-.2363,1.1826-4.8584L187.9,72.2622Zm2.3662-9.7163-0.9717-.2363,0.5557-2.2847,0.9707,0.2363Z"/><circle class="cls-4" cx="189.2284" cy="64.9703" r="0.5"/><rect class="cls-7" x="200.1994" y="87.375" width="21.875" height="6.75"/><polygon class="cls-6" points="210.618 62.039 199.635 98.597 202.459 106.598 210.696 104.716 219.404 106.598 222.228 98.597 210.618 62.039"/><polygon class="cls-5" points="210.644 104.716 210.618 62.039 222.228 98.597 219.404 106.598 210.644 104.716"/><polygon class="cls-3" points="208.722 105.16 210.644 62.196 212.54 105.134 210.657 106.912 208.722 105.16"/></svg>