<svg id="Layer_1" data-name="Layer 1" xmlns="http://www.w3.org/2000/svg" xmlns:xlink="http://www.w3.org/1999/xlink" viewBox="0 0 260.4258 250">
  <defs>
    <style>
      .cls-1 {
        fill: #d6eaf8;
      }

      .cls-2 {
        fill: #5dade2;
      }

      .cls-3 {
        clip-path: url(#clip-path);
      }

      .cls-4 {
        fill: #f5f6f7;
      }

      .cls-5, .cls-6, .cls-7, .cls-8 {
        fill: none;
        stroke-miterlimit: 10;
        stroke-width: 2px;
      }

      .cls-5, .cls-6 {
        stroke: #bcbec0;
      }

      .cls-6 {
        stroke-dasharray: 4.9749 6.9649;
      }

      .cls-7, .cls-8 {
        stroke: #5dade2;
      }

      .cls-8 {
        stroke-dasharray: 4.8944 10.7678;
      }

      .cls-9 {
        fill: #fff;
      }

      .cls-10 {
        fill: #bcbec0;
      }

      .cls-11 {
        clip-path: url(#clip-path-2);
      }

      .cls-12 {
        fill: #2772a4;
      }

      .cls-13 {
        fill: #2ecc71;
      }
    </style>
    <clipPath id="clip-path">
      <circle class="cls-1" cx="130.3278" cy="125" r="125"/>
    </clipPath>
    <clipPath id="clip-path-2">
      <path class="cls-2" d="M153.7062,64.268c-0.03,0-.78.0027-0.78,0.0027V64.2564l-14.2145-.0345-7.3778-24.2226-3.76-2.57-2.8477-.0068,3.82,26.7749-18.4911-.0429-4.3272-7.1517-6.4714-.015,3.2934,11.1692-3.341,11.153,6.4775,0.015,4.3713-7.1308,18.4961,0.0429L124.67,98.8728l2.9343,0.0068,3.9449-2.5514,7.1149-24.0669,14.2618,0.0346V72.28l0.7711,0.0033c3.1676,0.0073,5.735-1.781,5.74-3.9943S156.8738,64.2754,153.7062,64.268Z"/>
    </clipPath>
  </defs>
  <title>value_prop_flat_colorscheme</title>
  <g>
    <circle class="cls-1" cx="130.3278" cy="125" r="125"/>
    <g class="cls-3">
      <path class="cls-4" d="M168.9371,33.3383c0.808-4.539,5.5869-7.14,9.9773-8.5473,4.0991-1.3137,8.6542-2.1475,12.6317-.5017s6.7953,6.6138,4.7868,10.421c3.0534-1.3621,6.2246-2.75,9.5679-2.7294s6.9213,1.8589,7.8677,5.0656c1.2608,4.2719-2.5727,8.4256-6.615,10.296,2.9183,0.4658,4.6931,3.9458,3.96,6.8088s-3.3764,4.9381-6.2194,5.7445a20.9764,20.9764,0,0,1-8.7962.1086c-4.2031-.6273-8.5921-1.7288-11.5989-4.7319a24.2577,24.2577,0,0,1-13.049,4.1945c-3.2031.0724-6.6864-.6481-8.7676-3.084s-1.7974-6.9042,1.1326-8.2c-4.7484.306-10.5385-1.21-11.8256-5.791-0.9668-3.4407,1.2694-7.1332,4.314-9.005s6.7181-2.3423,10.2664-2.7705c1.618-.1952,4.0481.5635,3.4406,2.0757l-0.5373-2.5864"/>
    </g>
  </g>
  <g>
    <path class="cls-5" d="M8.5634,111.2057a15.1939,15.1939,0,0,0,.2075,2.4878"/>
    <path class="cls-6" d="M11.2048,120.176C17.8983,131.62,35.5614,139.8522,43.5686,137.11a5.7726,5.7726,0,0,0,2.5143-1.4657,4.242,4.242,0,0,0,.1377-5.0042,7.1536,7.1536,0,0,0-4.4352-2.8126,11.15,11.15,0,0,0-8.3382,1.373c-7.7174,4.8044-5.958,15.83-.211,21.4413,4.3838,4.28,10.5839,6.2443,16.6823,6.8342,11.63,1.1251,25.2371-2.0139,33.44-10.85a16.9819,16.9819,0,0,0,4.838-11.0136c0.0652-4.1007-2.0283-8.33-5.6734-10.2095-3.6828-1.899-8.3949-1.114-11.7112,1.37a17.1962,17.1962,0,0,0-6.1435,10.488c-2.9831,14.9313,6.79,26.9568,20.7649,30.9722a70.247,70.247,0,0,0,28.3078,2.1447c5.6582-.7314,11.2322-3.5483,16.2252-6.1934,2.4476-1.2966,4.7785-3.1664,5.6947-5.78a9.5782,9.5782,0,0,0,.145-5.2571,11.057,11.057,0,0,0-6.8848-7.98,9.6212,9.6212,0,0,0-8.7515,1.1149c-3.0335,2.1861-3.6653,5.6221-3.4894,9.1218a34.12,34.12,0,0,0,1.8368,10.4011c4.0378,10.6708,15.6529,12.0168,25.6762,10.8572a77.6279,77.6279,0,0,0,29.0483-9.735,98.4381,98.4381,0,0,0,12.6429-8.52c3.8219-3.0177,8.1983-6.3066,11.0714-10.2666,2.9106-4.0117,2.61-8.43,3.9306-12.9491a6.0252,6.0252,0,0,1,1.5735-2.9849,4.6085,4.6085,0,0,1,3.4292-.89c3.3719,0.2941,6.1189,2.56,8.8026,4.4056,3.9231,2.6975,7.7213,5.4873,11.7772,7.9841a10.2979,10.2979,0,0,0,4.3717,1.6876,4.6966,4.6966,0,0,0,4.2081-1.6577,5.59,5.59,0,0,0,.9183-2.7941c0.7089-7.2222-10.4982-21.8465-6.184-25.5931,5.9107-5.1329,7.392,3.0289,9.2543,3.8293a17.6853,17.6853,0,0,0,6.5129,1.4977,5.7675,5.7675,0,0,0,4.1489-1.5491,3.9714,3.9714,0,0,0,1.1039-2.826"/>
    <path class="cls-5" d="M250.8384,112.8206A2.697,2.697,0,0,1,252.4258,111"/>
  </g>
  <g>
    <path class="cls-7" d="M5.7276,104.6218a3.8,3.8,0,0,1,1.1893-2.1468"/>
    <path class="cls-8" d="M15.4516,95.957c18.8649-11.753,63.1444-29.97,114.7614-29.97,56.2657,0,103.8128,21.6461,119.2268,32.97"/>
    <path class="cls-7" d="M253.509,102.475a3.8,3.8,0,0,1,1.1893,2.1468"/>
  </g>
  <circle class="cls-9" cx="7.09" cy="104.5932" r="5.5899"/>
  <path class="cls-10" d="M7.09,111.6831a7.09,7.09,0,1,1,7.09-7.09A7.0981,7.0981,0,0,1,7.09,111.6831Zm0-11.18a4.09,4.09,0,1,0,4.09,4.09A4.0942,4.0942,0,0,0,7.09,100.5034Z"/>
  <circle class="cls-2" cx="253.3359" cy="104.5933" r="7.0898"/>
  <g>
    <path class="cls-2" d="M153.7062,64.268c-0.03,0-.78.0027-0.78,0.0027V64.2564l-14.2145-.0345-7.3778-24.2226-3.76-2.57-2.8477-.0068,3.82,26.7749-18.4911-.0429-4.3272-7.1517-6.4714-.015,3.2934,11.1692-3.341,11.153,6.4775,0.015,4.3713-7.1308,18.4961,0.0429L124.67,98.8728l2.9343,0.0068,3.9449-2.5514,7.1149-24.0669,14.2618,0.0346V72.28l0.7711,0.0033c3.1676,0.0073,5.735-1.781,5.74-3.9943S156.8738,64.2754,153.7062,64.268Z"/>
    <g class="cls-11">
      <rect class="cls-12" x="98.4258" y="54" width="12" height="28"/>
      <rect class="cls-13" x="128.5258" y="34.7579" width="10.1" height="47.94"/>
      <rect class="cls-13" x="126.5103" y="73.0363" width="12.7075" height="28.2023" transform="translate(13.7692 -18.0395) rotate(8.1905)"/>
      <rect class="cls-13" x="123.8258" y="35.825" width="16.2" height="28.35"/>
      <rect class="cls-2" x="110.0814" y="63.7219" width="1" height="9.2781"/>
    </g>
  </g>
  <path class="cls-4" d="M84.9371,200.3383c0.808-4.539,5.5869-7.14,9.9773-8.5473,4.0991-1.3137,8.6542-2.1475,12.6317-.5017s6.7953,6.6138,4.7868,10.421c3.0534-1.3621,6.2246-2.75,9.5679-2.7294s6.9213,1.8589,7.8677,5.0656c1.2608,4.2719-2.5727,8.4256-6.615,10.296,2.9183,0.4658,4.6931,3.9458,3.96,6.8088s-3.3764,4.9381-6.2194,5.7445a20.9764,20.9764,0,0,1-8.7962.1086c-4.2031-.6273-8.5921-1.7288-11.5989-4.7319a24.2577,24.2577,0,0,1-13.049,4.1945c-3.2031.0724-6.6864-.6481-8.7676-3.084s-1.7974-6.9042,1.1326-8.2c-4.7484.306-10.5385-1.21-11.8256-5.791-0.9668-3.4407,1.2694-7.1332,4.314-9.005s6.7181-2.3423,10.2664-2.7705c1.618-.1952,4.0481.5635,3.4406,2.0757l-0.5373-2.5864"/>
</svg>
