<svg id="Layer_1" data-name="Layer 1" xmlns="http://www.w3.org/2000/svg" viewBox="0 0 253.5872 250">
  <defs>
    <style>
      .cls-1 {
        fill: #d8f3fa;
      }

      .cls-10, .cls-2, .cls-3, .cls-4, .cls-7, .cls-9 {
        fill: none;
      }

      .cls-2, .cls-3, .cls-4 {
        stroke: #bcbec0;
        stroke-width: 2px;
      }

      .cls-2, .cls-3, .cls-4, .cls-5, .cls-6, .cls-7, .cls-8 {
        stroke-miterlimit: 10;
      }

      .cls-2 {
        stroke-dasharray: 4.5 5;
      }

      .cls-4 {
        stroke-dasharray: 4 5;
      }

      .cls-14, .cls-5 {
        fill: #2ecc71;
      }

      .cls-10, .cls-11, .cls-15, .cls-5, .cls-6, .cls-7, .cls-8, .cls-9 {
        stroke: #fff;
      }

      .cls-16, .cls-6 {
        fill: #fff;
      }

      .cls-7 {
        stroke-dasharray: 5 5;
      }

      .cls-13, .cls-8 {
        fill: #5dade2;
      }

      .cls-10, .cls-9 {
        stroke-linejoin: round;
      }

      .cls-10 {
        stroke-dasharray: 4.7861 4.7861;
      }

      .cls-11, .cls-12, .cls-15 {
        fill: #2772a4;
      }

      .cls-11, .cls-15 {
        stroke-linejoin: bevel;
      }

      .cls-15 {
        stroke-linecap: round;
      }

      .cls-17 {
        fill: #e5f8fb;
      }
    </style>
  </defs>
  <title>value_prop_flat_colorscheme</title>
  <circle class="cls-1" cx="125" cy="125" r="125"/>
  <path class="cls-2" d="M214.1106,90.7533h16.6417c2.6745,0,4.8427,1.2808,4.8427,2.8608v53.7575c0,1.58-2.1681,2.8608-4.8427,2.8608H175.5744"/>
  <g>
    <line class="cls-3" x1="203" y1="91" x2="201" y2="91"/>
    <line class="cls-4" x1="196" y1="91" x2="55" y2="91"/>
    <line class="cls-3" x1="53" y1="91" x2="51" y2="91"/>
  </g>
  <g>
    <polygon class="cls-5" points="158.049 106.587 136.216 106.587 136.216 81.658 158.049 62.83 158.049 81.658 158.049 106.587"/>
    <line class="cls-6" x1="136.0744" y1="82" x2="157.9075" y2="82"/>
    <line class="cls-7" x1="136.0744" y1="101" x2="158.0744" y2="63.5"/>
  </g>
  <g>
    <rect class="cls-8" x="28.4578" y="62.5167" width="44.4748" height="43.6662"/>
    <g>
      <line class="cls-9" x1="28.7293" y1="81.3445" x2="30.6275" y2="79.7176"/>
      <line class="cls-10" x1="34.2614" y1="76.6028" x2="46.9801" y2="65.701"/>
      <polyline class="cls-9" points="48.797 64.144 50.695 62.517 52.593 64.144"/>
      <line class="cls-10" x1="56.2272" y1="67.2584" x2="68.9459" y2="78.1602"/>
      <line class="cls-9" x1="70.7629" y1="79.7176" x2="72.661" y2="81.3445"/>
    </g>
    <line class="cls-7" x1="50.6952" y1="106.5872" x2="50.6952" y2="62.1124"/>
    <line class="cls-9" x1="28.9968" y1="81.9239" x2="72.663" y2="81.9239"/>
  </g>
  <g>
    <polygon class="cls-8" points="126.475 106.183 82.809 106.183 82.809 82 104.642 62.197 126.475 82 126.475 106.183"/>
    <polygon class="cls-11" points="82.742 81.99 126.542 81.99 104.642 62.231 82.742 81.99"/>
    <line class="cls-6" x1="104.6423" y1="62.1968" x2="104.6423" y2="81.941"/>
    <line class="cls-7" x1="104.6423" y1="106.5872" x2="104.6423" y2="62.1124"/>
  </g>
  <path class="cls-2" d="M207.8244,192.5s-38.4811,16.5777-83.44,16.5777c-49.0463,0-96.4489-18.1748-96.4489-19.7548V152.5534c0-1.58,2.1681-2.8608,4.8427-2.8608H78.0744"/>
  <g>
    <g>
      <g>
        <polygon class="cls-12" points="157.557 122.659 146.574 159.217 149.399 167.219 157.636 165.336 166.344 167.219 169.168 159.217 157.557 122.659"/>
        <polygon class="cls-13" points="157.583 165.336 157.557 122.659 169.168 159.217 166.344 167.219 157.583 165.336"/>
      </g>
      <polygon class="cls-14" points="155.661 165.78 157.583 122.816 159.479 165.754 157.597 167.532 155.661 165.78"/>
    </g>
    <g>
      <g>
        <polygon class="cls-12" points="126.057 122.659 115.074 159.217 117.899 167.219 126.136 165.336 134.844 167.219 137.668 159.217 126.057 122.659"/>
        <polygon class="cls-13" points="126.083 165.336 126.057 122.659 137.668 159.217 134.844 167.219 126.083 165.336"/>
      </g>
      <polygon class="cls-14" points="124.161 165.78 126.083 122.816 127.979 165.754 126.097 167.532 124.161 165.78"/>
    </g>
    <g>
      <g>
        <polygon class="cls-12" points="94.557 122.659 83.574 159.217 86.399 167.219 94.636 165.336 103.344 167.219 106.168 159.217 94.557 122.659"/>
        <polygon class="cls-13" points="94.583 165.336 94.557 122.659 106.168 159.217 103.344 167.219 94.583 165.336"/>
      </g>
      <polygon class="cls-14" points="92.661 165.78 94.583 122.816 96.479 165.754 94.597 167.532 92.661 165.78"/>
    </g>
  </g>
  <g>
    <g>
      <polygon class="cls-12" points="253.587 168.343 216.313 176.574 210.703 182.94 216.362 189.215 218.963 197.736 227.327 196.301 253.587 168.343"/>
      <polygon class="cls-13" points="216.337 189.169 253.587 168.343 227.327 196.301 218.963 197.736 216.337 189.169"/>
    </g>
    <polygon class="cls-14" points="215.012 187.707 253.463 168.443 216.896 191.028 214.425 190.251 215.012 187.707"/>
  </g>
  <g>
    <polygon class="cls-5" points="189.815 106.412 167.982 106.412 167.982 100.311 189.815 62.655 189.815 81.483 189.815 106.412"/>
    <polygon class="cls-15" points="167.849 100.311 189.815 81.483 189.815 62.655 167.849 100.311"/>
    <line class="cls-7" x1="179.137" y1="106.1513" x2="189.1527" y2="65.0013"/>
    <circle class="cls-16" cx="189.2284" cy="64.9703" r="0.5"/>
  </g>
  <rect class="cls-17" x="200.1994" y="87.375" width="21.875" height="6.75"/>
  <g>
    <g>
      <polygon class="cls-12" points="210.618 62.039 199.635 98.597 202.459 106.598 210.696 104.716 219.404 106.598 222.228 98.597 210.618 62.039"/>
      <polygon class="cls-13" points="210.644 104.716 210.618 62.039 222.228 98.597 219.404 106.598 210.644 104.716"/>
    </g>
    <polygon class="cls-14" points="208.722 105.16 210.644 62.196 212.54 105.134 210.657 106.912 208.722 105.16"/>
  </g>
</svg>
