<?xml version="1.0" encoding="UTF-8" standalone="no"?>
<svg width="109px" height="81px" viewBox="0 0 109 81" version="1.1" xmlns="http://www.w3.org/2000/svg" xmlns:xlink="http://www.w3.org/1999/xlink">
    <!-- Generator: Sketch 3.6.1 (26313) - http://www.bohemiancoding.com/sketch -->
    <title>Group 8</title>
    <desc>Created with Sketch.</desc>
    <defs>
        <linearGradient x1="50%" y1="0%" x2="50%" y2="100%" id="linearGradient-1">
            <stop stop-color="#F8F8F8" offset="0%"></stop>
            <stop stop-color="#DCF4FA" offset="100%"></stop>
        </linearGradient>
    </defs>
    <g id="Page-1" stroke="none" stroke-width="1" fill="none" fill-rule="evenodd">
        <g id="Community-Page-Copy-10" transform="translate(-684.000000, -1129.000000)">
            <g id="Group-8" transform="translate(684.000000, 1129.000000)">
                <g id="noun_27709_cc-copy">
                    <g id="Group">
                        <path d="M12.281,66.685 C12.01,66.202 11.947,65.613 12.196,65.118 C13.982,61.576 14.887,57.796 14.887,53.878 C5.413,48.079 0,39.813 0,31.088 C0,14.196 20.187,0.453 45,0.453 C69.812,0.453 90,14.196 90,31.088 C90,47.98 69.812,61.723 45,61.723 C40.767,61.723 36.567,61.322 32.505,60.531 C27.327,65.062 20.75,67.547 13.888,67.547 C13.094,67.488 12.551,67.169 12.281,66.685 Z M45,3.786 C22.025,3.786 3.333,16.034 3.333,31.088 C3.333,38.832 8.439,46.259 17.345,51.463 C17.833,51.747 18.143,52.262 18.169,52.826 L18.189,53.15 C18.207,53.392 18.222,53.633 18.222,53.878 C18.222,57.403 17.577,60.829 16.3,64.096 C21.72,63.571 26.824,61.278 30.878,57.509 C31.275,57.14 31.824,56.988 32.355,57.099 C36.45,57.955 40.705,58.39 45,58.39 C67.976,58.39 86.667,46.142 86.667,31.088 C86.667,16.034 67.976,3.786 45,3.786 L45,3.786 Z" id="Shape" fill="#5DADE2"></path>
                        <path d="M45,3.786 C22.025,3.786 3.333,16.034 3.333,31.088 C3.333,38.832 8.439,46.259 17.345,51.463 C17.833,51.747 18.143,52.262 18.169,52.826 L18.189,53.15 C18.207,53.392 18.222,53.633 18.222,53.878 C18.222,57.403 17.577,60.829 16.3,64.096 C21.72,63.571 26.824,61.278 30.878,57.509 C31.275,57.14 31.824,56.988 32.355,57.099 C36.45,57.955 40.705,58.39 45,58.39 C67.976,58.39 86.667,46.142 86.667,31.088 C86.667,16.034 67.976,3.786 45,3.786 L45,3.786 Z" id="Path" fill="url(#linearGradient-1)"></path>
                    </g>
                </g>
                <g id="Group-4" transform="translate(22.000000, 20.000000)" stroke-width="3" stroke-linecap="round">
                    <path d="M1.5,1.5 L41.699501,1.5" id="Line" stroke="#2772A4"></path>
                    <path d="M4.5,10.5 L44.699501,10.5" id="Line" stroke="#2ECC71"></path>
                    <path d="M0.5,20.5 L40.699501,20.5" id="Line" stroke="#5DADE2"></path>
                </g>
                <g id="noun_27709_cc-copy-2" transform="translate(74.000000, 54.500000) scale(-1, 1) translate(-74.000000, -54.500000) translate(39.000000, 28.000000)">
                    <g id="Group">
                        <path d="M10.8017778,52.5365556 C10.766,52.5365556 10.6501111,52.5295556 10.6135556,52.5272222 C10.1842222,52.4906667 9.76188889,52.2425556 9.55188889,51.8661111 C9.34111111,51.4904444 9.29211111,51.0323333 9.48577778,50.6473333 C10.8748889,47.8924444 11.5787778,44.9524444 11.5787778,41.9051111 C11.5787778,41.9051111 11.5787778,41.9051111 11.5787778,41.9035556 C4.21011111,37.3947778 0,30.9656667 0,24.1795556 C0,11.0413333 15.701,0.352333333 35,0.352333333 C54.2982222,0.352333333 70,11.0413333 70,24.1795556 C70,37.3177778 54.2982222,48.0067778 35,48.0067778 C31.7076667,48.0067778 28.441,47.6948889 25.2816667,47.0796667 C21.2543333,50.6037778 16.1388889,52.5365556 10.8017778,52.5365556 L10.8017778,52.5365556 Z" id="Shape" fill="#5DADE2"></path>
                        <path d="M34.9099998,4.35233333 C17.8663623,4.35233333 4,13.4383169 4,24.6058869 C4,30.3506499 7.78780472,35.8602514 14.3945789,39.7207559 C14.7565939,39.9314368 14.9865625,40.3134813 15.0058501,40.7318757 L15.0206868,40.97223 C15.0340398,41.1517538 15.0451673,41.3305358 15.0451673,41.5122852 C15.0451673,44.1272502 14.5666844,46.6687737 13.6193623,49.0923456 C17.6401029,48.7028827 21.4264239,47.0018572 24.4338192,44.2058846 C24.7283274,43.9321479 25.1355943,43.8193891 25.5295081,43.9017327 C28.5673186,44.5367426 31.7238226,44.8594404 34.9099998,44.8594404 C51.9543792,44.8594404 65.8199997,35.7734568 65.8199997,24.6058869 C65.8199997,13.4383169 51.9543792,4.35233333 34.9099998,4.35233333 L34.9099998,4.35233333 Z" id="Path" fill="url(#linearGradient-1)"></path>
                    </g>
                </g>
                <path d="M65.6686415,45 L58.7077018,51.8592268 C58.3168489,52.2443686 58.3197487,52.8716642 58.7077018,53.2539486 L65.6686415,60.1131752" id="Line" stroke="#2772A4" stroke-width="3" stroke-linecap="round"></path>
                <path d="M88.252993,45 L81.2920533,51.8592268 C80.9012004,52.2443686 80.9041002,52.8716642 81.2920533,53.2539486 L88.252993,60.1131752" id="Line" stroke="#5DADE2" stroke-width="3" stroke-linecap="round" transform="translate(84.626497, 52.556588) scale(-1, 1) translate(-84.626497, -52.556588) "></path>
                <path d="M76.3270283,42 L71,63.8018643" id="Line" stroke="#2ECC71" stroke-width="3" stroke-linecap="round"></path>
            </g>
        </g>
    </g>
</svg>