<?xml version="1.0" encoding="UTF-8" standalone="no"?>
<svg width="72px" height="56px" viewBox="0 0 72 56" version="1.1" xmlns="http://www.w3.org/2000/svg" xmlns:xlink="http://www.w3.org/1999/xlink">
    <!-- Generator: Sketch 3.6.1 (26313) - http://www.bohemiancoding.com/sketch -->
    <title>Group 3</title>
    <desc>Created with Sketch.</desc>
    <defs>
        <linearGradient x1="50%" y1="0%" x2="50%" y2="100%" id="linearGradient-1">
            <stop stop-color="#F8F8F8" offset="0%"></stop>
            <stop stop-color="#DCF4FA" offset="100%"></stop>
        </linearGradient>
    </defs>
    <g id="Page-1" stroke="none" stroke-width="1" fill="none" fill-rule="evenodd">
        <g id="Community-Page-Copy-10" transform="translate(-703.000000, -861.000000)">
            <g id="Group-3" transform="translate(703.000000, 861.000000)">
                <g id="noun_221802_cc-copy-3">
                    <g id="Group">
                        <path d="M62.9363636,0.724818182 L6.16818182,0.724818182 C2.92727273,0.724818182 0.313636364,3.31345455 0.313636364,6.52336364 L0.313636364,45.0422727 C0.313636364,48.2521818 2.92727273,50.9443636 6.16818182,50.9443636 L62.9363636,50.9443636 C66.1772727,50.9443636 68.8954545,48.3557273 68.8954545,45.0422727 L68.8954545,6.52336364 C68.7909091,3.417 66.1772727,0.724818182 62.9363636,0.724818182 L62.9363636,0.724818182 Z" id="Shape" fill="#5DADE2"></path>
                        <path d="M6.69090909,47.1131818 L6.58636364,47.1131818 L29.0636364,25.5757273 L33.9772727,29.4069091 C34.2909091,29.614 34.7090909,29.8210909 35.0227273,29.8210909 C35.3363636,29.8210909 35.7545455,29.7175455 36.0681818,29.4069091 L40.9818182,25.5757273 L63.4590909,47.1131818 L63.3545455,47.1131818 L6.69090909,47.1131818 L6.69090909,47.1131818 Z" id="Path" fill="url(#linearGradient-1)"></path>
                        <path d="M6.58636364,3.83118182 L62.8318182,3.83118182 L34.7090909,26.0934545 L6.58636364,3.83118182 L6.58636364,3.83118182 Z" id="Path" fill="url(#linearGradient-1)"></path>
                        <path d="M3.45,44.6280909 L3.45,6.10918182 L3.45,5.90209091 L25.6136364,23.4012727 L3.45,44.6280909 L3.45,44.6280909 Z" id="Path" fill="url(#linearGradient-1)"></path>
                        <path d="M43.1772727,23.4012727 L65.3409091,5.90209091 L65.3409091,6.10918182 L65.3409091,44.5245455 L43.1772727,23.4012727 L43.1772727,23.4012727 Z" id="Path" fill="url(#linearGradient-1)"></path>
                    </g>
                </g>
                <g id="Group-2" transform="translate(43.000000, 17.000000)">
                    <text id="" font-family="FontAwesome" font-size="45" font-weight="normal" fill="#2C97DE">
                        <tspan x="0" y="39"></tspan>
                    </text>
                    <path d="M8.05908413,14.2803695 C8.07718459,12.6231251 9.38717825,11.6301471 10.9840764,12.0622312 L14.1077815,12.9074343 C15.7051097,13.3396348 17,15.0365196 17,16.6900024 L17,19.6900024 L8,19.6900024 L8.05908413,14.2803695 Z" id="Rectangle-356" fill="#FFFFFF"></path>
                </g>
            </g>
        </g>
    </g>
</svg>