<?xml version="1.0" encoding="UTF-8" standalone="no"?>
<svg width="29px" height="29px" viewBox="0 0 29 29" version="1.1" xmlns="http://www.w3.org/2000/svg" xmlns:xlink="http://www.w3.org/1999/xlink">
    <!-- Generator: Sketch 47 (45396) - http://www.bohemiancoding.com/sketch -->
    <title>concourse_logo_white</title>
    <desc>Created with Sketch.</desc>
    <defs></defs>
    <g id="Page-1" stroke="none" stroke-width="1" fill="none" fill-rule="evenodd">
        <g id="Mobile_dashboard" transform="translate(-20.000000, -16.000000)">
            <g id="concourse_logo_white" transform="translate(19.000000, 15.000000)">
                <rect id="Rectangle-4" x="0" y="0" width="32" height="32"></rect>
                <path d="M15.0070058,16.1658406 C15.0985248,17.2665602 16.0651439,18.084583 17.1658156,17.9930025 C18.2666125,17.901422 19.0845836,16.9348785 18.9930019,15.8341589 C18.9014829,14.733502 17.9348638,13.9154166 16.8341921,14.006997 C15.7335205,14.0985775 14.9153615,15.065121 15.0070058,16.1658406" id="Fill-1" fill="#FEFEFE"></path>
                <path d="M19.6332081,18 C19.1917921,18.4906853 18.6453779,18.8749274 18.0342457,19.1228859 L18.0294993,19.1367081 C18.494519,20.9424327 19.2248246,22.6523712 20.1797507,24.2201487 C19.7319206,24.4587417 19.1976289,24.6875172 18.6068935,24.8529952 C18.2476416,24.951946 17.8677365,25.033264 17.4750674,25.0817706 L17.3413341,25.0989514 L17.1823936,25.111288 L16.8638711,25.1358965 C16.6682421,25.1358965 16.4767181,25.153917 16.2718528,25.1419033 C15.8649445,25.1372529 15.4586134,25.0888755 15.0592737,25.0244153 C14.6618582,24.9517523 14.2712416,24.859002 13.9026252,24.7345383 C13.5310584,24.6175024 13.1821973,24.469399 12.8577097,24.3132865 C12.5327732,24.157497 12.2359302,23.9858831 11.9687202,23.8149796 C11.7037552,23.6412989 11.4641257,23.4725915 11.2642634,23.3070489 C11.0568966,23.1495801 10.8944925,22.9907549 10.7535113,22.8666141 C10.4839923,22.6061253 10.3354425,22.4487856 10.3354425,22.4487856 C10.3354425,22.4487856 10.4605809,22.6237582 10.695015,22.9216443 C10.8186782,23.0646451 10.9611346,23.247433 11.1484253,23.4348713 C11.3282116,23.6303187 11.5477651,23.8348732 11.7955404,24.0503432 C12.0454324,24.2631006 12.3278438,24.482446 12.6439289,24.6911988 C12.9596934,24.90021 13.3054757,25.1063146 13.6817889,25.2845812 C14.0552158,25.4702756 14.4585964,25.6273569 14.8778839,25.7649323 C15.2992239,25.8941756 15.7366632,26.0078528 16.1840443,26.0752841 C16.4043674,26.1184298 16.6425217,26.1326395 16.8725942,26.1611234 L17.1925278,26.1802418 L17.3515967,26.1896073 L17.5343334,26.1925784 C17.9841518,26.198779 18.4287107,26.1666135 18.8572986,26.1097748 C19.6734243,25.9969372 20.412453,25.7826943 21.0506525,25.5251766 C21.3190171,25.8927546 21.6011077,26.2501275 21.8958981,26.597489 C21.8819155,26.606144 21.869408,26.6139593 21.8550405,26.6228727 C21.7487595,26.6891413 21.6310614,26.7624503 21.5028442,26.8423473 L21.4542897,26.8725751 L21.4420388,26.8801966 L21.4389601,26.8821343 C21.3797583,26.9118454 21.5161854,26.8438328 21.50092,26.8513898 L21.4945059,26.8547484 L21.4684006,26.8680538 C21.4335081,26.8859451 21.3978459,26.9041593 21.3615423,26.9226964 C21.2889992,26.9598353 21.2138905,26.998266 21.1362803,27.0379884 L21.0180049,27.0985087 L20.9575203,27.129447 L20.9268611,27.1451422 L20.9192283,27.1490175 L20.9153158,27.1510198 C20.9046684,27.1556057 20.9945295,27.1183376 20.954634,27.1349371 L20.9387912,27.1419127 C20.8540614,27.1794391 20.7669584,27.217999 20.6774822,27.2575277 C20.5881343,27.2971209 20.4964131,27.3376831 20.4024471,27.379214 L20.3671697,27.3948446 L20.362744,27.3967823 C20.4237417,27.3750157 20.3771115,27.3918089 20.3894906,27.3873523 L20.3804468,27.3909047 L20.3623591,27.3980095 L20.2895595,27.4266872 L20.1413304,27.4850114 C19.4097421,27.7714652 18.4888105,28.0248492 17.4853299,28.1393015 C16.9825954,28.1942671 16.4567703,28.2212008 15.9215807,28.2016949 L15.7343541,28.194913 L15.5228824,28.1780551 L15.0987843,28.1438874 C14.8356152,28.1019689 14.5726385,28.0836901 14.3026705,28.0242033 C13.7613233,27.9308717 13.230367,27.7797972 12.7131367,27.6092167 C12.2000756,27.427979 11.700933,27.2219389 11.238094,26.97876 C11.0043654,26.8610136 10.7783337,26.7372604 10.5642964,26.6030437 C10.3439732,26.4781925 10.1415453,26.3359667 9.94174714,26.1999416 C9.54426748,25.9253076 9.18770956,25.6360119 8.87021331,25.3542085 C8.55624478,25.0691757 8.27524456,24.7964149 8.04594171,24.5363135 C7.80528596,24.2853193 7.62402446,24.0420758 7.46405766,23.849212 C7.30851656,23.6531187 7.20088854,23.4878991 7.12032787,23.3800995 C7.04181971,23.2706205 7,23.2122964 7,23.2122964 C7,23.2122964 7.03579049,23.2745605 7.10256091,23.391338 C7.17176868,23.50663 7.26284842,23.6832819 7.39863419,23.8955871 C7.53871739,24.1045983 7.69688825,24.3688979 7.91355539,24.6466968 C8.11886964,24.9336027 8.37517571,25.2390457 8.66618187,25.5630905 C8.96077991,25.8838413 9.29655626,26.2184787 9.67800075,26.544332 C9.86978132,26.7059346 10.0654103,26.8751587 10.2805381,27.0283 C10.4893801,27.1908714 10.7116916,27.3442066 10.9434959,27.4926329 C11.402743,27.7970425 11.9055417,28.0685762 12.4314951,28.317116 C12.9614252,28.5550632 13.5142535,28.7751191 14.0869013,28.936205 C14.3679657,29.028697 14.6726979,29.085471 14.965949,29.1604592 L15.3854289,29.2380311 L15.5940785,29.2764617 L15.8271015,29.3100482 C16.4113587,29.3916891 16.9943973,29.4225628 17.5599255,29.4188812 C18.6946379,29.4055112 19.7426962,29.2338327 20.6379715,28.9859388 L20.7912036,28.9431161 L20.866633,28.9220599 L20.9718878,28.8882797 C21.0695099,28.8565663 21.1648229,28.8255634 21.2578269,28.7954002 C21.3507667,28.7651724 21.4412691,28.7357196 21.5293343,28.7071066 C21.6306124,28.6678362 21.72894,28.6295993 21.824253,28.5925896 C21.9055192,28.5610054 21.9841557,28.5304547 22.0599699,28.5010019 C22.0980053,28.4862755 22.1352711,28.4717429 22.1718312,28.4575333 L22.199091,28.4469406 L22.2058258,28.4442925 L22.277535,28.4086391 L22.2905556,28.4022448 L22.3418681,28.3771841 C22.4773973,28.3108509 22.6019585,28.2499431 22.7143971,28.1949776 C22.9077812,28.1003542 23.0629374,28.0243971 23.17993,27.9672355 C23.4962075,28.2720327 23.8221704,28.5677227 24.1605123,28.8504949 C24.1605123,28.8504949 25.771854,30.5213569 26.6593682,29.8341908 C27.4938382,29.1880389 26.5325622,27.1627105 26.5325622,27.1627105 C25.2494283,23.4750459 22.8423577,20.2631464 19.6332081,18" id="Fill-3" fill="#FEFEFE"></path>
                <path d="M14.5613597,15.4751642 L14.5519979,15.4641047 C12.7917088,14.9483127 10.9771722,14.7016987 9.16744478,14.7132666 C9.19700522,14.1855889 9.28741786,13.5737572 9.47459124,12.9450185 C9.58161158,12.5913689 9.71434502,12.2297106 9.8815122,11.8744084 L9.93787582,11.7530718 L10.0115525,11.6130484 L10.1596112,11.3324931 C10.2631689,11.1681261 10.3494136,10.9977209 10.4680401,10.8317649 C10.6875312,10.4922257 10.9435079,10.1759495 11.2091672,9.87391087 C11.4808539,9.5778469 11.7658781,9.29780012 12.065907,9.0529022 C12.3611908,8.80171181 12.6707098,8.58560671 12.9740089,8.39429015 C13.277308,8.20240154 13.5790041,8.04242021 13.864413,7.9069096 C14.1509762,7.77476769 14.4199057,7.66131252 14.665174,7.5796375 C14.9075568,7.48747504 15.1273685,7.43376657 15.3065907,7.37999453 C15.6686259,7.28923039 15.8797811,7.2464543 15.8797811,7.2464543 C15.8797811,7.2464543 15.6661893,7.26037401 15.2911372,7.3021967 C15.1052462,7.33156157 14.8759444,7.35596873 14.6188776,7.41565187 C14.3591176,7.46484756 14.0706308,7.54277252 13.7579698,7.63862148 C13.446463,7.73783914 13.1121928,7.86076481 12.7689454,8.01763168 C12.4258262,8.17405363 12.0691131,8.35723448 11.71971,8.58058545 C11.3655618,8.79758039 11.0197495,9.05474545 10.6818243,9.33542783 C10.3498625,9.62214844 10.0223892,9.93054312 9.72870844,10.2713536 C9.57564819,10.434068 9.43759259,10.6268464 9.29177818,10.8053238 L9.10620786,11.0642686 L9.01412805,11.1931053 L8.91473827,11.3451416 C8.67132952,11.7199569 8.46293161,12.1104079 8.28390178,12.5002234 C7.92847113,13.2849391 7.70968539,14.058786 7.59246958,14.7580131 L7.58721154,14.7894119 C7.1429072,14.8298363 6.70033417,14.8864685 6.25962068,14.9584824 C6.26000542,14.8873584 6.26026191,14.8123572 6.26058252,14.7288389 C6.26115962,14.6049599 6.26180084,14.4677967 6.26244207,14.3184299 L6.26269856,14.2619248 L6.26269856,14.2475602 L6.26269856,14.2440008 C6.26904668,14.1787243 6.25404203,14.3288538 6.25577334,14.3120739 L6.25641456,14.3049551 L6.25897946,14.2760352 C6.26244207,14.237327 6.2659688,14.1979196 6.26962378,14.1577494 C6.27667725,14.0774727 6.28417957,13.9942723 6.29181014,13.9083387 C6.29572161,13.8653719 6.29950484,13.821706 6.30348043,13.7773409 L6.30950793,13.7103483 L6.31252169,13.6764707 L6.31322704,13.6680172 L6.31367589,13.6637586 C6.3154072,13.6523813 6.29924835,13.7472769 6.30643006,13.7051364 L6.30886671,13.6881022 C6.32220418,13.5974016 6.33586225,13.5040951 6.34996919,13.4083097 C6.36394788,13.3125243 6.37837543,13.21426 6.39312359,13.1137076 L6.39870224,13.0758892 L6.39940759,13.0711222 C6.3854289,13.1337926 6.3960091,13.0858046 6.39312359,13.0985802 L6.39491902,13.0891097 L6.39850987,13.0701688 L6.41293742,12.9940235 L6.44236962,12.839127 C6.58863289,12.0748141 6.8630769,11.1686982 7.29814761,10.2656967 C7.51808756,9.81441841 7.77387194,9.35850023 8.07383668,8.91885348 L8.17874099,8.7650375 L8.30486981,8.59609417 L8.55828167,8.25744477 C8.73288705,8.05818317 8.88767861,7.84659086 9.08075125,7.65069794 C9.44605676,7.24442037 9.85438841,6.87697815 10.2719537,6.53121 C10.6962518,6.19440386 11.1340798,5.88232268 11.5840269,5.62007279 C11.8069806,5.48500711 12.030832,5.35953903 12.2572483,5.24970679 C12.479112,5.12957779 12.7060413,5.03353814 12.9263659,4.93654509 C13.3681054,4.74567344 13.8006112,4.59681517 14.2059932,4.4769404 C14.612273,4.36164198 14.9907236,4.26757271 15.3312137,4.21049554 C15.6699725,4.13905373 15.9708349,4.11356605 16.2179628,4.07962483 C16.4654754,4.05114981 16.6614977,4.04682771 16.7949365,4.03532329 C16.9286317,4.02648841 17,4.02172138 17,4.02172138 C17,4.02172138 16.9286317,4.01930609 16.7949365,4.01460263 C16.6611771,4.01263226 16.4641929,3.99705998 16.2136025,4.00049223 C15.9633967,4.00926356 15.6570839,4.00443297 15.3083861,4.04174288 C14.9580211,4.06475172 14.5652071,4.12087548 14.1381517,4.19657583 C13.7120581,4.27685251 13.2524926,4.38465082 12.776063,4.53535234 C12.5384893,4.61232389 12.2923233,4.68853272 12.0494275,4.78946651 C11.8019791,4.88023065 11.5551077,4.98707555 11.3074027,5.10466214 C10.807889,5.33189029 10.3128638,5.61289047 9.82514858,5.92535301 C9.34403796,6.24677756 8.86606935,6.59661357 8.42702305,6.9939927 C8.20035025,7.18187701 7.99111875,7.408406 7.77271774,7.61586689 L7.48519275,7.92794807 L7.34232797,8.08328949 L7.19074253,8.26163976 C6.81242018,8.71005782 6.47763695,9.18402714 6.18126307,9.66123804 C5.59146493,10.6219523 5.18101723,11.5922642 4.91561448,12.4739729 L4.87040817,12.6250558 L4.8482218,12.6994214 L4.82096977,12.8055671 C4.79596202,12.9040856 4.77153137,13.0003795 4.74767783,13.0942581 C4.72388841,13.1881367 4.70074021,13.2796 4.67816911,13.3685209 C4.65771406,13.4740946 4.63770786,13.576681 4.61847113,13.6760893 C4.60199166,13.7608152 4.5860893,13.8428716 4.57076404,13.9220042 C4.56300522,13.9615387 4.55543877,14.0004376 4.54812882,14.0385738 L4.54255017,14.0670489 L4.54120359,14.074104 L4.53331653,14.1529824 L4.5317776,14.1672199 L4.52575009,14.2234072 C4.50971948,14.3719477 4.49509956,14.5083482 4.48182622,14.6315281 C4.44155733,15.0058984 4.41456179,15.2574701 4.40385334,15.3571963 C3.97538724,15.4725582 3.5499349,15.601395 3.12909937,15.7473931 C3.12909937,15.7473931 0.87750425,16.2690326 1.00523614,17.3712322 C1.12527333,18.4075197 3.34371715,18.6177772 3.34371715,18.6177772 C7.1423301,19.3972174 11.1150996,18.9808973 14.693452,17.4024403 C14.5030725,16.7787864 14.4575455,16.1199201 14.5613597,15.4751642" id="Fill-5" fill="#FEFEFE"></path>
                <g id="Group-9" transform="translate(18.000000, 1.000000)" fill="#FEFEFE">
                    <path d="M11.9244185,12.9722547 C11.8719262,12.4128137 11.7938338,11.8426273 11.6575262,11.2834969 C11.6017723,11.0028137 11.5050954,10.7189627 11.4290338,10.4362298 L11.29568,10.045795 L11.2290954,9.85163354 L11.1471262,9.63927329 C10.9394338,9.10796894 10.6901415,8.60163354 10.4202954,8.12647826 C9.87420308,7.17573292 9.23758769,6.37306211 8.60977231,5.73517391 L8.50195692,5.62610559 L8.44891077,5.57250311 L8.37118769,5.49970807 C8.29888,5.43237888 8.22823385,5.36660248 8.15931077,5.30250311 C8.09038769,5.23834161 8.02331077,5.17591925 7.95808,5.11517391 C7.87764923,5.04834161 7.79955692,4.98343478 7.72398769,4.92057764 C7.65949538,4.86697516 7.59703385,4.8151118 7.53678769,4.76504969 L7.44804923,4.69132298 L7.42644923,4.67331056 L7.42103385,4.66883851 L7.35758769,4.62529814 L7.34614154,4.61728571 L7.30115692,4.58585714 C7.18220308,4.50287578 7.07297231,4.4266646 6.97432615,4.35784472 C6.78798769,4.22784472 6.64091077,4.12523602 6.53598769,4.05200621 C6.64909538,3.59740994 6.74497231,3.13753416 6.82306462,2.67337267 C6.82306462,2.67337267 7.42632615,0.517968944 6.43303385,0.105173913 C5.49924923,-0.282962733 4.29118769,1.49840373 4.29118769,1.49840373 C1.86718769,4.3503913 0.375618462,7.9151118 0.0519261538,11.6949255 C0.668726154,11.8284037 1.24823385,12.1012609 1.74638769,12.4939938 L1.76004923,12.491323 C2.98288,11.2741801 4.01284923,9.89262733 4.83334154,8.39753416 C5.25623385,8.66622981 5.71709538,9.01908696 6.14995692,9.45629193 C6.40158769,9.71262733 6.64817231,9.9945528 6.87358769,10.3028137 L6.95081846,10.407472 L7.03604923,10.5356087 L7.20657231,10.7926894 C7.29888,10.9575963 7.40417231,11.1106398 7.49088,11.289087 C7.67875692,11.6344907 7.83026462,12.0000186 7.96515692,12.3672857 C8.09217231,12.7367267 8.19943385,13.1100186 8.26995692,13.4797081 C8.34798769,13.8484037 8.38958769,14.2126894 8.41315692,14.5600807 C8.43703385,14.9077205 8.43463385,15.2391491 8.41881846,15.5452981 C8.39961846,15.8508261 8.37266462,16.1326894 8.32958769,16.3794596 C8.29660308,16.6287764 8.24146462,16.840764 8.20497231,17.0184037 C8.11586462,17.3687764 8.05537231,17.5684037 8.05537231,17.5684037 C8.05537231,17.5684037 8.14158769,17.380205 8.27814154,17.0416335 C8.33851077,16.8697702 8.42300308,16.6632484 8.49026462,16.4167267 C8.56761846,16.1727516 8.63383385,15.8908882 8.69580308,15.5801429 C8.75451077,15.2687764 8.80331077,14.9269752 8.82749538,14.5616957 C8.85198769,14.1966646 8.85992615,13.8076584 8.83044923,13.4059814 C8.80848,13.0033727 8.74854154,12.5889006 8.66497231,12.1702671 C8.57364923,11.7538696 8.46164923,11.3311988 8.30663385,10.9220683 C8.23863385,10.7158571 8.13801846,10.5082174 8.05328,10.300764 L7.91820308,10.0219441 L7.85094154,9.88337267 L7.76731077,9.72778261 C7.56029538,9.34554658 7.32398769,8.98579503 7.07481846,8.65126087 C6.58128,7.99629193 6.03678769,7.45945963 5.50694154,7.03691304 C5.68891077,6.62716149 5.85586462,6.21063975 6.00718769,5.78784472 C6.02995692,5.80045342 6.05118769,5.81225466 6.07506462,5.82554658 C6.18017231,5.88393168 6.29654154,5.94852795 6.42318769,6.01883851 L6.47118769,6.04548447 L6.48337231,6.05225466 L6.48644923,6.05393168 C6.53894154,6.0898323 6.41820308,6.00691304 6.43168,6.0161677 L6.43752615,6.02008075 L6.46084923,6.03579503 L6.55654154,6.10001863 C6.62152615,6.14368323 6.68891077,6.18883851 6.75838769,6.23554658 L6.86441846,6.30672671 L6.91863385,6.34306211 L6.94601846,6.36150932 L6.95291077,6.36610559 L6.95641846,6.36846584 C6.96521846,6.37523602 6.89198769,6.31716149 6.92448,6.34293789 L6.93783385,6.353 C7.00884923,6.40672671 7.08195692,6.4619441 7.15684923,6.51865217 C7.23192615,6.57542236 7.30884923,6.63355901 7.38761846,6.69312422 L7.41715692,6.71548447 L7.42091077,6.71834161 C7.37408,6.6772236 7.41001846,6.70865217 7.40041846,6.70020497 L7.40768,6.7061677 L7.42214154,6.71803106 L7.48023385,6.76591925 L7.59851077,6.86331056 C8.18121846,7.34498758 8.82564923,8.00188199 9.39377231,8.7940559 C9.67648,9.19213043 9.94675692,9.62281366 10.1829415,10.0834348 L10.2655877,10.2444907 L10.3513108,10.430764 L10.5230031,10.8046149 C10.6122338,11.046354 10.7210954,11.2768509 10.7990031,11.5326273 C10.9768492,12.0332484 11.1018338,12.5523789 11.2041723,13.0692112 C11.2957415,13.5875963 11.3601108,14.1059193 11.3766031,14.6111988 C11.3891569,14.8639938 11.3930338,15.1130621 11.3825723,15.3570373 C11.3828185,15.6018199 11.3602954,15.8398323 11.3416492,16.0725652 C11.3011569,16.5375963 11.22928,16.9750497 11.1450954,17.3759814 C11.0566646,17.7754224 10.96288,18.1413851 10.8551262,18.4576584 C10.7604185,18.7792733 10.6440492,19.0470994 10.5594338,19.2731242 C10.4700185,19.4970373 10.38368,19.6658571 10.3322954,19.7847391 C10.2783877,19.9026273 10.2497108,19.9654845 10.2497108,19.9654845 C10.2497108,19.9654845 10.2846031,19.9059814 10.3498954,19.7943665 C10.4129723,19.6815093 10.5166031,19.5212609 10.6287877,19.3064783 C10.7361108,19.0894596 10.8807877,18.8311366 11.0090954,18.5170994 C11.1504492,18.2083416 11.2830031,17.8479068 11.4146338,17.4492733 C11.5418954,17.0492733 11.6612185,16.6079689 11.75168,16.1322547 C11.7954338,15.894118 11.8435569,15.649087 11.8692185,15.3953602 C11.9056492,15.1423789 11.9281108,14.882441 11.9418338,14.6167888 C11.9778954,14.0856708 11.9662031,13.5332484 11.9244185,12.9722547" id="Fill-7"></path>
                </g>
            </g>
        </g>
    </g>
</svg>